G04 #@! TF.GenerationSoftware,KiCad,Pcbnew,(5.1.4)-1*
G04 #@! TF.CreationDate,2019-11-16T14:40:23-08:00*
G04 #@! TF.ProjectId,controller,636f6e74-726f-46c6-9c65-722e6b696361,rev?*
G04 #@! TF.SameCoordinates,Original*
G04 #@! TF.FileFunction,Copper,L1,Top*
G04 #@! TF.FilePolarity,Positive*
%FSLAX46Y46*%
G04 Gerber Fmt 4.6, Leading zero omitted, Abs format (unit mm)*
G04 Created by KiCad (PCBNEW (5.1.4)-1) date 2019-11-16 14:40:23*
%MOMM*%
%LPD*%
G04 APERTURE LIST*
%ADD10R,0.550000X1.500000*%
%ADD11R,1.500000X0.550000*%
%ADD12R,1.400000X1.200000*%
%ADD13O,1.000000X1.600000*%
%ADD14O,1.000000X2.100000*%
%ADD15R,0.300000X2.450000*%
%ADD16R,0.600000X2.450000*%
%ADD17R,0.700000X1.000000*%
%ADD18R,0.700000X0.600000*%
%ADD19R,1.100000X1.800000*%
%ADD20C,0.100000*%
%ADD21C,0.975000*%
%ADD22O,1.700000X1.700000*%
%ADD23R,1.700000X1.700000*%
%ADD24C,1.250000*%
%ADD25C,0.800000*%
%ADD26C,0.381000*%
%ADD27C,0.254000*%
G04 APERTURE END LIST*
D10*
X62578474Y-86274481D03*
X63378474Y-86274481D03*
X64178474Y-86274481D03*
X64978474Y-86274481D03*
X65778474Y-86274481D03*
X66578474Y-86274481D03*
X67378474Y-86274481D03*
X68178474Y-86274481D03*
X68978474Y-86274481D03*
X69778474Y-86274481D03*
X70578474Y-86274481D03*
X71378474Y-86274481D03*
X72178474Y-86274481D03*
X72978474Y-86274481D03*
X73778474Y-86274481D03*
X74578474Y-86274481D03*
D11*
X76278474Y-87974481D03*
X76278474Y-88774481D03*
X76278474Y-89574481D03*
X76278474Y-90374481D03*
X76278474Y-91174481D03*
X76278474Y-91974481D03*
X76278474Y-92774481D03*
X76278474Y-93574481D03*
X76278474Y-94374481D03*
X76278474Y-95174481D03*
X76278474Y-95974481D03*
X76278474Y-96774481D03*
X76278474Y-97574481D03*
X76278474Y-98374481D03*
X76278474Y-99174481D03*
X76278474Y-99974481D03*
D10*
X74578474Y-101674481D03*
X73778474Y-101674481D03*
X72978474Y-101674481D03*
X72178474Y-101674481D03*
X71378474Y-101674481D03*
X70578474Y-101674481D03*
X69778474Y-101674481D03*
X68978474Y-101674481D03*
X68178474Y-101674481D03*
X67378474Y-101674481D03*
X66578474Y-101674481D03*
X65778474Y-101674481D03*
X64978474Y-101674481D03*
X64178474Y-101674481D03*
X63378474Y-101674481D03*
X62578474Y-101674481D03*
D11*
X60878474Y-99974481D03*
X60878474Y-99174481D03*
X60878474Y-98374481D03*
X60878474Y-97574481D03*
X60878474Y-96774481D03*
X60878474Y-95974481D03*
X60878474Y-95174481D03*
X60878474Y-94374481D03*
X60878474Y-93574481D03*
X60878474Y-92774481D03*
X60878474Y-91974481D03*
X60878474Y-91174481D03*
X60878474Y-90374481D03*
X60878474Y-89574481D03*
X60878474Y-88774481D03*
X60878474Y-87974481D03*
D12*
X69693470Y-107248201D03*
X67493470Y-107248201D03*
X67493470Y-105548201D03*
X69693470Y-105548201D03*
D13*
X120207500Y-108747250D03*
X111567500Y-108747250D03*
D14*
X120207500Y-104567250D03*
X111567500Y-104567250D03*
D15*
X115637500Y-103152250D03*
X116137500Y-103152250D03*
X116637500Y-103152250D03*
X115137500Y-103152250D03*
X117137500Y-103152250D03*
X114637500Y-103152250D03*
X117637500Y-103152250D03*
X114137500Y-103152250D03*
D16*
X113437500Y-103152250D03*
X118337500Y-103152250D03*
X112662500Y-103152250D03*
X119112500Y-103152250D03*
D17*
X114871750Y-89359000D03*
D18*
X116871750Y-89159000D03*
X114871750Y-91059000D03*
X116871750Y-91059000D03*
D19*
X47887500Y-89768750D03*
X44187500Y-95968750D03*
X44187500Y-89768750D03*
X47887500Y-95968750D03*
D20*
G36*
X54074142Y-102921674D02*
G01*
X54097803Y-102925184D01*
X54121007Y-102930996D01*
X54143529Y-102939054D01*
X54165153Y-102949282D01*
X54185670Y-102961579D01*
X54204883Y-102975829D01*
X54222607Y-102991893D01*
X54238671Y-103009617D01*
X54252921Y-103028830D01*
X54265218Y-103049347D01*
X54275446Y-103070971D01*
X54283504Y-103093493D01*
X54289316Y-103116697D01*
X54292826Y-103140358D01*
X54294000Y-103164250D01*
X54294000Y-103651750D01*
X54292826Y-103675642D01*
X54289316Y-103699303D01*
X54283504Y-103722507D01*
X54275446Y-103745029D01*
X54265218Y-103766653D01*
X54252921Y-103787170D01*
X54238671Y-103806383D01*
X54222607Y-103824107D01*
X54204883Y-103840171D01*
X54185670Y-103854421D01*
X54165153Y-103866718D01*
X54143529Y-103876946D01*
X54121007Y-103885004D01*
X54097803Y-103890816D01*
X54074142Y-103894326D01*
X54050250Y-103895500D01*
X53137750Y-103895500D01*
X53113858Y-103894326D01*
X53090197Y-103890816D01*
X53066993Y-103885004D01*
X53044471Y-103876946D01*
X53022847Y-103866718D01*
X53002330Y-103854421D01*
X52983117Y-103840171D01*
X52965393Y-103824107D01*
X52949329Y-103806383D01*
X52935079Y-103787170D01*
X52922782Y-103766653D01*
X52912554Y-103745029D01*
X52904496Y-103722507D01*
X52898684Y-103699303D01*
X52895174Y-103675642D01*
X52894000Y-103651750D01*
X52894000Y-103164250D01*
X52895174Y-103140358D01*
X52898684Y-103116697D01*
X52904496Y-103093493D01*
X52912554Y-103070971D01*
X52922782Y-103049347D01*
X52935079Y-103028830D01*
X52949329Y-103009617D01*
X52965393Y-102991893D01*
X52983117Y-102975829D01*
X53002330Y-102961579D01*
X53022847Y-102949282D01*
X53044471Y-102939054D01*
X53066993Y-102930996D01*
X53090197Y-102925184D01*
X53113858Y-102921674D01*
X53137750Y-102920500D01*
X54050250Y-102920500D01*
X54074142Y-102921674D01*
X54074142Y-102921674D01*
G37*
D21*
X53594000Y-103408000D03*
D20*
G36*
X54074142Y-104796674D02*
G01*
X54097803Y-104800184D01*
X54121007Y-104805996D01*
X54143529Y-104814054D01*
X54165153Y-104824282D01*
X54185670Y-104836579D01*
X54204883Y-104850829D01*
X54222607Y-104866893D01*
X54238671Y-104884617D01*
X54252921Y-104903830D01*
X54265218Y-104924347D01*
X54275446Y-104945971D01*
X54283504Y-104968493D01*
X54289316Y-104991697D01*
X54292826Y-105015358D01*
X54294000Y-105039250D01*
X54294000Y-105526750D01*
X54292826Y-105550642D01*
X54289316Y-105574303D01*
X54283504Y-105597507D01*
X54275446Y-105620029D01*
X54265218Y-105641653D01*
X54252921Y-105662170D01*
X54238671Y-105681383D01*
X54222607Y-105699107D01*
X54204883Y-105715171D01*
X54185670Y-105729421D01*
X54165153Y-105741718D01*
X54143529Y-105751946D01*
X54121007Y-105760004D01*
X54097803Y-105765816D01*
X54074142Y-105769326D01*
X54050250Y-105770500D01*
X53137750Y-105770500D01*
X53113858Y-105769326D01*
X53090197Y-105765816D01*
X53066993Y-105760004D01*
X53044471Y-105751946D01*
X53022847Y-105741718D01*
X53002330Y-105729421D01*
X52983117Y-105715171D01*
X52965393Y-105699107D01*
X52949329Y-105681383D01*
X52935079Y-105662170D01*
X52922782Y-105641653D01*
X52912554Y-105620029D01*
X52904496Y-105597507D01*
X52898684Y-105574303D01*
X52895174Y-105550642D01*
X52894000Y-105526750D01*
X52894000Y-105039250D01*
X52895174Y-105015358D01*
X52898684Y-104991697D01*
X52904496Y-104968493D01*
X52912554Y-104945971D01*
X52922782Y-104924347D01*
X52935079Y-104903830D01*
X52949329Y-104884617D01*
X52965393Y-104866893D01*
X52983117Y-104850829D01*
X53002330Y-104836579D01*
X53022847Y-104824282D01*
X53044471Y-104814054D01*
X53066993Y-104805996D01*
X53090197Y-104800184D01*
X53113858Y-104796674D01*
X53137750Y-104795500D01*
X54050250Y-104795500D01*
X54074142Y-104796674D01*
X54074142Y-104796674D01*
G37*
D21*
X53594000Y-105283000D03*
D20*
G36*
X81506142Y-88443674D02*
G01*
X81529803Y-88447184D01*
X81553007Y-88452996D01*
X81575529Y-88461054D01*
X81597153Y-88471282D01*
X81617670Y-88483579D01*
X81636883Y-88497829D01*
X81654607Y-88513893D01*
X81670671Y-88531617D01*
X81684921Y-88550830D01*
X81697218Y-88571347D01*
X81707446Y-88592971D01*
X81715504Y-88615493D01*
X81721316Y-88638697D01*
X81724826Y-88662358D01*
X81726000Y-88686250D01*
X81726000Y-89173750D01*
X81724826Y-89197642D01*
X81721316Y-89221303D01*
X81715504Y-89244507D01*
X81707446Y-89267029D01*
X81697218Y-89288653D01*
X81684921Y-89309170D01*
X81670671Y-89328383D01*
X81654607Y-89346107D01*
X81636883Y-89362171D01*
X81617670Y-89376421D01*
X81597153Y-89388718D01*
X81575529Y-89398946D01*
X81553007Y-89407004D01*
X81529803Y-89412816D01*
X81506142Y-89416326D01*
X81482250Y-89417500D01*
X80569750Y-89417500D01*
X80545858Y-89416326D01*
X80522197Y-89412816D01*
X80498993Y-89407004D01*
X80476471Y-89398946D01*
X80454847Y-89388718D01*
X80434330Y-89376421D01*
X80415117Y-89362171D01*
X80397393Y-89346107D01*
X80381329Y-89328383D01*
X80367079Y-89309170D01*
X80354782Y-89288653D01*
X80344554Y-89267029D01*
X80336496Y-89244507D01*
X80330684Y-89221303D01*
X80327174Y-89197642D01*
X80326000Y-89173750D01*
X80326000Y-88686250D01*
X80327174Y-88662358D01*
X80330684Y-88638697D01*
X80336496Y-88615493D01*
X80344554Y-88592971D01*
X80354782Y-88571347D01*
X80367079Y-88550830D01*
X80381329Y-88531617D01*
X80397393Y-88513893D01*
X80415117Y-88497829D01*
X80434330Y-88483579D01*
X80454847Y-88471282D01*
X80476471Y-88461054D01*
X80498993Y-88452996D01*
X80522197Y-88447184D01*
X80545858Y-88443674D01*
X80569750Y-88442500D01*
X81482250Y-88442500D01*
X81506142Y-88443674D01*
X81506142Y-88443674D01*
G37*
D21*
X81026000Y-88930000D03*
D20*
G36*
X81506142Y-90318674D02*
G01*
X81529803Y-90322184D01*
X81553007Y-90327996D01*
X81575529Y-90336054D01*
X81597153Y-90346282D01*
X81617670Y-90358579D01*
X81636883Y-90372829D01*
X81654607Y-90388893D01*
X81670671Y-90406617D01*
X81684921Y-90425830D01*
X81697218Y-90446347D01*
X81707446Y-90467971D01*
X81715504Y-90490493D01*
X81721316Y-90513697D01*
X81724826Y-90537358D01*
X81726000Y-90561250D01*
X81726000Y-91048750D01*
X81724826Y-91072642D01*
X81721316Y-91096303D01*
X81715504Y-91119507D01*
X81707446Y-91142029D01*
X81697218Y-91163653D01*
X81684921Y-91184170D01*
X81670671Y-91203383D01*
X81654607Y-91221107D01*
X81636883Y-91237171D01*
X81617670Y-91251421D01*
X81597153Y-91263718D01*
X81575529Y-91273946D01*
X81553007Y-91282004D01*
X81529803Y-91287816D01*
X81506142Y-91291326D01*
X81482250Y-91292500D01*
X80569750Y-91292500D01*
X80545858Y-91291326D01*
X80522197Y-91287816D01*
X80498993Y-91282004D01*
X80476471Y-91273946D01*
X80454847Y-91263718D01*
X80434330Y-91251421D01*
X80415117Y-91237171D01*
X80397393Y-91221107D01*
X80381329Y-91203383D01*
X80367079Y-91184170D01*
X80354782Y-91163653D01*
X80344554Y-91142029D01*
X80336496Y-91119507D01*
X80330684Y-91096303D01*
X80327174Y-91072642D01*
X80326000Y-91048750D01*
X80326000Y-90561250D01*
X80327174Y-90537358D01*
X80330684Y-90513697D01*
X80336496Y-90490493D01*
X80344554Y-90467971D01*
X80354782Y-90446347D01*
X80367079Y-90425830D01*
X80381329Y-90406617D01*
X80397393Y-90388893D01*
X80415117Y-90372829D01*
X80434330Y-90358579D01*
X80454847Y-90346282D01*
X80476471Y-90336054D01*
X80498993Y-90327996D01*
X80522197Y-90322184D01*
X80545858Y-90318674D01*
X80569750Y-90317500D01*
X81482250Y-90317500D01*
X81506142Y-90318674D01*
X81506142Y-90318674D01*
G37*
D21*
X81026000Y-90805000D03*
D20*
G36*
X108326409Y-93757424D02*
G01*
X108350070Y-93760934D01*
X108373274Y-93766746D01*
X108395796Y-93774804D01*
X108417420Y-93785032D01*
X108437937Y-93797329D01*
X108457150Y-93811579D01*
X108474874Y-93827643D01*
X108490938Y-93845367D01*
X108505188Y-93864580D01*
X108517485Y-93885097D01*
X108527713Y-93906721D01*
X108535771Y-93929243D01*
X108541583Y-93952447D01*
X108545093Y-93976108D01*
X108546267Y-94000000D01*
X108546267Y-94912500D01*
X108545093Y-94936392D01*
X108541583Y-94960053D01*
X108535771Y-94983257D01*
X108527713Y-95005779D01*
X108517485Y-95027403D01*
X108505188Y-95047920D01*
X108490938Y-95067133D01*
X108474874Y-95084857D01*
X108457150Y-95100921D01*
X108437937Y-95115171D01*
X108417420Y-95127468D01*
X108395796Y-95137696D01*
X108373274Y-95145754D01*
X108350070Y-95151566D01*
X108326409Y-95155076D01*
X108302517Y-95156250D01*
X107815017Y-95156250D01*
X107791125Y-95155076D01*
X107767464Y-95151566D01*
X107744260Y-95145754D01*
X107721738Y-95137696D01*
X107700114Y-95127468D01*
X107679597Y-95115171D01*
X107660384Y-95100921D01*
X107642660Y-95084857D01*
X107626596Y-95067133D01*
X107612346Y-95047920D01*
X107600049Y-95027403D01*
X107589821Y-95005779D01*
X107581763Y-94983257D01*
X107575951Y-94960053D01*
X107572441Y-94936392D01*
X107571267Y-94912500D01*
X107571267Y-94000000D01*
X107572441Y-93976108D01*
X107575951Y-93952447D01*
X107581763Y-93929243D01*
X107589821Y-93906721D01*
X107600049Y-93885097D01*
X107612346Y-93864580D01*
X107626596Y-93845367D01*
X107642660Y-93827643D01*
X107660384Y-93811579D01*
X107679597Y-93797329D01*
X107700114Y-93785032D01*
X107721738Y-93774804D01*
X107744260Y-93766746D01*
X107767464Y-93760934D01*
X107791125Y-93757424D01*
X107815017Y-93756250D01*
X108302517Y-93756250D01*
X108326409Y-93757424D01*
X108326409Y-93757424D01*
G37*
D21*
X108058767Y-94456250D03*
D20*
G36*
X110201409Y-93757424D02*
G01*
X110225070Y-93760934D01*
X110248274Y-93766746D01*
X110270796Y-93774804D01*
X110292420Y-93785032D01*
X110312937Y-93797329D01*
X110332150Y-93811579D01*
X110349874Y-93827643D01*
X110365938Y-93845367D01*
X110380188Y-93864580D01*
X110392485Y-93885097D01*
X110402713Y-93906721D01*
X110410771Y-93929243D01*
X110416583Y-93952447D01*
X110420093Y-93976108D01*
X110421267Y-94000000D01*
X110421267Y-94912500D01*
X110420093Y-94936392D01*
X110416583Y-94960053D01*
X110410771Y-94983257D01*
X110402713Y-95005779D01*
X110392485Y-95027403D01*
X110380188Y-95047920D01*
X110365938Y-95067133D01*
X110349874Y-95084857D01*
X110332150Y-95100921D01*
X110312937Y-95115171D01*
X110292420Y-95127468D01*
X110270796Y-95137696D01*
X110248274Y-95145754D01*
X110225070Y-95151566D01*
X110201409Y-95155076D01*
X110177517Y-95156250D01*
X109690017Y-95156250D01*
X109666125Y-95155076D01*
X109642464Y-95151566D01*
X109619260Y-95145754D01*
X109596738Y-95137696D01*
X109575114Y-95127468D01*
X109554597Y-95115171D01*
X109535384Y-95100921D01*
X109517660Y-95084857D01*
X109501596Y-95067133D01*
X109487346Y-95047920D01*
X109475049Y-95027403D01*
X109464821Y-95005779D01*
X109456763Y-94983257D01*
X109450951Y-94960053D01*
X109447441Y-94936392D01*
X109446267Y-94912500D01*
X109446267Y-94000000D01*
X109447441Y-93976108D01*
X109450951Y-93952447D01*
X109456763Y-93929243D01*
X109464821Y-93906721D01*
X109475049Y-93885097D01*
X109487346Y-93864580D01*
X109501596Y-93845367D01*
X109517660Y-93827643D01*
X109535384Y-93811579D01*
X109554597Y-93797329D01*
X109575114Y-93785032D01*
X109596738Y-93774804D01*
X109619260Y-93766746D01*
X109642464Y-93760934D01*
X109666125Y-93757424D01*
X109690017Y-93756250D01*
X110177517Y-93756250D01*
X110201409Y-93757424D01*
X110201409Y-93757424D01*
G37*
D21*
X109933767Y-94456250D03*
D20*
G36*
X110186409Y-90360174D02*
G01*
X110210070Y-90363684D01*
X110233274Y-90369496D01*
X110255796Y-90377554D01*
X110277420Y-90387782D01*
X110297937Y-90400079D01*
X110317150Y-90414329D01*
X110334874Y-90430393D01*
X110350938Y-90448117D01*
X110365188Y-90467330D01*
X110377485Y-90487847D01*
X110387713Y-90509471D01*
X110395771Y-90531993D01*
X110401583Y-90555197D01*
X110405093Y-90578858D01*
X110406267Y-90602750D01*
X110406267Y-91515250D01*
X110405093Y-91539142D01*
X110401583Y-91562803D01*
X110395771Y-91586007D01*
X110387713Y-91608529D01*
X110377485Y-91630153D01*
X110365188Y-91650670D01*
X110350938Y-91669883D01*
X110334874Y-91687607D01*
X110317150Y-91703671D01*
X110297937Y-91717921D01*
X110277420Y-91730218D01*
X110255796Y-91740446D01*
X110233274Y-91748504D01*
X110210070Y-91754316D01*
X110186409Y-91757826D01*
X110162517Y-91759000D01*
X109675017Y-91759000D01*
X109651125Y-91757826D01*
X109627464Y-91754316D01*
X109604260Y-91748504D01*
X109581738Y-91740446D01*
X109560114Y-91730218D01*
X109539597Y-91717921D01*
X109520384Y-91703671D01*
X109502660Y-91687607D01*
X109486596Y-91669883D01*
X109472346Y-91650670D01*
X109460049Y-91630153D01*
X109449821Y-91608529D01*
X109441763Y-91586007D01*
X109435951Y-91562803D01*
X109432441Y-91539142D01*
X109431267Y-91515250D01*
X109431267Y-90602750D01*
X109432441Y-90578858D01*
X109435951Y-90555197D01*
X109441763Y-90531993D01*
X109449821Y-90509471D01*
X109460049Y-90487847D01*
X109472346Y-90467330D01*
X109486596Y-90448117D01*
X109502660Y-90430393D01*
X109520384Y-90414329D01*
X109539597Y-90400079D01*
X109560114Y-90387782D01*
X109581738Y-90377554D01*
X109604260Y-90369496D01*
X109627464Y-90363684D01*
X109651125Y-90360174D01*
X109675017Y-90359000D01*
X110162517Y-90359000D01*
X110186409Y-90360174D01*
X110186409Y-90360174D01*
G37*
D21*
X109918767Y-91059000D03*
D20*
G36*
X108311409Y-90360174D02*
G01*
X108335070Y-90363684D01*
X108358274Y-90369496D01*
X108380796Y-90377554D01*
X108402420Y-90387782D01*
X108422937Y-90400079D01*
X108442150Y-90414329D01*
X108459874Y-90430393D01*
X108475938Y-90448117D01*
X108490188Y-90467330D01*
X108502485Y-90487847D01*
X108512713Y-90509471D01*
X108520771Y-90531993D01*
X108526583Y-90555197D01*
X108530093Y-90578858D01*
X108531267Y-90602750D01*
X108531267Y-91515250D01*
X108530093Y-91539142D01*
X108526583Y-91562803D01*
X108520771Y-91586007D01*
X108512713Y-91608529D01*
X108502485Y-91630153D01*
X108490188Y-91650670D01*
X108475938Y-91669883D01*
X108459874Y-91687607D01*
X108442150Y-91703671D01*
X108422937Y-91717921D01*
X108402420Y-91730218D01*
X108380796Y-91740446D01*
X108358274Y-91748504D01*
X108335070Y-91754316D01*
X108311409Y-91757826D01*
X108287517Y-91759000D01*
X107800017Y-91759000D01*
X107776125Y-91757826D01*
X107752464Y-91754316D01*
X107729260Y-91748504D01*
X107706738Y-91740446D01*
X107685114Y-91730218D01*
X107664597Y-91717921D01*
X107645384Y-91703671D01*
X107627660Y-91687607D01*
X107611596Y-91669883D01*
X107597346Y-91650670D01*
X107585049Y-91630153D01*
X107574821Y-91608529D01*
X107566763Y-91586007D01*
X107560951Y-91562803D01*
X107557441Y-91539142D01*
X107556267Y-91515250D01*
X107556267Y-90602750D01*
X107557441Y-90578858D01*
X107560951Y-90555197D01*
X107566763Y-90531993D01*
X107574821Y-90509471D01*
X107585049Y-90487847D01*
X107597346Y-90467330D01*
X107611596Y-90448117D01*
X107627660Y-90430393D01*
X107645384Y-90414329D01*
X107664597Y-90400079D01*
X107685114Y-90387782D01*
X107706738Y-90377554D01*
X107729260Y-90369496D01*
X107752464Y-90363684D01*
X107776125Y-90360174D01*
X107800017Y-90359000D01*
X108287517Y-90359000D01*
X108311409Y-90360174D01*
X108311409Y-90360174D01*
G37*
D21*
X108043767Y-91059000D03*
D20*
G36*
X118343000Y-94542748D02*
G01*
X118366661Y-94546258D01*
X118389865Y-94552070D01*
X118412387Y-94560128D01*
X118434011Y-94570356D01*
X118454528Y-94582653D01*
X118473741Y-94596903D01*
X118491465Y-94612967D01*
X118507529Y-94630691D01*
X118521779Y-94649904D01*
X118534076Y-94670421D01*
X118544304Y-94692045D01*
X118552362Y-94714567D01*
X118558174Y-94737771D01*
X118561684Y-94761432D01*
X118562858Y-94785324D01*
X118562858Y-95272824D01*
X118561684Y-95296716D01*
X118558174Y-95320377D01*
X118552362Y-95343581D01*
X118544304Y-95366103D01*
X118534076Y-95387727D01*
X118521779Y-95408244D01*
X118507529Y-95427457D01*
X118491465Y-95445181D01*
X118473741Y-95461245D01*
X118454528Y-95475495D01*
X118434011Y-95487792D01*
X118412387Y-95498020D01*
X118389865Y-95506078D01*
X118366661Y-95511890D01*
X118343000Y-95515400D01*
X118319108Y-95516574D01*
X117406608Y-95516574D01*
X117382716Y-95515400D01*
X117359055Y-95511890D01*
X117335851Y-95506078D01*
X117313329Y-95498020D01*
X117291705Y-95487792D01*
X117271188Y-95475495D01*
X117251975Y-95461245D01*
X117234251Y-95445181D01*
X117218187Y-95427457D01*
X117203937Y-95408244D01*
X117191640Y-95387727D01*
X117181412Y-95366103D01*
X117173354Y-95343581D01*
X117167542Y-95320377D01*
X117164032Y-95296716D01*
X117162858Y-95272824D01*
X117162858Y-94785324D01*
X117164032Y-94761432D01*
X117167542Y-94737771D01*
X117173354Y-94714567D01*
X117181412Y-94692045D01*
X117191640Y-94670421D01*
X117203937Y-94649904D01*
X117218187Y-94630691D01*
X117234251Y-94612967D01*
X117251975Y-94596903D01*
X117271188Y-94582653D01*
X117291705Y-94570356D01*
X117313329Y-94560128D01*
X117335851Y-94552070D01*
X117359055Y-94546258D01*
X117382716Y-94542748D01*
X117406608Y-94541574D01*
X118319108Y-94541574D01*
X118343000Y-94542748D01*
X118343000Y-94542748D01*
G37*
D21*
X117862858Y-95029074D03*
D20*
G36*
X118343000Y-96417748D02*
G01*
X118366661Y-96421258D01*
X118389865Y-96427070D01*
X118412387Y-96435128D01*
X118434011Y-96445356D01*
X118454528Y-96457653D01*
X118473741Y-96471903D01*
X118491465Y-96487967D01*
X118507529Y-96505691D01*
X118521779Y-96524904D01*
X118534076Y-96545421D01*
X118544304Y-96567045D01*
X118552362Y-96589567D01*
X118558174Y-96612771D01*
X118561684Y-96636432D01*
X118562858Y-96660324D01*
X118562858Y-97147824D01*
X118561684Y-97171716D01*
X118558174Y-97195377D01*
X118552362Y-97218581D01*
X118544304Y-97241103D01*
X118534076Y-97262727D01*
X118521779Y-97283244D01*
X118507529Y-97302457D01*
X118491465Y-97320181D01*
X118473741Y-97336245D01*
X118454528Y-97350495D01*
X118434011Y-97362792D01*
X118412387Y-97373020D01*
X118389865Y-97381078D01*
X118366661Y-97386890D01*
X118343000Y-97390400D01*
X118319108Y-97391574D01*
X117406608Y-97391574D01*
X117382716Y-97390400D01*
X117359055Y-97386890D01*
X117335851Y-97381078D01*
X117313329Y-97373020D01*
X117291705Y-97362792D01*
X117271188Y-97350495D01*
X117251975Y-97336245D01*
X117234251Y-97320181D01*
X117218187Y-97302457D01*
X117203937Y-97283244D01*
X117191640Y-97262727D01*
X117181412Y-97241103D01*
X117173354Y-97218581D01*
X117167542Y-97195377D01*
X117164032Y-97171716D01*
X117162858Y-97147824D01*
X117162858Y-96660324D01*
X117164032Y-96636432D01*
X117167542Y-96612771D01*
X117173354Y-96589567D01*
X117181412Y-96567045D01*
X117191640Y-96545421D01*
X117203937Y-96524904D01*
X117218187Y-96505691D01*
X117234251Y-96487967D01*
X117251975Y-96471903D01*
X117271188Y-96457653D01*
X117291705Y-96445356D01*
X117313329Y-96435128D01*
X117335851Y-96427070D01*
X117359055Y-96421258D01*
X117382716Y-96417748D01*
X117406608Y-96416574D01*
X118319108Y-96416574D01*
X118343000Y-96417748D01*
X118343000Y-96417748D01*
G37*
D21*
X117862858Y-96904074D03*
D20*
G36*
X114374250Y-94542748D02*
G01*
X114397911Y-94546258D01*
X114421115Y-94552070D01*
X114443637Y-94560128D01*
X114465261Y-94570356D01*
X114485778Y-94582653D01*
X114504991Y-94596903D01*
X114522715Y-94612967D01*
X114538779Y-94630691D01*
X114553029Y-94649904D01*
X114565326Y-94670421D01*
X114575554Y-94692045D01*
X114583612Y-94714567D01*
X114589424Y-94737771D01*
X114592934Y-94761432D01*
X114594108Y-94785324D01*
X114594108Y-95272824D01*
X114592934Y-95296716D01*
X114589424Y-95320377D01*
X114583612Y-95343581D01*
X114575554Y-95366103D01*
X114565326Y-95387727D01*
X114553029Y-95408244D01*
X114538779Y-95427457D01*
X114522715Y-95445181D01*
X114504991Y-95461245D01*
X114485778Y-95475495D01*
X114465261Y-95487792D01*
X114443637Y-95498020D01*
X114421115Y-95506078D01*
X114397911Y-95511890D01*
X114374250Y-95515400D01*
X114350358Y-95516574D01*
X113437858Y-95516574D01*
X113413966Y-95515400D01*
X113390305Y-95511890D01*
X113367101Y-95506078D01*
X113344579Y-95498020D01*
X113322955Y-95487792D01*
X113302438Y-95475495D01*
X113283225Y-95461245D01*
X113265501Y-95445181D01*
X113249437Y-95427457D01*
X113235187Y-95408244D01*
X113222890Y-95387727D01*
X113212662Y-95366103D01*
X113204604Y-95343581D01*
X113198792Y-95320377D01*
X113195282Y-95296716D01*
X113194108Y-95272824D01*
X113194108Y-94785324D01*
X113195282Y-94761432D01*
X113198792Y-94737771D01*
X113204604Y-94714567D01*
X113212662Y-94692045D01*
X113222890Y-94670421D01*
X113235187Y-94649904D01*
X113249437Y-94630691D01*
X113265501Y-94612967D01*
X113283225Y-94596903D01*
X113302438Y-94582653D01*
X113322955Y-94570356D01*
X113344579Y-94560128D01*
X113367101Y-94552070D01*
X113390305Y-94546258D01*
X113413966Y-94542748D01*
X113437858Y-94541574D01*
X114350358Y-94541574D01*
X114374250Y-94542748D01*
X114374250Y-94542748D01*
G37*
D21*
X113894108Y-95029074D03*
D20*
G36*
X114374250Y-96417748D02*
G01*
X114397911Y-96421258D01*
X114421115Y-96427070D01*
X114443637Y-96435128D01*
X114465261Y-96445356D01*
X114485778Y-96457653D01*
X114504991Y-96471903D01*
X114522715Y-96487967D01*
X114538779Y-96505691D01*
X114553029Y-96524904D01*
X114565326Y-96545421D01*
X114575554Y-96567045D01*
X114583612Y-96589567D01*
X114589424Y-96612771D01*
X114592934Y-96636432D01*
X114594108Y-96660324D01*
X114594108Y-97147824D01*
X114592934Y-97171716D01*
X114589424Y-97195377D01*
X114583612Y-97218581D01*
X114575554Y-97241103D01*
X114565326Y-97262727D01*
X114553029Y-97283244D01*
X114538779Y-97302457D01*
X114522715Y-97320181D01*
X114504991Y-97336245D01*
X114485778Y-97350495D01*
X114465261Y-97362792D01*
X114443637Y-97373020D01*
X114421115Y-97381078D01*
X114397911Y-97386890D01*
X114374250Y-97390400D01*
X114350358Y-97391574D01*
X113437858Y-97391574D01*
X113413966Y-97390400D01*
X113390305Y-97386890D01*
X113367101Y-97381078D01*
X113344579Y-97373020D01*
X113322955Y-97362792D01*
X113302438Y-97350495D01*
X113283225Y-97336245D01*
X113265501Y-97320181D01*
X113249437Y-97302457D01*
X113235187Y-97283244D01*
X113222890Y-97262727D01*
X113212662Y-97241103D01*
X113204604Y-97218581D01*
X113198792Y-97195377D01*
X113195282Y-97171716D01*
X113194108Y-97147824D01*
X113194108Y-96660324D01*
X113195282Y-96636432D01*
X113198792Y-96612771D01*
X113204604Y-96589567D01*
X113212662Y-96567045D01*
X113222890Y-96545421D01*
X113235187Y-96524904D01*
X113249437Y-96505691D01*
X113265501Y-96487967D01*
X113283225Y-96471903D01*
X113302438Y-96457653D01*
X113322955Y-96445356D01*
X113344579Y-96435128D01*
X113367101Y-96427070D01*
X113390305Y-96421258D01*
X113413966Y-96417748D01*
X113437858Y-96416574D01*
X114350358Y-96416574D01*
X114374250Y-96417748D01*
X114374250Y-96417748D01*
G37*
D21*
X113894108Y-96904074D03*
D22*
X85090000Y-76993750D03*
X87630000Y-76993750D03*
X90170000Y-76993750D03*
X92710000Y-76993750D03*
X95250000Y-76993750D03*
X97790000Y-76993750D03*
X100330000Y-76993750D03*
X102870000Y-76993750D03*
X105410000Y-76993750D03*
X107950000Y-76993750D03*
X110490000Y-76993750D03*
X113030000Y-76993750D03*
X115570000Y-76993750D03*
X118110000Y-76993750D03*
X120650000Y-76993750D03*
D23*
X123190000Y-76993750D03*
D22*
X137001250Y-76993750D03*
X139541250Y-76993750D03*
X142081250Y-76993750D03*
X144621250Y-76993750D03*
X147161250Y-76993750D03*
X149701250Y-76993750D03*
X152241250Y-76993750D03*
D23*
X154781250Y-76993750D03*
D22*
X154870411Y-99723971D03*
X154870411Y-97183971D03*
X154870411Y-94643971D03*
D23*
X154870411Y-92103971D03*
D20*
G36*
X122911056Y-96818983D02*
G01*
X122935325Y-96822583D01*
X122959123Y-96828544D01*
X122982223Y-96836809D01*
X123004401Y-96847299D01*
X123025445Y-96859912D01*
X123045150Y-96874526D01*
X123063329Y-96891002D01*
X123079805Y-96909181D01*
X123094419Y-96928886D01*
X123107032Y-96949930D01*
X123117522Y-96972108D01*
X123125787Y-96995208D01*
X123131748Y-97019006D01*
X123135348Y-97043275D01*
X123136552Y-97067779D01*
X123136552Y-97817779D01*
X123135348Y-97842283D01*
X123131748Y-97866552D01*
X123125787Y-97890350D01*
X123117522Y-97913450D01*
X123107032Y-97935628D01*
X123094419Y-97956672D01*
X123079805Y-97976377D01*
X123063329Y-97994556D01*
X123045150Y-98011032D01*
X123025445Y-98025646D01*
X123004401Y-98038259D01*
X122982223Y-98048749D01*
X122959123Y-98057014D01*
X122935325Y-98062975D01*
X122911056Y-98066575D01*
X122886552Y-98067779D01*
X121636552Y-98067779D01*
X121612048Y-98066575D01*
X121587779Y-98062975D01*
X121563981Y-98057014D01*
X121540881Y-98048749D01*
X121518703Y-98038259D01*
X121497659Y-98025646D01*
X121477954Y-98011032D01*
X121459775Y-97994556D01*
X121443299Y-97976377D01*
X121428685Y-97956672D01*
X121416072Y-97935628D01*
X121405582Y-97913450D01*
X121397317Y-97890350D01*
X121391356Y-97866552D01*
X121387756Y-97842283D01*
X121386552Y-97817779D01*
X121386552Y-97067779D01*
X121387756Y-97043275D01*
X121391356Y-97019006D01*
X121397317Y-96995208D01*
X121405582Y-96972108D01*
X121416072Y-96949930D01*
X121428685Y-96928886D01*
X121443299Y-96909181D01*
X121459775Y-96891002D01*
X121477954Y-96874526D01*
X121497659Y-96859912D01*
X121518703Y-96847299D01*
X121540881Y-96836809D01*
X121563981Y-96828544D01*
X121587779Y-96822583D01*
X121612048Y-96818983D01*
X121636552Y-96817779D01*
X122886552Y-96817779D01*
X122911056Y-96818983D01*
X122911056Y-96818983D01*
G37*
D24*
X122261552Y-97442779D03*
D20*
G36*
X122911056Y-94018983D02*
G01*
X122935325Y-94022583D01*
X122959123Y-94028544D01*
X122982223Y-94036809D01*
X123004401Y-94047299D01*
X123025445Y-94059912D01*
X123045150Y-94074526D01*
X123063329Y-94091002D01*
X123079805Y-94109181D01*
X123094419Y-94128886D01*
X123107032Y-94149930D01*
X123117522Y-94172108D01*
X123125787Y-94195208D01*
X123131748Y-94219006D01*
X123135348Y-94243275D01*
X123136552Y-94267779D01*
X123136552Y-95017779D01*
X123135348Y-95042283D01*
X123131748Y-95066552D01*
X123125787Y-95090350D01*
X123117522Y-95113450D01*
X123107032Y-95135628D01*
X123094419Y-95156672D01*
X123079805Y-95176377D01*
X123063329Y-95194556D01*
X123045150Y-95211032D01*
X123025445Y-95225646D01*
X123004401Y-95238259D01*
X122982223Y-95248749D01*
X122959123Y-95257014D01*
X122935325Y-95262975D01*
X122911056Y-95266575D01*
X122886552Y-95267779D01*
X121636552Y-95267779D01*
X121612048Y-95266575D01*
X121587779Y-95262975D01*
X121563981Y-95257014D01*
X121540881Y-95248749D01*
X121518703Y-95238259D01*
X121497659Y-95225646D01*
X121477954Y-95211032D01*
X121459775Y-95194556D01*
X121443299Y-95176377D01*
X121428685Y-95156672D01*
X121416072Y-95135628D01*
X121405582Y-95113450D01*
X121397317Y-95090350D01*
X121391356Y-95066552D01*
X121387756Y-95042283D01*
X121386552Y-95017779D01*
X121386552Y-94267779D01*
X121387756Y-94243275D01*
X121391356Y-94219006D01*
X121397317Y-94195208D01*
X121405582Y-94172108D01*
X121416072Y-94149930D01*
X121428685Y-94128886D01*
X121443299Y-94109181D01*
X121459775Y-94091002D01*
X121477954Y-94074526D01*
X121497659Y-94059912D01*
X121518703Y-94047299D01*
X121540881Y-94036809D01*
X121563981Y-94028544D01*
X121587779Y-94022583D01*
X121612048Y-94018983D01*
X121636552Y-94017779D01*
X122886552Y-94017779D01*
X122911056Y-94018983D01*
X122911056Y-94018983D01*
G37*
D24*
X122261552Y-94642779D03*
D20*
G36*
X57884142Y-89254174D02*
G01*
X57907803Y-89257684D01*
X57931007Y-89263496D01*
X57953529Y-89271554D01*
X57975153Y-89281782D01*
X57995670Y-89294079D01*
X58014883Y-89308329D01*
X58032607Y-89324393D01*
X58048671Y-89342117D01*
X58062921Y-89361330D01*
X58075218Y-89381847D01*
X58085446Y-89403471D01*
X58093504Y-89425993D01*
X58099316Y-89449197D01*
X58102826Y-89472858D01*
X58104000Y-89496750D01*
X58104000Y-89984250D01*
X58102826Y-90008142D01*
X58099316Y-90031803D01*
X58093504Y-90055007D01*
X58085446Y-90077529D01*
X58075218Y-90099153D01*
X58062921Y-90119670D01*
X58048671Y-90138883D01*
X58032607Y-90156607D01*
X58014883Y-90172671D01*
X57995670Y-90186921D01*
X57975153Y-90199218D01*
X57953529Y-90209446D01*
X57931007Y-90217504D01*
X57907803Y-90223316D01*
X57884142Y-90226826D01*
X57860250Y-90228000D01*
X56947750Y-90228000D01*
X56923858Y-90226826D01*
X56900197Y-90223316D01*
X56876993Y-90217504D01*
X56854471Y-90209446D01*
X56832847Y-90199218D01*
X56812330Y-90186921D01*
X56793117Y-90172671D01*
X56775393Y-90156607D01*
X56759329Y-90138883D01*
X56745079Y-90119670D01*
X56732782Y-90099153D01*
X56722554Y-90077529D01*
X56714496Y-90055007D01*
X56708684Y-90031803D01*
X56705174Y-90008142D01*
X56704000Y-89984250D01*
X56704000Y-89496750D01*
X56705174Y-89472858D01*
X56708684Y-89449197D01*
X56714496Y-89425993D01*
X56722554Y-89403471D01*
X56732782Y-89381847D01*
X56745079Y-89361330D01*
X56759329Y-89342117D01*
X56775393Y-89324393D01*
X56793117Y-89308329D01*
X56812330Y-89294079D01*
X56832847Y-89281782D01*
X56854471Y-89271554D01*
X56876993Y-89263496D01*
X56900197Y-89257684D01*
X56923858Y-89254174D01*
X56947750Y-89253000D01*
X57860250Y-89253000D01*
X57884142Y-89254174D01*
X57884142Y-89254174D01*
G37*
D21*
X57404000Y-89740500D03*
D20*
G36*
X57884142Y-91129174D02*
G01*
X57907803Y-91132684D01*
X57931007Y-91138496D01*
X57953529Y-91146554D01*
X57975153Y-91156782D01*
X57995670Y-91169079D01*
X58014883Y-91183329D01*
X58032607Y-91199393D01*
X58048671Y-91217117D01*
X58062921Y-91236330D01*
X58075218Y-91256847D01*
X58085446Y-91278471D01*
X58093504Y-91300993D01*
X58099316Y-91324197D01*
X58102826Y-91347858D01*
X58104000Y-91371750D01*
X58104000Y-91859250D01*
X58102826Y-91883142D01*
X58099316Y-91906803D01*
X58093504Y-91930007D01*
X58085446Y-91952529D01*
X58075218Y-91974153D01*
X58062921Y-91994670D01*
X58048671Y-92013883D01*
X58032607Y-92031607D01*
X58014883Y-92047671D01*
X57995670Y-92061921D01*
X57975153Y-92074218D01*
X57953529Y-92084446D01*
X57931007Y-92092504D01*
X57907803Y-92098316D01*
X57884142Y-92101826D01*
X57860250Y-92103000D01*
X56947750Y-92103000D01*
X56923858Y-92101826D01*
X56900197Y-92098316D01*
X56876993Y-92092504D01*
X56854471Y-92084446D01*
X56832847Y-92074218D01*
X56812330Y-92061921D01*
X56793117Y-92047671D01*
X56775393Y-92031607D01*
X56759329Y-92013883D01*
X56745079Y-91994670D01*
X56732782Y-91974153D01*
X56722554Y-91952529D01*
X56714496Y-91930007D01*
X56708684Y-91906803D01*
X56705174Y-91883142D01*
X56704000Y-91859250D01*
X56704000Y-91371750D01*
X56705174Y-91347858D01*
X56708684Y-91324197D01*
X56714496Y-91300993D01*
X56722554Y-91278471D01*
X56732782Y-91256847D01*
X56745079Y-91236330D01*
X56759329Y-91217117D01*
X56775393Y-91199393D01*
X56793117Y-91183329D01*
X56812330Y-91169079D01*
X56832847Y-91156782D01*
X56854471Y-91146554D01*
X56876993Y-91138496D01*
X56900197Y-91132684D01*
X56923858Y-91129174D01*
X56947750Y-91128000D01*
X57860250Y-91128000D01*
X57884142Y-91129174D01*
X57884142Y-91129174D01*
G37*
D21*
X57404000Y-91615500D03*
D20*
G36*
X64750366Y-82004405D02*
G01*
X64774027Y-82007915D01*
X64797231Y-82013727D01*
X64819753Y-82021785D01*
X64841377Y-82032013D01*
X64861894Y-82044310D01*
X64881107Y-82058560D01*
X64898831Y-82074624D01*
X64914895Y-82092348D01*
X64929145Y-82111561D01*
X64941442Y-82132078D01*
X64951670Y-82153702D01*
X64959728Y-82176224D01*
X64965540Y-82199428D01*
X64969050Y-82223089D01*
X64970224Y-82246981D01*
X64970224Y-83159481D01*
X64969050Y-83183373D01*
X64965540Y-83207034D01*
X64959728Y-83230238D01*
X64951670Y-83252760D01*
X64941442Y-83274384D01*
X64929145Y-83294901D01*
X64914895Y-83314114D01*
X64898831Y-83331838D01*
X64881107Y-83347902D01*
X64861894Y-83362152D01*
X64841377Y-83374449D01*
X64819753Y-83384677D01*
X64797231Y-83392735D01*
X64774027Y-83398547D01*
X64750366Y-83402057D01*
X64726474Y-83403231D01*
X64238974Y-83403231D01*
X64215082Y-83402057D01*
X64191421Y-83398547D01*
X64168217Y-83392735D01*
X64145695Y-83384677D01*
X64124071Y-83374449D01*
X64103554Y-83362152D01*
X64084341Y-83347902D01*
X64066617Y-83331838D01*
X64050553Y-83314114D01*
X64036303Y-83294901D01*
X64024006Y-83274384D01*
X64013778Y-83252760D01*
X64005720Y-83230238D01*
X63999908Y-83207034D01*
X63996398Y-83183373D01*
X63995224Y-83159481D01*
X63995224Y-82246981D01*
X63996398Y-82223089D01*
X63999908Y-82199428D01*
X64005720Y-82176224D01*
X64013778Y-82153702D01*
X64024006Y-82132078D01*
X64036303Y-82111561D01*
X64050553Y-82092348D01*
X64066617Y-82074624D01*
X64084341Y-82058560D01*
X64103554Y-82044310D01*
X64124071Y-82032013D01*
X64145695Y-82021785D01*
X64168217Y-82013727D01*
X64191421Y-82007915D01*
X64215082Y-82004405D01*
X64238974Y-82003231D01*
X64726474Y-82003231D01*
X64750366Y-82004405D01*
X64750366Y-82004405D01*
G37*
D21*
X64482724Y-82703231D03*
D20*
G36*
X62875366Y-82004405D02*
G01*
X62899027Y-82007915D01*
X62922231Y-82013727D01*
X62944753Y-82021785D01*
X62966377Y-82032013D01*
X62986894Y-82044310D01*
X63006107Y-82058560D01*
X63023831Y-82074624D01*
X63039895Y-82092348D01*
X63054145Y-82111561D01*
X63066442Y-82132078D01*
X63076670Y-82153702D01*
X63084728Y-82176224D01*
X63090540Y-82199428D01*
X63094050Y-82223089D01*
X63095224Y-82246981D01*
X63095224Y-83159481D01*
X63094050Y-83183373D01*
X63090540Y-83207034D01*
X63084728Y-83230238D01*
X63076670Y-83252760D01*
X63066442Y-83274384D01*
X63054145Y-83294901D01*
X63039895Y-83314114D01*
X63023831Y-83331838D01*
X63006107Y-83347902D01*
X62986894Y-83362152D01*
X62966377Y-83374449D01*
X62944753Y-83384677D01*
X62922231Y-83392735D01*
X62899027Y-83398547D01*
X62875366Y-83402057D01*
X62851474Y-83403231D01*
X62363974Y-83403231D01*
X62340082Y-83402057D01*
X62316421Y-83398547D01*
X62293217Y-83392735D01*
X62270695Y-83384677D01*
X62249071Y-83374449D01*
X62228554Y-83362152D01*
X62209341Y-83347902D01*
X62191617Y-83331838D01*
X62175553Y-83314114D01*
X62161303Y-83294901D01*
X62149006Y-83274384D01*
X62138778Y-83252760D01*
X62130720Y-83230238D01*
X62124908Y-83207034D01*
X62121398Y-83183373D01*
X62120224Y-83159481D01*
X62120224Y-82246981D01*
X62121398Y-82223089D01*
X62124908Y-82199428D01*
X62130720Y-82176224D01*
X62138778Y-82153702D01*
X62149006Y-82132078D01*
X62161303Y-82111561D01*
X62175553Y-82092348D01*
X62191617Y-82074624D01*
X62209341Y-82058560D01*
X62228554Y-82044310D01*
X62249071Y-82032013D01*
X62270695Y-82021785D01*
X62293217Y-82013727D01*
X62316421Y-82007915D01*
X62340082Y-82004405D01*
X62363974Y-82003231D01*
X62851474Y-82003231D01*
X62875366Y-82004405D01*
X62875366Y-82004405D01*
G37*
D21*
X62607724Y-82703231D03*
D20*
G36*
X57884142Y-93064174D02*
G01*
X57907803Y-93067684D01*
X57931007Y-93073496D01*
X57953529Y-93081554D01*
X57975153Y-93091782D01*
X57995670Y-93104079D01*
X58014883Y-93118329D01*
X58032607Y-93134393D01*
X58048671Y-93152117D01*
X58062921Y-93171330D01*
X58075218Y-93191847D01*
X58085446Y-93213471D01*
X58093504Y-93235993D01*
X58099316Y-93259197D01*
X58102826Y-93282858D01*
X58104000Y-93306750D01*
X58104000Y-93794250D01*
X58102826Y-93818142D01*
X58099316Y-93841803D01*
X58093504Y-93865007D01*
X58085446Y-93887529D01*
X58075218Y-93909153D01*
X58062921Y-93929670D01*
X58048671Y-93948883D01*
X58032607Y-93966607D01*
X58014883Y-93982671D01*
X57995670Y-93996921D01*
X57975153Y-94009218D01*
X57953529Y-94019446D01*
X57931007Y-94027504D01*
X57907803Y-94033316D01*
X57884142Y-94036826D01*
X57860250Y-94038000D01*
X56947750Y-94038000D01*
X56923858Y-94036826D01*
X56900197Y-94033316D01*
X56876993Y-94027504D01*
X56854471Y-94019446D01*
X56832847Y-94009218D01*
X56812330Y-93996921D01*
X56793117Y-93982671D01*
X56775393Y-93966607D01*
X56759329Y-93948883D01*
X56745079Y-93929670D01*
X56732782Y-93909153D01*
X56722554Y-93887529D01*
X56714496Y-93865007D01*
X56708684Y-93841803D01*
X56705174Y-93818142D01*
X56704000Y-93794250D01*
X56704000Y-93306750D01*
X56705174Y-93282858D01*
X56708684Y-93259197D01*
X56714496Y-93235993D01*
X56722554Y-93213471D01*
X56732782Y-93191847D01*
X56745079Y-93171330D01*
X56759329Y-93152117D01*
X56775393Y-93134393D01*
X56793117Y-93118329D01*
X56812330Y-93104079D01*
X56832847Y-93091782D01*
X56854471Y-93081554D01*
X56876993Y-93073496D01*
X56900197Y-93067684D01*
X56923858Y-93064174D01*
X56947750Y-93063000D01*
X57860250Y-93063000D01*
X57884142Y-93064174D01*
X57884142Y-93064174D01*
G37*
D21*
X57404000Y-93550500D03*
D20*
G36*
X57884142Y-94939174D02*
G01*
X57907803Y-94942684D01*
X57931007Y-94948496D01*
X57953529Y-94956554D01*
X57975153Y-94966782D01*
X57995670Y-94979079D01*
X58014883Y-94993329D01*
X58032607Y-95009393D01*
X58048671Y-95027117D01*
X58062921Y-95046330D01*
X58075218Y-95066847D01*
X58085446Y-95088471D01*
X58093504Y-95110993D01*
X58099316Y-95134197D01*
X58102826Y-95157858D01*
X58104000Y-95181750D01*
X58104000Y-95669250D01*
X58102826Y-95693142D01*
X58099316Y-95716803D01*
X58093504Y-95740007D01*
X58085446Y-95762529D01*
X58075218Y-95784153D01*
X58062921Y-95804670D01*
X58048671Y-95823883D01*
X58032607Y-95841607D01*
X58014883Y-95857671D01*
X57995670Y-95871921D01*
X57975153Y-95884218D01*
X57953529Y-95894446D01*
X57931007Y-95902504D01*
X57907803Y-95908316D01*
X57884142Y-95911826D01*
X57860250Y-95913000D01*
X56947750Y-95913000D01*
X56923858Y-95911826D01*
X56900197Y-95908316D01*
X56876993Y-95902504D01*
X56854471Y-95894446D01*
X56832847Y-95884218D01*
X56812330Y-95871921D01*
X56793117Y-95857671D01*
X56775393Y-95841607D01*
X56759329Y-95823883D01*
X56745079Y-95804670D01*
X56732782Y-95784153D01*
X56722554Y-95762529D01*
X56714496Y-95740007D01*
X56708684Y-95716803D01*
X56705174Y-95693142D01*
X56704000Y-95669250D01*
X56704000Y-95181750D01*
X56705174Y-95157858D01*
X56708684Y-95134197D01*
X56714496Y-95110993D01*
X56722554Y-95088471D01*
X56732782Y-95066847D01*
X56745079Y-95046330D01*
X56759329Y-95027117D01*
X56775393Y-95009393D01*
X56793117Y-94993329D01*
X56812330Y-94979079D01*
X56832847Y-94966782D01*
X56854471Y-94956554D01*
X56876993Y-94948496D01*
X56900197Y-94942684D01*
X56923858Y-94939174D01*
X56947750Y-94938000D01*
X57860250Y-94938000D01*
X57884142Y-94939174D01*
X57884142Y-94939174D01*
G37*
D21*
X57404000Y-95425500D03*
D20*
G36*
X64209255Y-106866822D02*
G01*
X64232916Y-106870332D01*
X64256120Y-106876144D01*
X64278642Y-106884202D01*
X64300266Y-106894430D01*
X64320783Y-106906727D01*
X64339996Y-106920977D01*
X64357720Y-106937041D01*
X64373784Y-106954765D01*
X64388034Y-106973978D01*
X64400331Y-106994495D01*
X64410559Y-107016119D01*
X64418617Y-107038641D01*
X64424429Y-107061845D01*
X64427939Y-107085506D01*
X64429113Y-107109398D01*
X64429113Y-107596898D01*
X64427939Y-107620790D01*
X64424429Y-107644451D01*
X64418617Y-107667655D01*
X64410559Y-107690177D01*
X64400331Y-107711801D01*
X64388034Y-107732318D01*
X64373784Y-107751531D01*
X64357720Y-107769255D01*
X64339996Y-107785319D01*
X64320783Y-107799569D01*
X64300266Y-107811866D01*
X64278642Y-107822094D01*
X64256120Y-107830152D01*
X64232916Y-107835964D01*
X64209255Y-107839474D01*
X64185363Y-107840648D01*
X63272863Y-107840648D01*
X63248971Y-107839474D01*
X63225310Y-107835964D01*
X63202106Y-107830152D01*
X63179584Y-107822094D01*
X63157960Y-107811866D01*
X63137443Y-107799569D01*
X63118230Y-107785319D01*
X63100506Y-107769255D01*
X63084442Y-107751531D01*
X63070192Y-107732318D01*
X63057895Y-107711801D01*
X63047667Y-107690177D01*
X63039609Y-107667655D01*
X63033797Y-107644451D01*
X63030287Y-107620790D01*
X63029113Y-107596898D01*
X63029113Y-107109398D01*
X63030287Y-107085506D01*
X63033797Y-107061845D01*
X63039609Y-107038641D01*
X63047667Y-107016119D01*
X63057895Y-106994495D01*
X63070192Y-106973978D01*
X63084442Y-106954765D01*
X63100506Y-106937041D01*
X63118230Y-106920977D01*
X63137443Y-106906727D01*
X63157960Y-106894430D01*
X63179584Y-106884202D01*
X63202106Y-106876144D01*
X63225310Y-106870332D01*
X63248971Y-106866822D01*
X63272863Y-106865648D01*
X64185363Y-106865648D01*
X64209255Y-106866822D01*
X64209255Y-106866822D01*
G37*
D21*
X63729113Y-107353148D03*
D20*
G36*
X64209255Y-104991822D02*
G01*
X64232916Y-104995332D01*
X64256120Y-105001144D01*
X64278642Y-105009202D01*
X64300266Y-105019430D01*
X64320783Y-105031727D01*
X64339996Y-105045977D01*
X64357720Y-105062041D01*
X64373784Y-105079765D01*
X64388034Y-105098978D01*
X64400331Y-105119495D01*
X64410559Y-105141119D01*
X64418617Y-105163641D01*
X64424429Y-105186845D01*
X64427939Y-105210506D01*
X64429113Y-105234398D01*
X64429113Y-105721898D01*
X64427939Y-105745790D01*
X64424429Y-105769451D01*
X64418617Y-105792655D01*
X64410559Y-105815177D01*
X64400331Y-105836801D01*
X64388034Y-105857318D01*
X64373784Y-105876531D01*
X64357720Y-105894255D01*
X64339996Y-105910319D01*
X64320783Y-105924569D01*
X64300266Y-105936866D01*
X64278642Y-105947094D01*
X64256120Y-105955152D01*
X64232916Y-105960964D01*
X64209255Y-105964474D01*
X64185363Y-105965648D01*
X63272863Y-105965648D01*
X63248971Y-105964474D01*
X63225310Y-105960964D01*
X63202106Y-105955152D01*
X63179584Y-105947094D01*
X63157960Y-105936866D01*
X63137443Y-105924569D01*
X63118230Y-105910319D01*
X63100506Y-105894255D01*
X63084442Y-105876531D01*
X63070192Y-105857318D01*
X63057895Y-105836801D01*
X63047667Y-105815177D01*
X63039609Y-105792655D01*
X63033797Y-105769451D01*
X63030287Y-105745790D01*
X63029113Y-105721898D01*
X63029113Y-105234398D01*
X63030287Y-105210506D01*
X63033797Y-105186845D01*
X63039609Y-105163641D01*
X63047667Y-105141119D01*
X63057895Y-105119495D01*
X63070192Y-105098978D01*
X63084442Y-105079765D01*
X63100506Y-105062041D01*
X63118230Y-105045977D01*
X63137443Y-105031727D01*
X63157960Y-105019430D01*
X63179584Y-105009202D01*
X63202106Y-105001144D01*
X63225310Y-104995332D01*
X63248971Y-104991822D01*
X63272863Y-104990648D01*
X64185363Y-104990648D01*
X64209255Y-104991822D01*
X64209255Y-104991822D01*
G37*
D21*
X63729113Y-105478148D03*
D20*
G36*
X73917463Y-106859014D02*
G01*
X73941124Y-106862524D01*
X73964328Y-106868336D01*
X73986850Y-106876394D01*
X74008474Y-106886622D01*
X74028991Y-106898919D01*
X74048204Y-106913169D01*
X74065928Y-106929233D01*
X74081992Y-106946957D01*
X74096242Y-106966170D01*
X74108539Y-106986687D01*
X74118767Y-107008311D01*
X74126825Y-107030833D01*
X74132637Y-107054037D01*
X74136147Y-107077698D01*
X74137321Y-107101590D01*
X74137321Y-107589090D01*
X74136147Y-107612982D01*
X74132637Y-107636643D01*
X74126825Y-107659847D01*
X74118767Y-107682369D01*
X74108539Y-107703993D01*
X74096242Y-107724510D01*
X74081992Y-107743723D01*
X74065928Y-107761447D01*
X74048204Y-107777511D01*
X74028991Y-107791761D01*
X74008474Y-107804058D01*
X73986850Y-107814286D01*
X73964328Y-107822344D01*
X73941124Y-107828156D01*
X73917463Y-107831666D01*
X73893571Y-107832840D01*
X72981071Y-107832840D01*
X72957179Y-107831666D01*
X72933518Y-107828156D01*
X72910314Y-107822344D01*
X72887792Y-107814286D01*
X72866168Y-107804058D01*
X72845651Y-107791761D01*
X72826438Y-107777511D01*
X72808714Y-107761447D01*
X72792650Y-107743723D01*
X72778400Y-107724510D01*
X72766103Y-107703993D01*
X72755875Y-107682369D01*
X72747817Y-107659847D01*
X72742005Y-107636643D01*
X72738495Y-107612982D01*
X72737321Y-107589090D01*
X72737321Y-107101590D01*
X72738495Y-107077698D01*
X72742005Y-107054037D01*
X72747817Y-107030833D01*
X72755875Y-107008311D01*
X72766103Y-106986687D01*
X72778400Y-106966170D01*
X72792650Y-106946957D01*
X72808714Y-106929233D01*
X72826438Y-106913169D01*
X72845651Y-106898919D01*
X72866168Y-106886622D01*
X72887792Y-106876394D01*
X72910314Y-106868336D01*
X72933518Y-106862524D01*
X72957179Y-106859014D01*
X72981071Y-106857840D01*
X73893571Y-106857840D01*
X73917463Y-106859014D01*
X73917463Y-106859014D01*
G37*
D21*
X73437321Y-107345340D03*
D20*
G36*
X73917463Y-104984014D02*
G01*
X73941124Y-104987524D01*
X73964328Y-104993336D01*
X73986850Y-105001394D01*
X74008474Y-105011622D01*
X74028991Y-105023919D01*
X74048204Y-105038169D01*
X74065928Y-105054233D01*
X74081992Y-105071957D01*
X74096242Y-105091170D01*
X74108539Y-105111687D01*
X74118767Y-105133311D01*
X74126825Y-105155833D01*
X74132637Y-105179037D01*
X74136147Y-105202698D01*
X74137321Y-105226590D01*
X74137321Y-105714090D01*
X74136147Y-105737982D01*
X74132637Y-105761643D01*
X74126825Y-105784847D01*
X74118767Y-105807369D01*
X74108539Y-105828993D01*
X74096242Y-105849510D01*
X74081992Y-105868723D01*
X74065928Y-105886447D01*
X74048204Y-105902511D01*
X74028991Y-105916761D01*
X74008474Y-105929058D01*
X73986850Y-105939286D01*
X73964328Y-105947344D01*
X73941124Y-105953156D01*
X73917463Y-105956666D01*
X73893571Y-105957840D01*
X72981071Y-105957840D01*
X72957179Y-105956666D01*
X72933518Y-105953156D01*
X72910314Y-105947344D01*
X72887792Y-105939286D01*
X72866168Y-105929058D01*
X72845651Y-105916761D01*
X72826438Y-105902511D01*
X72808714Y-105886447D01*
X72792650Y-105868723D01*
X72778400Y-105849510D01*
X72766103Y-105828993D01*
X72755875Y-105807369D01*
X72747817Y-105784847D01*
X72742005Y-105761643D01*
X72738495Y-105737982D01*
X72737321Y-105714090D01*
X72737321Y-105226590D01*
X72738495Y-105202698D01*
X72742005Y-105179037D01*
X72747817Y-105155833D01*
X72755875Y-105133311D01*
X72766103Y-105111687D01*
X72778400Y-105091170D01*
X72792650Y-105071957D01*
X72808714Y-105054233D01*
X72826438Y-105038169D01*
X72845651Y-105023919D01*
X72866168Y-105011622D01*
X72887792Y-105001394D01*
X72910314Y-104993336D01*
X72933518Y-104987524D01*
X72957179Y-104984014D01*
X72981071Y-104982840D01*
X73893571Y-104982840D01*
X73917463Y-104984014D01*
X73917463Y-104984014D01*
G37*
D21*
X73437321Y-105470340D03*
D20*
G36*
X71593142Y-82105174D02*
G01*
X71616803Y-82108684D01*
X71640007Y-82114496D01*
X71662529Y-82122554D01*
X71684153Y-82132782D01*
X71704670Y-82145079D01*
X71723883Y-82159329D01*
X71741607Y-82175393D01*
X71757671Y-82193117D01*
X71771921Y-82212330D01*
X71784218Y-82232847D01*
X71794446Y-82254471D01*
X71802504Y-82276993D01*
X71808316Y-82300197D01*
X71811826Y-82323858D01*
X71813000Y-82347750D01*
X71813000Y-83260250D01*
X71811826Y-83284142D01*
X71808316Y-83307803D01*
X71802504Y-83331007D01*
X71794446Y-83353529D01*
X71784218Y-83375153D01*
X71771921Y-83395670D01*
X71757671Y-83414883D01*
X71741607Y-83432607D01*
X71723883Y-83448671D01*
X71704670Y-83462921D01*
X71684153Y-83475218D01*
X71662529Y-83485446D01*
X71640007Y-83493504D01*
X71616803Y-83499316D01*
X71593142Y-83502826D01*
X71569250Y-83504000D01*
X71081750Y-83504000D01*
X71057858Y-83502826D01*
X71034197Y-83499316D01*
X71010993Y-83493504D01*
X70988471Y-83485446D01*
X70966847Y-83475218D01*
X70946330Y-83462921D01*
X70927117Y-83448671D01*
X70909393Y-83432607D01*
X70893329Y-83414883D01*
X70879079Y-83395670D01*
X70866782Y-83375153D01*
X70856554Y-83353529D01*
X70848496Y-83331007D01*
X70842684Y-83307803D01*
X70839174Y-83284142D01*
X70838000Y-83260250D01*
X70838000Y-82347750D01*
X70839174Y-82323858D01*
X70842684Y-82300197D01*
X70848496Y-82276993D01*
X70856554Y-82254471D01*
X70866782Y-82232847D01*
X70879079Y-82212330D01*
X70893329Y-82193117D01*
X70909393Y-82175393D01*
X70927117Y-82159329D01*
X70946330Y-82145079D01*
X70966847Y-82132782D01*
X70988471Y-82122554D01*
X71010993Y-82114496D01*
X71034197Y-82108684D01*
X71057858Y-82105174D01*
X71081750Y-82104000D01*
X71569250Y-82104000D01*
X71593142Y-82105174D01*
X71593142Y-82105174D01*
G37*
D21*
X71325500Y-82804000D03*
D20*
G36*
X73468142Y-82105174D02*
G01*
X73491803Y-82108684D01*
X73515007Y-82114496D01*
X73537529Y-82122554D01*
X73559153Y-82132782D01*
X73579670Y-82145079D01*
X73598883Y-82159329D01*
X73616607Y-82175393D01*
X73632671Y-82193117D01*
X73646921Y-82212330D01*
X73659218Y-82232847D01*
X73669446Y-82254471D01*
X73677504Y-82276993D01*
X73683316Y-82300197D01*
X73686826Y-82323858D01*
X73688000Y-82347750D01*
X73688000Y-83260250D01*
X73686826Y-83284142D01*
X73683316Y-83307803D01*
X73677504Y-83331007D01*
X73669446Y-83353529D01*
X73659218Y-83375153D01*
X73646921Y-83395670D01*
X73632671Y-83414883D01*
X73616607Y-83432607D01*
X73598883Y-83448671D01*
X73579670Y-83462921D01*
X73559153Y-83475218D01*
X73537529Y-83485446D01*
X73515007Y-83493504D01*
X73491803Y-83499316D01*
X73468142Y-83502826D01*
X73444250Y-83504000D01*
X72956750Y-83504000D01*
X72932858Y-83502826D01*
X72909197Y-83499316D01*
X72885993Y-83493504D01*
X72863471Y-83485446D01*
X72841847Y-83475218D01*
X72821330Y-83462921D01*
X72802117Y-83448671D01*
X72784393Y-83432607D01*
X72768329Y-83414883D01*
X72754079Y-83395670D01*
X72741782Y-83375153D01*
X72731554Y-83353529D01*
X72723496Y-83331007D01*
X72717684Y-83307803D01*
X72714174Y-83284142D01*
X72713000Y-83260250D01*
X72713000Y-82347750D01*
X72714174Y-82323858D01*
X72717684Y-82300197D01*
X72723496Y-82276993D01*
X72731554Y-82254471D01*
X72741782Y-82232847D01*
X72754079Y-82212330D01*
X72768329Y-82193117D01*
X72784393Y-82175393D01*
X72802117Y-82159329D01*
X72821330Y-82145079D01*
X72841847Y-82132782D01*
X72863471Y-82122554D01*
X72885993Y-82114496D01*
X72909197Y-82108684D01*
X72932858Y-82105174D01*
X72956750Y-82104000D01*
X73444250Y-82104000D01*
X73468142Y-82105174D01*
X73468142Y-82105174D01*
G37*
D21*
X73200500Y-82804000D03*
D20*
G36*
X58771616Y-104766674D02*
G01*
X58795277Y-104770184D01*
X58818481Y-104775996D01*
X58841003Y-104784054D01*
X58862627Y-104794282D01*
X58883144Y-104806579D01*
X58902357Y-104820829D01*
X58920081Y-104836893D01*
X58936145Y-104854617D01*
X58950395Y-104873830D01*
X58962692Y-104894347D01*
X58972920Y-104915971D01*
X58980978Y-104938493D01*
X58986790Y-104961697D01*
X58990300Y-104985358D01*
X58991474Y-105009250D01*
X58991474Y-105496750D01*
X58990300Y-105520642D01*
X58986790Y-105544303D01*
X58980978Y-105567507D01*
X58972920Y-105590029D01*
X58962692Y-105611653D01*
X58950395Y-105632170D01*
X58936145Y-105651383D01*
X58920081Y-105669107D01*
X58902357Y-105685171D01*
X58883144Y-105699421D01*
X58862627Y-105711718D01*
X58841003Y-105721946D01*
X58818481Y-105730004D01*
X58795277Y-105735816D01*
X58771616Y-105739326D01*
X58747724Y-105740500D01*
X57835224Y-105740500D01*
X57811332Y-105739326D01*
X57787671Y-105735816D01*
X57764467Y-105730004D01*
X57741945Y-105721946D01*
X57720321Y-105711718D01*
X57699804Y-105699421D01*
X57680591Y-105685171D01*
X57662867Y-105669107D01*
X57646803Y-105651383D01*
X57632553Y-105632170D01*
X57620256Y-105611653D01*
X57610028Y-105590029D01*
X57601970Y-105567507D01*
X57596158Y-105544303D01*
X57592648Y-105520642D01*
X57591474Y-105496750D01*
X57591474Y-105009250D01*
X57592648Y-104985358D01*
X57596158Y-104961697D01*
X57601970Y-104938493D01*
X57610028Y-104915971D01*
X57620256Y-104894347D01*
X57632553Y-104873830D01*
X57646803Y-104854617D01*
X57662867Y-104836893D01*
X57680591Y-104820829D01*
X57699804Y-104806579D01*
X57720321Y-104794282D01*
X57741945Y-104784054D01*
X57764467Y-104775996D01*
X57787671Y-104770184D01*
X57811332Y-104766674D01*
X57835224Y-104765500D01*
X58747724Y-104765500D01*
X58771616Y-104766674D01*
X58771616Y-104766674D01*
G37*
D21*
X58291474Y-105253000D03*
D20*
G36*
X58771616Y-102891674D02*
G01*
X58795277Y-102895184D01*
X58818481Y-102900996D01*
X58841003Y-102909054D01*
X58862627Y-102919282D01*
X58883144Y-102931579D01*
X58902357Y-102945829D01*
X58920081Y-102961893D01*
X58936145Y-102979617D01*
X58950395Y-102998830D01*
X58962692Y-103019347D01*
X58972920Y-103040971D01*
X58980978Y-103063493D01*
X58986790Y-103086697D01*
X58990300Y-103110358D01*
X58991474Y-103134250D01*
X58991474Y-103621750D01*
X58990300Y-103645642D01*
X58986790Y-103669303D01*
X58980978Y-103692507D01*
X58972920Y-103715029D01*
X58962692Y-103736653D01*
X58950395Y-103757170D01*
X58936145Y-103776383D01*
X58920081Y-103794107D01*
X58902357Y-103810171D01*
X58883144Y-103824421D01*
X58862627Y-103836718D01*
X58841003Y-103846946D01*
X58818481Y-103855004D01*
X58795277Y-103860816D01*
X58771616Y-103864326D01*
X58747724Y-103865500D01*
X57835224Y-103865500D01*
X57811332Y-103864326D01*
X57787671Y-103860816D01*
X57764467Y-103855004D01*
X57741945Y-103846946D01*
X57720321Y-103836718D01*
X57699804Y-103824421D01*
X57680591Y-103810171D01*
X57662867Y-103794107D01*
X57646803Y-103776383D01*
X57632553Y-103757170D01*
X57620256Y-103736653D01*
X57610028Y-103715029D01*
X57601970Y-103692507D01*
X57596158Y-103669303D01*
X57592648Y-103645642D01*
X57591474Y-103621750D01*
X57591474Y-103134250D01*
X57592648Y-103110358D01*
X57596158Y-103086697D01*
X57601970Y-103063493D01*
X57610028Y-103040971D01*
X57620256Y-103019347D01*
X57632553Y-102998830D01*
X57646803Y-102979617D01*
X57662867Y-102961893D01*
X57680591Y-102945829D01*
X57699804Y-102931579D01*
X57720321Y-102919282D01*
X57741945Y-102909054D01*
X57764467Y-102900996D01*
X57787671Y-102895184D01*
X57811332Y-102891674D01*
X57835224Y-102890500D01*
X58747724Y-102890500D01*
X58771616Y-102891674D01*
X58771616Y-102891674D01*
G37*
D21*
X58291474Y-103378000D03*
D25*
X65935006Y-82146994D03*
X58928000Y-90805000D03*
X58801000Y-94996000D03*
X82550000Y-92075000D03*
X82550000Y-93075003D03*
X82550000Y-94234000D03*
X82550000Y-95377000D03*
X82550000Y-96520000D03*
X82550000Y-97663000D03*
X82550000Y-98806000D03*
X82550000Y-99949000D03*
X114839750Y-92583000D03*
X115474750Y-98552000D03*
X63627000Y-91186000D03*
X78753288Y-101043538D03*
X69220087Y-92583000D03*
X78677772Y-102040685D03*
X116490750Y-92710000D03*
X115474750Y-99822000D03*
X53594000Y-107315000D03*
X64897000Y-98679000D03*
X73406000Y-84423069D03*
X74328923Y-84877079D03*
X78740000Y-85331089D03*
X79615910Y-85813567D03*
X80418967Y-86409472D03*
X80779098Y-87342376D03*
X58928000Y-87884000D03*
X58868038Y-88900000D03*
X64897000Y-84455000D03*
X65911069Y-84469066D03*
X66907332Y-84114868D03*
X67935473Y-83728793D03*
X68963614Y-83342718D03*
X69945839Y-83061039D03*
X69741850Y-84668578D03*
X70810681Y-84627874D03*
X78592732Y-105077207D03*
X78598071Y-104054411D03*
X78610196Y-103038401D03*
D26*
X73340182Y-107248201D02*
X73437321Y-107345340D01*
X69693470Y-107248201D02*
X73340182Y-107248201D01*
X67796372Y-105548201D02*
X67493470Y-105548201D01*
D27*
X69496372Y-107248201D02*
X67796372Y-105548201D01*
D26*
X69693470Y-107248201D02*
X69496372Y-107248201D01*
X66578474Y-102628787D02*
X66578474Y-101674481D01*
X65248252Y-103959010D02*
X65363131Y-103844131D01*
X63729113Y-105478148D02*
X65363131Y-103844131D01*
X65363131Y-103844131D02*
X66578474Y-102628787D01*
X58847711Y-104696763D02*
X58879237Y-104696763D01*
X58291474Y-105253000D02*
X58847711Y-104696763D01*
X58879237Y-104696763D02*
X59616990Y-103959010D01*
X59616990Y-103959010D02*
X65248252Y-103959010D01*
X63378474Y-83807481D02*
X63378474Y-86274481D01*
X64482724Y-82703231D02*
X63378474Y-83807481D01*
X71378474Y-85346579D02*
X71378474Y-86274481D01*
X71755000Y-84970053D02*
X71378474Y-85346579D01*
X71755000Y-84033500D02*
X71755000Y-84970053D01*
X71325500Y-83604000D02*
X71755000Y-84033500D01*
X71325500Y-82804000D02*
X71325500Y-83604000D01*
X65038961Y-82146994D02*
X64482724Y-82703231D01*
X71325500Y-82804000D02*
X70858742Y-82804000D01*
X70858742Y-82804000D02*
X70201736Y-82146994D01*
X119112500Y-103152250D02*
X119112500Y-103472250D01*
X112662500Y-103152250D02*
X112662500Y-103472250D01*
X119112500Y-103152250D02*
X119112500Y-102227250D01*
X69593470Y-107248201D02*
X69693470Y-107248201D01*
X68002671Y-108839000D02*
X69593470Y-107248201D01*
X62929113Y-105478148D02*
X62638603Y-105768658D01*
X63729113Y-105478148D02*
X62929113Y-105478148D01*
X62865000Y-108839000D02*
X68002671Y-108839000D01*
X62633342Y-105768658D02*
X62357000Y-106045000D01*
X62638603Y-105768658D02*
X62633342Y-105768658D01*
X62357000Y-106045000D02*
X62357000Y-108331000D01*
X62357000Y-108331000D02*
X62865000Y-108839000D01*
X57404000Y-93550500D02*
X56604000Y-93550500D01*
X57762981Y-91974481D02*
X60878474Y-91974481D01*
X57404000Y-91615500D02*
X57762981Y-91974481D01*
X65935006Y-82146994D02*
X65038961Y-82146994D01*
X70201736Y-82146994D02*
X65935006Y-82146994D01*
X119112500Y-103152250D02*
X119112500Y-101867500D01*
X119112500Y-101867500D02*
X119634000Y-101346000D01*
X112662500Y-103152250D02*
X112662500Y-101867500D01*
X112662500Y-101867500D02*
X112141000Y-101346000D01*
X65778474Y-102602383D02*
X65778474Y-101674481D01*
X65002857Y-103378000D02*
X65778474Y-102602383D01*
X58261474Y-103408000D02*
X58291474Y-103378000D01*
X53594000Y-103408000D02*
X58261474Y-103408000D01*
X60743975Y-89708980D02*
X60878474Y-89574481D01*
X62607724Y-86245231D02*
X62578474Y-86274481D01*
X62607724Y-82703231D02*
X62607724Y-86245231D01*
X72178474Y-85368251D02*
X72178474Y-86274481D01*
X72336010Y-85210715D02*
X72178474Y-85368251D01*
X73200500Y-82804000D02*
X72336010Y-83668490D01*
X72336010Y-83668490D02*
X72336010Y-85210715D01*
X122289331Y-94615000D02*
X122261552Y-94642779D01*
X122261552Y-94642779D02*
X122261552Y-92892802D01*
X118527750Y-89159000D02*
X116871750Y-89159000D01*
X122261552Y-92892802D02*
X118527750Y-89159000D01*
X59747474Y-89574481D02*
X60878474Y-89574481D01*
X59612975Y-89708980D02*
X59747474Y-89574481D01*
X58204000Y-89740500D02*
X58235520Y-89708980D01*
X57404000Y-89740500D02*
X58204000Y-89740500D01*
X59950572Y-93574481D02*
X60878474Y-93574481D01*
X58801000Y-94724053D02*
X59950572Y-93574481D01*
X60452000Y-103378000D02*
X58801000Y-101727000D01*
X60452000Y-103378000D02*
X65002857Y-103378000D01*
X58291474Y-103378000D02*
X60452000Y-103378000D01*
X58847980Y-90724980D02*
X58928000Y-90805000D01*
X58847980Y-89708980D02*
X58847980Y-90724980D01*
X58847980Y-89708980D02*
X59612975Y-89708980D01*
X58235520Y-89708980D02*
X58847980Y-89708980D01*
X58801000Y-101727000D02*
X58801000Y-94996000D01*
X58801000Y-94996000D02*
X58801000Y-94724053D01*
X57404000Y-85090000D02*
X61595000Y-80899000D01*
X57404000Y-89740500D02*
X57404000Y-85090000D01*
X122261552Y-90604924D02*
X122261552Y-92892802D01*
X74041000Y-80899000D02*
X75946000Y-82804000D01*
X114460628Y-82804000D02*
X122261552Y-90604924D01*
X73200500Y-81074500D02*
X73200500Y-82804000D01*
X73025000Y-80899000D02*
X73200500Y-81074500D01*
X73025000Y-80899000D02*
X74041000Y-80899000D01*
X62607724Y-80902276D02*
X62607724Y-82703231D01*
X62611000Y-80899000D02*
X62607724Y-80902276D01*
X62611000Y-80899000D02*
X73025000Y-80899000D01*
X61595000Y-80899000D02*
X62611000Y-80899000D01*
X114460628Y-82804000D02*
X75946000Y-82804000D01*
X122261552Y-94642779D02*
X152372221Y-94642779D01*
X152373413Y-94643971D02*
X154870411Y-94643971D01*
X152372221Y-94642779D02*
X152373413Y-94643971D01*
D27*
X59874474Y-92774481D02*
X60878474Y-92774481D01*
X57960237Y-94688718D02*
X59874474Y-92774481D01*
X57960237Y-94869263D02*
X57960237Y-94688718D01*
X57404000Y-95425500D02*
X57960237Y-94869263D01*
D26*
X113437500Y-103152250D02*
X113596999Y-103311749D01*
X113596999Y-103311749D02*
X113596999Y-104689651D01*
X118337500Y-104478308D02*
X118337500Y-103152250D01*
X118337500Y-101366831D02*
X122261552Y-97442779D01*
X118337500Y-103152250D02*
X118337500Y-101366831D01*
X113596999Y-104689651D02*
X114190348Y-105283000D01*
X117532808Y-105283000D02*
X118337500Y-104478308D01*
X114190348Y-105283000D02*
X117532808Y-105283000D01*
D27*
X77282474Y-92774481D02*
X76278474Y-92774481D01*
X81284834Y-92774481D02*
X77282474Y-92774481D01*
X81984315Y-92075000D02*
X81284834Y-92774481D01*
X82550000Y-92075000D02*
X81984315Y-92075000D01*
X77282474Y-93574481D02*
X76278474Y-93574481D01*
X81484837Y-93574481D02*
X77282474Y-93574481D01*
X81984315Y-93075003D02*
X81484837Y-93574481D01*
X82550000Y-93075003D02*
X81984315Y-93075003D01*
X76418955Y-94234000D02*
X76278474Y-94374481D01*
X82550000Y-94234000D02*
X76418955Y-94234000D01*
X76377946Y-95075009D02*
X76278474Y-95174481D01*
X76475954Y-94977001D02*
X76278474Y-95174481D01*
X82150001Y-94977001D02*
X76475954Y-94977001D01*
X82550000Y-95377000D02*
X82150001Y-94977001D01*
X76379005Y-96075012D02*
X76278474Y-95974481D01*
X82004481Y-95974481D02*
X76278474Y-95974481D01*
X82550000Y-96520000D02*
X82004481Y-95974481D01*
X81661481Y-96774481D02*
X76278474Y-96774481D01*
X82550000Y-97663000D02*
X81661481Y-96774481D01*
X81318481Y-97574481D02*
X76278474Y-97574481D01*
X82550000Y-98806000D02*
X81318481Y-97574481D01*
X80975481Y-98374481D02*
X76278474Y-98374481D01*
X82550000Y-99949000D02*
X80975481Y-98374481D01*
X114637500Y-101673250D02*
X114637500Y-103152250D01*
X114637500Y-98234966D02*
X114637500Y-101673250D01*
X113894108Y-97491574D02*
X114637500Y-98234966D01*
X113894108Y-96904074D02*
X113894108Y-97491574D01*
X117862858Y-97491574D02*
X117614501Y-97739931D01*
X117862858Y-96904074D02*
X117862858Y-97491574D01*
X117637500Y-97762930D02*
X117637500Y-103152250D01*
X117614501Y-97739931D02*
X117637500Y-97762930D01*
X116637500Y-104631250D02*
X116637500Y-103152250D01*
X116564499Y-104704251D02*
X116637500Y-104631250D01*
X115710501Y-104704251D02*
X116564499Y-104704251D01*
X115637500Y-104631250D02*
X115710501Y-104704251D01*
X115637500Y-103152250D02*
X115637500Y-104631250D01*
X114871750Y-91059000D02*
X114871750Y-92551000D01*
X114871750Y-92551000D02*
X114839750Y-92583000D01*
X116660499Y-103129251D02*
X116637500Y-103152250D01*
X115474750Y-98552000D02*
X116660499Y-99737749D01*
X116660499Y-99737749D02*
X116660499Y-103129251D01*
X111442767Y-92583000D02*
X109918767Y-91059000D01*
X114839750Y-92583000D02*
X111442767Y-92583000D01*
X60889993Y-91186000D02*
X60878474Y-91174481D01*
X63627000Y-91186000D02*
X60889993Y-91186000D01*
X107487530Y-91615237D02*
X108043767Y-91059000D01*
X106916025Y-91615237D02*
X107487530Y-91615237D01*
X97058262Y-101473000D02*
X106916025Y-91615237D01*
X78753288Y-101043538D02*
X79182750Y-101473000D01*
X79182750Y-101473000D02*
X97058262Y-101473000D01*
X67011568Y-90374481D02*
X60878474Y-90374481D01*
X69220087Y-92583000D02*
X67011568Y-90374481D01*
X106711750Y-93109233D02*
X108058767Y-94456250D01*
X106064095Y-93109233D02*
X106711750Y-93109233D01*
X78677772Y-102040685D02*
X97132643Y-102040685D01*
X97132643Y-102040685D02*
X106064095Y-93109233D01*
X116137500Y-101673250D02*
X116137500Y-103152250D01*
X116064499Y-101600249D02*
X116137500Y-101673250D01*
X115137500Y-101673250D02*
X115210501Y-101600249D01*
X115137500Y-103152250D02*
X115137500Y-101673250D01*
X116871750Y-92329000D02*
X116490750Y-92710000D01*
X115474501Y-100387934D02*
X115474501Y-101600249D01*
X115474750Y-100387685D02*
X115474501Y-100387934D01*
X115474750Y-99822000D02*
X115474750Y-100387685D01*
X115210501Y-101600249D02*
X115474501Y-101600249D01*
X115474501Y-101600249D02*
X116064499Y-101600249D01*
X116871750Y-91059000D02*
X116871750Y-92075000D01*
X116871750Y-92075000D02*
X116871750Y-92329000D01*
X110490004Y-93900013D02*
X109933767Y-94456250D01*
X114598699Y-93900013D02*
X110490004Y-93900013D01*
X115788712Y-92710000D02*
X114598699Y-93900013D01*
X116490750Y-92710000D02*
X115788712Y-92710000D01*
X79856519Y-91974481D02*
X76278474Y-91974481D01*
X81026000Y-90805000D02*
X79856519Y-91974481D01*
X53594000Y-105283000D02*
X53594000Y-105870500D01*
X53594000Y-105283000D02*
X53594000Y-107315000D01*
X64897000Y-101593007D02*
X64978474Y-101674481D01*
X64897000Y-98679000D02*
X64897000Y-101593007D01*
X53151750Y-105283000D02*
X53594000Y-105283000D01*
X44187500Y-96318750D02*
X53151750Y-105283000D01*
X44187500Y-95968750D02*
X44187500Y-96318750D01*
X72978474Y-84850595D02*
X72978474Y-86274481D01*
X73406000Y-84423069D02*
X72978474Y-84850595D01*
X73778474Y-85427528D02*
X73778474Y-86274481D01*
X74328923Y-84877079D02*
X73778474Y-85427528D01*
X74578474Y-85799481D02*
X74578474Y-86274481D01*
X75107474Y-85270481D02*
X74578474Y-85799481D01*
X75461258Y-85270481D02*
X75107474Y-85270481D01*
X75521866Y-85331089D02*
X75461258Y-85270481D01*
X78740000Y-85331089D02*
X75521866Y-85331089D01*
X77454996Y-87974481D02*
X76278474Y-87974481D01*
X79615910Y-85813567D02*
X77454996Y-87974481D01*
X77282474Y-88774481D02*
X76278474Y-88774481D01*
X77618874Y-88774481D02*
X77282474Y-88774481D01*
X79852787Y-86540568D02*
X77618874Y-88774481D01*
X80287871Y-86540568D02*
X79852787Y-86540568D01*
X80418967Y-86409472D02*
X80287871Y-86540568D01*
X77282474Y-89574481D02*
X76278474Y-89574481D01*
X77460940Y-89574481D02*
X77282474Y-89574481D01*
X79693045Y-87342376D02*
X77460940Y-89574481D01*
X80779098Y-87342376D02*
X79693045Y-87342376D01*
X111567500Y-108747250D02*
X120207500Y-108747250D01*
X111567500Y-105117250D02*
X111567500Y-104567250D01*
X112321500Y-105871250D02*
X111567500Y-105117250D01*
X119453500Y-105871250D02*
X112321500Y-105871250D01*
X120207500Y-105117250D02*
X119453500Y-105871250D01*
X120207500Y-104567250D02*
X120207500Y-105117250D01*
X110813500Y-108747250D02*
X111567500Y-108747250D01*
X110267750Y-108201500D02*
X110813500Y-108747250D01*
X110267750Y-105113000D02*
X110267750Y-108201500D01*
X110813500Y-104567250D02*
X110267750Y-105113000D01*
X111567500Y-104567250D02*
X110813500Y-104567250D01*
X121027500Y-108747250D02*
X120207500Y-108747250D01*
X121443750Y-108331000D02*
X121027500Y-108747250D01*
X121443750Y-105049500D02*
X121443750Y-108331000D01*
X120207500Y-104567250D02*
X120961500Y-104567250D01*
X120961500Y-104567250D02*
X121443750Y-105049500D01*
X68178474Y-102678481D02*
X68178474Y-101674481D01*
X68178474Y-103179205D02*
X68178474Y-102678481D01*
X69693470Y-104694201D02*
X68178474Y-103179205D01*
X69693470Y-105548201D02*
X69693470Y-104694201D01*
X73359460Y-105548201D02*
X73437321Y-105470340D01*
X69693470Y-105548201D02*
X73359460Y-105548201D01*
X63834060Y-107248201D02*
X63729113Y-107353148D01*
X67493470Y-107248201D02*
X63834060Y-107248201D01*
X67378474Y-102678481D02*
X67378474Y-101674481D01*
X66466469Y-103590486D02*
X67378474Y-102678481D01*
X66466469Y-107175200D02*
X66466469Y-103590486D01*
X66539470Y-107248201D02*
X66466469Y-107175200D01*
X67493470Y-107248201D02*
X66539470Y-107248201D01*
X60787993Y-87884000D02*
X60878474Y-87974481D01*
X58928000Y-87884000D02*
X60787993Y-87884000D01*
X60790359Y-88862596D02*
X60878474Y-88774481D01*
X60752955Y-88900000D02*
X60878474Y-88774481D01*
X58868038Y-88900000D02*
X60752955Y-88900000D01*
X64897000Y-86193007D02*
X64978474Y-86274481D01*
X64897000Y-84455000D02*
X64897000Y-86193007D01*
X65911069Y-86141886D02*
X65778474Y-86274481D01*
X65911069Y-84469066D02*
X65911069Y-86141886D01*
X66578474Y-85270481D02*
X66578474Y-86274481D01*
X66638070Y-85210885D02*
X66578474Y-85270481D01*
X66638070Y-84120105D02*
X66638070Y-85210885D01*
X66643307Y-84114868D02*
X66638070Y-84120105D01*
X66907332Y-84114868D02*
X66643307Y-84114868D01*
X67378474Y-85270481D02*
X67378474Y-86274481D01*
X67634333Y-85014622D02*
X67378474Y-85270481D01*
X67634333Y-83765907D02*
X67634333Y-85014622D01*
X67671447Y-83728793D02*
X67634333Y-83765907D01*
X67935473Y-83728793D02*
X67671447Y-83728793D01*
X68963614Y-83776614D02*
X68284434Y-84455794D01*
X68963614Y-83342718D02*
X68963614Y-83776614D01*
X68178474Y-85270481D02*
X68178474Y-86274481D01*
X68178474Y-84475526D02*
X68178474Y-85270481D01*
X68198206Y-84455794D02*
X68178474Y-84475526D01*
X68284434Y-84455794D02*
X68198206Y-84455794D01*
X69690615Y-83090385D02*
X69690615Y-83691679D01*
X69945839Y-83061039D02*
X69719961Y-83061039D01*
X69719961Y-83061039D02*
X69690615Y-83090385D01*
X68978474Y-84403820D02*
X68978474Y-86274481D01*
X69690615Y-83691679D02*
X68978474Y-84403820D01*
X69741850Y-86237857D02*
X69778474Y-86274481D01*
X69741850Y-84668578D02*
X69741850Y-86237857D01*
X70578474Y-84860081D02*
X70578474Y-86274481D01*
X70810681Y-84627874D02*
X70578474Y-84860081D01*
X73176473Y-101872480D02*
X72978474Y-101674481D01*
X72978474Y-102678481D02*
X72978474Y-101674481D01*
X75377200Y-105077207D02*
X72978474Y-102678481D01*
X78592732Y-105077207D02*
X75377200Y-105077207D01*
X73778474Y-102678481D02*
X73778474Y-101674481D01*
X78598071Y-104054411D02*
X75154404Y-104054411D01*
X75154404Y-104054411D02*
X73778474Y-102678481D01*
X74623481Y-101674481D02*
X74578474Y-101674481D01*
X74578474Y-102149481D02*
X74578474Y-101674481D01*
X75467394Y-103038401D02*
X74578474Y-102149481D01*
X78610196Y-103038401D02*
X75467394Y-103038401D01*
G36*
X157342038Y-72118269D02*
G01*
X157514737Y-72170410D01*
X157674018Y-72255102D01*
X157813819Y-72369119D01*
X157928808Y-72508117D01*
X158014610Y-72666805D01*
X158067955Y-72839135D01*
X158090001Y-73048889D01*
X158090000Y-74644918D01*
X158090001Y-74644928D01*
X158090000Y-108711470D01*
X158069231Y-108923288D01*
X158017091Y-109095986D01*
X157932399Y-109255268D01*
X157818378Y-109395071D01*
X157679385Y-109510056D01*
X157520695Y-109595860D01*
X157348365Y-109649205D01*
X157138619Y-109671250D01*
X121160928Y-109671250D01*
X121261176Y-109483696D01*
X121264866Y-109471533D01*
X121320515Y-109454652D01*
X121452892Y-109383895D01*
X121568922Y-109288672D01*
X121592784Y-109259596D01*
X121956096Y-108896284D01*
X121985172Y-108872422D01*
X122080395Y-108756392D01*
X122151152Y-108624015D01*
X122194724Y-108480378D01*
X122205750Y-108368426D01*
X122205750Y-108368424D01*
X122209436Y-108331001D01*
X122205750Y-108293578D01*
X122205750Y-105086915D01*
X122209435Y-105049499D01*
X122205750Y-105012083D01*
X122205750Y-105012074D01*
X122194724Y-104900122D01*
X122151152Y-104756485D01*
X122080395Y-104624108D01*
X121985172Y-104508078D01*
X121956097Y-104484217D01*
X121526784Y-104054904D01*
X121502922Y-104025828D01*
X121386892Y-103930605D01*
X121336821Y-103903842D01*
X121326077Y-103794751D01*
X121261176Y-103580803D01*
X121155784Y-103383627D01*
X121013949Y-103210801D01*
X120841123Y-103068966D01*
X120643946Y-102963574D01*
X120429998Y-102898673D01*
X120207500Y-102876759D01*
X120018640Y-102895360D01*
X120047500Y-102866500D01*
X120050572Y-101927250D01*
X120038312Y-101802768D01*
X120002002Y-101683070D01*
X119943037Y-101572756D01*
X119863685Y-101476065D01*
X119766994Y-101396713D01*
X119656680Y-101337748D01*
X119562565Y-101309198D01*
X122165914Y-98705851D01*
X122886552Y-98705851D01*
X123059806Y-98688787D01*
X123226402Y-98638251D01*
X123379938Y-98556184D01*
X123514514Y-98445741D01*
X123624957Y-98311165D01*
X123707024Y-98157629D01*
X123757560Y-97991033D01*
X123774624Y-97817779D01*
X123774624Y-97067779D01*
X123757560Y-96894525D01*
X123707024Y-96727929D01*
X123624957Y-96574393D01*
X123514514Y-96439817D01*
X123379938Y-96329374D01*
X123226402Y-96247307D01*
X123059806Y-96196771D01*
X122886552Y-96179707D01*
X121636552Y-96179707D01*
X121463298Y-96196771D01*
X121296702Y-96247307D01*
X121143166Y-96329374D01*
X121008590Y-96439817D01*
X120898147Y-96574393D01*
X120816080Y-96727929D01*
X120765544Y-96894525D01*
X120748480Y-97067779D01*
X120748480Y-97788417D01*
X118399500Y-100137399D01*
X118399500Y-98036919D01*
X118404280Y-98032996D01*
X118414761Y-98020225D01*
X118491143Y-98012702D01*
X118656567Y-97962521D01*
X118809022Y-97881032D01*
X118942650Y-97771366D01*
X119052316Y-97637738D01*
X119133805Y-97485283D01*
X119183986Y-97319859D01*
X119200930Y-97147824D01*
X119200930Y-96660324D01*
X119183986Y-96488289D01*
X119133805Y-96322865D01*
X119052316Y-96170410D01*
X118942650Y-96036782D01*
X118936294Y-96031566D01*
X119014043Y-95967759D01*
X119093395Y-95871068D01*
X119152360Y-95760754D01*
X119188670Y-95641056D01*
X119200930Y-95516574D01*
X119197858Y-95314824D01*
X119039108Y-95156074D01*
X117989858Y-95156074D01*
X117989858Y-95176074D01*
X117735858Y-95176074D01*
X117735858Y-95156074D01*
X116686608Y-95156074D01*
X116527858Y-95314824D01*
X116524786Y-95516574D01*
X116537046Y-95641056D01*
X116573356Y-95760754D01*
X116632321Y-95871068D01*
X116711673Y-95967759D01*
X116789422Y-96031566D01*
X116783066Y-96036782D01*
X116673400Y-96170410D01*
X116591911Y-96322865D01*
X116541730Y-96488289D01*
X116524786Y-96660324D01*
X116524786Y-97147824D01*
X116541730Y-97319859D01*
X116591911Y-97485283D01*
X116673400Y-97637738D01*
X116783066Y-97771366D01*
X116857966Y-97832835D01*
X116863528Y-97889309D01*
X116875500Y-97928775D01*
X116875500Y-98875119D01*
X116509750Y-98509370D01*
X116509750Y-98450061D01*
X116469976Y-98250102D01*
X116391955Y-98061744D01*
X116278687Y-97892226D01*
X116134524Y-97748063D01*
X115965006Y-97634795D01*
X115776648Y-97556774D01*
X115576689Y-97517000D01*
X115372811Y-97517000D01*
X115172852Y-97556774D01*
X115113759Y-97581251D01*
X115165055Y-97485283D01*
X115215236Y-97319859D01*
X115232180Y-97147824D01*
X115232180Y-96660324D01*
X115215236Y-96488289D01*
X115165055Y-96322865D01*
X115083566Y-96170410D01*
X114973900Y-96036782D01*
X114967544Y-96031566D01*
X115045293Y-95967759D01*
X115124645Y-95871068D01*
X115183610Y-95760754D01*
X115219920Y-95641056D01*
X115232180Y-95516574D01*
X115229108Y-95314824D01*
X115070358Y-95156074D01*
X114021108Y-95156074D01*
X114021108Y-95176074D01*
X113767108Y-95176074D01*
X113767108Y-95156074D01*
X112717858Y-95156074D01*
X112559108Y-95314824D01*
X112556036Y-95516574D01*
X112568296Y-95641056D01*
X112604606Y-95760754D01*
X112663571Y-95871068D01*
X112742923Y-95967759D01*
X112820672Y-96031566D01*
X112814316Y-96036782D01*
X112704650Y-96170410D01*
X112623161Y-96322865D01*
X112572980Y-96488289D01*
X112556036Y-96660324D01*
X112556036Y-97147824D01*
X112572980Y-97319859D01*
X112623161Y-97485283D01*
X112704650Y-97637738D01*
X112814316Y-97771366D01*
X112947944Y-97881032D01*
X113100399Y-97962521D01*
X113265823Y-98012702D01*
X113342206Y-98020225D01*
X113352687Y-98032996D01*
X113381757Y-98056853D01*
X113875500Y-98550597D01*
X113875501Y-101300209D01*
X113863018Y-101301438D01*
X113862500Y-101301595D01*
X113861982Y-101301438D01*
X113737500Y-101289178D01*
X113137500Y-101289178D01*
X113050000Y-101297796D01*
X112962500Y-101289178D01*
X112948250Y-101292250D01*
X112906859Y-101333641D01*
X112893320Y-101337748D01*
X112783006Y-101396713D01*
X112686315Y-101476065D01*
X112606963Y-101572756D01*
X112547998Y-101683070D01*
X112535500Y-101724270D01*
X112535500Y-101451000D01*
X112376750Y-101292250D01*
X112362500Y-101289178D01*
X112238018Y-101301438D01*
X112118320Y-101337748D01*
X112008006Y-101396713D01*
X111911315Y-101476065D01*
X111831963Y-101572756D01*
X111772998Y-101683070D01*
X111736688Y-101802768D01*
X111724428Y-101927250D01*
X111727500Y-102866500D01*
X111756360Y-102895360D01*
X111567500Y-102876759D01*
X111345001Y-102898673D01*
X111131053Y-102963574D01*
X110933877Y-103068966D01*
X110761051Y-103210801D01*
X110619216Y-103383627D01*
X110513824Y-103580804D01*
X110448923Y-103794752D01*
X110438179Y-103903842D01*
X110388108Y-103930605D01*
X110272078Y-104025828D01*
X110248220Y-104054899D01*
X109755403Y-104547717D01*
X109726328Y-104571578D01*
X109677357Y-104631250D01*
X109631105Y-104687608D01*
X109615594Y-104716628D01*
X109560348Y-104819986D01*
X109516776Y-104963623D01*
X109505750Y-105075574D01*
X109502064Y-105113000D01*
X109505750Y-105150423D01*
X109505751Y-108164067D01*
X109502064Y-108201500D01*
X109516777Y-108350878D01*
X109560349Y-108494515D01*
X109631105Y-108626892D01*
X109679487Y-108685845D01*
X109726329Y-108742922D01*
X109755399Y-108766779D01*
X110248220Y-109259601D01*
X110272078Y-109288672D01*
X110388108Y-109383895D01*
X110502019Y-109444782D01*
X110513824Y-109483697D01*
X110614073Y-109671250D01*
X42101030Y-109671250D01*
X41889212Y-109650481D01*
X41716514Y-109598341D01*
X41557232Y-109513649D01*
X41417429Y-109399628D01*
X41302444Y-109260635D01*
X41216640Y-109101945D01*
X41163295Y-108929615D01*
X41141250Y-108719869D01*
X41141250Y-95068750D01*
X42999428Y-95068750D01*
X42999428Y-96868750D01*
X43011688Y-96993232D01*
X43047998Y-97112930D01*
X43106963Y-97223244D01*
X43186315Y-97319935D01*
X43283006Y-97399287D01*
X43393320Y-97458252D01*
X43513018Y-97494562D01*
X43637500Y-97506822D01*
X44297942Y-97506822D01*
X52255928Y-105464809D01*
X52255928Y-105526750D01*
X52272872Y-105698785D01*
X52323053Y-105864209D01*
X52404542Y-106016664D01*
X52514208Y-106150292D01*
X52647836Y-106259958D01*
X52800291Y-106341447D01*
X52832001Y-106351066D01*
X52832001Y-106613288D01*
X52790063Y-106655226D01*
X52676795Y-106824744D01*
X52598774Y-107013102D01*
X52559000Y-107213061D01*
X52559000Y-107416939D01*
X52598774Y-107616898D01*
X52676795Y-107805256D01*
X52790063Y-107974774D01*
X52934226Y-108118937D01*
X53103744Y-108232205D01*
X53292102Y-108310226D01*
X53492061Y-108350000D01*
X53695939Y-108350000D01*
X53895898Y-108310226D01*
X54084256Y-108232205D01*
X54253774Y-108118937D01*
X54397937Y-107974774D01*
X54511205Y-107805256D01*
X54589226Y-107616898D01*
X54629000Y-107416939D01*
X54629000Y-107213061D01*
X54589226Y-107013102D01*
X54511205Y-106824744D01*
X54397937Y-106655226D01*
X54356000Y-106613289D01*
X54356000Y-106351066D01*
X54387709Y-106341447D01*
X54540164Y-106259958D01*
X54673792Y-106150292D01*
X54783458Y-106016664D01*
X54864947Y-105864209D01*
X54902473Y-105740500D01*
X56953402Y-105740500D01*
X56965662Y-105864982D01*
X57001972Y-105984680D01*
X57060937Y-106094994D01*
X57140289Y-106191685D01*
X57236980Y-106271037D01*
X57347294Y-106330002D01*
X57466992Y-106366312D01*
X57591474Y-106378572D01*
X58005724Y-106375500D01*
X58164474Y-106216750D01*
X58164474Y-105380000D01*
X58418474Y-105380000D01*
X58418474Y-106216750D01*
X58577224Y-106375500D01*
X58991474Y-106378572D01*
X59115956Y-106366312D01*
X59235654Y-106330002D01*
X59345968Y-106271037D01*
X59442659Y-106191685D01*
X59522011Y-106094994D01*
X59580976Y-105984680D01*
X59617286Y-105864982D01*
X59629546Y-105740500D01*
X59626474Y-105538750D01*
X59467724Y-105380000D01*
X58418474Y-105380000D01*
X58164474Y-105380000D01*
X57115224Y-105380000D01*
X56956474Y-105538750D01*
X56953402Y-105740500D01*
X54902473Y-105740500D01*
X54915128Y-105698785D01*
X54932072Y-105526750D01*
X54932072Y-105039250D01*
X54915128Y-104867215D01*
X54864947Y-104701791D01*
X54783458Y-104549336D01*
X54673792Y-104415708D01*
X54588244Y-104345500D01*
X54673792Y-104275292D01*
X54708090Y-104233500D01*
X57202005Y-104233500D01*
X57211682Y-104245292D01*
X57218038Y-104250508D01*
X57140289Y-104314315D01*
X57060937Y-104411006D01*
X57001972Y-104521320D01*
X56965662Y-104641018D01*
X56953402Y-104765500D01*
X56956474Y-104967250D01*
X57115224Y-105126000D01*
X58164474Y-105126000D01*
X58164474Y-105106000D01*
X58418474Y-105106000D01*
X58418474Y-105126000D01*
X59467724Y-105126000D01*
X59603076Y-104990648D01*
X62391041Y-104990648D01*
X62394113Y-105192398D01*
X62552863Y-105351148D01*
X63602113Y-105351148D01*
X63602113Y-104514398D01*
X63856113Y-104514398D01*
X63856113Y-105351148D01*
X64905363Y-105351148D01*
X65064113Y-105192398D01*
X65067185Y-104990648D01*
X65054925Y-104866166D01*
X65018615Y-104746468D01*
X64959650Y-104636154D01*
X64880298Y-104539463D01*
X64783607Y-104460111D01*
X64673293Y-104401146D01*
X64553595Y-104364836D01*
X64429113Y-104352576D01*
X64014863Y-104355648D01*
X63856113Y-104514398D01*
X63602113Y-104514398D01*
X63443363Y-104355648D01*
X63029113Y-104352576D01*
X62904631Y-104364836D01*
X62784933Y-104401146D01*
X62674619Y-104460111D01*
X62577928Y-104539463D01*
X62498576Y-104636154D01*
X62439611Y-104746468D01*
X62403301Y-104866166D01*
X62391041Y-104990648D01*
X59603076Y-104990648D01*
X59626474Y-104967250D01*
X59629546Y-104765500D01*
X59617286Y-104641018D01*
X59580976Y-104521320D01*
X59522011Y-104411006D01*
X59442659Y-104314315D01*
X59364910Y-104250508D01*
X59371266Y-104245292D01*
X59405564Y-104203500D01*
X60411449Y-104203500D01*
X60452000Y-104207494D01*
X60492550Y-104203500D01*
X64962307Y-104203500D01*
X65002857Y-104207494D01*
X65043407Y-104203500D01*
X65043410Y-104203500D01*
X65164683Y-104191556D01*
X65320291Y-104144353D01*
X65463699Y-104067699D01*
X65589398Y-103964541D01*
X65615255Y-103933034D01*
X65704470Y-103843819D01*
X65704469Y-106486201D01*
X64809188Y-106486201D01*
X64808905Y-106485856D01*
X64802549Y-106480640D01*
X64880298Y-106416833D01*
X64959650Y-106320142D01*
X65018615Y-106209828D01*
X65054925Y-106090130D01*
X65067185Y-105965648D01*
X65064113Y-105763898D01*
X64905363Y-105605148D01*
X63856113Y-105605148D01*
X63856113Y-105625148D01*
X63602113Y-105625148D01*
X63602113Y-105605148D01*
X62552863Y-105605148D01*
X62394113Y-105763898D01*
X62391041Y-105965648D01*
X62403301Y-106090130D01*
X62439611Y-106209828D01*
X62498576Y-106320142D01*
X62577928Y-106416833D01*
X62655677Y-106480640D01*
X62649321Y-106485856D01*
X62539655Y-106619484D01*
X62458166Y-106771939D01*
X62407985Y-106937363D01*
X62391041Y-107109398D01*
X62391041Y-107596898D01*
X62407985Y-107768933D01*
X62458166Y-107934357D01*
X62539655Y-108086812D01*
X62649321Y-108220440D01*
X62782949Y-108330106D01*
X62935404Y-108411595D01*
X63100828Y-108461776D01*
X63272863Y-108478720D01*
X64185363Y-108478720D01*
X64357398Y-108461776D01*
X64522822Y-108411595D01*
X64675277Y-108330106D01*
X64808905Y-108220440D01*
X64918571Y-108086812D01*
X64959520Y-108010201D01*
X66179039Y-108010201D01*
X66203968Y-108092381D01*
X66262933Y-108202695D01*
X66342285Y-108299386D01*
X66438976Y-108378738D01*
X66549290Y-108437703D01*
X66668988Y-108474013D01*
X66793470Y-108486273D01*
X68193470Y-108486273D01*
X68317952Y-108474013D01*
X68437650Y-108437703D01*
X68547964Y-108378738D01*
X68593470Y-108341392D01*
X68638976Y-108378738D01*
X68749290Y-108437703D01*
X68868988Y-108474013D01*
X68993470Y-108486273D01*
X69407720Y-108483201D01*
X69566470Y-108324451D01*
X69566470Y-107375201D01*
X69820470Y-107375201D01*
X69820470Y-108324451D01*
X69979220Y-108483201D01*
X70393470Y-108486273D01*
X70517952Y-108474013D01*
X70637650Y-108437703D01*
X70747964Y-108378738D01*
X70844655Y-108299386D01*
X70924007Y-108202695D01*
X70982972Y-108092381D01*
X71019282Y-107972683D01*
X71031542Y-107848201D01*
X71031392Y-107832840D01*
X72099249Y-107832840D01*
X72111509Y-107957322D01*
X72147819Y-108077020D01*
X72206784Y-108187334D01*
X72286136Y-108284025D01*
X72382827Y-108363377D01*
X72493141Y-108422342D01*
X72612839Y-108458652D01*
X72737321Y-108470912D01*
X73151571Y-108467840D01*
X73310321Y-108309090D01*
X73310321Y-107472340D01*
X73564321Y-107472340D01*
X73564321Y-108309090D01*
X73723071Y-108467840D01*
X74137321Y-108470912D01*
X74261803Y-108458652D01*
X74381501Y-108422342D01*
X74491815Y-108363377D01*
X74588506Y-108284025D01*
X74667858Y-108187334D01*
X74726823Y-108077020D01*
X74763133Y-107957322D01*
X74775393Y-107832840D01*
X74772321Y-107631090D01*
X74613571Y-107472340D01*
X73564321Y-107472340D01*
X73310321Y-107472340D01*
X72261071Y-107472340D01*
X72102321Y-107631090D01*
X72099249Y-107832840D01*
X71031392Y-107832840D01*
X71028470Y-107533951D01*
X70869720Y-107375201D01*
X69820470Y-107375201D01*
X69566470Y-107375201D01*
X69546470Y-107375201D01*
X69546470Y-107121201D01*
X69566470Y-107121201D01*
X69566470Y-107101201D01*
X69820470Y-107101201D01*
X69820470Y-107121201D01*
X70869720Y-107121201D01*
X71028470Y-106962451D01*
X71031542Y-106648201D01*
X71019282Y-106523719D01*
X70982972Y-106404021D01*
X70979861Y-106398201D01*
X70982972Y-106392381D01*
X71007901Y-106310201D01*
X72335017Y-106310201D01*
X72357529Y-106337632D01*
X72363885Y-106342848D01*
X72286136Y-106406655D01*
X72206784Y-106503346D01*
X72147819Y-106613660D01*
X72111509Y-106733358D01*
X72099249Y-106857840D01*
X72102321Y-107059590D01*
X72261071Y-107218340D01*
X73310321Y-107218340D01*
X73310321Y-107198340D01*
X73564321Y-107198340D01*
X73564321Y-107218340D01*
X74613571Y-107218340D01*
X74772321Y-107059590D01*
X74775393Y-106857840D01*
X74763133Y-106733358D01*
X74726823Y-106613660D01*
X74667858Y-106503346D01*
X74588506Y-106406655D01*
X74510757Y-106342848D01*
X74517113Y-106337632D01*
X74626779Y-106204004D01*
X74708268Y-106051549D01*
X74758449Y-105886125D01*
X74775393Y-105714090D01*
X74775393Y-105553031D01*
X74811921Y-105589559D01*
X74835778Y-105618629D01*
X74864848Y-105642486D01*
X74951807Y-105713852D01*
X74966810Y-105721871D01*
X75084185Y-105784609D01*
X75227822Y-105828181D01*
X75339774Y-105839207D01*
X75339777Y-105839207D01*
X75377200Y-105842893D01*
X75414623Y-105839207D01*
X77891021Y-105839207D01*
X77932958Y-105881144D01*
X78102476Y-105994412D01*
X78290834Y-106072433D01*
X78490793Y-106112207D01*
X78694671Y-106112207D01*
X78894630Y-106072433D01*
X79082988Y-105994412D01*
X79252506Y-105881144D01*
X79396669Y-105736981D01*
X79509937Y-105567463D01*
X79587958Y-105379105D01*
X79627732Y-105179146D01*
X79627732Y-104975268D01*
X79587958Y-104775309D01*
X79509937Y-104586951D01*
X79498480Y-104569804D01*
X79515276Y-104544667D01*
X79593297Y-104356309D01*
X79633071Y-104156350D01*
X79633071Y-103952472D01*
X79593297Y-103752513D01*
X79515276Y-103564155D01*
X79509479Y-103555479D01*
X79527401Y-103528657D01*
X79605422Y-103340299D01*
X79645196Y-103140340D01*
X79645196Y-102936462D01*
X79618586Y-102802685D01*
X97095220Y-102802685D01*
X97132643Y-102806371D01*
X97170066Y-102802685D01*
X97170069Y-102802685D01*
X97282021Y-102791659D01*
X97425658Y-102748087D01*
X97558035Y-102677330D01*
X97674065Y-102582107D01*
X97697927Y-102553031D01*
X106379725Y-93871233D01*
X106396120Y-93871233D01*
X106933195Y-94408308D01*
X106933195Y-94912500D01*
X106950139Y-95084535D01*
X107000320Y-95249959D01*
X107081809Y-95402414D01*
X107191475Y-95536042D01*
X107325103Y-95645708D01*
X107477558Y-95727197D01*
X107642982Y-95777378D01*
X107815017Y-95794322D01*
X108302517Y-95794322D01*
X108474552Y-95777378D01*
X108639976Y-95727197D01*
X108792431Y-95645708D01*
X108926059Y-95536042D01*
X108996267Y-95450494D01*
X109066475Y-95536042D01*
X109200103Y-95645708D01*
X109352558Y-95727197D01*
X109517982Y-95777378D01*
X109690017Y-95794322D01*
X110177517Y-95794322D01*
X110349552Y-95777378D01*
X110514976Y-95727197D01*
X110667431Y-95645708D01*
X110801059Y-95536042D01*
X110910725Y-95402414D01*
X110992214Y-95249959D01*
X111042395Y-95084535D01*
X111059339Y-94912500D01*
X111059339Y-94662013D01*
X112557870Y-94662013D01*
X112559108Y-94743324D01*
X112717858Y-94902074D01*
X113767108Y-94902074D01*
X113767108Y-94882074D01*
X114021108Y-94882074D01*
X114021108Y-94902074D01*
X115070358Y-94902074D01*
X115229108Y-94743324D01*
X115232180Y-94541574D01*
X116524786Y-94541574D01*
X116527858Y-94743324D01*
X116686608Y-94902074D01*
X117735858Y-94902074D01*
X117735858Y-94065324D01*
X117989858Y-94065324D01*
X117989858Y-94902074D01*
X119039108Y-94902074D01*
X119197858Y-94743324D01*
X119200930Y-94541574D01*
X119188670Y-94417092D01*
X119152360Y-94297394D01*
X119093395Y-94187080D01*
X119014043Y-94090389D01*
X118917352Y-94011037D01*
X118807038Y-93952072D01*
X118687340Y-93915762D01*
X118562858Y-93903502D01*
X118148608Y-93906574D01*
X117989858Y-94065324D01*
X117735858Y-94065324D01*
X117577108Y-93906574D01*
X117162858Y-93903502D01*
X117038376Y-93915762D01*
X116918678Y-93952072D01*
X116808364Y-94011037D01*
X116711673Y-94090389D01*
X116632321Y-94187080D01*
X116573356Y-94297394D01*
X116537046Y-94417092D01*
X116524786Y-94541574D01*
X115232180Y-94541574D01*
X115219920Y-94417092D01*
X115205799Y-94370543D01*
X115969708Y-93606634D01*
X116000494Y-93627205D01*
X116188852Y-93705226D01*
X116388811Y-93745000D01*
X116592689Y-93745000D01*
X116792648Y-93705226D01*
X116981006Y-93627205D01*
X117150524Y-93513937D01*
X117294687Y-93369774D01*
X117407955Y-93200256D01*
X117485976Y-93011898D01*
X117525750Y-92811939D01*
X117525750Y-92721923D01*
X117579152Y-92622015D01*
X117622724Y-92478377D01*
X117633750Y-92366425D01*
X117633750Y-92366424D01*
X117637436Y-92329001D01*
X117633750Y-92291578D01*
X117633750Y-91842343D01*
X117672935Y-91810185D01*
X117752287Y-91713494D01*
X117811252Y-91603180D01*
X117847562Y-91483482D01*
X117859822Y-91359000D01*
X117859822Y-90759000D01*
X117847562Y-90634518D01*
X117811252Y-90514820D01*
X117752287Y-90404506D01*
X117672935Y-90307815D01*
X117576244Y-90228463D01*
X117465930Y-90169498D01*
X117346232Y-90133188D01*
X117221750Y-90120928D01*
X116521750Y-90120928D01*
X116397268Y-90133188D01*
X116277570Y-90169498D01*
X116167256Y-90228463D01*
X116070565Y-90307815D01*
X115991213Y-90404506D01*
X115932248Y-90514820D01*
X115895938Y-90634518D01*
X115883678Y-90759000D01*
X115883678Y-91359000D01*
X115895938Y-91483482D01*
X115932248Y-91603180D01*
X115991213Y-91713494D01*
X116042137Y-91775546D01*
X116000494Y-91792795D01*
X115830976Y-91906063D01*
X115792365Y-91944674D01*
X115788712Y-91944314D01*
X115751289Y-91948000D01*
X115751286Y-91948000D01*
X115665862Y-91956413D01*
X115643687Y-91923226D01*
X115633750Y-91913289D01*
X115633750Y-91842343D01*
X115672935Y-91810185D01*
X115752287Y-91713494D01*
X115811252Y-91603180D01*
X115847562Y-91483482D01*
X115859822Y-91359000D01*
X115859822Y-90759000D01*
X115847562Y-90634518D01*
X115811252Y-90514820D01*
X115752287Y-90404506D01*
X115673908Y-90309000D01*
X115752287Y-90213494D01*
X115811252Y-90103180D01*
X115847562Y-89983482D01*
X115859822Y-89859000D01*
X115856750Y-89644750D01*
X115698000Y-89486000D01*
X114998750Y-89486000D01*
X114998750Y-89506000D01*
X114744750Y-89506000D01*
X114744750Y-89486000D01*
X114045500Y-89486000D01*
X113886750Y-89644750D01*
X113883678Y-89859000D01*
X113895938Y-89983482D01*
X113932248Y-90103180D01*
X113991213Y-90213494D01*
X114069592Y-90309000D01*
X113991213Y-90404506D01*
X113932248Y-90514820D01*
X113895938Y-90634518D01*
X113883678Y-90759000D01*
X113883678Y-91359000D01*
X113895938Y-91483482D01*
X113932248Y-91603180D01*
X113991213Y-91713494D01*
X114070565Y-91810185D01*
X114083743Y-91821000D01*
X111758398Y-91821000D01*
X111044339Y-91106942D01*
X111044339Y-90602750D01*
X111027395Y-90430715D01*
X110977214Y-90265291D01*
X110895725Y-90112836D01*
X110786059Y-89979208D01*
X110652431Y-89869542D01*
X110499976Y-89788053D01*
X110334552Y-89737872D01*
X110162517Y-89720928D01*
X109675017Y-89720928D01*
X109502982Y-89737872D01*
X109337558Y-89788053D01*
X109185103Y-89869542D01*
X109051475Y-89979208D01*
X108981267Y-90064756D01*
X108911059Y-89979208D01*
X108777431Y-89869542D01*
X108624976Y-89788053D01*
X108459552Y-89737872D01*
X108287517Y-89720928D01*
X107800017Y-89720928D01*
X107627982Y-89737872D01*
X107462558Y-89788053D01*
X107310103Y-89869542D01*
X107176475Y-89979208D01*
X107066809Y-90112836D01*
X106985320Y-90265291D01*
X106935139Y-90430715D01*
X106918195Y-90602750D01*
X106918195Y-90849765D01*
X106916024Y-90849551D01*
X106878601Y-90853237D01*
X106878599Y-90853237D01*
X106766647Y-90864263D01*
X106623010Y-90907835D01*
X106490633Y-90978592D01*
X106374603Y-91073815D01*
X106350746Y-91102885D01*
X96742632Y-100711000D01*
X83251711Y-100711000D01*
X83353937Y-100608774D01*
X83467205Y-100439256D01*
X83545226Y-100250898D01*
X83585000Y-100050939D01*
X83585000Y-99847061D01*
X83545226Y-99647102D01*
X83467205Y-99458744D01*
X83412920Y-99377500D01*
X83467205Y-99296256D01*
X83545226Y-99107898D01*
X83585000Y-98907939D01*
X83585000Y-98704061D01*
X83545226Y-98504102D01*
X83467205Y-98315744D01*
X83412920Y-98234500D01*
X83467205Y-98153256D01*
X83545226Y-97964898D01*
X83585000Y-97764939D01*
X83585000Y-97561061D01*
X83545226Y-97361102D01*
X83467205Y-97172744D01*
X83412920Y-97091500D01*
X83467205Y-97010256D01*
X83545226Y-96821898D01*
X83585000Y-96621939D01*
X83585000Y-96418061D01*
X83545226Y-96218102D01*
X83467205Y-96029744D01*
X83412920Y-95948500D01*
X83467205Y-95867256D01*
X83545226Y-95678898D01*
X83585000Y-95478939D01*
X83585000Y-95275061D01*
X83545226Y-95075102D01*
X83467205Y-94886744D01*
X83412920Y-94805500D01*
X83467205Y-94724256D01*
X83545226Y-94535898D01*
X83585000Y-94335939D01*
X83585000Y-94132061D01*
X83545226Y-93932102D01*
X83467205Y-93743744D01*
X83407575Y-93654502D01*
X83467205Y-93565259D01*
X83545226Y-93376901D01*
X83585000Y-93176942D01*
X83585000Y-92973064D01*
X83545226Y-92773105D01*
X83467205Y-92584747D01*
X83460693Y-92575002D01*
X83467205Y-92565256D01*
X83545226Y-92376898D01*
X83585000Y-92176939D01*
X83585000Y-91973061D01*
X83545226Y-91773102D01*
X83467205Y-91584744D01*
X83353937Y-91415226D01*
X83209774Y-91271063D01*
X83040256Y-91157795D01*
X82851898Y-91079774D01*
X82651939Y-91040000D01*
X82448061Y-91040000D01*
X82363273Y-91056865D01*
X82364072Y-91048750D01*
X82364072Y-90561250D01*
X82347128Y-90389215D01*
X82296947Y-90223791D01*
X82215458Y-90071336D01*
X82105792Y-89937708D01*
X82099436Y-89932492D01*
X82177185Y-89868685D01*
X82256537Y-89771994D01*
X82315502Y-89661680D01*
X82351812Y-89541982D01*
X82364072Y-89417500D01*
X82361000Y-89215750D01*
X82202250Y-89057000D01*
X81153000Y-89057000D01*
X81153000Y-89077000D01*
X80899000Y-89077000D01*
X80899000Y-89057000D01*
X79849750Y-89057000D01*
X79691000Y-89215750D01*
X79687928Y-89417500D01*
X79700188Y-89541982D01*
X79736498Y-89661680D01*
X79795463Y-89771994D01*
X79874815Y-89868685D01*
X79952564Y-89932492D01*
X79946208Y-89937708D01*
X79836542Y-90071336D01*
X79755053Y-90223791D01*
X79704872Y-90389215D01*
X79687928Y-90561250D01*
X79687928Y-91048750D01*
X79689425Y-91063945D01*
X79540889Y-91212481D01*
X77666546Y-91212481D01*
X77666546Y-90899481D01*
X77654286Y-90774999D01*
X77654129Y-90774481D01*
X77654286Y-90773963D01*
X77666546Y-90649481D01*
X77666546Y-90308398D01*
X77753955Y-90281883D01*
X77886332Y-90211126D01*
X78002362Y-90115903D01*
X78026224Y-90086827D01*
X79254051Y-88859000D01*
X113883678Y-88859000D01*
X113886750Y-89073250D01*
X114045500Y-89232000D01*
X114744750Y-89232000D01*
X114744750Y-88382750D01*
X114998750Y-88382750D01*
X114998750Y-89232000D01*
X115698000Y-89232000D01*
X115856750Y-89073250D01*
X115859822Y-88859000D01*
X115847562Y-88734518D01*
X115811252Y-88614820D01*
X115752287Y-88504506D01*
X115672935Y-88407815D01*
X115576244Y-88328463D01*
X115465930Y-88269498D01*
X115346232Y-88233188D01*
X115221750Y-88220928D01*
X115157500Y-88224000D01*
X114998750Y-88382750D01*
X114744750Y-88382750D01*
X114586000Y-88224000D01*
X114521750Y-88220928D01*
X114397268Y-88233188D01*
X114277570Y-88269498D01*
X114167256Y-88328463D01*
X114070565Y-88407815D01*
X113991213Y-88504506D01*
X113932248Y-88614820D01*
X113895938Y-88734518D01*
X113883678Y-88859000D01*
X79254051Y-88859000D01*
X79689826Y-88423225D01*
X79687928Y-88442500D01*
X79691000Y-88644250D01*
X79849750Y-88803000D01*
X80899000Y-88803000D01*
X80899000Y-88783000D01*
X81153000Y-88783000D01*
X81153000Y-88803000D01*
X82202250Y-88803000D01*
X82361000Y-88644250D01*
X82364072Y-88442500D01*
X82351812Y-88318018D01*
X82315502Y-88198320D01*
X82256537Y-88088006D01*
X82177185Y-87991315D01*
X82080494Y-87911963D01*
X81970180Y-87852998D01*
X81850482Y-87816688D01*
X81726000Y-87804428D01*
X81707930Y-87804562D01*
X81774324Y-87644274D01*
X81814098Y-87444315D01*
X81814098Y-87240437D01*
X81774324Y-87040478D01*
X81696303Y-86852120D01*
X81583035Y-86682602D01*
X81446978Y-86546545D01*
X81453967Y-86511411D01*
X81453967Y-86307533D01*
X81414193Y-86107574D01*
X81336172Y-85919216D01*
X81222904Y-85749698D01*
X81078741Y-85605535D01*
X80909223Y-85492267D01*
X80720865Y-85414246D01*
X80557306Y-85381712D01*
X80533115Y-85323311D01*
X80419847Y-85153793D01*
X80275684Y-85009630D01*
X80106166Y-84896362D01*
X79917808Y-84818341D01*
X79717849Y-84778567D01*
X79615600Y-84778567D01*
X79543937Y-84671315D01*
X79399774Y-84527152D01*
X79230256Y-84413884D01*
X79041898Y-84335863D01*
X78841939Y-84296089D01*
X78638061Y-84296089D01*
X78438102Y-84335863D01*
X78249744Y-84413884D01*
X78080226Y-84527152D01*
X78038289Y-84569089D01*
X75765517Y-84569089D01*
X75754273Y-84563079D01*
X75610636Y-84519507D01*
X75498684Y-84508481D01*
X75498681Y-84508481D01*
X75461258Y-84504795D01*
X75423835Y-84508481D01*
X75296521Y-84508481D01*
X75246128Y-84386823D01*
X75132860Y-84217305D01*
X74988697Y-84073142D01*
X74819179Y-83959874D01*
X74630821Y-83881853D01*
X74430862Y-83842079D01*
X74262579Y-83842079D01*
X74209937Y-83763295D01*
X74184197Y-83737555D01*
X74258947Y-83597709D01*
X74309128Y-83432285D01*
X74326072Y-83260250D01*
X74326072Y-82351505D01*
X75333611Y-83359045D01*
X75359459Y-83390541D01*
X75390955Y-83416389D01*
X75390958Y-83416392D01*
X75485157Y-83493699D01*
X75592911Y-83551295D01*
X75628566Y-83570353D01*
X75784174Y-83617556D01*
X75905447Y-83629500D01*
X75905449Y-83629500D01*
X75946000Y-83633494D01*
X75986550Y-83629500D01*
X114118696Y-83629500D01*
X118923936Y-88434741D01*
X118845184Y-88392647D01*
X118689576Y-88345444D01*
X118568303Y-88333500D01*
X118568300Y-88333500D01*
X118527750Y-88329506D01*
X118487200Y-88333500D01*
X117582382Y-88333500D01*
X117576244Y-88328463D01*
X117465930Y-88269498D01*
X117346232Y-88233188D01*
X117221750Y-88220928D01*
X116521750Y-88220928D01*
X116397268Y-88233188D01*
X116277570Y-88269498D01*
X116167256Y-88328463D01*
X116070565Y-88407815D01*
X115991213Y-88504506D01*
X115932248Y-88614820D01*
X115895938Y-88734518D01*
X115883678Y-88859000D01*
X115883678Y-89459000D01*
X115895938Y-89583482D01*
X115932248Y-89703180D01*
X115991213Y-89813494D01*
X116070565Y-89910185D01*
X116167256Y-89989537D01*
X116277570Y-90048502D01*
X116397268Y-90084812D01*
X116521750Y-90097072D01*
X117221750Y-90097072D01*
X117346232Y-90084812D01*
X117465930Y-90048502D01*
X117576244Y-89989537D01*
X117582382Y-89984500D01*
X118185818Y-89984500D01*
X121436053Y-93234736D01*
X121436053Y-93405036D01*
X121296702Y-93447307D01*
X121143166Y-93529374D01*
X121008590Y-93639817D01*
X120898147Y-93774393D01*
X120816080Y-93927929D01*
X120765544Y-94094525D01*
X120748480Y-94267779D01*
X120748480Y-95017779D01*
X120765544Y-95191033D01*
X120816080Y-95357629D01*
X120898147Y-95511165D01*
X121008590Y-95645741D01*
X121143166Y-95756184D01*
X121296702Y-95838251D01*
X121463298Y-95888787D01*
X121636552Y-95905851D01*
X122886552Y-95905851D01*
X123059806Y-95888787D01*
X123226402Y-95838251D01*
X123379938Y-95756184D01*
X123514514Y-95645741D01*
X123624957Y-95511165D01*
X123647880Y-95468279D01*
X152320757Y-95468279D01*
X152332860Y-95469471D01*
X152332863Y-95469471D01*
X152373413Y-95473465D01*
X152413963Y-95469471D01*
X153627827Y-95469471D01*
X153629705Y-95472985D01*
X153815277Y-95699105D01*
X154041397Y-95884677D01*
X154096202Y-95913971D01*
X154041397Y-95943265D01*
X153815277Y-96128837D01*
X153629705Y-96354957D01*
X153491812Y-96612937D01*
X153406898Y-96892860D01*
X153378226Y-97183971D01*
X153406898Y-97475082D01*
X153491812Y-97755005D01*
X153629705Y-98012985D01*
X153815277Y-98239105D01*
X154041397Y-98424677D01*
X154096202Y-98453971D01*
X154041397Y-98483265D01*
X153815277Y-98668837D01*
X153629705Y-98894957D01*
X153491812Y-99152937D01*
X153406898Y-99432860D01*
X153378226Y-99723971D01*
X153406898Y-100015082D01*
X153491812Y-100295005D01*
X153629705Y-100552985D01*
X153815277Y-100779105D01*
X154041397Y-100964677D01*
X154299377Y-101102570D01*
X154579300Y-101187484D01*
X154797461Y-101208971D01*
X154943361Y-101208971D01*
X155161522Y-101187484D01*
X155441445Y-101102570D01*
X155699425Y-100964677D01*
X155925545Y-100779105D01*
X156111117Y-100552985D01*
X156249010Y-100295005D01*
X156333924Y-100015082D01*
X156362596Y-99723971D01*
X156333924Y-99432860D01*
X156249010Y-99152937D01*
X156111117Y-98894957D01*
X155925545Y-98668837D01*
X155699425Y-98483265D01*
X155644620Y-98453971D01*
X155699425Y-98424677D01*
X155925545Y-98239105D01*
X156111117Y-98012985D01*
X156249010Y-97755005D01*
X156333924Y-97475082D01*
X156362596Y-97183971D01*
X156333924Y-96892860D01*
X156249010Y-96612937D01*
X156111117Y-96354957D01*
X155925545Y-96128837D01*
X155699425Y-95943265D01*
X155644620Y-95913971D01*
X155699425Y-95884677D01*
X155925545Y-95699105D01*
X156111117Y-95472985D01*
X156249010Y-95215005D01*
X156333924Y-94935082D01*
X156362596Y-94643971D01*
X156333924Y-94352860D01*
X156249010Y-94072937D01*
X156111117Y-93814957D01*
X155925545Y-93588837D01*
X155895724Y-93564364D01*
X155964591Y-93543473D01*
X156074905Y-93484508D01*
X156171596Y-93405156D01*
X156250948Y-93308465D01*
X156309913Y-93198151D01*
X156346223Y-93078453D01*
X156358483Y-92953971D01*
X156358483Y-91253971D01*
X156346223Y-91129489D01*
X156309913Y-91009791D01*
X156250948Y-90899477D01*
X156171596Y-90802786D01*
X156074905Y-90723434D01*
X155964591Y-90664469D01*
X155844893Y-90628159D01*
X155720411Y-90615899D01*
X154020411Y-90615899D01*
X153895929Y-90628159D01*
X153776231Y-90664469D01*
X153665917Y-90723434D01*
X153569226Y-90802786D01*
X153489874Y-90899477D01*
X153430909Y-91009791D01*
X153394599Y-91129489D01*
X153382339Y-91253971D01*
X153382339Y-92953971D01*
X153394599Y-93078453D01*
X153430909Y-93198151D01*
X153489874Y-93308465D01*
X153569226Y-93405156D01*
X153665917Y-93484508D01*
X153776231Y-93543473D01*
X153845098Y-93564364D01*
X153815277Y-93588837D01*
X153629705Y-93814957D01*
X153627827Y-93818471D01*
X152424877Y-93818471D01*
X152412774Y-93817279D01*
X152412771Y-93817279D01*
X152372221Y-93813285D01*
X152331671Y-93817279D01*
X123647880Y-93817279D01*
X123624957Y-93774393D01*
X123514514Y-93639817D01*
X123379938Y-93529374D01*
X123226402Y-93447307D01*
X123087052Y-93405036D01*
X123087052Y-92933344D01*
X123091045Y-92892801D01*
X123087052Y-92852258D01*
X123087052Y-90645474D01*
X123091046Y-90604924D01*
X123086932Y-90563154D01*
X123075108Y-90443098D01*
X123027905Y-90287490D01*
X123015423Y-90264138D01*
X122951251Y-90144081D01*
X122873944Y-90049882D01*
X122873941Y-90049879D01*
X122848093Y-90018383D01*
X122816598Y-89992536D01*
X115073026Y-82248966D01*
X115047169Y-82217459D01*
X114921470Y-82114301D01*
X114778062Y-82037647D01*
X114622454Y-81990444D01*
X114501181Y-81978500D01*
X114501178Y-81978500D01*
X114460628Y-81974506D01*
X114420078Y-81978500D01*
X76287934Y-81978500D01*
X74653398Y-80343966D01*
X74627541Y-80312459D01*
X74501842Y-80209301D01*
X74358434Y-80132647D01*
X74202826Y-80085444D01*
X74081553Y-80073500D01*
X74081550Y-80073500D01*
X74041000Y-80069506D01*
X74000450Y-80073500D01*
X73065550Y-80073500D01*
X73025000Y-80069506D01*
X72984450Y-80073500D01*
X69361945Y-80073500D01*
X69754785Y-79910780D01*
X70126417Y-79662464D01*
X70442464Y-79346417D01*
X70690780Y-78974785D01*
X70861824Y-78561849D01*
X70949021Y-78123479D01*
X70949021Y-77676521D01*
X70861824Y-77238151D01*
X70760590Y-76993750D01*
X83597815Y-76993750D01*
X83626487Y-77284861D01*
X83711401Y-77564784D01*
X83849294Y-77822764D01*
X84034866Y-78048884D01*
X84260986Y-78234456D01*
X84518966Y-78372349D01*
X84798889Y-78457263D01*
X85017050Y-78478750D01*
X85162950Y-78478750D01*
X85381111Y-78457263D01*
X85661034Y-78372349D01*
X85919014Y-78234456D01*
X86145134Y-78048884D01*
X86330706Y-77822764D01*
X86360000Y-77767959D01*
X86389294Y-77822764D01*
X86574866Y-78048884D01*
X86800986Y-78234456D01*
X87058966Y-78372349D01*
X87338889Y-78457263D01*
X87557050Y-78478750D01*
X87702950Y-78478750D01*
X87921111Y-78457263D01*
X88201034Y-78372349D01*
X88459014Y-78234456D01*
X88685134Y-78048884D01*
X88870706Y-77822764D01*
X88900000Y-77767959D01*
X88929294Y-77822764D01*
X89114866Y-78048884D01*
X89340986Y-78234456D01*
X89598966Y-78372349D01*
X89878889Y-78457263D01*
X90097050Y-78478750D01*
X90242950Y-78478750D01*
X90461111Y-78457263D01*
X90741034Y-78372349D01*
X90999014Y-78234456D01*
X91225134Y-78048884D01*
X91410706Y-77822764D01*
X91440000Y-77767959D01*
X91469294Y-77822764D01*
X91654866Y-78048884D01*
X91880986Y-78234456D01*
X92138966Y-78372349D01*
X92418889Y-78457263D01*
X92637050Y-78478750D01*
X92782950Y-78478750D01*
X93001111Y-78457263D01*
X93281034Y-78372349D01*
X93539014Y-78234456D01*
X93765134Y-78048884D01*
X93950706Y-77822764D01*
X93980000Y-77767959D01*
X94009294Y-77822764D01*
X94194866Y-78048884D01*
X94420986Y-78234456D01*
X94678966Y-78372349D01*
X94958889Y-78457263D01*
X95177050Y-78478750D01*
X95322950Y-78478750D01*
X95541111Y-78457263D01*
X95821034Y-78372349D01*
X96079014Y-78234456D01*
X96305134Y-78048884D01*
X96490706Y-77822764D01*
X96520000Y-77767959D01*
X96549294Y-77822764D01*
X96734866Y-78048884D01*
X96960986Y-78234456D01*
X97218966Y-78372349D01*
X97498889Y-78457263D01*
X97717050Y-78478750D01*
X97862950Y-78478750D01*
X98081111Y-78457263D01*
X98361034Y-78372349D01*
X98619014Y-78234456D01*
X98845134Y-78048884D01*
X99030706Y-77822764D01*
X99060000Y-77767959D01*
X99089294Y-77822764D01*
X99274866Y-78048884D01*
X99500986Y-78234456D01*
X99758966Y-78372349D01*
X100038889Y-78457263D01*
X100257050Y-78478750D01*
X100402950Y-78478750D01*
X100621111Y-78457263D01*
X100901034Y-78372349D01*
X101159014Y-78234456D01*
X101385134Y-78048884D01*
X101570706Y-77822764D01*
X101600000Y-77767959D01*
X101629294Y-77822764D01*
X101814866Y-78048884D01*
X102040986Y-78234456D01*
X102298966Y-78372349D01*
X102578889Y-78457263D01*
X102797050Y-78478750D01*
X102942950Y-78478750D01*
X103161111Y-78457263D01*
X103441034Y-78372349D01*
X103699014Y-78234456D01*
X103925134Y-78048884D01*
X104110706Y-77822764D01*
X104140000Y-77767959D01*
X104169294Y-77822764D01*
X104354866Y-78048884D01*
X104580986Y-78234456D01*
X104838966Y-78372349D01*
X105118889Y-78457263D01*
X105337050Y-78478750D01*
X105482950Y-78478750D01*
X105701111Y-78457263D01*
X105981034Y-78372349D01*
X106239014Y-78234456D01*
X106465134Y-78048884D01*
X106650706Y-77822764D01*
X106680000Y-77767959D01*
X106709294Y-77822764D01*
X106894866Y-78048884D01*
X107120986Y-78234456D01*
X107378966Y-78372349D01*
X107658889Y-78457263D01*
X107877050Y-78478750D01*
X108022950Y-78478750D01*
X108241111Y-78457263D01*
X108521034Y-78372349D01*
X108779014Y-78234456D01*
X109005134Y-78048884D01*
X109190706Y-77822764D01*
X109220000Y-77767959D01*
X109249294Y-77822764D01*
X109434866Y-78048884D01*
X109660986Y-78234456D01*
X109918966Y-78372349D01*
X110198889Y-78457263D01*
X110417050Y-78478750D01*
X110562950Y-78478750D01*
X110781111Y-78457263D01*
X111061034Y-78372349D01*
X111319014Y-78234456D01*
X111545134Y-78048884D01*
X111730706Y-77822764D01*
X111760000Y-77767959D01*
X111789294Y-77822764D01*
X111974866Y-78048884D01*
X112200986Y-78234456D01*
X112458966Y-78372349D01*
X112738889Y-78457263D01*
X112957050Y-78478750D01*
X113102950Y-78478750D01*
X113321111Y-78457263D01*
X113601034Y-78372349D01*
X113859014Y-78234456D01*
X114085134Y-78048884D01*
X114270706Y-77822764D01*
X114300000Y-77767959D01*
X114329294Y-77822764D01*
X114514866Y-78048884D01*
X114740986Y-78234456D01*
X114998966Y-78372349D01*
X115278889Y-78457263D01*
X115497050Y-78478750D01*
X115642950Y-78478750D01*
X115861111Y-78457263D01*
X116141034Y-78372349D01*
X116399014Y-78234456D01*
X116625134Y-78048884D01*
X116810706Y-77822764D01*
X116840000Y-77767959D01*
X116869294Y-77822764D01*
X117054866Y-78048884D01*
X117280986Y-78234456D01*
X117538966Y-78372349D01*
X117818889Y-78457263D01*
X118037050Y-78478750D01*
X118182950Y-78478750D01*
X118401111Y-78457263D01*
X118681034Y-78372349D01*
X118939014Y-78234456D01*
X119165134Y-78048884D01*
X119350706Y-77822764D01*
X119380000Y-77767959D01*
X119409294Y-77822764D01*
X119594866Y-78048884D01*
X119820986Y-78234456D01*
X120078966Y-78372349D01*
X120358889Y-78457263D01*
X120577050Y-78478750D01*
X120722950Y-78478750D01*
X120941111Y-78457263D01*
X121221034Y-78372349D01*
X121479014Y-78234456D01*
X121705134Y-78048884D01*
X121729607Y-78019063D01*
X121750498Y-78087930D01*
X121809463Y-78198244D01*
X121888815Y-78294935D01*
X121985506Y-78374287D01*
X122095820Y-78433252D01*
X122215518Y-78469562D01*
X122340000Y-78481822D01*
X124040000Y-78481822D01*
X124164482Y-78469562D01*
X124284180Y-78433252D01*
X124394494Y-78374287D01*
X124491185Y-78294935D01*
X124570537Y-78198244D01*
X124629502Y-78087930D01*
X124665812Y-77968232D01*
X124678072Y-77843750D01*
X124678072Y-76993750D01*
X135509065Y-76993750D01*
X135537737Y-77284861D01*
X135622651Y-77564784D01*
X135760544Y-77822764D01*
X135946116Y-78048884D01*
X136172236Y-78234456D01*
X136430216Y-78372349D01*
X136710139Y-78457263D01*
X136928300Y-78478750D01*
X137074200Y-78478750D01*
X137292361Y-78457263D01*
X137572284Y-78372349D01*
X137830264Y-78234456D01*
X138056384Y-78048884D01*
X138241956Y-77822764D01*
X138271250Y-77767959D01*
X138300544Y-77822764D01*
X138486116Y-78048884D01*
X138712236Y-78234456D01*
X138970216Y-78372349D01*
X139250139Y-78457263D01*
X139468300Y-78478750D01*
X139614200Y-78478750D01*
X139832361Y-78457263D01*
X140112284Y-78372349D01*
X140370264Y-78234456D01*
X140596384Y-78048884D01*
X140781956Y-77822764D01*
X140811250Y-77767959D01*
X140840544Y-77822764D01*
X141026116Y-78048884D01*
X141252236Y-78234456D01*
X141510216Y-78372349D01*
X141790139Y-78457263D01*
X142008300Y-78478750D01*
X142154200Y-78478750D01*
X142372361Y-78457263D01*
X142652284Y-78372349D01*
X142910264Y-78234456D01*
X143136384Y-78048884D01*
X143321956Y-77822764D01*
X143351250Y-77767959D01*
X143380544Y-77822764D01*
X143566116Y-78048884D01*
X143792236Y-78234456D01*
X144050216Y-78372349D01*
X144330139Y-78457263D01*
X144548300Y-78478750D01*
X144694200Y-78478750D01*
X144912361Y-78457263D01*
X145192284Y-78372349D01*
X145450264Y-78234456D01*
X145676384Y-78048884D01*
X145861956Y-77822764D01*
X145891250Y-77767959D01*
X145920544Y-77822764D01*
X146106116Y-78048884D01*
X146332236Y-78234456D01*
X146590216Y-78372349D01*
X146870139Y-78457263D01*
X147088300Y-78478750D01*
X147234200Y-78478750D01*
X147452361Y-78457263D01*
X147732284Y-78372349D01*
X147990264Y-78234456D01*
X148216384Y-78048884D01*
X148401956Y-77822764D01*
X148431250Y-77767959D01*
X148460544Y-77822764D01*
X148646116Y-78048884D01*
X148872236Y-78234456D01*
X149130216Y-78372349D01*
X149410139Y-78457263D01*
X149628300Y-78478750D01*
X149774200Y-78478750D01*
X149992361Y-78457263D01*
X150272284Y-78372349D01*
X150530264Y-78234456D01*
X150756384Y-78048884D01*
X150941956Y-77822764D01*
X150971250Y-77767959D01*
X151000544Y-77822764D01*
X151186116Y-78048884D01*
X151412236Y-78234456D01*
X151670216Y-78372349D01*
X151950139Y-78457263D01*
X152168300Y-78478750D01*
X152314200Y-78478750D01*
X152532361Y-78457263D01*
X152812284Y-78372349D01*
X153070264Y-78234456D01*
X153296384Y-78048884D01*
X153320857Y-78019063D01*
X153341748Y-78087930D01*
X153400713Y-78198244D01*
X153480065Y-78294935D01*
X153576756Y-78374287D01*
X153687070Y-78433252D01*
X153806768Y-78469562D01*
X153931250Y-78481822D01*
X155631250Y-78481822D01*
X155755732Y-78469562D01*
X155875430Y-78433252D01*
X155985744Y-78374287D01*
X156082435Y-78294935D01*
X156161787Y-78198244D01*
X156220752Y-78087930D01*
X156257062Y-77968232D01*
X156269322Y-77843750D01*
X156269322Y-76143750D01*
X156257062Y-76019268D01*
X156220752Y-75899570D01*
X156161787Y-75789256D01*
X156082435Y-75692565D01*
X155985744Y-75613213D01*
X155875430Y-75554248D01*
X155755732Y-75517938D01*
X155631250Y-75505678D01*
X153931250Y-75505678D01*
X153806768Y-75517938D01*
X153687070Y-75554248D01*
X153576756Y-75613213D01*
X153480065Y-75692565D01*
X153400713Y-75789256D01*
X153341748Y-75899570D01*
X153320857Y-75968437D01*
X153296384Y-75938616D01*
X153070264Y-75753044D01*
X152812284Y-75615151D01*
X152532361Y-75530237D01*
X152314200Y-75508750D01*
X152168300Y-75508750D01*
X151950139Y-75530237D01*
X151670216Y-75615151D01*
X151412236Y-75753044D01*
X151186116Y-75938616D01*
X151000544Y-76164736D01*
X150971250Y-76219541D01*
X150941956Y-76164736D01*
X150756384Y-75938616D01*
X150530264Y-75753044D01*
X150272284Y-75615151D01*
X149992361Y-75530237D01*
X149774200Y-75508750D01*
X149628300Y-75508750D01*
X149410139Y-75530237D01*
X149130216Y-75615151D01*
X148872236Y-75753044D01*
X148646116Y-75938616D01*
X148460544Y-76164736D01*
X148431250Y-76219541D01*
X148401956Y-76164736D01*
X148216384Y-75938616D01*
X147990264Y-75753044D01*
X147732284Y-75615151D01*
X147452361Y-75530237D01*
X147234200Y-75508750D01*
X147088300Y-75508750D01*
X146870139Y-75530237D01*
X146590216Y-75615151D01*
X146332236Y-75753044D01*
X146106116Y-75938616D01*
X145920544Y-76164736D01*
X145891250Y-76219541D01*
X145861956Y-76164736D01*
X145676384Y-75938616D01*
X145450264Y-75753044D01*
X145192284Y-75615151D01*
X144912361Y-75530237D01*
X144694200Y-75508750D01*
X144548300Y-75508750D01*
X144330139Y-75530237D01*
X144050216Y-75615151D01*
X143792236Y-75753044D01*
X143566116Y-75938616D01*
X143380544Y-76164736D01*
X143351250Y-76219541D01*
X143321956Y-76164736D01*
X143136384Y-75938616D01*
X142910264Y-75753044D01*
X142652284Y-75615151D01*
X142372361Y-75530237D01*
X142154200Y-75508750D01*
X142008300Y-75508750D01*
X141790139Y-75530237D01*
X141510216Y-75615151D01*
X141252236Y-75753044D01*
X141026116Y-75938616D01*
X140840544Y-76164736D01*
X140811250Y-76219541D01*
X140781956Y-76164736D01*
X140596384Y-75938616D01*
X140370264Y-75753044D01*
X140112284Y-75615151D01*
X139832361Y-75530237D01*
X139614200Y-75508750D01*
X139468300Y-75508750D01*
X139250139Y-75530237D01*
X138970216Y-75615151D01*
X138712236Y-75753044D01*
X138486116Y-75938616D01*
X138300544Y-76164736D01*
X138271250Y-76219541D01*
X138241956Y-76164736D01*
X138056384Y-75938616D01*
X137830264Y-75753044D01*
X137572284Y-75615151D01*
X137292361Y-75530237D01*
X137074200Y-75508750D01*
X136928300Y-75508750D01*
X136710139Y-75530237D01*
X136430216Y-75615151D01*
X136172236Y-75753044D01*
X135946116Y-75938616D01*
X135760544Y-76164736D01*
X135622651Y-76422716D01*
X135537737Y-76702639D01*
X135509065Y-76993750D01*
X124678072Y-76993750D01*
X124678072Y-76143750D01*
X124665812Y-76019268D01*
X124629502Y-75899570D01*
X124570537Y-75789256D01*
X124491185Y-75692565D01*
X124394494Y-75613213D01*
X124284180Y-75554248D01*
X124164482Y-75517938D01*
X124040000Y-75505678D01*
X122340000Y-75505678D01*
X122215518Y-75517938D01*
X122095820Y-75554248D01*
X121985506Y-75613213D01*
X121888815Y-75692565D01*
X121809463Y-75789256D01*
X121750498Y-75899570D01*
X121729607Y-75968437D01*
X121705134Y-75938616D01*
X121479014Y-75753044D01*
X121221034Y-75615151D01*
X120941111Y-75530237D01*
X120722950Y-75508750D01*
X120577050Y-75508750D01*
X120358889Y-75530237D01*
X120078966Y-75615151D01*
X119820986Y-75753044D01*
X119594866Y-75938616D01*
X119409294Y-76164736D01*
X119380000Y-76219541D01*
X119350706Y-76164736D01*
X119165134Y-75938616D01*
X118939014Y-75753044D01*
X118681034Y-75615151D01*
X118401111Y-75530237D01*
X118182950Y-75508750D01*
X118037050Y-75508750D01*
X117818889Y-75530237D01*
X117538966Y-75615151D01*
X117280986Y-75753044D01*
X117054866Y-75938616D01*
X116869294Y-76164736D01*
X116840000Y-76219541D01*
X116810706Y-76164736D01*
X116625134Y-75938616D01*
X116399014Y-75753044D01*
X116141034Y-75615151D01*
X115861111Y-75530237D01*
X115642950Y-75508750D01*
X115497050Y-75508750D01*
X115278889Y-75530237D01*
X114998966Y-75615151D01*
X114740986Y-75753044D01*
X114514866Y-75938616D01*
X114329294Y-76164736D01*
X114300000Y-76219541D01*
X114270706Y-76164736D01*
X114085134Y-75938616D01*
X113859014Y-75753044D01*
X113601034Y-75615151D01*
X113321111Y-75530237D01*
X113102950Y-75508750D01*
X112957050Y-75508750D01*
X112738889Y-75530237D01*
X112458966Y-75615151D01*
X112200986Y-75753044D01*
X111974866Y-75938616D01*
X111789294Y-76164736D01*
X111760000Y-76219541D01*
X111730706Y-76164736D01*
X111545134Y-75938616D01*
X111319014Y-75753044D01*
X111061034Y-75615151D01*
X110781111Y-75530237D01*
X110562950Y-75508750D01*
X110417050Y-75508750D01*
X110198889Y-75530237D01*
X109918966Y-75615151D01*
X109660986Y-75753044D01*
X109434866Y-75938616D01*
X109249294Y-76164736D01*
X109220000Y-76219541D01*
X109190706Y-76164736D01*
X109005134Y-75938616D01*
X108779014Y-75753044D01*
X108521034Y-75615151D01*
X108241111Y-75530237D01*
X108022950Y-75508750D01*
X107877050Y-75508750D01*
X107658889Y-75530237D01*
X107378966Y-75615151D01*
X107120986Y-75753044D01*
X106894866Y-75938616D01*
X106709294Y-76164736D01*
X106680000Y-76219541D01*
X106650706Y-76164736D01*
X106465134Y-75938616D01*
X106239014Y-75753044D01*
X105981034Y-75615151D01*
X105701111Y-75530237D01*
X105482950Y-75508750D01*
X105337050Y-75508750D01*
X105118889Y-75530237D01*
X104838966Y-75615151D01*
X104580986Y-75753044D01*
X104354866Y-75938616D01*
X104169294Y-76164736D01*
X104140000Y-76219541D01*
X104110706Y-76164736D01*
X103925134Y-75938616D01*
X103699014Y-75753044D01*
X103441034Y-75615151D01*
X103161111Y-75530237D01*
X102942950Y-75508750D01*
X102797050Y-75508750D01*
X102578889Y-75530237D01*
X102298966Y-75615151D01*
X102040986Y-75753044D01*
X101814866Y-75938616D01*
X101629294Y-76164736D01*
X101600000Y-76219541D01*
X101570706Y-76164736D01*
X101385134Y-75938616D01*
X101159014Y-75753044D01*
X100901034Y-75615151D01*
X100621111Y-75530237D01*
X100402950Y-75508750D01*
X100257050Y-75508750D01*
X100038889Y-75530237D01*
X99758966Y-75615151D01*
X99500986Y-75753044D01*
X99274866Y-75938616D01*
X99089294Y-76164736D01*
X99060000Y-76219541D01*
X99030706Y-76164736D01*
X98845134Y-75938616D01*
X98619014Y-75753044D01*
X98361034Y-75615151D01*
X98081111Y-75530237D01*
X97862950Y-75508750D01*
X97717050Y-75508750D01*
X97498889Y-75530237D01*
X97218966Y-75615151D01*
X96960986Y-75753044D01*
X96734866Y-75938616D01*
X96549294Y-76164736D01*
X96520000Y-76219541D01*
X96490706Y-76164736D01*
X96305134Y-75938616D01*
X96079014Y-75753044D01*
X95821034Y-75615151D01*
X95541111Y-75530237D01*
X95322950Y-75508750D01*
X95177050Y-75508750D01*
X94958889Y-75530237D01*
X94678966Y-75615151D01*
X94420986Y-75753044D01*
X94194866Y-75938616D01*
X94009294Y-76164736D01*
X93980000Y-76219541D01*
X93950706Y-76164736D01*
X93765134Y-75938616D01*
X93539014Y-75753044D01*
X93281034Y-75615151D01*
X93001111Y-75530237D01*
X92782950Y-75508750D01*
X92637050Y-75508750D01*
X92418889Y-75530237D01*
X92138966Y-75615151D01*
X91880986Y-75753044D01*
X91654866Y-75938616D01*
X91469294Y-76164736D01*
X91440000Y-76219541D01*
X91410706Y-76164736D01*
X91225134Y-75938616D01*
X90999014Y-75753044D01*
X90741034Y-75615151D01*
X90461111Y-75530237D01*
X90242950Y-75508750D01*
X90097050Y-75508750D01*
X89878889Y-75530237D01*
X89598966Y-75615151D01*
X89340986Y-75753044D01*
X89114866Y-75938616D01*
X88929294Y-76164736D01*
X88900000Y-76219541D01*
X88870706Y-76164736D01*
X88685134Y-75938616D01*
X88459014Y-75753044D01*
X88201034Y-75615151D01*
X87921111Y-75530237D01*
X87702950Y-75508750D01*
X87557050Y-75508750D01*
X87338889Y-75530237D01*
X87058966Y-75615151D01*
X86800986Y-75753044D01*
X86574866Y-75938616D01*
X86389294Y-76164736D01*
X86360000Y-76219541D01*
X86330706Y-76164736D01*
X86145134Y-75938616D01*
X85919014Y-75753044D01*
X85661034Y-75615151D01*
X85381111Y-75530237D01*
X85162950Y-75508750D01*
X85017050Y-75508750D01*
X84798889Y-75530237D01*
X84518966Y-75615151D01*
X84260986Y-75753044D01*
X84034866Y-75938616D01*
X83849294Y-76164736D01*
X83711401Y-76422716D01*
X83626487Y-76702639D01*
X83597815Y-76993750D01*
X70760590Y-76993750D01*
X70690780Y-76825215D01*
X70442464Y-76453583D01*
X70126417Y-76137536D01*
X69754785Y-75889220D01*
X69341849Y-75718176D01*
X68903479Y-75630979D01*
X68456521Y-75630979D01*
X68018151Y-75718176D01*
X67605215Y-75889220D01*
X67233583Y-76137536D01*
X66917536Y-76453583D01*
X66669220Y-76825215D01*
X66498176Y-77238151D01*
X66410979Y-77676521D01*
X66410979Y-78123479D01*
X66498176Y-78561849D01*
X66669220Y-78974785D01*
X66917536Y-79346417D01*
X67233583Y-79662464D01*
X67605215Y-79910780D01*
X67998055Y-80073500D01*
X62651550Y-80073500D01*
X62611000Y-80069506D01*
X62570450Y-80073500D01*
X61635550Y-80073500D01*
X61594999Y-80069506D01*
X61554449Y-80073500D01*
X61554447Y-80073500D01*
X61433174Y-80085444D01*
X61277566Y-80132647D01*
X61134157Y-80209301D01*
X61090651Y-80245006D01*
X61008459Y-80312459D01*
X60982607Y-80343961D01*
X56848961Y-84477607D01*
X56817460Y-84503459D01*
X56776640Y-84553198D01*
X56714301Y-84629158D01*
X56637647Y-84772567D01*
X56590445Y-84928174D01*
X56574506Y-85090000D01*
X56578501Y-85130560D01*
X56578500Y-88699046D01*
X56457836Y-88763542D01*
X56324208Y-88873208D01*
X56214542Y-89006836D01*
X56133053Y-89159291D01*
X56082872Y-89324715D01*
X56065928Y-89496750D01*
X56065928Y-89984250D01*
X56082872Y-90156285D01*
X56133053Y-90321709D01*
X56214542Y-90474164D01*
X56324208Y-90607792D01*
X56330564Y-90613008D01*
X56252815Y-90676815D01*
X56173463Y-90773506D01*
X56114498Y-90883820D01*
X56078188Y-91003518D01*
X56065928Y-91128000D01*
X56069000Y-91329750D01*
X56227750Y-91488500D01*
X57277000Y-91488500D01*
X57277000Y-91468500D01*
X57531000Y-91468500D01*
X57531000Y-91488500D01*
X57551000Y-91488500D01*
X57551000Y-91742500D01*
X57531000Y-91742500D01*
X57531000Y-92579250D01*
X57534750Y-92583000D01*
X57531000Y-92586750D01*
X57531000Y-93423500D01*
X57551000Y-93423500D01*
X57551000Y-93677500D01*
X57531000Y-93677500D01*
X57531000Y-93697500D01*
X57277000Y-93697500D01*
X57277000Y-93677500D01*
X56227750Y-93677500D01*
X56069000Y-93836250D01*
X56065928Y-94038000D01*
X56078188Y-94162482D01*
X56114498Y-94282180D01*
X56173463Y-94392494D01*
X56252815Y-94489185D01*
X56330564Y-94552992D01*
X56324208Y-94558208D01*
X56214542Y-94691836D01*
X56133053Y-94844291D01*
X56082872Y-95009715D01*
X56065928Y-95181750D01*
X56065928Y-95669250D01*
X56082872Y-95841285D01*
X56133053Y-96006709D01*
X56214542Y-96159164D01*
X56324208Y-96292792D01*
X56457836Y-96402458D01*
X56610291Y-96483947D01*
X56775715Y-96534128D01*
X56947750Y-96551072D01*
X57860250Y-96551072D01*
X57975501Y-96539721D01*
X57975500Y-101686449D01*
X57971506Y-101727000D01*
X57975500Y-101767550D01*
X57975500Y-101767552D01*
X57987444Y-101888825D01*
X58012396Y-101971080D01*
X58034647Y-102044433D01*
X58111301Y-102187842D01*
X58140953Y-102223973D01*
X58164306Y-102252428D01*
X57835224Y-102252428D01*
X57663189Y-102269372D01*
X57497765Y-102319553D01*
X57345310Y-102401042D01*
X57211682Y-102510708D01*
X57152764Y-102582500D01*
X54708090Y-102582500D01*
X54673792Y-102540708D01*
X54540164Y-102431042D01*
X54387709Y-102349553D01*
X54222285Y-102299372D01*
X54050250Y-102282428D01*
X53137750Y-102282428D01*
X52965715Y-102299372D01*
X52800291Y-102349553D01*
X52647836Y-102431042D01*
X52514208Y-102540708D01*
X52404542Y-102674336D01*
X52323053Y-102826791D01*
X52272872Y-102992215D01*
X52255928Y-103164250D01*
X52255928Y-103309547D01*
X45375572Y-96429192D01*
X45375572Y-95068750D01*
X46699428Y-95068750D01*
X46699428Y-96868750D01*
X46711688Y-96993232D01*
X46747998Y-97112930D01*
X46806963Y-97223244D01*
X46886315Y-97319935D01*
X46983006Y-97399287D01*
X47093320Y-97458252D01*
X47213018Y-97494562D01*
X47337500Y-97506822D01*
X48437500Y-97506822D01*
X48561982Y-97494562D01*
X48681680Y-97458252D01*
X48791994Y-97399287D01*
X48888685Y-97319935D01*
X48968037Y-97223244D01*
X49027002Y-97112930D01*
X49063312Y-96993232D01*
X49075572Y-96868750D01*
X49075572Y-95068750D01*
X49063312Y-94944268D01*
X49027002Y-94824570D01*
X48968037Y-94714256D01*
X48888685Y-94617565D01*
X48791994Y-94538213D01*
X48681680Y-94479248D01*
X48561982Y-94442938D01*
X48437500Y-94430678D01*
X47337500Y-94430678D01*
X47213018Y-94442938D01*
X47093320Y-94479248D01*
X46983006Y-94538213D01*
X46886315Y-94617565D01*
X46806963Y-94714256D01*
X46747998Y-94824570D01*
X46711688Y-94944268D01*
X46699428Y-95068750D01*
X45375572Y-95068750D01*
X45363312Y-94944268D01*
X45327002Y-94824570D01*
X45268037Y-94714256D01*
X45188685Y-94617565D01*
X45091994Y-94538213D01*
X44981680Y-94479248D01*
X44861982Y-94442938D01*
X44737500Y-94430678D01*
X43637500Y-94430678D01*
X43513018Y-94442938D01*
X43393320Y-94479248D01*
X43283006Y-94538213D01*
X43186315Y-94617565D01*
X43106963Y-94714256D01*
X43047998Y-94824570D01*
X43011688Y-94944268D01*
X42999428Y-95068750D01*
X41141250Y-95068750D01*
X41141250Y-92103000D01*
X56065928Y-92103000D01*
X56078188Y-92227482D01*
X56114498Y-92347180D01*
X56173463Y-92457494D01*
X56252815Y-92554185D01*
X56287926Y-92583000D01*
X56252815Y-92611815D01*
X56173463Y-92708506D01*
X56114498Y-92818820D01*
X56078188Y-92938518D01*
X56065928Y-93063000D01*
X56069000Y-93264750D01*
X56227750Y-93423500D01*
X57277000Y-93423500D01*
X57277000Y-92586750D01*
X57273250Y-92583000D01*
X57277000Y-92579250D01*
X57277000Y-91742500D01*
X56227750Y-91742500D01*
X56069000Y-91901250D01*
X56065928Y-92103000D01*
X41141250Y-92103000D01*
X41141250Y-88868750D01*
X42999428Y-88868750D01*
X42999428Y-90668750D01*
X43011688Y-90793232D01*
X43047998Y-90912930D01*
X43106963Y-91023244D01*
X43186315Y-91119935D01*
X43283006Y-91199287D01*
X43393320Y-91258252D01*
X43513018Y-91294562D01*
X43637500Y-91306822D01*
X44737500Y-91306822D01*
X44861982Y-91294562D01*
X44981680Y-91258252D01*
X45091994Y-91199287D01*
X45188685Y-91119935D01*
X45268037Y-91023244D01*
X45327002Y-90912930D01*
X45363312Y-90793232D01*
X45375572Y-90668750D01*
X46699428Y-90668750D01*
X46711688Y-90793232D01*
X46747998Y-90912930D01*
X46806963Y-91023244D01*
X46886315Y-91119935D01*
X46983006Y-91199287D01*
X47093320Y-91258252D01*
X47213018Y-91294562D01*
X47337500Y-91306822D01*
X47601750Y-91303750D01*
X47760500Y-91145000D01*
X47760500Y-89895750D01*
X48014500Y-89895750D01*
X48014500Y-91145000D01*
X48173250Y-91303750D01*
X48437500Y-91306822D01*
X48561982Y-91294562D01*
X48681680Y-91258252D01*
X48791994Y-91199287D01*
X48888685Y-91119935D01*
X48968037Y-91023244D01*
X49027002Y-90912930D01*
X49063312Y-90793232D01*
X49075572Y-90668750D01*
X49072500Y-90054500D01*
X48913750Y-89895750D01*
X48014500Y-89895750D01*
X47760500Y-89895750D01*
X46861250Y-89895750D01*
X46702500Y-90054500D01*
X46699428Y-90668750D01*
X45375572Y-90668750D01*
X45375572Y-88868750D01*
X46699428Y-88868750D01*
X46702500Y-89483000D01*
X46861250Y-89641750D01*
X47760500Y-89641750D01*
X47760500Y-88392500D01*
X48014500Y-88392500D01*
X48014500Y-89641750D01*
X48913750Y-89641750D01*
X49072500Y-89483000D01*
X49075572Y-88868750D01*
X49063312Y-88744268D01*
X49027002Y-88624570D01*
X48968037Y-88514256D01*
X48888685Y-88417565D01*
X48791994Y-88338213D01*
X48681680Y-88279248D01*
X48561982Y-88242938D01*
X48437500Y-88230678D01*
X48173250Y-88233750D01*
X48014500Y-88392500D01*
X47760500Y-88392500D01*
X47601750Y-88233750D01*
X47337500Y-88230678D01*
X47213018Y-88242938D01*
X47093320Y-88279248D01*
X46983006Y-88338213D01*
X46886315Y-88417565D01*
X46806963Y-88514256D01*
X46747998Y-88624570D01*
X46711688Y-88744268D01*
X46699428Y-88868750D01*
X45375572Y-88868750D01*
X45363312Y-88744268D01*
X45327002Y-88624570D01*
X45268037Y-88514256D01*
X45188685Y-88417565D01*
X45091994Y-88338213D01*
X44981680Y-88279248D01*
X44861982Y-88242938D01*
X44737500Y-88230678D01*
X43637500Y-88230678D01*
X43513018Y-88242938D01*
X43393320Y-88279248D01*
X43283006Y-88338213D01*
X43186315Y-88417565D01*
X43106963Y-88514256D01*
X43047998Y-88624570D01*
X43011688Y-88744268D01*
X42999428Y-88868750D01*
X41141250Y-88868750D01*
X41141250Y-77676521D01*
X42207979Y-77676521D01*
X42207979Y-78123479D01*
X42295176Y-78561849D01*
X42466220Y-78974785D01*
X42714536Y-79346417D01*
X43030583Y-79662464D01*
X43402215Y-79910780D01*
X43815151Y-80081824D01*
X44253521Y-80169021D01*
X44700479Y-80169021D01*
X45138849Y-80081824D01*
X45551785Y-79910780D01*
X45923417Y-79662464D01*
X46239464Y-79346417D01*
X46487780Y-78974785D01*
X46658824Y-78561849D01*
X46746021Y-78123479D01*
X46746021Y-77676521D01*
X46658824Y-77238151D01*
X46487780Y-76825215D01*
X46239464Y-76453583D01*
X45923417Y-76137536D01*
X45551785Y-75889220D01*
X45138849Y-75718176D01*
X44700479Y-75630979D01*
X44253521Y-75630979D01*
X43815151Y-75718176D01*
X43402215Y-75889220D01*
X43030583Y-76137536D01*
X42714536Y-76453583D01*
X42466220Y-76825215D01*
X42295176Y-77238151D01*
X42207979Y-77676521D01*
X41141250Y-77676521D01*
X41141250Y-73057279D01*
X41162019Y-72845462D01*
X41214160Y-72672763D01*
X41298852Y-72513482D01*
X41412869Y-72373681D01*
X41551867Y-72258692D01*
X41710555Y-72172890D01*
X41882885Y-72119545D01*
X42092630Y-72097500D01*
X157130221Y-72097500D01*
X157342038Y-72118269D01*
X157342038Y-72118269D01*
G37*
X157342038Y-72118269D02*
X157514737Y-72170410D01*
X157674018Y-72255102D01*
X157813819Y-72369119D01*
X157928808Y-72508117D01*
X158014610Y-72666805D01*
X158067955Y-72839135D01*
X158090001Y-73048889D01*
X158090000Y-74644918D01*
X158090001Y-74644928D01*
X158090000Y-108711470D01*
X158069231Y-108923288D01*
X158017091Y-109095986D01*
X157932399Y-109255268D01*
X157818378Y-109395071D01*
X157679385Y-109510056D01*
X157520695Y-109595860D01*
X157348365Y-109649205D01*
X157138619Y-109671250D01*
X121160928Y-109671250D01*
X121261176Y-109483696D01*
X121264866Y-109471533D01*
X121320515Y-109454652D01*
X121452892Y-109383895D01*
X121568922Y-109288672D01*
X121592784Y-109259596D01*
X121956096Y-108896284D01*
X121985172Y-108872422D01*
X122080395Y-108756392D01*
X122151152Y-108624015D01*
X122194724Y-108480378D01*
X122205750Y-108368426D01*
X122205750Y-108368424D01*
X122209436Y-108331001D01*
X122205750Y-108293578D01*
X122205750Y-105086915D01*
X122209435Y-105049499D01*
X122205750Y-105012083D01*
X122205750Y-105012074D01*
X122194724Y-104900122D01*
X122151152Y-104756485D01*
X122080395Y-104624108D01*
X121985172Y-104508078D01*
X121956097Y-104484217D01*
X121526784Y-104054904D01*
X121502922Y-104025828D01*
X121386892Y-103930605D01*
X121336821Y-103903842D01*
X121326077Y-103794751D01*
X121261176Y-103580803D01*
X121155784Y-103383627D01*
X121013949Y-103210801D01*
X120841123Y-103068966D01*
X120643946Y-102963574D01*
X120429998Y-102898673D01*
X120207500Y-102876759D01*
X120018640Y-102895360D01*
X120047500Y-102866500D01*
X120050572Y-101927250D01*
X120038312Y-101802768D01*
X120002002Y-101683070D01*
X119943037Y-101572756D01*
X119863685Y-101476065D01*
X119766994Y-101396713D01*
X119656680Y-101337748D01*
X119562565Y-101309198D01*
X122165914Y-98705851D01*
X122886552Y-98705851D01*
X123059806Y-98688787D01*
X123226402Y-98638251D01*
X123379938Y-98556184D01*
X123514514Y-98445741D01*
X123624957Y-98311165D01*
X123707024Y-98157629D01*
X123757560Y-97991033D01*
X123774624Y-97817779D01*
X123774624Y-97067779D01*
X123757560Y-96894525D01*
X123707024Y-96727929D01*
X123624957Y-96574393D01*
X123514514Y-96439817D01*
X123379938Y-96329374D01*
X123226402Y-96247307D01*
X123059806Y-96196771D01*
X122886552Y-96179707D01*
X121636552Y-96179707D01*
X121463298Y-96196771D01*
X121296702Y-96247307D01*
X121143166Y-96329374D01*
X121008590Y-96439817D01*
X120898147Y-96574393D01*
X120816080Y-96727929D01*
X120765544Y-96894525D01*
X120748480Y-97067779D01*
X120748480Y-97788417D01*
X118399500Y-100137399D01*
X118399500Y-98036919D01*
X118404280Y-98032996D01*
X118414761Y-98020225D01*
X118491143Y-98012702D01*
X118656567Y-97962521D01*
X118809022Y-97881032D01*
X118942650Y-97771366D01*
X119052316Y-97637738D01*
X119133805Y-97485283D01*
X119183986Y-97319859D01*
X119200930Y-97147824D01*
X119200930Y-96660324D01*
X119183986Y-96488289D01*
X119133805Y-96322865D01*
X119052316Y-96170410D01*
X118942650Y-96036782D01*
X118936294Y-96031566D01*
X119014043Y-95967759D01*
X119093395Y-95871068D01*
X119152360Y-95760754D01*
X119188670Y-95641056D01*
X119200930Y-95516574D01*
X119197858Y-95314824D01*
X119039108Y-95156074D01*
X117989858Y-95156074D01*
X117989858Y-95176074D01*
X117735858Y-95176074D01*
X117735858Y-95156074D01*
X116686608Y-95156074D01*
X116527858Y-95314824D01*
X116524786Y-95516574D01*
X116537046Y-95641056D01*
X116573356Y-95760754D01*
X116632321Y-95871068D01*
X116711673Y-95967759D01*
X116789422Y-96031566D01*
X116783066Y-96036782D01*
X116673400Y-96170410D01*
X116591911Y-96322865D01*
X116541730Y-96488289D01*
X116524786Y-96660324D01*
X116524786Y-97147824D01*
X116541730Y-97319859D01*
X116591911Y-97485283D01*
X116673400Y-97637738D01*
X116783066Y-97771366D01*
X116857966Y-97832835D01*
X116863528Y-97889309D01*
X116875500Y-97928775D01*
X116875500Y-98875119D01*
X116509750Y-98509370D01*
X116509750Y-98450061D01*
X116469976Y-98250102D01*
X116391955Y-98061744D01*
X116278687Y-97892226D01*
X116134524Y-97748063D01*
X115965006Y-97634795D01*
X115776648Y-97556774D01*
X115576689Y-97517000D01*
X115372811Y-97517000D01*
X115172852Y-97556774D01*
X115113759Y-97581251D01*
X115165055Y-97485283D01*
X115215236Y-97319859D01*
X115232180Y-97147824D01*
X115232180Y-96660324D01*
X115215236Y-96488289D01*
X115165055Y-96322865D01*
X115083566Y-96170410D01*
X114973900Y-96036782D01*
X114967544Y-96031566D01*
X115045293Y-95967759D01*
X115124645Y-95871068D01*
X115183610Y-95760754D01*
X115219920Y-95641056D01*
X115232180Y-95516574D01*
X115229108Y-95314824D01*
X115070358Y-95156074D01*
X114021108Y-95156074D01*
X114021108Y-95176074D01*
X113767108Y-95176074D01*
X113767108Y-95156074D01*
X112717858Y-95156074D01*
X112559108Y-95314824D01*
X112556036Y-95516574D01*
X112568296Y-95641056D01*
X112604606Y-95760754D01*
X112663571Y-95871068D01*
X112742923Y-95967759D01*
X112820672Y-96031566D01*
X112814316Y-96036782D01*
X112704650Y-96170410D01*
X112623161Y-96322865D01*
X112572980Y-96488289D01*
X112556036Y-96660324D01*
X112556036Y-97147824D01*
X112572980Y-97319859D01*
X112623161Y-97485283D01*
X112704650Y-97637738D01*
X112814316Y-97771366D01*
X112947944Y-97881032D01*
X113100399Y-97962521D01*
X113265823Y-98012702D01*
X113342206Y-98020225D01*
X113352687Y-98032996D01*
X113381757Y-98056853D01*
X113875500Y-98550597D01*
X113875501Y-101300209D01*
X113863018Y-101301438D01*
X113862500Y-101301595D01*
X113861982Y-101301438D01*
X113737500Y-101289178D01*
X113137500Y-101289178D01*
X113050000Y-101297796D01*
X112962500Y-101289178D01*
X112948250Y-101292250D01*
X112906859Y-101333641D01*
X112893320Y-101337748D01*
X112783006Y-101396713D01*
X112686315Y-101476065D01*
X112606963Y-101572756D01*
X112547998Y-101683070D01*
X112535500Y-101724270D01*
X112535500Y-101451000D01*
X112376750Y-101292250D01*
X112362500Y-101289178D01*
X112238018Y-101301438D01*
X112118320Y-101337748D01*
X112008006Y-101396713D01*
X111911315Y-101476065D01*
X111831963Y-101572756D01*
X111772998Y-101683070D01*
X111736688Y-101802768D01*
X111724428Y-101927250D01*
X111727500Y-102866500D01*
X111756360Y-102895360D01*
X111567500Y-102876759D01*
X111345001Y-102898673D01*
X111131053Y-102963574D01*
X110933877Y-103068966D01*
X110761051Y-103210801D01*
X110619216Y-103383627D01*
X110513824Y-103580804D01*
X110448923Y-103794752D01*
X110438179Y-103903842D01*
X110388108Y-103930605D01*
X110272078Y-104025828D01*
X110248220Y-104054899D01*
X109755403Y-104547717D01*
X109726328Y-104571578D01*
X109677357Y-104631250D01*
X109631105Y-104687608D01*
X109615594Y-104716628D01*
X109560348Y-104819986D01*
X109516776Y-104963623D01*
X109505750Y-105075574D01*
X109502064Y-105113000D01*
X109505750Y-105150423D01*
X109505751Y-108164067D01*
X109502064Y-108201500D01*
X109516777Y-108350878D01*
X109560349Y-108494515D01*
X109631105Y-108626892D01*
X109679487Y-108685845D01*
X109726329Y-108742922D01*
X109755399Y-108766779D01*
X110248220Y-109259601D01*
X110272078Y-109288672D01*
X110388108Y-109383895D01*
X110502019Y-109444782D01*
X110513824Y-109483697D01*
X110614073Y-109671250D01*
X42101030Y-109671250D01*
X41889212Y-109650481D01*
X41716514Y-109598341D01*
X41557232Y-109513649D01*
X41417429Y-109399628D01*
X41302444Y-109260635D01*
X41216640Y-109101945D01*
X41163295Y-108929615D01*
X41141250Y-108719869D01*
X41141250Y-95068750D01*
X42999428Y-95068750D01*
X42999428Y-96868750D01*
X43011688Y-96993232D01*
X43047998Y-97112930D01*
X43106963Y-97223244D01*
X43186315Y-97319935D01*
X43283006Y-97399287D01*
X43393320Y-97458252D01*
X43513018Y-97494562D01*
X43637500Y-97506822D01*
X44297942Y-97506822D01*
X52255928Y-105464809D01*
X52255928Y-105526750D01*
X52272872Y-105698785D01*
X52323053Y-105864209D01*
X52404542Y-106016664D01*
X52514208Y-106150292D01*
X52647836Y-106259958D01*
X52800291Y-106341447D01*
X52832001Y-106351066D01*
X52832001Y-106613288D01*
X52790063Y-106655226D01*
X52676795Y-106824744D01*
X52598774Y-107013102D01*
X52559000Y-107213061D01*
X52559000Y-107416939D01*
X52598774Y-107616898D01*
X52676795Y-107805256D01*
X52790063Y-107974774D01*
X52934226Y-108118937D01*
X53103744Y-108232205D01*
X53292102Y-108310226D01*
X53492061Y-108350000D01*
X53695939Y-108350000D01*
X53895898Y-108310226D01*
X54084256Y-108232205D01*
X54253774Y-108118937D01*
X54397937Y-107974774D01*
X54511205Y-107805256D01*
X54589226Y-107616898D01*
X54629000Y-107416939D01*
X54629000Y-107213061D01*
X54589226Y-107013102D01*
X54511205Y-106824744D01*
X54397937Y-106655226D01*
X54356000Y-106613289D01*
X54356000Y-106351066D01*
X54387709Y-106341447D01*
X54540164Y-106259958D01*
X54673792Y-106150292D01*
X54783458Y-106016664D01*
X54864947Y-105864209D01*
X54902473Y-105740500D01*
X56953402Y-105740500D01*
X56965662Y-105864982D01*
X57001972Y-105984680D01*
X57060937Y-106094994D01*
X57140289Y-106191685D01*
X57236980Y-106271037D01*
X57347294Y-106330002D01*
X57466992Y-106366312D01*
X57591474Y-106378572D01*
X58005724Y-106375500D01*
X58164474Y-106216750D01*
X58164474Y-105380000D01*
X58418474Y-105380000D01*
X58418474Y-106216750D01*
X58577224Y-106375500D01*
X58991474Y-106378572D01*
X59115956Y-106366312D01*
X59235654Y-106330002D01*
X59345968Y-106271037D01*
X59442659Y-106191685D01*
X59522011Y-106094994D01*
X59580976Y-105984680D01*
X59617286Y-105864982D01*
X59629546Y-105740500D01*
X59626474Y-105538750D01*
X59467724Y-105380000D01*
X58418474Y-105380000D01*
X58164474Y-105380000D01*
X57115224Y-105380000D01*
X56956474Y-105538750D01*
X56953402Y-105740500D01*
X54902473Y-105740500D01*
X54915128Y-105698785D01*
X54932072Y-105526750D01*
X54932072Y-105039250D01*
X54915128Y-104867215D01*
X54864947Y-104701791D01*
X54783458Y-104549336D01*
X54673792Y-104415708D01*
X54588244Y-104345500D01*
X54673792Y-104275292D01*
X54708090Y-104233500D01*
X57202005Y-104233500D01*
X57211682Y-104245292D01*
X57218038Y-104250508D01*
X57140289Y-104314315D01*
X57060937Y-104411006D01*
X57001972Y-104521320D01*
X56965662Y-104641018D01*
X56953402Y-104765500D01*
X56956474Y-104967250D01*
X57115224Y-105126000D01*
X58164474Y-105126000D01*
X58164474Y-105106000D01*
X58418474Y-105106000D01*
X58418474Y-105126000D01*
X59467724Y-105126000D01*
X59603076Y-104990648D01*
X62391041Y-104990648D01*
X62394113Y-105192398D01*
X62552863Y-105351148D01*
X63602113Y-105351148D01*
X63602113Y-104514398D01*
X63856113Y-104514398D01*
X63856113Y-105351148D01*
X64905363Y-105351148D01*
X65064113Y-105192398D01*
X65067185Y-104990648D01*
X65054925Y-104866166D01*
X65018615Y-104746468D01*
X64959650Y-104636154D01*
X64880298Y-104539463D01*
X64783607Y-104460111D01*
X64673293Y-104401146D01*
X64553595Y-104364836D01*
X64429113Y-104352576D01*
X64014863Y-104355648D01*
X63856113Y-104514398D01*
X63602113Y-104514398D01*
X63443363Y-104355648D01*
X63029113Y-104352576D01*
X62904631Y-104364836D01*
X62784933Y-104401146D01*
X62674619Y-104460111D01*
X62577928Y-104539463D01*
X62498576Y-104636154D01*
X62439611Y-104746468D01*
X62403301Y-104866166D01*
X62391041Y-104990648D01*
X59603076Y-104990648D01*
X59626474Y-104967250D01*
X59629546Y-104765500D01*
X59617286Y-104641018D01*
X59580976Y-104521320D01*
X59522011Y-104411006D01*
X59442659Y-104314315D01*
X59364910Y-104250508D01*
X59371266Y-104245292D01*
X59405564Y-104203500D01*
X60411449Y-104203500D01*
X60452000Y-104207494D01*
X60492550Y-104203500D01*
X64962307Y-104203500D01*
X65002857Y-104207494D01*
X65043407Y-104203500D01*
X65043410Y-104203500D01*
X65164683Y-104191556D01*
X65320291Y-104144353D01*
X65463699Y-104067699D01*
X65589398Y-103964541D01*
X65615255Y-103933034D01*
X65704470Y-103843819D01*
X65704469Y-106486201D01*
X64809188Y-106486201D01*
X64808905Y-106485856D01*
X64802549Y-106480640D01*
X64880298Y-106416833D01*
X64959650Y-106320142D01*
X65018615Y-106209828D01*
X65054925Y-106090130D01*
X65067185Y-105965648D01*
X65064113Y-105763898D01*
X64905363Y-105605148D01*
X63856113Y-105605148D01*
X63856113Y-105625148D01*
X63602113Y-105625148D01*
X63602113Y-105605148D01*
X62552863Y-105605148D01*
X62394113Y-105763898D01*
X62391041Y-105965648D01*
X62403301Y-106090130D01*
X62439611Y-106209828D01*
X62498576Y-106320142D01*
X62577928Y-106416833D01*
X62655677Y-106480640D01*
X62649321Y-106485856D01*
X62539655Y-106619484D01*
X62458166Y-106771939D01*
X62407985Y-106937363D01*
X62391041Y-107109398D01*
X62391041Y-107596898D01*
X62407985Y-107768933D01*
X62458166Y-107934357D01*
X62539655Y-108086812D01*
X62649321Y-108220440D01*
X62782949Y-108330106D01*
X62935404Y-108411595D01*
X63100828Y-108461776D01*
X63272863Y-108478720D01*
X64185363Y-108478720D01*
X64357398Y-108461776D01*
X64522822Y-108411595D01*
X64675277Y-108330106D01*
X64808905Y-108220440D01*
X64918571Y-108086812D01*
X64959520Y-108010201D01*
X66179039Y-108010201D01*
X66203968Y-108092381D01*
X66262933Y-108202695D01*
X66342285Y-108299386D01*
X66438976Y-108378738D01*
X66549290Y-108437703D01*
X66668988Y-108474013D01*
X66793470Y-108486273D01*
X68193470Y-108486273D01*
X68317952Y-108474013D01*
X68437650Y-108437703D01*
X68547964Y-108378738D01*
X68593470Y-108341392D01*
X68638976Y-108378738D01*
X68749290Y-108437703D01*
X68868988Y-108474013D01*
X68993470Y-108486273D01*
X69407720Y-108483201D01*
X69566470Y-108324451D01*
X69566470Y-107375201D01*
X69820470Y-107375201D01*
X69820470Y-108324451D01*
X69979220Y-108483201D01*
X70393470Y-108486273D01*
X70517952Y-108474013D01*
X70637650Y-108437703D01*
X70747964Y-108378738D01*
X70844655Y-108299386D01*
X70924007Y-108202695D01*
X70982972Y-108092381D01*
X71019282Y-107972683D01*
X71031542Y-107848201D01*
X71031392Y-107832840D01*
X72099249Y-107832840D01*
X72111509Y-107957322D01*
X72147819Y-108077020D01*
X72206784Y-108187334D01*
X72286136Y-108284025D01*
X72382827Y-108363377D01*
X72493141Y-108422342D01*
X72612839Y-108458652D01*
X72737321Y-108470912D01*
X73151571Y-108467840D01*
X73310321Y-108309090D01*
X73310321Y-107472340D01*
X73564321Y-107472340D01*
X73564321Y-108309090D01*
X73723071Y-108467840D01*
X74137321Y-108470912D01*
X74261803Y-108458652D01*
X74381501Y-108422342D01*
X74491815Y-108363377D01*
X74588506Y-108284025D01*
X74667858Y-108187334D01*
X74726823Y-108077020D01*
X74763133Y-107957322D01*
X74775393Y-107832840D01*
X74772321Y-107631090D01*
X74613571Y-107472340D01*
X73564321Y-107472340D01*
X73310321Y-107472340D01*
X72261071Y-107472340D01*
X72102321Y-107631090D01*
X72099249Y-107832840D01*
X71031392Y-107832840D01*
X71028470Y-107533951D01*
X70869720Y-107375201D01*
X69820470Y-107375201D01*
X69566470Y-107375201D01*
X69546470Y-107375201D01*
X69546470Y-107121201D01*
X69566470Y-107121201D01*
X69566470Y-107101201D01*
X69820470Y-107101201D01*
X69820470Y-107121201D01*
X70869720Y-107121201D01*
X71028470Y-106962451D01*
X71031542Y-106648201D01*
X71019282Y-106523719D01*
X70982972Y-106404021D01*
X70979861Y-106398201D01*
X70982972Y-106392381D01*
X71007901Y-106310201D01*
X72335017Y-106310201D01*
X72357529Y-106337632D01*
X72363885Y-106342848D01*
X72286136Y-106406655D01*
X72206784Y-106503346D01*
X72147819Y-106613660D01*
X72111509Y-106733358D01*
X72099249Y-106857840D01*
X72102321Y-107059590D01*
X72261071Y-107218340D01*
X73310321Y-107218340D01*
X73310321Y-107198340D01*
X73564321Y-107198340D01*
X73564321Y-107218340D01*
X74613571Y-107218340D01*
X74772321Y-107059590D01*
X74775393Y-106857840D01*
X74763133Y-106733358D01*
X74726823Y-106613660D01*
X74667858Y-106503346D01*
X74588506Y-106406655D01*
X74510757Y-106342848D01*
X74517113Y-106337632D01*
X74626779Y-106204004D01*
X74708268Y-106051549D01*
X74758449Y-105886125D01*
X74775393Y-105714090D01*
X74775393Y-105553031D01*
X74811921Y-105589559D01*
X74835778Y-105618629D01*
X74864848Y-105642486D01*
X74951807Y-105713852D01*
X74966810Y-105721871D01*
X75084185Y-105784609D01*
X75227822Y-105828181D01*
X75339774Y-105839207D01*
X75339777Y-105839207D01*
X75377200Y-105842893D01*
X75414623Y-105839207D01*
X77891021Y-105839207D01*
X77932958Y-105881144D01*
X78102476Y-105994412D01*
X78290834Y-106072433D01*
X78490793Y-106112207D01*
X78694671Y-106112207D01*
X78894630Y-106072433D01*
X79082988Y-105994412D01*
X79252506Y-105881144D01*
X79396669Y-105736981D01*
X79509937Y-105567463D01*
X79587958Y-105379105D01*
X79627732Y-105179146D01*
X79627732Y-104975268D01*
X79587958Y-104775309D01*
X79509937Y-104586951D01*
X79498480Y-104569804D01*
X79515276Y-104544667D01*
X79593297Y-104356309D01*
X79633071Y-104156350D01*
X79633071Y-103952472D01*
X79593297Y-103752513D01*
X79515276Y-103564155D01*
X79509479Y-103555479D01*
X79527401Y-103528657D01*
X79605422Y-103340299D01*
X79645196Y-103140340D01*
X79645196Y-102936462D01*
X79618586Y-102802685D01*
X97095220Y-102802685D01*
X97132643Y-102806371D01*
X97170066Y-102802685D01*
X97170069Y-102802685D01*
X97282021Y-102791659D01*
X97425658Y-102748087D01*
X97558035Y-102677330D01*
X97674065Y-102582107D01*
X97697927Y-102553031D01*
X106379725Y-93871233D01*
X106396120Y-93871233D01*
X106933195Y-94408308D01*
X106933195Y-94912500D01*
X106950139Y-95084535D01*
X107000320Y-95249959D01*
X107081809Y-95402414D01*
X107191475Y-95536042D01*
X107325103Y-95645708D01*
X107477558Y-95727197D01*
X107642982Y-95777378D01*
X107815017Y-95794322D01*
X108302517Y-95794322D01*
X108474552Y-95777378D01*
X108639976Y-95727197D01*
X108792431Y-95645708D01*
X108926059Y-95536042D01*
X108996267Y-95450494D01*
X109066475Y-95536042D01*
X109200103Y-95645708D01*
X109352558Y-95727197D01*
X109517982Y-95777378D01*
X109690017Y-95794322D01*
X110177517Y-95794322D01*
X110349552Y-95777378D01*
X110514976Y-95727197D01*
X110667431Y-95645708D01*
X110801059Y-95536042D01*
X110910725Y-95402414D01*
X110992214Y-95249959D01*
X111042395Y-95084535D01*
X111059339Y-94912500D01*
X111059339Y-94662013D01*
X112557870Y-94662013D01*
X112559108Y-94743324D01*
X112717858Y-94902074D01*
X113767108Y-94902074D01*
X113767108Y-94882074D01*
X114021108Y-94882074D01*
X114021108Y-94902074D01*
X115070358Y-94902074D01*
X115229108Y-94743324D01*
X115232180Y-94541574D01*
X116524786Y-94541574D01*
X116527858Y-94743324D01*
X116686608Y-94902074D01*
X117735858Y-94902074D01*
X117735858Y-94065324D01*
X117989858Y-94065324D01*
X117989858Y-94902074D01*
X119039108Y-94902074D01*
X119197858Y-94743324D01*
X119200930Y-94541574D01*
X119188670Y-94417092D01*
X119152360Y-94297394D01*
X119093395Y-94187080D01*
X119014043Y-94090389D01*
X118917352Y-94011037D01*
X118807038Y-93952072D01*
X118687340Y-93915762D01*
X118562858Y-93903502D01*
X118148608Y-93906574D01*
X117989858Y-94065324D01*
X117735858Y-94065324D01*
X117577108Y-93906574D01*
X117162858Y-93903502D01*
X117038376Y-93915762D01*
X116918678Y-93952072D01*
X116808364Y-94011037D01*
X116711673Y-94090389D01*
X116632321Y-94187080D01*
X116573356Y-94297394D01*
X116537046Y-94417092D01*
X116524786Y-94541574D01*
X115232180Y-94541574D01*
X115219920Y-94417092D01*
X115205799Y-94370543D01*
X115969708Y-93606634D01*
X116000494Y-93627205D01*
X116188852Y-93705226D01*
X116388811Y-93745000D01*
X116592689Y-93745000D01*
X116792648Y-93705226D01*
X116981006Y-93627205D01*
X117150524Y-93513937D01*
X117294687Y-93369774D01*
X117407955Y-93200256D01*
X117485976Y-93011898D01*
X117525750Y-92811939D01*
X117525750Y-92721923D01*
X117579152Y-92622015D01*
X117622724Y-92478377D01*
X117633750Y-92366425D01*
X117633750Y-92366424D01*
X117637436Y-92329001D01*
X117633750Y-92291578D01*
X117633750Y-91842343D01*
X117672935Y-91810185D01*
X117752287Y-91713494D01*
X117811252Y-91603180D01*
X117847562Y-91483482D01*
X117859822Y-91359000D01*
X117859822Y-90759000D01*
X117847562Y-90634518D01*
X117811252Y-90514820D01*
X117752287Y-90404506D01*
X117672935Y-90307815D01*
X117576244Y-90228463D01*
X117465930Y-90169498D01*
X117346232Y-90133188D01*
X117221750Y-90120928D01*
X116521750Y-90120928D01*
X116397268Y-90133188D01*
X116277570Y-90169498D01*
X116167256Y-90228463D01*
X116070565Y-90307815D01*
X115991213Y-90404506D01*
X115932248Y-90514820D01*
X115895938Y-90634518D01*
X115883678Y-90759000D01*
X115883678Y-91359000D01*
X115895938Y-91483482D01*
X115932248Y-91603180D01*
X115991213Y-91713494D01*
X116042137Y-91775546D01*
X116000494Y-91792795D01*
X115830976Y-91906063D01*
X115792365Y-91944674D01*
X115788712Y-91944314D01*
X115751289Y-91948000D01*
X115751286Y-91948000D01*
X115665862Y-91956413D01*
X115643687Y-91923226D01*
X115633750Y-91913289D01*
X115633750Y-91842343D01*
X115672935Y-91810185D01*
X115752287Y-91713494D01*
X115811252Y-91603180D01*
X115847562Y-91483482D01*
X115859822Y-91359000D01*
X115859822Y-90759000D01*
X115847562Y-90634518D01*
X115811252Y-90514820D01*
X115752287Y-90404506D01*
X115673908Y-90309000D01*
X115752287Y-90213494D01*
X115811252Y-90103180D01*
X115847562Y-89983482D01*
X115859822Y-89859000D01*
X115856750Y-89644750D01*
X115698000Y-89486000D01*
X114998750Y-89486000D01*
X114998750Y-89506000D01*
X114744750Y-89506000D01*
X114744750Y-89486000D01*
X114045500Y-89486000D01*
X113886750Y-89644750D01*
X113883678Y-89859000D01*
X113895938Y-89983482D01*
X113932248Y-90103180D01*
X113991213Y-90213494D01*
X114069592Y-90309000D01*
X113991213Y-90404506D01*
X113932248Y-90514820D01*
X113895938Y-90634518D01*
X113883678Y-90759000D01*
X113883678Y-91359000D01*
X113895938Y-91483482D01*
X113932248Y-91603180D01*
X113991213Y-91713494D01*
X114070565Y-91810185D01*
X114083743Y-91821000D01*
X111758398Y-91821000D01*
X111044339Y-91106942D01*
X111044339Y-90602750D01*
X111027395Y-90430715D01*
X110977214Y-90265291D01*
X110895725Y-90112836D01*
X110786059Y-89979208D01*
X110652431Y-89869542D01*
X110499976Y-89788053D01*
X110334552Y-89737872D01*
X110162517Y-89720928D01*
X109675017Y-89720928D01*
X109502982Y-89737872D01*
X109337558Y-89788053D01*
X109185103Y-89869542D01*
X109051475Y-89979208D01*
X108981267Y-90064756D01*
X108911059Y-89979208D01*
X108777431Y-89869542D01*
X108624976Y-89788053D01*
X108459552Y-89737872D01*
X108287517Y-89720928D01*
X107800017Y-89720928D01*
X107627982Y-89737872D01*
X107462558Y-89788053D01*
X107310103Y-89869542D01*
X107176475Y-89979208D01*
X107066809Y-90112836D01*
X106985320Y-90265291D01*
X106935139Y-90430715D01*
X106918195Y-90602750D01*
X106918195Y-90849765D01*
X106916024Y-90849551D01*
X106878601Y-90853237D01*
X106878599Y-90853237D01*
X106766647Y-90864263D01*
X106623010Y-90907835D01*
X106490633Y-90978592D01*
X106374603Y-91073815D01*
X106350746Y-91102885D01*
X96742632Y-100711000D01*
X83251711Y-100711000D01*
X83353937Y-100608774D01*
X83467205Y-100439256D01*
X83545226Y-100250898D01*
X83585000Y-100050939D01*
X83585000Y-99847061D01*
X83545226Y-99647102D01*
X83467205Y-99458744D01*
X83412920Y-99377500D01*
X83467205Y-99296256D01*
X83545226Y-99107898D01*
X83585000Y-98907939D01*
X83585000Y-98704061D01*
X83545226Y-98504102D01*
X83467205Y-98315744D01*
X83412920Y-98234500D01*
X83467205Y-98153256D01*
X83545226Y-97964898D01*
X83585000Y-97764939D01*
X83585000Y-97561061D01*
X83545226Y-97361102D01*
X83467205Y-97172744D01*
X83412920Y-97091500D01*
X83467205Y-97010256D01*
X83545226Y-96821898D01*
X83585000Y-96621939D01*
X83585000Y-96418061D01*
X83545226Y-96218102D01*
X83467205Y-96029744D01*
X83412920Y-95948500D01*
X83467205Y-95867256D01*
X83545226Y-95678898D01*
X83585000Y-95478939D01*
X83585000Y-95275061D01*
X83545226Y-95075102D01*
X83467205Y-94886744D01*
X83412920Y-94805500D01*
X83467205Y-94724256D01*
X83545226Y-94535898D01*
X83585000Y-94335939D01*
X83585000Y-94132061D01*
X83545226Y-93932102D01*
X83467205Y-93743744D01*
X83407575Y-93654502D01*
X83467205Y-93565259D01*
X83545226Y-93376901D01*
X83585000Y-93176942D01*
X83585000Y-92973064D01*
X83545226Y-92773105D01*
X83467205Y-92584747D01*
X83460693Y-92575002D01*
X83467205Y-92565256D01*
X83545226Y-92376898D01*
X83585000Y-92176939D01*
X83585000Y-91973061D01*
X83545226Y-91773102D01*
X83467205Y-91584744D01*
X83353937Y-91415226D01*
X83209774Y-91271063D01*
X83040256Y-91157795D01*
X82851898Y-91079774D01*
X82651939Y-91040000D01*
X82448061Y-91040000D01*
X82363273Y-91056865D01*
X82364072Y-91048750D01*
X82364072Y-90561250D01*
X82347128Y-90389215D01*
X82296947Y-90223791D01*
X82215458Y-90071336D01*
X82105792Y-89937708D01*
X82099436Y-89932492D01*
X82177185Y-89868685D01*
X82256537Y-89771994D01*
X82315502Y-89661680D01*
X82351812Y-89541982D01*
X82364072Y-89417500D01*
X82361000Y-89215750D01*
X82202250Y-89057000D01*
X81153000Y-89057000D01*
X81153000Y-89077000D01*
X80899000Y-89077000D01*
X80899000Y-89057000D01*
X79849750Y-89057000D01*
X79691000Y-89215750D01*
X79687928Y-89417500D01*
X79700188Y-89541982D01*
X79736498Y-89661680D01*
X79795463Y-89771994D01*
X79874815Y-89868685D01*
X79952564Y-89932492D01*
X79946208Y-89937708D01*
X79836542Y-90071336D01*
X79755053Y-90223791D01*
X79704872Y-90389215D01*
X79687928Y-90561250D01*
X79687928Y-91048750D01*
X79689425Y-91063945D01*
X79540889Y-91212481D01*
X77666546Y-91212481D01*
X77666546Y-90899481D01*
X77654286Y-90774999D01*
X77654129Y-90774481D01*
X77654286Y-90773963D01*
X77666546Y-90649481D01*
X77666546Y-90308398D01*
X77753955Y-90281883D01*
X77886332Y-90211126D01*
X78002362Y-90115903D01*
X78026224Y-90086827D01*
X79254051Y-88859000D01*
X113883678Y-88859000D01*
X113886750Y-89073250D01*
X114045500Y-89232000D01*
X114744750Y-89232000D01*
X114744750Y-88382750D01*
X114998750Y-88382750D01*
X114998750Y-89232000D01*
X115698000Y-89232000D01*
X115856750Y-89073250D01*
X115859822Y-88859000D01*
X115847562Y-88734518D01*
X115811252Y-88614820D01*
X115752287Y-88504506D01*
X115672935Y-88407815D01*
X115576244Y-88328463D01*
X115465930Y-88269498D01*
X115346232Y-88233188D01*
X115221750Y-88220928D01*
X115157500Y-88224000D01*
X114998750Y-88382750D01*
X114744750Y-88382750D01*
X114586000Y-88224000D01*
X114521750Y-88220928D01*
X114397268Y-88233188D01*
X114277570Y-88269498D01*
X114167256Y-88328463D01*
X114070565Y-88407815D01*
X113991213Y-88504506D01*
X113932248Y-88614820D01*
X113895938Y-88734518D01*
X113883678Y-88859000D01*
X79254051Y-88859000D01*
X79689826Y-88423225D01*
X79687928Y-88442500D01*
X79691000Y-88644250D01*
X79849750Y-88803000D01*
X80899000Y-88803000D01*
X80899000Y-88783000D01*
X81153000Y-88783000D01*
X81153000Y-88803000D01*
X82202250Y-88803000D01*
X82361000Y-88644250D01*
X82364072Y-88442500D01*
X82351812Y-88318018D01*
X82315502Y-88198320D01*
X82256537Y-88088006D01*
X82177185Y-87991315D01*
X82080494Y-87911963D01*
X81970180Y-87852998D01*
X81850482Y-87816688D01*
X81726000Y-87804428D01*
X81707930Y-87804562D01*
X81774324Y-87644274D01*
X81814098Y-87444315D01*
X81814098Y-87240437D01*
X81774324Y-87040478D01*
X81696303Y-86852120D01*
X81583035Y-86682602D01*
X81446978Y-86546545D01*
X81453967Y-86511411D01*
X81453967Y-86307533D01*
X81414193Y-86107574D01*
X81336172Y-85919216D01*
X81222904Y-85749698D01*
X81078741Y-85605535D01*
X80909223Y-85492267D01*
X80720865Y-85414246D01*
X80557306Y-85381712D01*
X80533115Y-85323311D01*
X80419847Y-85153793D01*
X80275684Y-85009630D01*
X80106166Y-84896362D01*
X79917808Y-84818341D01*
X79717849Y-84778567D01*
X79615600Y-84778567D01*
X79543937Y-84671315D01*
X79399774Y-84527152D01*
X79230256Y-84413884D01*
X79041898Y-84335863D01*
X78841939Y-84296089D01*
X78638061Y-84296089D01*
X78438102Y-84335863D01*
X78249744Y-84413884D01*
X78080226Y-84527152D01*
X78038289Y-84569089D01*
X75765517Y-84569089D01*
X75754273Y-84563079D01*
X75610636Y-84519507D01*
X75498684Y-84508481D01*
X75498681Y-84508481D01*
X75461258Y-84504795D01*
X75423835Y-84508481D01*
X75296521Y-84508481D01*
X75246128Y-84386823D01*
X75132860Y-84217305D01*
X74988697Y-84073142D01*
X74819179Y-83959874D01*
X74630821Y-83881853D01*
X74430862Y-83842079D01*
X74262579Y-83842079D01*
X74209937Y-83763295D01*
X74184197Y-83737555D01*
X74258947Y-83597709D01*
X74309128Y-83432285D01*
X74326072Y-83260250D01*
X74326072Y-82351505D01*
X75333611Y-83359045D01*
X75359459Y-83390541D01*
X75390955Y-83416389D01*
X75390958Y-83416392D01*
X75485157Y-83493699D01*
X75592911Y-83551295D01*
X75628566Y-83570353D01*
X75784174Y-83617556D01*
X75905447Y-83629500D01*
X75905449Y-83629500D01*
X75946000Y-83633494D01*
X75986550Y-83629500D01*
X114118696Y-83629500D01*
X118923936Y-88434741D01*
X118845184Y-88392647D01*
X118689576Y-88345444D01*
X118568303Y-88333500D01*
X118568300Y-88333500D01*
X118527750Y-88329506D01*
X118487200Y-88333500D01*
X117582382Y-88333500D01*
X117576244Y-88328463D01*
X117465930Y-88269498D01*
X117346232Y-88233188D01*
X117221750Y-88220928D01*
X116521750Y-88220928D01*
X116397268Y-88233188D01*
X116277570Y-88269498D01*
X116167256Y-88328463D01*
X116070565Y-88407815D01*
X115991213Y-88504506D01*
X115932248Y-88614820D01*
X115895938Y-88734518D01*
X115883678Y-88859000D01*
X115883678Y-89459000D01*
X115895938Y-89583482D01*
X115932248Y-89703180D01*
X115991213Y-89813494D01*
X116070565Y-89910185D01*
X116167256Y-89989537D01*
X116277570Y-90048502D01*
X116397268Y-90084812D01*
X116521750Y-90097072D01*
X117221750Y-90097072D01*
X117346232Y-90084812D01*
X117465930Y-90048502D01*
X117576244Y-89989537D01*
X117582382Y-89984500D01*
X118185818Y-89984500D01*
X121436053Y-93234736D01*
X121436053Y-93405036D01*
X121296702Y-93447307D01*
X121143166Y-93529374D01*
X121008590Y-93639817D01*
X120898147Y-93774393D01*
X120816080Y-93927929D01*
X120765544Y-94094525D01*
X120748480Y-94267779D01*
X120748480Y-95017779D01*
X120765544Y-95191033D01*
X120816080Y-95357629D01*
X120898147Y-95511165D01*
X121008590Y-95645741D01*
X121143166Y-95756184D01*
X121296702Y-95838251D01*
X121463298Y-95888787D01*
X121636552Y-95905851D01*
X122886552Y-95905851D01*
X123059806Y-95888787D01*
X123226402Y-95838251D01*
X123379938Y-95756184D01*
X123514514Y-95645741D01*
X123624957Y-95511165D01*
X123647880Y-95468279D01*
X152320757Y-95468279D01*
X152332860Y-95469471D01*
X152332863Y-95469471D01*
X152373413Y-95473465D01*
X152413963Y-95469471D01*
X153627827Y-95469471D01*
X153629705Y-95472985D01*
X153815277Y-95699105D01*
X154041397Y-95884677D01*
X154096202Y-95913971D01*
X154041397Y-95943265D01*
X153815277Y-96128837D01*
X153629705Y-96354957D01*
X153491812Y-96612937D01*
X153406898Y-96892860D01*
X153378226Y-97183971D01*
X153406898Y-97475082D01*
X153491812Y-97755005D01*
X153629705Y-98012985D01*
X153815277Y-98239105D01*
X154041397Y-98424677D01*
X154096202Y-98453971D01*
X154041397Y-98483265D01*
X153815277Y-98668837D01*
X153629705Y-98894957D01*
X153491812Y-99152937D01*
X153406898Y-99432860D01*
X153378226Y-99723971D01*
X153406898Y-100015082D01*
X153491812Y-100295005D01*
X153629705Y-100552985D01*
X153815277Y-100779105D01*
X154041397Y-100964677D01*
X154299377Y-101102570D01*
X154579300Y-101187484D01*
X154797461Y-101208971D01*
X154943361Y-101208971D01*
X155161522Y-101187484D01*
X155441445Y-101102570D01*
X155699425Y-100964677D01*
X155925545Y-100779105D01*
X156111117Y-100552985D01*
X156249010Y-100295005D01*
X156333924Y-100015082D01*
X156362596Y-99723971D01*
X156333924Y-99432860D01*
X156249010Y-99152937D01*
X156111117Y-98894957D01*
X155925545Y-98668837D01*
X155699425Y-98483265D01*
X155644620Y-98453971D01*
X155699425Y-98424677D01*
X155925545Y-98239105D01*
X156111117Y-98012985D01*
X156249010Y-97755005D01*
X156333924Y-97475082D01*
X156362596Y-97183971D01*
X156333924Y-96892860D01*
X156249010Y-96612937D01*
X156111117Y-96354957D01*
X155925545Y-96128837D01*
X155699425Y-95943265D01*
X155644620Y-95913971D01*
X155699425Y-95884677D01*
X155925545Y-95699105D01*
X156111117Y-95472985D01*
X156249010Y-95215005D01*
X156333924Y-94935082D01*
X156362596Y-94643971D01*
X156333924Y-94352860D01*
X156249010Y-94072937D01*
X156111117Y-93814957D01*
X155925545Y-93588837D01*
X155895724Y-93564364D01*
X155964591Y-93543473D01*
X156074905Y-93484508D01*
X156171596Y-93405156D01*
X156250948Y-93308465D01*
X156309913Y-93198151D01*
X156346223Y-93078453D01*
X156358483Y-92953971D01*
X156358483Y-91253971D01*
X156346223Y-91129489D01*
X156309913Y-91009791D01*
X156250948Y-90899477D01*
X156171596Y-90802786D01*
X156074905Y-90723434D01*
X155964591Y-90664469D01*
X155844893Y-90628159D01*
X155720411Y-90615899D01*
X154020411Y-90615899D01*
X153895929Y-90628159D01*
X153776231Y-90664469D01*
X153665917Y-90723434D01*
X153569226Y-90802786D01*
X153489874Y-90899477D01*
X153430909Y-91009791D01*
X153394599Y-91129489D01*
X153382339Y-91253971D01*
X153382339Y-92953971D01*
X153394599Y-93078453D01*
X153430909Y-93198151D01*
X153489874Y-93308465D01*
X153569226Y-93405156D01*
X153665917Y-93484508D01*
X153776231Y-93543473D01*
X153845098Y-93564364D01*
X153815277Y-93588837D01*
X153629705Y-93814957D01*
X153627827Y-93818471D01*
X152424877Y-93818471D01*
X152412774Y-93817279D01*
X152412771Y-93817279D01*
X152372221Y-93813285D01*
X152331671Y-93817279D01*
X123647880Y-93817279D01*
X123624957Y-93774393D01*
X123514514Y-93639817D01*
X123379938Y-93529374D01*
X123226402Y-93447307D01*
X123087052Y-93405036D01*
X123087052Y-92933344D01*
X123091045Y-92892801D01*
X123087052Y-92852258D01*
X123087052Y-90645474D01*
X123091046Y-90604924D01*
X123086932Y-90563154D01*
X123075108Y-90443098D01*
X123027905Y-90287490D01*
X123015423Y-90264138D01*
X122951251Y-90144081D01*
X122873944Y-90049882D01*
X122873941Y-90049879D01*
X122848093Y-90018383D01*
X122816598Y-89992536D01*
X115073026Y-82248966D01*
X115047169Y-82217459D01*
X114921470Y-82114301D01*
X114778062Y-82037647D01*
X114622454Y-81990444D01*
X114501181Y-81978500D01*
X114501178Y-81978500D01*
X114460628Y-81974506D01*
X114420078Y-81978500D01*
X76287934Y-81978500D01*
X74653398Y-80343966D01*
X74627541Y-80312459D01*
X74501842Y-80209301D01*
X74358434Y-80132647D01*
X74202826Y-80085444D01*
X74081553Y-80073500D01*
X74081550Y-80073500D01*
X74041000Y-80069506D01*
X74000450Y-80073500D01*
X73065550Y-80073500D01*
X73025000Y-80069506D01*
X72984450Y-80073500D01*
X69361945Y-80073500D01*
X69754785Y-79910780D01*
X70126417Y-79662464D01*
X70442464Y-79346417D01*
X70690780Y-78974785D01*
X70861824Y-78561849D01*
X70949021Y-78123479D01*
X70949021Y-77676521D01*
X70861824Y-77238151D01*
X70760590Y-76993750D01*
X83597815Y-76993750D01*
X83626487Y-77284861D01*
X83711401Y-77564784D01*
X83849294Y-77822764D01*
X84034866Y-78048884D01*
X84260986Y-78234456D01*
X84518966Y-78372349D01*
X84798889Y-78457263D01*
X85017050Y-78478750D01*
X85162950Y-78478750D01*
X85381111Y-78457263D01*
X85661034Y-78372349D01*
X85919014Y-78234456D01*
X86145134Y-78048884D01*
X86330706Y-77822764D01*
X86360000Y-77767959D01*
X86389294Y-77822764D01*
X86574866Y-78048884D01*
X86800986Y-78234456D01*
X87058966Y-78372349D01*
X87338889Y-78457263D01*
X87557050Y-78478750D01*
X87702950Y-78478750D01*
X87921111Y-78457263D01*
X88201034Y-78372349D01*
X88459014Y-78234456D01*
X88685134Y-78048884D01*
X88870706Y-77822764D01*
X88900000Y-77767959D01*
X88929294Y-77822764D01*
X89114866Y-78048884D01*
X89340986Y-78234456D01*
X89598966Y-78372349D01*
X89878889Y-78457263D01*
X90097050Y-78478750D01*
X90242950Y-78478750D01*
X90461111Y-78457263D01*
X90741034Y-78372349D01*
X90999014Y-78234456D01*
X91225134Y-78048884D01*
X91410706Y-77822764D01*
X91440000Y-77767959D01*
X91469294Y-77822764D01*
X91654866Y-78048884D01*
X91880986Y-78234456D01*
X92138966Y-78372349D01*
X92418889Y-78457263D01*
X92637050Y-78478750D01*
X92782950Y-78478750D01*
X93001111Y-78457263D01*
X93281034Y-78372349D01*
X93539014Y-78234456D01*
X93765134Y-78048884D01*
X93950706Y-77822764D01*
X93980000Y-77767959D01*
X94009294Y-77822764D01*
X94194866Y-78048884D01*
X94420986Y-78234456D01*
X94678966Y-78372349D01*
X94958889Y-78457263D01*
X95177050Y-78478750D01*
X95322950Y-78478750D01*
X95541111Y-78457263D01*
X95821034Y-78372349D01*
X96079014Y-78234456D01*
X96305134Y-78048884D01*
X96490706Y-77822764D01*
X96520000Y-77767959D01*
X96549294Y-77822764D01*
X96734866Y-78048884D01*
X96960986Y-78234456D01*
X97218966Y-78372349D01*
X97498889Y-78457263D01*
X97717050Y-78478750D01*
X97862950Y-78478750D01*
X98081111Y-78457263D01*
X98361034Y-78372349D01*
X98619014Y-78234456D01*
X98845134Y-78048884D01*
X99030706Y-77822764D01*
X99060000Y-77767959D01*
X99089294Y-77822764D01*
X99274866Y-78048884D01*
X99500986Y-78234456D01*
X99758966Y-78372349D01*
X100038889Y-78457263D01*
X100257050Y-78478750D01*
X100402950Y-78478750D01*
X100621111Y-78457263D01*
X100901034Y-78372349D01*
X101159014Y-78234456D01*
X101385134Y-78048884D01*
X101570706Y-77822764D01*
X101600000Y-77767959D01*
X101629294Y-77822764D01*
X101814866Y-78048884D01*
X102040986Y-78234456D01*
X102298966Y-78372349D01*
X102578889Y-78457263D01*
X102797050Y-78478750D01*
X102942950Y-78478750D01*
X103161111Y-78457263D01*
X103441034Y-78372349D01*
X103699014Y-78234456D01*
X103925134Y-78048884D01*
X104110706Y-77822764D01*
X104140000Y-77767959D01*
X104169294Y-77822764D01*
X104354866Y-78048884D01*
X104580986Y-78234456D01*
X104838966Y-78372349D01*
X105118889Y-78457263D01*
X105337050Y-78478750D01*
X105482950Y-78478750D01*
X105701111Y-78457263D01*
X105981034Y-78372349D01*
X106239014Y-78234456D01*
X106465134Y-78048884D01*
X106650706Y-77822764D01*
X106680000Y-77767959D01*
X106709294Y-77822764D01*
X106894866Y-78048884D01*
X107120986Y-78234456D01*
X107378966Y-78372349D01*
X107658889Y-78457263D01*
X107877050Y-78478750D01*
X108022950Y-78478750D01*
X108241111Y-78457263D01*
X108521034Y-78372349D01*
X108779014Y-78234456D01*
X109005134Y-78048884D01*
X109190706Y-77822764D01*
X109220000Y-77767959D01*
X109249294Y-77822764D01*
X109434866Y-78048884D01*
X109660986Y-78234456D01*
X109918966Y-78372349D01*
X110198889Y-78457263D01*
X110417050Y-78478750D01*
X110562950Y-78478750D01*
X110781111Y-78457263D01*
X111061034Y-78372349D01*
X111319014Y-78234456D01*
X111545134Y-78048884D01*
X111730706Y-77822764D01*
X111760000Y-77767959D01*
X111789294Y-77822764D01*
X111974866Y-78048884D01*
X112200986Y-78234456D01*
X112458966Y-78372349D01*
X112738889Y-78457263D01*
X112957050Y-78478750D01*
X113102950Y-78478750D01*
X113321111Y-78457263D01*
X113601034Y-78372349D01*
X113859014Y-78234456D01*
X114085134Y-78048884D01*
X114270706Y-77822764D01*
X114300000Y-77767959D01*
X114329294Y-77822764D01*
X114514866Y-78048884D01*
X114740986Y-78234456D01*
X114998966Y-78372349D01*
X115278889Y-78457263D01*
X115497050Y-78478750D01*
X115642950Y-78478750D01*
X115861111Y-78457263D01*
X116141034Y-78372349D01*
X116399014Y-78234456D01*
X116625134Y-78048884D01*
X116810706Y-77822764D01*
X116840000Y-77767959D01*
X116869294Y-77822764D01*
X117054866Y-78048884D01*
X117280986Y-78234456D01*
X117538966Y-78372349D01*
X117818889Y-78457263D01*
X118037050Y-78478750D01*
X118182950Y-78478750D01*
X118401111Y-78457263D01*
X118681034Y-78372349D01*
X118939014Y-78234456D01*
X119165134Y-78048884D01*
X119350706Y-77822764D01*
X119380000Y-77767959D01*
X119409294Y-77822764D01*
X119594866Y-78048884D01*
X119820986Y-78234456D01*
X120078966Y-78372349D01*
X120358889Y-78457263D01*
X120577050Y-78478750D01*
X120722950Y-78478750D01*
X120941111Y-78457263D01*
X121221034Y-78372349D01*
X121479014Y-78234456D01*
X121705134Y-78048884D01*
X121729607Y-78019063D01*
X121750498Y-78087930D01*
X121809463Y-78198244D01*
X121888815Y-78294935D01*
X121985506Y-78374287D01*
X122095820Y-78433252D01*
X122215518Y-78469562D01*
X122340000Y-78481822D01*
X124040000Y-78481822D01*
X124164482Y-78469562D01*
X124284180Y-78433252D01*
X124394494Y-78374287D01*
X124491185Y-78294935D01*
X124570537Y-78198244D01*
X124629502Y-78087930D01*
X124665812Y-77968232D01*
X124678072Y-77843750D01*
X124678072Y-76993750D01*
X135509065Y-76993750D01*
X135537737Y-77284861D01*
X135622651Y-77564784D01*
X135760544Y-77822764D01*
X135946116Y-78048884D01*
X136172236Y-78234456D01*
X136430216Y-78372349D01*
X136710139Y-78457263D01*
X136928300Y-78478750D01*
X137074200Y-78478750D01*
X137292361Y-78457263D01*
X137572284Y-78372349D01*
X137830264Y-78234456D01*
X138056384Y-78048884D01*
X138241956Y-77822764D01*
X138271250Y-77767959D01*
X138300544Y-77822764D01*
X138486116Y-78048884D01*
X138712236Y-78234456D01*
X138970216Y-78372349D01*
X139250139Y-78457263D01*
X139468300Y-78478750D01*
X139614200Y-78478750D01*
X139832361Y-78457263D01*
X140112284Y-78372349D01*
X140370264Y-78234456D01*
X140596384Y-78048884D01*
X140781956Y-77822764D01*
X140811250Y-77767959D01*
X140840544Y-77822764D01*
X141026116Y-78048884D01*
X141252236Y-78234456D01*
X141510216Y-78372349D01*
X141790139Y-78457263D01*
X142008300Y-78478750D01*
X142154200Y-78478750D01*
X142372361Y-78457263D01*
X142652284Y-78372349D01*
X142910264Y-78234456D01*
X143136384Y-78048884D01*
X143321956Y-77822764D01*
X143351250Y-77767959D01*
X143380544Y-77822764D01*
X143566116Y-78048884D01*
X143792236Y-78234456D01*
X144050216Y-78372349D01*
X144330139Y-78457263D01*
X144548300Y-78478750D01*
X144694200Y-78478750D01*
X144912361Y-78457263D01*
X145192284Y-78372349D01*
X145450264Y-78234456D01*
X145676384Y-78048884D01*
X145861956Y-77822764D01*
X145891250Y-77767959D01*
X145920544Y-77822764D01*
X146106116Y-78048884D01*
X146332236Y-78234456D01*
X146590216Y-78372349D01*
X146870139Y-78457263D01*
X147088300Y-78478750D01*
X147234200Y-78478750D01*
X147452361Y-78457263D01*
X147732284Y-78372349D01*
X147990264Y-78234456D01*
X148216384Y-78048884D01*
X148401956Y-77822764D01*
X148431250Y-77767959D01*
X148460544Y-77822764D01*
X148646116Y-78048884D01*
X148872236Y-78234456D01*
X149130216Y-78372349D01*
X149410139Y-78457263D01*
X149628300Y-78478750D01*
X149774200Y-78478750D01*
X149992361Y-78457263D01*
X150272284Y-78372349D01*
X150530264Y-78234456D01*
X150756384Y-78048884D01*
X150941956Y-77822764D01*
X150971250Y-77767959D01*
X151000544Y-77822764D01*
X151186116Y-78048884D01*
X151412236Y-78234456D01*
X151670216Y-78372349D01*
X151950139Y-78457263D01*
X152168300Y-78478750D01*
X152314200Y-78478750D01*
X152532361Y-78457263D01*
X152812284Y-78372349D01*
X153070264Y-78234456D01*
X153296384Y-78048884D01*
X153320857Y-78019063D01*
X153341748Y-78087930D01*
X153400713Y-78198244D01*
X153480065Y-78294935D01*
X153576756Y-78374287D01*
X153687070Y-78433252D01*
X153806768Y-78469562D01*
X153931250Y-78481822D01*
X155631250Y-78481822D01*
X155755732Y-78469562D01*
X155875430Y-78433252D01*
X155985744Y-78374287D01*
X156082435Y-78294935D01*
X156161787Y-78198244D01*
X156220752Y-78087930D01*
X156257062Y-77968232D01*
X156269322Y-77843750D01*
X156269322Y-76143750D01*
X156257062Y-76019268D01*
X156220752Y-75899570D01*
X156161787Y-75789256D01*
X156082435Y-75692565D01*
X155985744Y-75613213D01*
X155875430Y-75554248D01*
X155755732Y-75517938D01*
X155631250Y-75505678D01*
X153931250Y-75505678D01*
X153806768Y-75517938D01*
X153687070Y-75554248D01*
X153576756Y-75613213D01*
X153480065Y-75692565D01*
X153400713Y-75789256D01*
X153341748Y-75899570D01*
X153320857Y-75968437D01*
X153296384Y-75938616D01*
X153070264Y-75753044D01*
X152812284Y-75615151D01*
X152532361Y-75530237D01*
X152314200Y-75508750D01*
X152168300Y-75508750D01*
X151950139Y-75530237D01*
X151670216Y-75615151D01*
X151412236Y-75753044D01*
X151186116Y-75938616D01*
X151000544Y-76164736D01*
X150971250Y-76219541D01*
X150941956Y-76164736D01*
X150756384Y-75938616D01*
X150530264Y-75753044D01*
X150272284Y-75615151D01*
X149992361Y-75530237D01*
X149774200Y-75508750D01*
X149628300Y-75508750D01*
X149410139Y-75530237D01*
X149130216Y-75615151D01*
X148872236Y-75753044D01*
X148646116Y-75938616D01*
X148460544Y-76164736D01*
X148431250Y-76219541D01*
X148401956Y-76164736D01*
X148216384Y-75938616D01*
X147990264Y-75753044D01*
X147732284Y-75615151D01*
X147452361Y-75530237D01*
X147234200Y-75508750D01*
X147088300Y-75508750D01*
X146870139Y-75530237D01*
X146590216Y-75615151D01*
X146332236Y-75753044D01*
X146106116Y-75938616D01*
X145920544Y-76164736D01*
X145891250Y-76219541D01*
X145861956Y-76164736D01*
X145676384Y-75938616D01*
X145450264Y-75753044D01*
X145192284Y-75615151D01*
X144912361Y-75530237D01*
X144694200Y-75508750D01*
X144548300Y-75508750D01*
X144330139Y-75530237D01*
X144050216Y-75615151D01*
X143792236Y-75753044D01*
X143566116Y-75938616D01*
X143380544Y-76164736D01*
X143351250Y-76219541D01*
X143321956Y-76164736D01*
X143136384Y-75938616D01*
X142910264Y-75753044D01*
X142652284Y-75615151D01*
X142372361Y-75530237D01*
X142154200Y-75508750D01*
X142008300Y-75508750D01*
X141790139Y-75530237D01*
X141510216Y-75615151D01*
X141252236Y-75753044D01*
X141026116Y-75938616D01*
X140840544Y-76164736D01*
X140811250Y-76219541D01*
X140781956Y-76164736D01*
X140596384Y-75938616D01*
X140370264Y-75753044D01*
X140112284Y-75615151D01*
X139832361Y-75530237D01*
X139614200Y-75508750D01*
X139468300Y-75508750D01*
X139250139Y-75530237D01*
X138970216Y-75615151D01*
X138712236Y-75753044D01*
X138486116Y-75938616D01*
X138300544Y-76164736D01*
X138271250Y-76219541D01*
X138241956Y-76164736D01*
X138056384Y-75938616D01*
X137830264Y-75753044D01*
X137572284Y-75615151D01*
X137292361Y-75530237D01*
X137074200Y-75508750D01*
X136928300Y-75508750D01*
X136710139Y-75530237D01*
X136430216Y-75615151D01*
X136172236Y-75753044D01*
X135946116Y-75938616D01*
X135760544Y-76164736D01*
X135622651Y-76422716D01*
X135537737Y-76702639D01*
X135509065Y-76993750D01*
X124678072Y-76993750D01*
X124678072Y-76143750D01*
X124665812Y-76019268D01*
X124629502Y-75899570D01*
X124570537Y-75789256D01*
X124491185Y-75692565D01*
X124394494Y-75613213D01*
X124284180Y-75554248D01*
X124164482Y-75517938D01*
X124040000Y-75505678D01*
X122340000Y-75505678D01*
X122215518Y-75517938D01*
X122095820Y-75554248D01*
X121985506Y-75613213D01*
X121888815Y-75692565D01*
X121809463Y-75789256D01*
X121750498Y-75899570D01*
X121729607Y-75968437D01*
X121705134Y-75938616D01*
X121479014Y-75753044D01*
X121221034Y-75615151D01*
X120941111Y-75530237D01*
X120722950Y-75508750D01*
X120577050Y-75508750D01*
X120358889Y-75530237D01*
X120078966Y-75615151D01*
X119820986Y-75753044D01*
X119594866Y-75938616D01*
X119409294Y-76164736D01*
X119380000Y-76219541D01*
X119350706Y-76164736D01*
X119165134Y-75938616D01*
X118939014Y-75753044D01*
X118681034Y-75615151D01*
X118401111Y-75530237D01*
X118182950Y-75508750D01*
X118037050Y-75508750D01*
X117818889Y-75530237D01*
X117538966Y-75615151D01*
X117280986Y-75753044D01*
X117054866Y-75938616D01*
X116869294Y-76164736D01*
X116840000Y-76219541D01*
X116810706Y-76164736D01*
X116625134Y-75938616D01*
X116399014Y-75753044D01*
X116141034Y-75615151D01*
X115861111Y-75530237D01*
X115642950Y-75508750D01*
X115497050Y-75508750D01*
X115278889Y-75530237D01*
X114998966Y-75615151D01*
X114740986Y-75753044D01*
X114514866Y-75938616D01*
X114329294Y-76164736D01*
X114300000Y-76219541D01*
X114270706Y-76164736D01*
X114085134Y-75938616D01*
X113859014Y-75753044D01*
X113601034Y-75615151D01*
X113321111Y-75530237D01*
X113102950Y-75508750D01*
X112957050Y-75508750D01*
X112738889Y-75530237D01*
X112458966Y-75615151D01*
X112200986Y-75753044D01*
X111974866Y-75938616D01*
X111789294Y-76164736D01*
X111760000Y-76219541D01*
X111730706Y-76164736D01*
X111545134Y-75938616D01*
X111319014Y-75753044D01*
X111061034Y-75615151D01*
X110781111Y-75530237D01*
X110562950Y-75508750D01*
X110417050Y-75508750D01*
X110198889Y-75530237D01*
X109918966Y-75615151D01*
X109660986Y-75753044D01*
X109434866Y-75938616D01*
X109249294Y-76164736D01*
X109220000Y-76219541D01*
X109190706Y-76164736D01*
X109005134Y-75938616D01*
X108779014Y-75753044D01*
X108521034Y-75615151D01*
X108241111Y-75530237D01*
X108022950Y-75508750D01*
X107877050Y-75508750D01*
X107658889Y-75530237D01*
X107378966Y-75615151D01*
X107120986Y-75753044D01*
X106894866Y-75938616D01*
X106709294Y-76164736D01*
X106680000Y-76219541D01*
X106650706Y-76164736D01*
X106465134Y-75938616D01*
X106239014Y-75753044D01*
X105981034Y-75615151D01*
X105701111Y-75530237D01*
X105482950Y-75508750D01*
X105337050Y-75508750D01*
X105118889Y-75530237D01*
X104838966Y-75615151D01*
X104580986Y-75753044D01*
X104354866Y-75938616D01*
X104169294Y-76164736D01*
X104140000Y-76219541D01*
X104110706Y-76164736D01*
X103925134Y-75938616D01*
X103699014Y-75753044D01*
X103441034Y-75615151D01*
X103161111Y-75530237D01*
X102942950Y-75508750D01*
X102797050Y-75508750D01*
X102578889Y-75530237D01*
X102298966Y-75615151D01*
X102040986Y-75753044D01*
X101814866Y-75938616D01*
X101629294Y-76164736D01*
X101600000Y-76219541D01*
X101570706Y-76164736D01*
X101385134Y-75938616D01*
X101159014Y-75753044D01*
X100901034Y-75615151D01*
X100621111Y-75530237D01*
X100402950Y-75508750D01*
X100257050Y-75508750D01*
X100038889Y-75530237D01*
X99758966Y-75615151D01*
X99500986Y-75753044D01*
X99274866Y-75938616D01*
X99089294Y-76164736D01*
X99060000Y-76219541D01*
X99030706Y-76164736D01*
X98845134Y-75938616D01*
X98619014Y-75753044D01*
X98361034Y-75615151D01*
X98081111Y-75530237D01*
X97862950Y-75508750D01*
X97717050Y-75508750D01*
X97498889Y-75530237D01*
X97218966Y-75615151D01*
X96960986Y-75753044D01*
X96734866Y-75938616D01*
X96549294Y-76164736D01*
X96520000Y-76219541D01*
X96490706Y-76164736D01*
X96305134Y-75938616D01*
X96079014Y-75753044D01*
X95821034Y-75615151D01*
X95541111Y-75530237D01*
X95322950Y-75508750D01*
X95177050Y-75508750D01*
X94958889Y-75530237D01*
X94678966Y-75615151D01*
X94420986Y-75753044D01*
X94194866Y-75938616D01*
X94009294Y-76164736D01*
X93980000Y-76219541D01*
X93950706Y-76164736D01*
X93765134Y-75938616D01*
X93539014Y-75753044D01*
X93281034Y-75615151D01*
X93001111Y-75530237D01*
X92782950Y-75508750D01*
X92637050Y-75508750D01*
X92418889Y-75530237D01*
X92138966Y-75615151D01*
X91880986Y-75753044D01*
X91654866Y-75938616D01*
X91469294Y-76164736D01*
X91440000Y-76219541D01*
X91410706Y-76164736D01*
X91225134Y-75938616D01*
X90999014Y-75753044D01*
X90741034Y-75615151D01*
X90461111Y-75530237D01*
X90242950Y-75508750D01*
X90097050Y-75508750D01*
X89878889Y-75530237D01*
X89598966Y-75615151D01*
X89340986Y-75753044D01*
X89114866Y-75938616D01*
X88929294Y-76164736D01*
X88900000Y-76219541D01*
X88870706Y-76164736D01*
X88685134Y-75938616D01*
X88459014Y-75753044D01*
X88201034Y-75615151D01*
X87921111Y-75530237D01*
X87702950Y-75508750D01*
X87557050Y-75508750D01*
X87338889Y-75530237D01*
X87058966Y-75615151D01*
X86800986Y-75753044D01*
X86574866Y-75938616D01*
X86389294Y-76164736D01*
X86360000Y-76219541D01*
X86330706Y-76164736D01*
X86145134Y-75938616D01*
X85919014Y-75753044D01*
X85661034Y-75615151D01*
X85381111Y-75530237D01*
X85162950Y-75508750D01*
X85017050Y-75508750D01*
X84798889Y-75530237D01*
X84518966Y-75615151D01*
X84260986Y-75753044D01*
X84034866Y-75938616D01*
X83849294Y-76164736D01*
X83711401Y-76422716D01*
X83626487Y-76702639D01*
X83597815Y-76993750D01*
X70760590Y-76993750D01*
X70690780Y-76825215D01*
X70442464Y-76453583D01*
X70126417Y-76137536D01*
X69754785Y-75889220D01*
X69341849Y-75718176D01*
X68903479Y-75630979D01*
X68456521Y-75630979D01*
X68018151Y-75718176D01*
X67605215Y-75889220D01*
X67233583Y-76137536D01*
X66917536Y-76453583D01*
X66669220Y-76825215D01*
X66498176Y-77238151D01*
X66410979Y-77676521D01*
X66410979Y-78123479D01*
X66498176Y-78561849D01*
X66669220Y-78974785D01*
X66917536Y-79346417D01*
X67233583Y-79662464D01*
X67605215Y-79910780D01*
X67998055Y-80073500D01*
X62651550Y-80073500D01*
X62611000Y-80069506D01*
X62570450Y-80073500D01*
X61635550Y-80073500D01*
X61594999Y-80069506D01*
X61554449Y-80073500D01*
X61554447Y-80073500D01*
X61433174Y-80085444D01*
X61277566Y-80132647D01*
X61134157Y-80209301D01*
X61090651Y-80245006D01*
X61008459Y-80312459D01*
X60982607Y-80343961D01*
X56848961Y-84477607D01*
X56817460Y-84503459D01*
X56776640Y-84553198D01*
X56714301Y-84629158D01*
X56637647Y-84772567D01*
X56590445Y-84928174D01*
X56574506Y-85090000D01*
X56578501Y-85130560D01*
X56578500Y-88699046D01*
X56457836Y-88763542D01*
X56324208Y-88873208D01*
X56214542Y-89006836D01*
X56133053Y-89159291D01*
X56082872Y-89324715D01*
X56065928Y-89496750D01*
X56065928Y-89984250D01*
X56082872Y-90156285D01*
X56133053Y-90321709D01*
X56214542Y-90474164D01*
X56324208Y-90607792D01*
X56330564Y-90613008D01*
X56252815Y-90676815D01*
X56173463Y-90773506D01*
X56114498Y-90883820D01*
X56078188Y-91003518D01*
X56065928Y-91128000D01*
X56069000Y-91329750D01*
X56227750Y-91488500D01*
X57277000Y-91488500D01*
X57277000Y-91468500D01*
X57531000Y-91468500D01*
X57531000Y-91488500D01*
X57551000Y-91488500D01*
X57551000Y-91742500D01*
X57531000Y-91742500D01*
X57531000Y-92579250D01*
X57534750Y-92583000D01*
X57531000Y-92586750D01*
X57531000Y-93423500D01*
X57551000Y-93423500D01*
X57551000Y-93677500D01*
X57531000Y-93677500D01*
X57531000Y-93697500D01*
X57277000Y-93697500D01*
X57277000Y-93677500D01*
X56227750Y-93677500D01*
X56069000Y-93836250D01*
X56065928Y-94038000D01*
X56078188Y-94162482D01*
X56114498Y-94282180D01*
X56173463Y-94392494D01*
X56252815Y-94489185D01*
X56330564Y-94552992D01*
X56324208Y-94558208D01*
X56214542Y-94691836D01*
X56133053Y-94844291D01*
X56082872Y-95009715D01*
X56065928Y-95181750D01*
X56065928Y-95669250D01*
X56082872Y-95841285D01*
X56133053Y-96006709D01*
X56214542Y-96159164D01*
X56324208Y-96292792D01*
X56457836Y-96402458D01*
X56610291Y-96483947D01*
X56775715Y-96534128D01*
X56947750Y-96551072D01*
X57860250Y-96551072D01*
X57975501Y-96539721D01*
X57975500Y-101686449D01*
X57971506Y-101727000D01*
X57975500Y-101767550D01*
X57975500Y-101767552D01*
X57987444Y-101888825D01*
X58012396Y-101971080D01*
X58034647Y-102044433D01*
X58111301Y-102187842D01*
X58140953Y-102223973D01*
X58164306Y-102252428D01*
X57835224Y-102252428D01*
X57663189Y-102269372D01*
X57497765Y-102319553D01*
X57345310Y-102401042D01*
X57211682Y-102510708D01*
X57152764Y-102582500D01*
X54708090Y-102582500D01*
X54673792Y-102540708D01*
X54540164Y-102431042D01*
X54387709Y-102349553D01*
X54222285Y-102299372D01*
X54050250Y-102282428D01*
X53137750Y-102282428D01*
X52965715Y-102299372D01*
X52800291Y-102349553D01*
X52647836Y-102431042D01*
X52514208Y-102540708D01*
X52404542Y-102674336D01*
X52323053Y-102826791D01*
X52272872Y-102992215D01*
X52255928Y-103164250D01*
X52255928Y-103309547D01*
X45375572Y-96429192D01*
X45375572Y-95068750D01*
X46699428Y-95068750D01*
X46699428Y-96868750D01*
X46711688Y-96993232D01*
X46747998Y-97112930D01*
X46806963Y-97223244D01*
X46886315Y-97319935D01*
X46983006Y-97399287D01*
X47093320Y-97458252D01*
X47213018Y-97494562D01*
X47337500Y-97506822D01*
X48437500Y-97506822D01*
X48561982Y-97494562D01*
X48681680Y-97458252D01*
X48791994Y-97399287D01*
X48888685Y-97319935D01*
X48968037Y-97223244D01*
X49027002Y-97112930D01*
X49063312Y-96993232D01*
X49075572Y-96868750D01*
X49075572Y-95068750D01*
X49063312Y-94944268D01*
X49027002Y-94824570D01*
X48968037Y-94714256D01*
X48888685Y-94617565D01*
X48791994Y-94538213D01*
X48681680Y-94479248D01*
X48561982Y-94442938D01*
X48437500Y-94430678D01*
X47337500Y-94430678D01*
X47213018Y-94442938D01*
X47093320Y-94479248D01*
X46983006Y-94538213D01*
X46886315Y-94617565D01*
X46806963Y-94714256D01*
X46747998Y-94824570D01*
X46711688Y-94944268D01*
X46699428Y-95068750D01*
X45375572Y-95068750D01*
X45363312Y-94944268D01*
X45327002Y-94824570D01*
X45268037Y-94714256D01*
X45188685Y-94617565D01*
X45091994Y-94538213D01*
X44981680Y-94479248D01*
X44861982Y-94442938D01*
X44737500Y-94430678D01*
X43637500Y-94430678D01*
X43513018Y-94442938D01*
X43393320Y-94479248D01*
X43283006Y-94538213D01*
X43186315Y-94617565D01*
X43106963Y-94714256D01*
X43047998Y-94824570D01*
X43011688Y-94944268D01*
X42999428Y-95068750D01*
X41141250Y-95068750D01*
X41141250Y-92103000D01*
X56065928Y-92103000D01*
X56078188Y-92227482D01*
X56114498Y-92347180D01*
X56173463Y-92457494D01*
X56252815Y-92554185D01*
X56287926Y-92583000D01*
X56252815Y-92611815D01*
X56173463Y-92708506D01*
X56114498Y-92818820D01*
X56078188Y-92938518D01*
X56065928Y-93063000D01*
X56069000Y-93264750D01*
X56227750Y-93423500D01*
X57277000Y-93423500D01*
X57277000Y-92586750D01*
X57273250Y-92583000D01*
X57277000Y-92579250D01*
X57277000Y-91742500D01*
X56227750Y-91742500D01*
X56069000Y-91901250D01*
X56065928Y-92103000D01*
X41141250Y-92103000D01*
X41141250Y-88868750D01*
X42999428Y-88868750D01*
X42999428Y-90668750D01*
X43011688Y-90793232D01*
X43047998Y-90912930D01*
X43106963Y-91023244D01*
X43186315Y-91119935D01*
X43283006Y-91199287D01*
X43393320Y-91258252D01*
X43513018Y-91294562D01*
X43637500Y-91306822D01*
X44737500Y-91306822D01*
X44861982Y-91294562D01*
X44981680Y-91258252D01*
X45091994Y-91199287D01*
X45188685Y-91119935D01*
X45268037Y-91023244D01*
X45327002Y-90912930D01*
X45363312Y-90793232D01*
X45375572Y-90668750D01*
X46699428Y-90668750D01*
X46711688Y-90793232D01*
X46747998Y-90912930D01*
X46806963Y-91023244D01*
X46886315Y-91119935D01*
X46983006Y-91199287D01*
X47093320Y-91258252D01*
X47213018Y-91294562D01*
X47337500Y-91306822D01*
X47601750Y-91303750D01*
X47760500Y-91145000D01*
X47760500Y-89895750D01*
X48014500Y-89895750D01*
X48014500Y-91145000D01*
X48173250Y-91303750D01*
X48437500Y-91306822D01*
X48561982Y-91294562D01*
X48681680Y-91258252D01*
X48791994Y-91199287D01*
X48888685Y-91119935D01*
X48968037Y-91023244D01*
X49027002Y-90912930D01*
X49063312Y-90793232D01*
X49075572Y-90668750D01*
X49072500Y-90054500D01*
X48913750Y-89895750D01*
X48014500Y-89895750D01*
X47760500Y-89895750D01*
X46861250Y-89895750D01*
X46702500Y-90054500D01*
X46699428Y-90668750D01*
X45375572Y-90668750D01*
X45375572Y-88868750D01*
X46699428Y-88868750D01*
X46702500Y-89483000D01*
X46861250Y-89641750D01*
X47760500Y-89641750D01*
X47760500Y-88392500D01*
X48014500Y-88392500D01*
X48014500Y-89641750D01*
X48913750Y-89641750D01*
X49072500Y-89483000D01*
X49075572Y-88868750D01*
X49063312Y-88744268D01*
X49027002Y-88624570D01*
X48968037Y-88514256D01*
X48888685Y-88417565D01*
X48791994Y-88338213D01*
X48681680Y-88279248D01*
X48561982Y-88242938D01*
X48437500Y-88230678D01*
X48173250Y-88233750D01*
X48014500Y-88392500D01*
X47760500Y-88392500D01*
X47601750Y-88233750D01*
X47337500Y-88230678D01*
X47213018Y-88242938D01*
X47093320Y-88279248D01*
X46983006Y-88338213D01*
X46886315Y-88417565D01*
X46806963Y-88514256D01*
X46747998Y-88624570D01*
X46711688Y-88744268D01*
X46699428Y-88868750D01*
X45375572Y-88868750D01*
X45363312Y-88744268D01*
X45327002Y-88624570D01*
X45268037Y-88514256D01*
X45188685Y-88417565D01*
X45091994Y-88338213D01*
X44981680Y-88279248D01*
X44861982Y-88242938D01*
X44737500Y-88230678D01*
X43637500Y-88230678D01*
X43513018Y-88242938D01*
X43393320Y-88279248D01*
X43283006Y-88338213D01*
X43186315Y-88417565D01*
X43106963Y-88514256D01*
X43047998Y-88624570D01*
X43011688Y-88744268D01*
X42999428Y-88868750D01*
X41141250Y-88868750D01*
X41141250Y-77676521D01*
X42207979Y-77676521D01*
X42207979Y-78123479D01*
X42295176Y-78561849D01*
X42466220Y-78974785D01*
X42714536Y-79346417D01*
X43030583Y-79662464D01*
X43402215Y-79910780D01*
X43815151Y-80081824D01*
X44253521Y-80169021D01*
X44700479Y-80169021D01*
X45138849Y-80081824D01*
X45551785Y-79910780D01*
X45923417Y-79662464D01*
X46239464Y-79346417D01*
X46487780Y-78974785D01*
X46658824Y-78561849D01*
X46746021Y-78123479D01*
X46746021Y-77676521D01*
X46658824Y-77238151D01*
X46487780Y-76825215D01*
X46239464Y-76453583D01*
X45923417Y-76137536D01*
X45551785Y-75889220D01*
X45138849Y-75718176D01*
X44700479Y-75630979D01*
X44253521Y-75630979D01*
X43815151Y-75718176D01*
X43402215Y-75889220D01*
X43030583Y-76137536D01*
X42714536Y-76453583D01*
X42466220Y-76825215D01*
X42295176Y-77238151D01*
X42207979Y-77676521D01*
X41141250Y-77676521D01*
X41141250Y-73057279D01*
X41162019Y-72845462D01*
X41214160Y-72672763D01*
X41298852Y-72513482D01*
X41412869Y-72373681D01*
X41551867Y-72258692D01*
X41710555Y-72172890D01*
X41882885Y-72119545D01*
X42092630Y-72097500D01*
X157130221Y-72097500D01*
X157342038Y-72118269D01*
G36*
X67541829Y-103604597D02*
G01*
X67578118Y-103648815D01*
X67637052Y-103720627D01*
X67666128Y-103744489D01*
X68235952Y-104314313D01*
X68193470Y-104310129D01*
X67779220Y-104313201D01*
X67620470Y-104471951D01*
X67620470Y-105421201D01*
X67640470Y-105421201D01*
X67640470Y-105675201D01*
X67620470Y-105675201D01*
X67620470Y-105695201D01*
X67366470Y-105695201D01*
X67366470Y-105675201D01*
X67346470Y-105675201D01*
X67346470Y-105421201D01*
X67366470Y-105421201D01*
X67366470Y-104471951D01*
X67228469Y-104333950D01*
X67228469Y-103906116D01*
X67537705Y-103596881D01*
X67541829Y-103604597D01*
X67541829Y-103604597D01*
G37*
X67541829Y-103604597D02*
X67578118Y-103648815D01*
X67637052Y-103720627D01*
X67666128Y-103744489D01*
X68235952Y-104314313D01*
X68193470Y-104310129D01*
X67779220Y-104313201D01*
X67620470Y-104471951D01*
X67620470Y-105421201D01*
X67640470Y-105421201D01*
X67640470Y-105675201D01*
X67620470Y-105675201D01*
X67620470Y-105695201D01*
X67366470Y-105695201D01*
X67366470Y-105675201D01*
X67346470Y-105675201D01*
X67346470Y-105421201D01*
X67366470Y-105421201D01*
X67366470Y-104471951D01*
X67228469Y-104333950D01*
X67228469Y-103906116D01*
X67537705Y-103596881D01*
X67541829Y-103604597D01*
G36*
X63544039Y-83854416D02*
G01*
X63640730Y-83933768D01*
X63751044Y-83992733D01*
X63870742Y-84029043D01*
X63949931Y-84036842D01*
X63901774Y-84153102D01*
X63862000Y-84353061D01*
X63862000Y-84556939D01*
X63901774Y-84756898D01*
X63955420Y-84886409D01*
X63903474Y-84886409D01*
X63778992Y-84898669D01*
X63777811Y-84899027D01*
X63664224Y-84889481D01*
X63572141Y-84981564D01*
X63548980Y-84993944D01*
X63505476Y-85029647D01*
X63505476Y-84889481D01*
X63433224Y-84889481D01*
X63433224Y-83817321D01*
X63475016Y-83783023D01*
X63480232Y-83776667D01*
X63544039Y-83854416D01*
X63544039Y-83854416D01*
G37*
X63544039Y-83854416D02*
X63640730Y-83933768D01*
X63751044Y-83992733D01*
X63870742Y-84029043D01*
X63949931Y-84036842D01*
X63901774Y-84153102D01*
X63862000Y-84353061D01*
X63862000Y-84556939D01*
X63901774Y-84756898D01*
X63955420Y-84886409D01*
X63903474Y-84886409D01*
X63778992Y-84898669D01*
X63777811Y-84899027D01*
X63664224Y-84889481D01*
X63572141Y-84981564D01*
X63548980Y-84993944D01*
X63505476Y-85029647D01*
X63505476Y-84889481D01*
X63433224Y-84889481D01*
X63433224Y-83817321D01*
X63475016Y-83783023D01*
X63480232Y-83776667D01*
X63544039Y-83854416D01*
G36*
X70307463Y-81749506D02*
G01*
X70248498Y-81859820D01*
X70212188Y-81979518D01*
X70204535Y-82057220D01*
X70047778Y-82026039D01*
X69843900Y-82026039D01*
X69643941Y-82065813D01*
X69455583Y-82143834D01*
X69286065Y-82257102D01*
X69207262Y-82335905D01*
X69065553Y-82307718D01*
X68861675Y-82307718D01*
X68661716Y-82347492D01*
X68473358Y-82425513D01*
X68303840Y-82538781D01*
X68159677Y-82682944D01*
X68138935Y-82713987D01*
X68037412Y-82693793D01*
X67833534Y-82693793D01*
X67633575Y-82733567D01*
X67445217Y-82811588D01*
X67275699Y-82924856D01*
X67131536Y-83069019D01*
X67110794Y-83100062D01*
X67009271Y-83079868D01*
X66805393Y-83079868D01*
X66605434Y-83119642D01*
X66417076Y-83197663D01*
X66247558Y-83310931D01*
X66105938Y-83452551D01*
X66013008Y-83434066D01*
X65809130Y-83434066D01*
X65609171Y-83473840D01*
X65601009Y-83477221D01*
X65608296Y-83403231D01*
X65605224Y-82988981D01*
X65446474Y-82830231D01*
X64609724Y-82830231D01*
X64609724Y-82850231D01*
X64355724Y-82850231D01*
X64355724Y-82830231D01*
X64335724Y-82830231D01*
X64335724Y-82576231D01*
X64355724Y-82576231D01*
X64355724Y-82556231D01*
X64609724Y-82556231D01*
X64609724Y-82576231D01*
X65446474Y-82576231D01*
X65605224Y-82417481D01*
X65608296Y-82003231D01*
X65596036Y-81878749D01*
X65559726Y-81759051D01*
X65541258Y-81724500D01*
X70327985Y-81724500D01*
X70307463Y-81749506D01*
X70307463Y-81749506D01*
G37*
X70307463Y-81749506D02*
X70248498Y-81859820D01*
X70212188Y-81979518D01*
X70204535Y-82057220D01*
X70047778Y-82026039D01*
X69843900Y-82026039D01*
X69643941Y-82065813D01*
X69455583Y-82143834D01*
X69286065Y-82257102D01*
X69207262Y-82335905D01*
X69065553Y-82307718D01*
X68861675Y-82307718D01*
X68661716Y-82347492D01*
X68473358Y-82425513D01*
X68303840Y-82538781D01*
X68159677Y-82682944D01*
X68138935Y-82713987D01*
X68037412Y-82693793D01*
X67833534Y-82693793D01*
X67633575Y-82733567D01*
X67445217Y-82811588D01*
X67275699Y-82924856D01*
X67131536Y-83069019D01*
X67110794Y-83100062D01*
X67009271Y-83079868D01*
X66805393Y-83079868D01*
X66605434Y-83119642D01*
X66417076Y-83197663D01*
X66247558Y-83310931D01*
X66105938Y-83452551D01*
X66013008Y-83434066D01*
X65809130Y-83434066D01*
X65609171Y-83473840D01*
X65601009Y-83477221D01*
X65608296Y-83403231D01*
X65605224Y-82988981D01*
X65446474Y-82830231D01*
X64609724Y-82830231D01*
X64609724Y-82850231D01*
X64355724Y-82850231D01*
X64355724Y-82830231D01*
X64335724Y-82830231D01*
X64335724Y-82576231D01*
X64355724Y-82576231D01*
X64355724Y-82556231D01*
X64609724Y-82556231D01*
X64609724Y-82576231D01*
X65446474Y-82576231D01*
X65605224Y-82417481D01*
X65608296Y-82003231D01*
X65596036Y-81878749D01*
X65559726Y-81759051D01*
X65541258Y-81724500D01*
X70327985Y-81724500D01*
X70307463Y-81749506D01*
G36*
X71452500Y-82677000D02*
G01*
X71472500Y-82677000D01*
X71472500Y-82931000D01*
X71452500Y-82931000D01*
X71452500Y-82951000D01*
X71198500Y-82951000D01*
X71198500Y-82931000D01*
X71178500Y-82931000D01*
X71178500Y-82677000D01*
X71198500Y-82677000D01*
X71198500Y-82657000D01*
X71452500Y-82657000D01*
X71452500Y-82677000D01*
X71452500Y-82677000D01*
G37*
X71452500Y-82677000D02*
X71472500Y-82677000D01*
X71472500Y-82931000D01*
X71452500Y-82931000D01*
X71452500Y-82951000D01*
X71198500Y-82951000D01*
X71198500Y-82931000D01*
X71178500Y-82931000D01*
X71178500Y-82677000D01*
X71198500Y-82677000D01*
X71198500Y-82657000D01*
X71452500Y-82657000D01*
X71452500Y-82677000D01*
M02*
