G04 #@! TF.GenerationSoftware,KiCad,Pcbnew,(5.1.4)-1*
G04 #@! TF.CreationDate,2019-10-31T16:14:05-07:00*
G04 #@! TF.ProjectId,controller,636f6e74-726f-46c6-9c65-722e6b696361,rev?*
G04 #@! TF.SameCoordinates,Original*
G04 #@! TF.FileFunction,Copper,L2,Bot*
G04 #@! TF.FilePolarity,Positive*
%FSLAX46Y46*%
G04 Gerber Fmt 4.6, Leading zero omitted, Abs format (unit mm)*
G04 Created by KiCad (PCBNEW (5.1.4)-1) date 2019-10-31 16:14:05*
%MOMM*%
%LPD*%
G04 APERTURE LIST*
%ADD10O,1.000000X1.600000*%
%ADD11O,1.000000X2.100000*%
%ADD12O,1.700000X1.700000*%
%ADD13R,1.700000X1.700000*%
%ADD14C,0.800000*%
%ADD15C,0.381000*%
%ADD16C,0.254000*%
G04 APERTURE END LIST*
D10*
X135288750Y-108747250D03*
X126648750Y-108747250D03*
D11*
X135288750Y-104567250D03*
X126648750Y-104567250D03*
D12*
X85090000Y-76993750D03*
X87630000Y-76993750D03*
X90170000Y-76993750D03*
X92710000Y-76993750D03*
X95250000Y-76993750D03*
X97790000Y-76993750D03*
X100330000Y-76993750D03*
X102870000Y-76993750D03*
X105410000Y-76993750D03*
X107950000Y-76993750D03*
X110490000Y-76993750D03*
X113030000Y-76993750D03*
X115570000Y-76993750D03*
X118110000Y-76993750D03*
X120650000Y-76993750D03*
D13*
X123190000Y-76993750D03*
D12*
X137001250Y-76993750D03*
X139541250Y-76993750D03*
X142081250Y-76993750D03*
X144621250Y-76993750D03*
X147161250Y-76993750D03*
X149701250Y-76993750D03*
X152241250Y-76993750D03*
D13*
X154781250Y-76993750D03*
D12*
X154764202Y-87480375D03*
X154764202Y-90020375D03*
X154764202Y-92560375D03*
D13*
X154764202Y-95100375D03*
D14*
X80772000Y-89154000D03*
X73152000Y-88773000D03*
X92837000Y-90805000D03*
X70612000Y-88773000D03*
X70612000Y-90932000D03*
X136525000Y-100806250D03*
X127793750Y-100806250D03*
X150622000Y-93218000D03*
X140843000Y-94615000D03*
X58928000Y-90805000D03*
X58801000Y-94996000D03*
X82550000Y-92075000D03*
X82550000Y-93075003D03*
X82550000Y-94234000D03*
X82550000Y-95377000D03*
X82550000Y-96520000D03*
X82550000Y-97663000D03*
X82550000Y-98806000D03*
X82550000Y-99949000D03*
X58928000Y-87884000D03*
X58868038Y-88900000D03*
X64897000Y-84455000D03*
X65911069Y-84469066D03*
X66907332Y-84114868D03*
X67935473Y-83728793D03*
X68963614Y-83342718D03*
X69945839Y-83061039D03*
X69741850Y-84668578D03*
X70810681Y-84627874D03*
X136448968Y-90881032D03*
X133985000Y-93345000D03*
X129921000Y-92583000D03*
X130556000Y-98552000D03*
X78994000Y-101092000D03*
X63627000Y-91186000D03*
X78677772Y-102040685D03*
X69220087Y-92583000D03*
X131572000Y-92710000D03*
X130556000Y-99822000D03*
X53594000Y-107315000D03*
X64897000Y-98679000D03*
X140970000Y-106680000D03*
X76820464Y-105927734D03*
X140955934Y-105665931D03*
X76820934Y-104900069D03*
X140959884Y-104633846D03*
X76835000Y-103886000D03*
X73406000Y-84423069D03*
X74328923Y-84877079D03*
X78740000Y-85331089D03*
X79615910Y-85813567D03*
X80418967Y-86409472D03*
X80779098Y-87342376D03*
D15*
X80772000Y-89154000D02*
X73533000Y-89154000D01*
X73533000Y-89154000D02*
X73152000Y-88773000D01*
X70612000Y-88773000D02*
X70612000Y-90932000D01*
X136525000Y-100806250D02*
X127793750Y-100806250D01*
X123983750Y-100806250D02*
X113982500Y-90805000D01*
X127793750Y-100806250D02*
X123983750Y-100806250D01*
X113982500Y-90805000D02*
X92837000Y-90805000D01*
X150622000Y-93218000D02*
X149225000Y-94615000D01*
X149225000Y-94615000D02*
X140843000Y-94615000D01*
X58928000Y-94869000D02*
X58801000Y-94996000D01*
X58928000Y-90805000D02*
X58928000Y-94869000D01*
D16*
X125918780Y-86874139D02*
X115055678Y-86874139D01*
X137001250Y-76993750D02*
X135799169Y-76993750D01*
X135799169Y-76993750D02*
X125918780Y-86874139D01*
X115055678Y-86874139D02*
X95377000Y-86874139D01*
X95377000Y-86874139D02*
X87750861Y-86874139D01*
X87750861Y-86874139D02*
X82550000Y-92075000D01*
X95565057Y-87328149D02*
X90170000Y-87328149D01*
X90170000Y-87328149D02*
X88693851Y-87328149D01*
X88693851Y-87328149D02*
X82946997Y-93075003D01*
X82946997Y-93075003D02*
X82550000Y-93075003D01*
X129206851Y-87328149D02*
X127809851Y-87328149D01*
X139541250Y-76993750D02*
X129206851Y-87328149D01*
X128408813Y-87328149D02*
X127809851Y-87328149D01*
X127809851Y-87328149D02*
X95565057Y-87328149D01*
X131292842Y-87782158D02*
X129394908Y-87782159D01*
X142081250Y-76993750D02*
X131292842Y-87782158D01*
X129394908Y-87782159D02*
X90358057Y-87782159D01*
X90358057Y-87782159D02*
X89001841Y-87782159D01*
X89001841Y-87782159D02*
X82550000Y-94234000D01*
X133378833Y-88236167D02*
X131480898Y-88236167D01*
X144621250Y-76993750D02*
X133378833Y-88236167D01*
X129582967Y-88236167D02*
X129582965Y-88236169D01*
X131480898Y-88236167D02*
X129582967Y-88236167D01*
X129582965Y-88236169D02*
X91694000Y-88236169D01*
X91694000Y-88236169D02*
X89690831Y-88236169D01*
X89690831Y-88236169D02*
X82550000Y-95377000D01*
X135464823Y-88690177D02*
X131668955Y-88690177D01*
X147161250Y-76993750D02*
X135464823Y-88690177D01*
X129771024Y-88690177D02*
X129771022Y-88690179D01*
X131668955Y-88690177D02*
X129771024Y-88690177D01*
X129771022Y-88690179D02*
X90379821Y-88690179D01*
X90379821Y-88690179D02*
X82550000Y-96520000D01*
X137550813Y-89144187D02*
X135652880Y-89144187D01*
X149701250Y-76993750D02*
X137550813Y-89144187D01*
X135652880Y-89144187D02*
X91068813Y-89144187D01*
X91068813Y-89144187D02*
X82550000Y-97663000D01*
X139636803Y-89598197D02*
X137738870Y-89598197D01*
X152241250Y-76993750D02*
X139636803Y-89598197D01*
X137738870Y-89598197D02*
X91757803Y-89598197D01*
X91757803Y-89598197D02*
X82550000Y-98806000D01*
X142826793Y-90052207D02*
X137926927Y-90052207D01*
X154781250Y-76993750D02*
X154781250Y-78097750D01*
X154781250Y-78097750D02*
X142826793Y-90052207D01*
X137926927Y-90052207D02*
X97790000Y-90052207D01*
X97790000Y-90052207D02*
X92446793Y-90052207D01*
X92446793Y-90052207D02*
X82550000Y-99949000D01*
X85090000Y-76993750D02*
X83887919Y-76993750D01*
X83887919Y-76993750D02*
X81697169Y-74803000D01*
X81697169Y-74803000D02*
X59690000Y-74803000D01*
X59690000Y-74803000D02*
X54610000Y-79883000D01*
X54610000Y-79883000D02*
X54610000Y-83566000D01*
X54610000Y-83566000D02*
X58928000Y-87884000D01*
X87630000Y-76993750D02*
X84931250Y-74295000D01*
X84931250Y-74295000D02*
X59555934Y-74295000D01*
X59555934Y-74295000D02*
X54155991Y-79694943D01*
X54155991Y-84187953D02*
X58868038Y-88900000D01*
X54155991Y-79694943D02*
X54155991Y-84187953D01*
X90170000Y-76993750D02*
X86645750Y-80518000D01*
X86645750Y-80518000D02*
X68834000Y-80518000D01*
X68834000Y-80518000D02*
X64897000Y-84455000D01*
X89933821Y-80972010D02*
X86833807Y-80972010D01*
X92710000Y-76993750D02*
X92710000Y-78195831D01*
X92710000Y-78195831D02*
X89933821Y-80972010D01*
X86833807Y-80972010D02*
X69022056Y-80972010D01*
X69022056Y-80972010D02*
X65853033Y-84141033D01*
X65853033Y-84141033D02*
X65911069Y-84199069D01*
X65911069Y-84199069D02*
X65911069Y-84469066D01*
X92019811Y-81426020D02*
X87021864Y-81426020D01*
X95250000Y-76993750D02*
X95250000Y-78195831D01*
X95250000Y-78195831D02*
X92019811Y-81426020D01*
X87021864Y-81426020D02*
X69897733Y-81426020D01*
X69897733Y-81426020D02*
X69210112Y-81426020D01*
X69210112Y-81426020D02*
X66577049Y-84059083D01*
X66577049Y-84059083D02*
X66632834Y-84114868D01*
X66632834Y-84114868D02*
X66907332Y-84114868D01*
X92903720Y-81880030D02*
X92207868Y-81880030D01*
X97790000Y-76993750D02*
X92903720Y-81880030D01*
X92207868Y-81880030D02*
X70580387Y-81880030D01*
X70580387Y-81880030D02*
X69398168Y-81880030D01*
X69398168Y-81880030D02*
X67573312Y-83704886D01*
X67573312Y-83704886D02*
X67597219Y-83728793D01*
X67597219Y-83728793D02*
X67935473Y-83728793D01*
X100330000Y-76993750D02*
X94989711Y-82334039D01*
X94989711Y-82334039D02*
X71154512Y-82334039D01*
X71154512Y-82334039D02*
X69586225Y-82334039D01*
X69586225Y-82334039D02*
X68601453Y-83318811D01*
X68601453Y-83318811D02*
X68625360Y-83342718D01*
X68625360Y-83342718D02*
X68963614Y-83342718D01*
X97075701Y-82788049D02*
X95177768Y-82788049D01*
X102870000Y-76993750D02*
X97075701Y-82788049D01*
X95177768Y-82788049D02*
X71762888Y-82788049D01*
X71762888Y-82788049D02*
X69774281Y-82788049D01*
X69774281Y-82788049D02*
X69945839Y-82959607D01*
X69945839Y-82959607D02*
X69945839Y-83061039D01*
X105410000Y-76993750D02*
X99161691Y-83242059D01*
X99161691Y-83242059D02*
X72337012Y-83242059D01*
X71791031Y-83788040D02*
X70294800Y-83788040D01*
X72337012Y-83242059D02*
X71791031Y-83788040D01*
X70294800Y-83788040D02*
X70294800Y-84115628D01*
X70294800Y-84115628D02*
X69741850Y-84668578D01*
X101247681Y-83696069D02*
X99349748Y-83696069D01*
X107950000Y-76993750D02*
X101247681Y-83696069D01*
X99349748Y-83696069D02*
X75565000Y-83696069D01*
X72525068Y-83696069D02*
X71979088Y-84242050D01*
X75565000Y-83696069D02*
X72525068Y-83696069D01*
X71979088Y-84242050D02*
X71196505Y-84242050D01*
X71196505Y-84242050D02*
X70810681Y-84627874D01*
X136448968Y-90881032D02*
X134747000Y-92583000D01*
X134747000Y-92583000D02*
X133985000Y-93345000D01*
X129921000Y-93148685D02*
X130556000Y-93783685D01*
X129921000Y-92583000D02*
X129921000Y-93148685D01*
X130556000Y-93783685D02*
X130556000Y-98552000D01*
X68465153Y-91186000D02*
X63627000Y-91186000D01*
X78994000Y-101092000D02*
X69088000Y-91186000D01*
X69088000Y-91186000D02*
X68465153Y-91186000D01*
X78677772Y-102040685D02*
X69220087Y-92583000D01*
X69220087Y-92583000D02*
X69215000Y-92583000D01*
X131572000Y-92710000D02*
X131572000Y-98806000D01*
X131572000Y-98806000D02*
X130556000Y-99822000D01*
X53594000Y-107315000D02*
X53594000Y-98679000D01*
X53594000Y-98679000D02*
X64897000Y-98679000D01*
X77972729Y-107079999D02*
X76820464Y-105927734D01*
X140970000Y-106680000D02*
X140570001Y-107079999D01*
X140570001Y-107079999D02*
X77972729Y-107079999D01*
X78319135Y-106398270D02*
X76820934Y-104900069D01*
X140955934Y-105665931D02*
X140223595Y-106398270D01*
X140223595Y-106398270D02*
X78319135Y-106398270D01*
X140959884Y-104633846D02*
X139649470Y-105944260D01*
X78893260Y-105944260D02*
X76835000Y-103886000D01*
X139649470Y-105944260D02*
X78893260Y-105944260D01*
X104535752Y-84150079D02*
X99537805Y-84150079D01*
X110490000Y-76993750D02*
X110490000Y-78195831D01*
X110490000Y-78195831D02*
X104535752Y-84150079D01*
X99537805Y-84150079D02*
X75753057Y-84150079D01*
X75753057Y-84150079D02*
X73678990Y-84150079D01*
X73678990Y-84150079D02*
X73406000Y-84423069D01*
X105419661Y-84604089D02*
X99725862Y-84604089D01*
X113030000Y-76993750D02*
X105419661Y-84604089D01*
X99725862Y-84604089D02*
X74601913Y-84604089D01*
X74601913Y-84604089D02*
X74328923Y-84877079D01*
X107505651Y-85058099D02*
X99913919Y-85058099D01*
X115570000Y-76993750D02*
X107505651Y-85058099D01*
X99913919Y-85058099D02*
X79012990Y-85058099D01*
X79012990Y-85058099D02*
X78740000Y-85331089D01*
X109591641Y-85512109D02*
X107693708Y-85512109D01*
X118110000Y-76993750D02*
X109591641Y-85512109D01*
X107693708Y-85512109D02*
X79917368Y-85512109D01*
X79917368Y-85512109D02*
X79615910Y-85813567D01*
X111677631Y-85966119D02*
X107881765Y-85966119D01*
X120650000Y-76993750D02*
X111677631Y-85966119D01*
X107881765Y-85966119D02*
X83058000Y-85966119D01*
X83058000Y-85966119D02*
X80862320Y-85966119D01*
X80862320Y-85966119D02*
X80418967Y-86409472D01*
X123190000Y-78097750D02*
X114867621Y-86420129D01*
X123190000Y-76993750D02*
X123190000Y-78097750D01*
X114867621Y-86420129D02*
X83246057Y-86420129D01*
X83246057Y-86420129D02*
X81701345Y-86420129D01*
X81701345Y-86420129D02*
X80779098Y-87342376D01*
G36*
X59094531Y-73687908D02*
G01*
X59014512Y-73753578D01*
X58990650Y-73782654D01*
X53643645Y-79129659D01*
X53614569Y-79153521D01*
X53577964Y-79198125D01*
X53519346Y-79269551D01*
X53481526Y-79340308D01*
X53448589Y-79401929D01*
X53405017Y-79545566D01*
X53395044Y-79646829D01*
X53390305Y-79694943D01*
X53393991Y-79732366D01*
X53393992Y-84150520D01*
X53390305Y-84187953D01*
X53405018Y-84337331D01*
X53448590Y-84480968D01*
X53519346Y-84613345D01*
X53576063Y-84682454D01*
X53614570Y-84729375D01*
X53643640Y-84753232D01*
X57833038Y-88942631D01*
X57833038Y-89001939D01*
X57872812Y-89201898D01*
X57950833Y-89390256D01*
X58064101Y-89559774D01*
X58208264Y-89703937D01*
X58377782Y-89817205D01*
X58492972Y-89864919D01*
X58437744Y-89887795D01*
X58268226Y-90001063D01*
X58124063Y-90145226D01*
X58010795Y-90314744D01*
X57932774Y-90503102D01*
X57893000Y-90703061D01*
X57893000Y-90906939D01*
X57932774Y-91106898D01*
X58010795Y-91295256D01*
X58102500Y-91432503D01*
X58102501Y-94230788D01*
X57997063Y-94336226D01*
X57883795Y-94505744D01*
X57805774Y-94694102D01*
X57766000Y-94894061D01*
X57766000Y-95097939D01*
X57805774Y-95297898D01*
X57883795Y-95486256D01*
X57997063Y-95655774D01*
X58141226Y-95799937D01*
X58310744Y-95913205D01*
X58499102Y-95991226D01*
X58699061Y-96031000D01*
X58902939Y-96031000D01*
X59102898Y-95991226D01*
X59291256Y-95913205D01*
X59460774Y-95799937D01*
X59604937Y-95655774D01*
X59718205Y-95486256D01*
X59796226Y-95297898D01*
X59836000Y-95097939D01*
X59836000Y-94894061D01*
X59796226Y-94694102D01*
X59753500Y-94590953D01*
X59753500Y-91432503D01*
X59845205Y-91295256D01*
X59923226Y-91106898D01*
X59927768Y-91084061D01*
X62592000Y-91084061D01*
X62592000Y-91287939D01*
X62631774Y-91487898D01*
X62709795Y-91676256D01*
X62823063Y-91845774D01*
X62967226Y-91989937D01*
X63136744Y-92103205D01*
X63325102Y-92181226D01*
X63525061Y-92221000D01*
X63728939Y-92221000D01*
X63928898Y-92181226D01*
X64117256Y-92103205D01*
X64286774Y-91989937D01*
X64328711Y-91948000D01*
X68399597Y-91948000D01*
X68302882Y-92092744D01*
X68224861Y-92281102D01*
X68185087Y-92481061D01*
X68185087Y-92684939D01*
X68224861Y-92884898D01*
X68302882Y-93073256D01*
X68416150Y-93242774D01*
X68560313Y-93386937D01*
X68729831Y-93500205D01*
X68918189Y-93578226D01*
X69118148Y-93618000D01*
X69177457Y-93618000D01*
X77642772Y-102083316D01*
X77642772Y-102142624D01*
X77682546Y-102342583D01*
X77760567Y-102530941D01*
X77873835Y-102700459D01*
X78017998Y-102844622D01*
X78187516Y-102957890D01*
X78375874Y-103035911D01*
X78575833Y-103075685D01*
X78779711Y-103075685D01*
X78979670Y-103035911D01*
X79168028Y-102957890D01*
X79337546Y-102844622D01*
X79481709Y-102700459D01*
X79594977Y-102530941D01*
X79672998Y-102342583D01*
X79712772Y-102142624D01*
X79712772Y-101938746D01*
X79695881Y-101853830D01*
X79797937Y-101751774D01*
X79911205Y-101582256D01*
X79989226Y-101393898D01*
X80029000Y-101193939D01*
X80029000Y-100990061D01*
X79989226Y-100790102D01*
X79911205Y-100601744D01*
X79797937Y-100432226D01*
X79653774Y-100288063D01*
X79484256Y-100174795D01*
X79295898Y-100096774D01*
X79095939Y-100057000D01*
X79036630Y-100057000D01*
X69653284Y-90673654D01*
X69629422Y-90644578D01*
X69513392Y-90549355D01*
X69381015Y-90478598D01*
X69237378Y-90435026D01*
X69125426Y-90424000D01*
X69125423Y-90424000D01*
X69088000Y-90420314D01*
X69050577Y-90424000D01*
X64328711Y-90424000D01*
X64286774Y-90382063D01*
X64117256Y-90268795D01*
X63928898Y-90190774D01*
X63728939Y-90151000D01*
X63525061Y-90151000D01*
X63325102Y-90190774D01*
X63136744Y-90268795D01*
X62967226Y-90382063D01*
X62823063Y-90526226D01*
X62709795Y-90695744D01*
X62631774Y-90884102D01*
X62592000Y-91084061D01*
X59927768Y-91084061D01*
X59963000Y-90906939D01*
X59963000Y-90703061D01*
X59923226Y-90503102D01*
X59845205Y-90314744D01*
X59731937Y-90145226D01*
X59587774Y-90001063D01*
X59418256Y-89887795D01*
X59303066Y-89840081D01*
X59358294Y-89817205D01*
X59527812Y-89703937D01*
X59671975Y-89559774D01*
X59785243Y-89390256D01*
X59863264Y-89201898D01*
X59903038Y-89001939D01*
X59903038Y-88798061D01*
X59863264Y-88598102D01*
X59799115Y-88443234D01*
X59845205Y-88374256D01*
X59923226Y-88185898D01*
X59963000Y-87985939D01*
X59963000Y-87782061D01*
X59923226Y-87582102D01*
X59845205Y-87393744D01*
X59731937Y-87224226D01*
X59587774Y-87080063D01*
X59418256Y-86966795D01*
X59229898Y-86888774D01*
X59029939Y-86849000D01*
X58970631Y-86849000D01*
X55372000Y-83250370D01*
X55372000Y-80198630D01*
X60005631Y-75565000D01*
X81381539Y-75565000D01*
X83322639Y-77506101D01*
X83346497Y-77535172D01*
X83462527Y-77630395D01*
X83594904Y-77701152D01*
X83738541Y-77744724D01*
X83811417Y-77751901D01*
X83849294Y-77822764D01*
X84034866Y-78048884D01*
X84260986Y-78234456D01*
X84518966Y-78372349D01*
X84798889Y-78457263D01*
X85017050Y-78478750D01*
X85162950Y-78478750D01*
X85381111Y-78457263D01*
X85661034Y-78372349D01*
X85919014Y-78234456D01*
X86145134Y-78048884D01*
X86330706Y-77822764D01*
X86360000Y-77767959D01*
X86389294Y-77822764D01*
X86574866Y-78048884D01*
X86800986Y-78234456D01*
X87058966Y-78372349D01*
X87338889Y-78457263D01*
X87557050Y-78478750D01*
X87607370Y-78478750D01*
X86330120Y-79756000D01*
X70593953Y-79756000D01*
X70751758Y-79519829D01*
X70936494Y-79073835D01*
X71030672Y-78600370D01*
X71030672Y-78117630D01*
X70936494Y-77644165D01*
X70751758Y-77198171D01*
X70483561Y-76796788D01*
X70142212Y-76455439D01*
X69740829Y-76187242D01*
X69294835Y-76002506D01*
X68821370Y-75908328D01*
X68338630Y-75908328D01*
X67865165Y-76002506D01*
X67419171Y-76187242D01*
X67017788Y-76455439D01*
X66676439Y-76796788D01*
X66408242Y-77198171D01*
X66223506Y-77644165D01*
X66129328Y-78117630D01*
X66129328Y-78600370D01*
X66223506Y-79073835D01*
X66408242Y-79519829D01*
X66676439Y-79921212D01*
X67017788Y-80262561D01*
X67419171Y-80530758D01*
X67648585Y-80625784D01*
X64854370Y-83420000D01*
X64795061Y-83420000D01*
X64595102Y-83459774D01*
X64406744Y-83537795D01*
X64237226Y-83651063D01*
X64093063Y-83795226D01*
X63979795Y-83964744D01*
X63901774Y-84153102D01*
X63862000Y-84353061D01*
X63862000Y-84556939D01*
X63901774Y-84756898D01*
X63979795Y-84945256D01*
X64093063Y-85114774D01*
X64237226Y-85258937D01*
X64406744Y-85372205D01*
X64595102Y-85450226D01*
X64795061Y-85490000D01*
X64998939Y-85490000D01*
X65198898Y-85450226D01*
X65387256Y-85372205D01*
X65393509Y-85368027D01*
X65420813Y-85386271D01*
X65609171Y-85464292D01*
X65809130Y-85504066D01*
X66013008Y-85504066D01*
X66212967Y-85464292D01*
X66401325Y-85386271D01*
X66570843Y-85273003D01*
X66712463Y-85131383D01*
X66805393Y-85149868D01*
X67009271Y-85149868D01*
X67209230Y-85110094D01*
X67397588Y-85032073D01*
X67567106Y-84918805D01*
X67711269Y-84774642D01*
X67732011Y-84743599D01*
X67833534Y-84763793D01*
X68037412Y-84763793D01*
X68237371Y-84724019D01*
X68425729Y-84645998D01*
X68595247Y-84532730D01*
X68739410Y-84388567D01*
X68743483Y-84382471D01*
X68706850Y-84566639D01*
X68706850Y-84770517D01*
X68746624Y-84970476D01*
X68824645Y-85158834D01*
X68937913Y-85328352D01*
X69082076Y-85472515D01*
X69251594Y-85585783D01*
X69439952Y-85663804D01*
X69639911Y-85703578D01*
X69843789Y-85703578D01*
X70043748Y-85663804D01*
X70232106Y-85585783D01*
X70306725Y-85535925D01*
X70320425Y-85545079D01*
X70508783Y-85623100D01*
X70708742Y-85662874D01*
X70912620Y-85662874D01*
X71112579Y-85623100D01*
X71300937Y-85545079D01*
X71470455Y-85431811D01*
X71614618Y-85287648D01*
X71727886Y-85118130D01*
X71775140Y-85004050D01*
X71941665Y-85004050D01*
X71979088Y-85007736D01*
X72016511Y-85004050D01*
X72016514Y-85004050D01*
X72128466Y-84993024D01*
X72272103Y-84949452D01*
X72404480Y-84878695D01*
X72456699Y-84835840D01*
X72488795Y-84913325D01*
X72602063Y-85082843D01*
X72746226Y-85227006D01*
X72915744Y-85340274D01*
X73104102Y-85418295D01*
X73304061Y-85458069D01*
X73472344Y-85458069D01*
X73524986Y-85536853D01*
X73669149Y-85681016D01*
X73838667Y-85794284D01*
X74027025Y-85872305D01*
X74226984Y-85912079D01*
X74430862Y-85912079D01*
X74630821Y-85872305D01*
X74819179Y-85794284D01*
X74988697Y-85681016D01*
X75132860Y-85536853D01*
X75246128Y-85367335D01*
X75246644Y-85366089D01*
X77705000Y-85366089D01*
X77705000Y-85433028D01*
X77744774Y-85632987D01*
X77822795Y-85821345D01*
X77936063Y-85990863D01*
X78080226Y-86135026D01*
X78249744Y-86248294D01*
X78438102Y-86326315D01*
X78638061Y-86366089D01*
X78740310Y-86366089D01*
X78811973Y-86473341D01*
X78956136Y-86617504D01*
X79125654Y-86730772D01*
X79314012Y-86808793D01*
X79477571Y-86841327D01*
X79501762Y-86899728D01*
X79615030Y-87069246D01*
X79751087Y-87205303D01*
X79744098Y-87240437D01*
X79744098Y-87444315D01*
X79783872Y-87644274D01*
X79861893Y-87832632D01*
X79975161Y-88002150D01*
X80119324Y-88146313D01*
X80288842Y-88259581D01*
X80477200Y-88337602D01*
X80677159Y-88377376D01*
X80881037Y-88377376D01*
X81080996Y-88337602D01*
X81269354Y-88259581D01*
X81438872Y-88146313D01*
X81583035Y-88002150D01*
X81696303Y-87832632D01*
X81774324Y-87644274D01*
X81814098Y-87444315D01*
X81814098Y-87385007D01*
X82016976Y-87182129D01*
X86365240Y-87182129D01*
X82507370Y-91040000D01*
X82448061Y-91040000D01*
X82248102Y-91079774D01*
X82059744Y-91157795D01*
X81890226Y-91271063D01*
X81746063Y-91415226D01*
X81632795Y-91584744D01*
X81554774Y-91773102D01*
X81515000Y-91973061D01*
X81515000Y-92176939D01*
X81554774Y-92376898D01*
X81632795Y-92565256D01*
X81639307Y-92575002D01*
X81632795Y-92584747D01*
X81554774Y-92773105D01*
X81515000Y-92973064D01*
X81515000Y-93176942D01*
X81554774Y-93376901D01*
X81632795Y-93565259D01*
X81692425Y-93654502D01*
X81632795Y-93743744D01*
X81554774Y-93932102D01*
X81515000Y-94132061D01*
X81515000Y-94335939D01*
X81554774Y-94535898D01*
X81632795Y-94724256D01*
X81687080Y-94805500D01*
X81632795Y-94886744D01*
X81554774Y-95075102D01*
X81515000Y-95275061D01*
X81515000Y-95478939D01*
X81554774Y-95678898D01*
X81632795Y-95867256D01*
X81687080Y-95948500D01*
X81632795Y-96029744D01*
X81554774Y-96218102D01*
X81515000Y-96418061D01*
X81515000Y-96621939D01*
X81554774Y-96821898D01*
X81632795Y-97010256D01*
X81687080Y-97091500D01*
X81632795Y-97172744D01*
X81554774Y-97361102D01*
X81515000Y-97561061D01*
X81515000Y-97764939D01*
X81554774Y-97964898D01*
X81632795Y-98153256D01*
X81687080Y-98234500D01*
X81632795Y-98315744D01*
X81554774Y-98504102D01*
X81515000Y-98704061D01*
X81515000Y-98907939D01*
X81554774Y-99107898D01*
X81632795Y-99296256D01*
X81687080Y-99377500D01*
X81632795Y-99458744D01*
X81554774Y-99647102D01*
X81515000Y-99847061D01*
X81515000Y-100050939D01*
X81554774Y-100250898D01*
X81632795Y-100439256D01*
X81746063Y-100608774D01*
X81890226Y-100752937D01*
X82059744Y-100866205D01*
X82248102Y-100944226D01*
X82448061Y-100984000D01*
X82651939Y-100984000D01*
X82851898Y-100944226D01*
X83040256Y-100866205D01*
X83209774Y-100752937D01*
X83353937Y-100608774D01*
X83467205Y-100439256D01*
X83545226Y-100250898D01*
X83585000Y-100050939D01*
X83585000Y-99991630D01*
X91095569Y-92481061D01*
X128886000Y-92481061D01*
X128886000Y-92684939D01*
X128925774Y-92884898D01*
X129003795Y-93073256D01*
X129117063Y-93242774D01*
X129169772Y-93295483D01*
X129170026Y-93298063D01*
X129213598Y-93441700D01*
X129244870Y-93500205D01*
X129284355Y-93574077D01*
X129344118Y-93646898D01*
X129379579Y-93690107D01*
X129408649Y-93713964D01*
X129794000Y-94099315D01*
X129794001Y-97850288D01*
X129752063Y-97892226D01*
X129638795Y-98061744D01*
X129560774Y-98250102D01*
X129521000Y-98450061D01*
X129521000Y-98653939D01*
X129560774Y-98853898D01*
X129638795Y-99042256D01*
X129735510Y-99187000D01*
X129638795Y-99331744D01*
X129560774Y-99520102D01*
X129521000Y-99720061D01*
X129521000Y-99923939D01*
X129560774Y-100123898D01*
X129638795Y-100312256D01*
X129752063Y-100481774D01*
X129896226Y-100625937D01*
X130065744Y-100739205D01*
X130254102Y-100817226D01*
X130454061Y-100857000D01*
X130657939Y-100857000D01*
X130857898Y-100817226D01*
X131046256Y-100739205D01*
X131215774Y-100625937D01*
X131359937Y-100481774D01*
X131473205Y-100312256D01*
X131551226Y-100123898D01*
X131591000Y-99923939D01*
X131591000Y-99864630D01*
X132084351Y-99371279D01*
X132113422Y-99347422D01*
X132144421Y-99309649D01*
X132208645Y-99231393D01*
X132279401Y-99099016D01*
X132279402Y-99099015D01*
X132322974Y-98955378D01*
X132334000Y-98843426D01*
X132334000Y-98843423D01*
X132337686Y-98806000D01*
X132334000Y-98768577D01*
X132334000Y-94513061D01*
X139808000Y-94513061D01*
X139808000Y-94716939D01*
X139847774Y-94916898D01*
X139925795Y-95105256D01*
X140039063Y-95274774D01*
X140183226Y-95418937D01*
X140352744Y-95532205D01*
X140541102Y-95610226D01*
X140741061Y-95650000D01*
X140944939Y-95650000D01*
X141144898Y-95610226D01*
X141333256Y-95532205D01*
X141470503Y-95440500D01*
X149184450Y-95440500D01*
X149225000Y-95444494D01*
X149265550Y-95440500D01*
X149265553Y-95440500D01*
X149386826Y-95428556D01*
X149542434Y-95381353D01*
X149685842Y-95304699D01*
X149811541Y-95201541D01*
X149837398Y-95170034D01*
X150762004Y-94245428D01*
X150923898Y-94213226D01*
X151112256Y-94135205D01*
X151281774Y-94021937D01*
X151425937Y-93877774D01*
X151539205Y-93708256D01*
X151617226Y-93519898D01*
X151657000Y-93319939D01*
X151657000Y-93116061D01*
X151617226Y-92916102D01*
X151539205Y-92727744D01*
X151425937Y-92558226D01*
X151281774Y-92414063D01*
X151112256Y-92300795D01*
X150923898Y-92222774D01*
X150723939Y-92183000D01*
X150520061Y-92183000D01*
X150320102Y-92222774D01*
X150131744Y-92300795D01*
X149962226Y-92414063D01*
X149818063Y-92558226D01*
X149704795Y-92727744D01*
X149626774Y-92916102D01*
X149594572Y-93077996D01*
X148883068Y-93789500D01*
X141470503Y-93789500D01*
X141333256Y-93697795D01*
X141144898Y-93619774D01*
X140944939Y-93580000D01*
X140741061Y-93580000D01*
X140541102Y-93619774D01*
X140352744Y-93697795D01*
X140183226Y-93811063D01*
X140039063Y-93955226D01*
X139925795Y-94124744D01*
X139847774Y-94313102D01*
X139808000Y-94513061D01*
X132334000Y-94513061D01*
X132334000Y-93411711D01*
X132375937Y-93369774D01*
X132489205Y-93200256D01*
X132567226Y-93011898D01*
X132607000Y-92811939D01*
X132607000Y-92608061D01*
X132567226Y-92408102D01*
X132489205Y-92219744D01*
X132375937Y-92050226D01*
X132231774Y-91906063D01*
X132062256Y-91792795D01*
X131873898Y-91714774D01*
X131673939Y-91675000D01*
X131470061Y-91675000D01*
X131270102Y-91714774D01*
X131081744Y-91792795D01*
X130912226Y-91906063D01*
X130793080Y-92025209D01*
X130724937Y-91923226D01*
X130580774Y-91779063D01*
X130411256Y-91665795D01*
X130222898Y-91587774D01*
X130022939Y-91548000D01*
X129819061Y-91548000D01*
X129619102Y-91587774D01*
X129430744Y-91665795D01*
X129261226Y-91779063D01*
X129117063Y-91923226D01*
X129003795Y-92092744D01*
X128925774Y-92281102D01*
X128886000Y-92481061D01*
X91095569Y-92481061D01*
X92762424Y-90814207D01*
X135413968Y-90814207D01*
X135413968Y-90838401D01*
X134234653Y-92017717D01*
X134234648Y-92017721D01*
X133942369Y-92310000D01*
X133883061Y-92310000D01*
X133683102Y-92349774D01*
X133494744Y-92427795D01*
X133325226Y-92541063D01*
X133181063Y-92685226D01*
X133067795Y-92854744D01*
X132989774Y-93043102D01*
X132950000Y-93243061D01*
X132950000Y-93446939D01*
X132989774Y-93646898D01*
X133067795Y-93835256D01*
X133181063Y-94004774D01*
X133325226Y-94148937D01*
X133494744Y-94262205D01*
X133683102Y-94340226D01*
X133883061Y-94380000D01*
X134086939Y-94380000D01*
X134286898Y-94340226D01*
X134475256Y-94262205D01*
X134644774Y-94148937D01*
X134788937Y-94004774D01*
X134902205Y-93835256D01*
X134980226Y-93646898D01*
X135020000Y-93446939D01*
X135020000Y-93387631D01*
X135312279Y-93095352D01*
X135312283Y-93095347D01*
X136491599Y-91916032D01*
X136550907Y-91916032D01*
X136750866Y-91876258D01*
X136939224Y-91798237D01*
X137108742Y-91684969D01*
X137252905Y-91540806D01*
X137366173Y-91371288D01*
X137444194Y-91182930D01*
X137483968Y-90982971D01*
X137483968Y-90814207D01*
X142789370Y-90814207D01*
X142826793Y-90817893D01*
X142864216Y-90814207D01*
X142864219Y-90814207D01*
X142976171Y-90803181D01*
X143119808Y-90759609D01*
X143252185Y-90688852D01*
X143368215Y-90593629D01*
X143392077Y-90564553D01*
X146476255Y-87480375D01*
X153272017Y-87480375D01*
X153300689Y-87771486D01*
X153385603Y-88051409D01*
X153523496Y-88309389D01*
X153709068Y-88535509D01*
X153935188Y-88721081D01*
X153989993Y-88750375D01*
X153935188Y-88779669D01*
X153709068Y-88965241D01*
X153523496Y-89191361D01*
X153385603Y-89449341D01*
X153300689Y-89729264D01*
X153272017Y-90020375D01*
X153300689Y-90311486D01*
X153385603Y-90591409D01*
X153523496Y-90849389D01*
X153709068Y-91075509D01*
X153935188Y-91261081D01*
X153989993Y-91290375D01*
X153935188Y-91319669D01*
X153709068Y-91505241D01*
X153523496Y-91731361D01*
X153385603Y-91989341D01*
X153300689Y-92269264D01*
X153272017Y-92560375D01*
X153300689Y-92851486D01*
X153385603Y-93131409D01*
X153523496Y-93389389D01*
X153709068Y-93615509D01*
X153738889Y-93639982D01*
X153670022Y-93660873D01*
X153559708Y-93719838D01*
X153463017Y-93799190D01*
X153383665Y-93895881D01*
X153324700Y-94006195D01*
X153288390Y-94125893D01*
X153276130Y-94250375D01*
X153276130Y-95950375D01*
X153288390Y-96074857D01*
X153324700Y-96194555D01*
X153383665Y-96304869D01*
X153463017Y-96401560D01*
X153559708Y-96480912D01*
X153670022Y-96539877D01*
X153789720Y-96576187D01*
X153914202Y-96588447D01*
X155614202Y-96588447D01*
X155738684Y-96576187D01*
X155858382Y-96539877D01*
X155968696Y-96480912D01*
X156065387Y-96401560D01*
X156144739Y-96304869D01*
X156203704Y-96194555D01*
X156240014Y-96074857D01*
X156252274Y-95950375D01*
X156252274Y-94250375D01*
X156240014Y-94125893D01*
X156203704Y-94006195D01*
X156144739Y-93895881D01*
X156065387Y-93799190D01*
X155968696Y-93719838D01*
X155858382Y-93660873D01*
X155789515Y-93639982D01*
X155819336Y-93615509D01*
X156004908Y-93389389D01*
X156142801Y-93131409D01*
X156227715Y-92851486D01*
X156256387Y-92560375D01*
X156227715Y-92269264D01*
X156142801Y-91989341D01*
X156004908Y-91731361D01*
X155819336Y-91505241D01*
X155593216Y-91319669D01*
X155538411Y-91290375D01*
X155593216Y-91261081D01*
X155819336Y-91075509D01*
X156004908Y-90849389D01*
X156142801Y-90591409D01*
X156227715Y-90311486D01*
X156256387Y-90020375D01*
X156227715Y-89729264D01*
X156142801Y-89449341D01*
X156004908Y-89191361D01*
X155819336Y-88965241D01*
X155593216Y-88779669D01*
X155538411Y-88750375D01*
X155593216Y-88721081D01*
X155819336Y-88535509D01*
X156004908Y-88309389D01*
X156142801Y-88051409D01*
X156227715Y-87771486D01*
X156256387Y-87480375D01*
X156227715Y-87189264D01*
X156142801Y-86909341D01*
X156004908Y-86651361D01*
X155819336Y-86425241D01*
X155593216Y-86239669D01*
X155335236Y-86101776D01*
X155055313Y-86016862D01*
X154837152Y-85995375D01*
X154691252Y-85995375D01*
X154473091Y-86016862D01*
X154193168Y-86101776D01*
X153935188Y-86239669D01*
X153709068Y-86425241D01*
X153523496Y-86651361D01*
X153385603Y-86909341D01*
X153300689Y-87189264D01*
X153272017Y-87480375D01*
X146476255Y-87480375D01*
X155293602Y-78663029D01*
X155322672Y-78639172D01*
X155417895Y-78523142D01*
X155439981Y-78481822D01*
X155631250Y-78481822D01*
X155755732Y-78469562D01*
X155875430Y-78433252D01*
X155985744Y-78374287D01*
X156082435Y-78294935D01*
X156161787Y-78198244D01*
X156220752Y-78087930D01*
X156257062Y-77968232D01*
X156269322Y-77843750D01*
X156269322Y-76143750D01*
X156257062Y-76019268D01*
X156220752Y-75899570D01*
X156161787Y-75789256D01*
X156082435Y-75692565D01*
X155985744Y-75613213D01*
X155875430Y-75554248D01*
X155755732Y-75517938D01*
X155631250Y-75505678D01*
X153931250Y-75505678D01*
X153806768Y-75517938D01*
X153687070Y-75554248D01*
X153576756Y-75613213D01*
X153480065Y-75692565D01*
X153400713Y-75789256D01*
X153341748Y-75899570D01*
X153320857Y-75968437D01*
X153296384Y-75938616D01*
X153070264Y-75753044D01*
X152812284Y-75615151D01*
X152532361Y-75530237D01*
X152314200Y-75508750D01*
X152168300Y-75508750D01*
X151950139Y-75530237D01*
X151670216Y-75615151D01*
X151412236Y-75753044D01*
X151186116Y-75938616D01*
X151000544Y-76164736D01*
X150971250Y-76219541D01*
X150941956Y-76164736D01*
X150756384Y-75938616D01*
X150530264Y-75753044D01*
X150272284Y-75615151D01*
X149992361Y-75530237D01*
X149774200Y-75508750D01*
X149628300Y-75508750D01*
X149410139Y-75530237D01*
X149130216Y-75615151D01*
X148872236Y-75753044D01*
X148646116Y-75938616D01*
X148460544Y-76164736D01*
X148431250Y-76219541D01*
X148401956Y-76164736D01*
X148216384Y-75938616D01*
X147990264Y-75753044D01*
X147732284Y-75615151D01*
X147452361Y-75530237D01*
X147234200Y-75508750D01*
X147088300Y-75508750D01*
X146870139Y-75530237D01*
X146590216Y-75615151D01*
X146332236Y-75753044D01*
X146106116Y-75938616D01*
X145920544Y-76164736D01*
X145891250Y-76219541D01*
X145861956Y-76164736D01*
X145676384Y-75938616D01*
X145450264Y-75753044D01*
X145192284Y-75615151D01*
X144912361Y-75530237D01*
X144694200Y-75508750D01*
X144548300Y-75508750D01*
X144330139Y-75530237D01*
X144050216Y-75615151D01*
X143792236Y-75753044D01*
X143566116Y-75938616D01*
X143380544Y-76164736D01*
X143351250Y-76219541D01*
X143321956Y-76164736D01*
X143136384Y-75938616D01*
X142910264Y-75753044D01*
X142652284Y-75615151D01*
X142372361Y-75530237D01*
X142154200Y-75508750D01*
X142008300Y-75508750D01*
X141790139Y-75530237D01*
X141510216Y-75615151D01*
X141252236Y-75753044D01*
X141026116Y-75938616D01*
X140840544Y-76164736D01*
X140811250Y-76219541D01*
X140781956Y-76164736D01*
X140596384Y-75938616D01*
X140370264Y-75753044D01*
X140112284Y-75615151D01*
X139832361Y-75530237D01*
X139614200Y-75508750D01*
X139468300Y-75508750D01*
X139250139Y-75530237D01*
X138970216Y-75615151D01*
X138712236Y-75753044D01*
X138486116Y-75938616D01*
X138300544Y-76164736D01*
X138271250Y-76219541D01*
X138241956Y-76164736D01*
X138056384Y-75938616D01*
X137830264Y-75753044D01*
X137572284Y-75615151D01*
X137292361Y-75530237D01*
X137074200Y-75508750D01*
X136928300Y-75508750D01*
X136710139Y-75530237D01*
X136430216Y-75615151D01*
X136172236Y-75753044D01*
X135946116Y-75938616D01*
X135760544Y-76164736D01*
X135722667Y-76235599D01*
X135649791Y-76242776D01*
X135506154Y-76286348D01*
X135373777Y-76357105D01*
X135257747Y-76452328D01*
X135233890Y-76481398D01*
X125603150Y-86112139D01*
X116253241Y-86112139D01*
X123702352Y-78663029D01*
X123731422Y-78639172D01*
X123826645Y-78523142D01*
X123848731Y-78481822D01*
X124040000Y-78481822D01*
X124164482Y-78469562D01*
X124284180Y-78433252D01*
X124394494Y-78374287D01*
X124491185Y-78294935D01*
X124570537Y-78198244D01*
X124629502Y-78087930D01*
X124665812Y-77968232D01*
X124678072Y-77843750D01*
X124678072Y-76143750D01*
X124665812Y-76019268D01*
X124629502Y-75899570D01*
X124570537Y-75789256D01*
X124491185Y-75692565D01*
X124394494Y-75613213D01*
X124284180Y-75554248D01*
X124164482Y-75517938D01*
X124040000Y-75505678D01*
X122340000Y-75505678D01*
X122215518Y-75517938D01*
X122095820Y-75554248D01*
X121985506Y-75613213D01*
X121888815Y-75692565D01*
X121809463Y-75789256D01*
X121750498Y-75899570D01*
X121729607Y-75968437D01*
X121705134Y-75938616D01*
X121479014Y-75753044D01*
X121221034Y-75615151D01*
X120941111Y-75530237D01*
X120722950Y-75508750D01*
X120577050Y-75508750D01*
X120358889Y-75530237D01*
X120078966Y-75615151D01*
X119820986Y-75753044D01*
X119594866Y-75938616D01*
X119409294Y-76164736D01*
X119380000Y-76219541D01*
X119350706Y-76164736D01*
X119165134Y-75938616D01*
X118939014Y-75753044D01*
X118681034Y-75615151D01*
X118401111Y-75530237D01*
X118182950Y-75508750D01*
X118037050Y-75508750D01*
X117818889Y-75530237D01*
X117538966Y-75615151D01*
X117280986Y-75753044D01*
X117054866Y-75938616D01*
X116869294Y-76164736D01*
X116840000Y-76219541D01*
X116810706Y-76164736D01*
X116625134Y-75938616D01*
X116399014Y-75753044D01*
X116141034Y-75615151D01*
X115861111Y-75530237D01*
X115642950Y-75508750D01*
X115497050Y-75508750D01*
X115278889Y-75530237D01*
X114998966Y-75615151D01*
X114740986Y-75753044D01*
X114514866Y-75938616D01*
X114329294Y-76164736D01*
X114300000Y-76219541D01*
X114270706Y-76164736D01*
X114085134Y-75938616D01*
X113859014Y-75753044D01*
X113601034Y-75615151D01*
X113321111Y-75530237D01*
X113102950Y-75508750D01*
X112957050Y-75508750D01*
X112738889Y-75530237D01*
X112458966Y-75615151D01*
X112200986Y-75753044D01*
X111974866Y-75938616D01*
X111789294Y-76164736D01*
X111760000Y-76219541D01*
X111730706Y-76164736D01*
X111545134Y-75938616D01*
X111319014Y-75753044D01*
X111061034Y-75615151D01*
X110781111Y-75530237D01*
X110562950Y-75508750D01*
X110417050Y-75508750D01*
X110198889Y-75530237D01*
X109918966Y-75615151D01*
X109660986Y-75753044D01*
X109434866Y-75938616D01*
X109249294Y-76164736D01*
X109220000Y-76219541D01*
X109190706Y-76164736D01*
X109005134Y-75938616D01*
X108779014Y-75753044D01*
X108521034Y-75615151D01*
X108241111Y-75530237D01*
X108022950Y-75508750D01*
X107877050Y-75508750D01*
X107658889Y-75530237D01*
X107378966Y-75615151D01*
X107120986Y-75753044D01*
X106894866Y-75938616D01*
X106709294Y-76164736D01*
X106680000Y-76219541D01*
X106650706Y-76164736D01*
X106465134Y-75938616D01*
X106239014Y-75753044D01*
X105981034Y-75615151D01*
X105701111Y-75530237D01*
X105482950Y-75508750D01*
X105337050Y-75508750D01*
X105118889Y-75530237D01*
X104838966Y-75615151D01*
X104580986Y-75753044D01*
X104354866Y-75938616D01*
X104169294Y-76164736D01*
X104140000Y-76219541D01*
X104110706Y-76164736D01*
X103925134Y-75938616D01*
X103699014Y-75753044D01*
X103441034Y-75615151D01*
X103161111Y-75530237D01*
X102942950Y-75508750D01*
X102797050Y-75508750D01*
X102578889Y-75530237D01*
X102298966Y-75615151D01*
X102040986Y-75753044D01*
X101814866Y-75938616D01*
X101629294Y-76164736D01*
X101600000Y-76219541D01*
X101570706Y-76164736D01*
X101385134Y-75938616D01*
X101159014Y-75753044D01*
X100901034Y-75615151D01*
X100621111Y-75530237D01*
X100402950Y-75508750D01*
X100257050Y-75508750D01*
X100038889Y-75530237D01*
X99758966Y-75615151D01*
X99500986Y-75753044D01*
X99274866Y-75938616D01*
X99089294Y-76164736D01*
X99060000Y-76219541D01*
X99030706Y-76164736D01*
X98845134Y-75938616D01*
X98619014Y-75753044D01*
X98361034Y-75615151D01*
X98081111Y-75530237D01*
X97862950Y-75508750D01*
X97717050Y-75508750D01*
X97498889Y-75530237D01*
X97218966Y-75615151D01*
X96960986Y-75753044D01*
X96734866Y-75938616D01*
X96549294Y-76164736D01*
X96520000Y-76219541D01*
X96490706Y-76164736D01*
X96305134Y-75938616D01*
X96079014Y-75753044D01*
X95821034Y-75615151D01*
X95541111Y-75530237D01*
X95322950Y-75508750D01*
X95177050Y-75508750D01*
X94958889Y-75530237D01*
X94678966Y-75615151D01*
X94420986Y-75753044D01*
X94194866Y-75938616D01*
X94009294Y-76164736D01*
X93980000Y-76219541D01*
X93950706Y-76164736D01*
X93765134Y-75938616D01*
X93539014Y-75753044D01*
X93281034Y-75615151D01*
X93001111Y-75530237D01*
X92782950Y-75508750D01*
X92637050Y-75508750D01*
X92418889Y-75530237D01*
X92138966Y-75615151D01*
X91880986Y-75753044D01*
X91654866Y-75938616D01*
X91469294Y-76164736D01*
X91440000Y-76219541D01*
X91410706Y-76164736D01*
X91225134Y-75938616D01*
X90999014Y-75753044D01*
X90741034Y-75615151D01*
X90461111Y-75530237D01*
X90242950Y-75508750D01*
X90097050Y-75508750D01*
X89878889Y-75530237D01*
X89598966Y-75615151D01*
X89340986Y-75753044D01*
X89114866Y-75938616D01*
X88929294Y-76164736D01*
X88900000Y-76219541D01*
X88870706Y-76164736D01*
X88685134Y-75938616D01*
X88459014Y-75753044D01*
X88201034Y-75615151D01*
X87921111Y-75530237D01*
X87702950Y-75508750D01*
X87557050Y-75508750D01*
X87338889Y-75530237D01*
X87266175Y-75552295D01*
X85496534Y-73782654D01*
X85472672Y-73753578D01*
X85389109Y-73685000D01*
X157130221Y-73685000D01*
X157342038Y-73705769D01*
X157514737Y-73757910D01*
X157674018Y-73842602D01*
X157813819Y-73956619D01*
X157928808Y-74095617D01*
X158014610Y-74254305D01*
X158067955Y-74426635D01*
X158090001Y-74636390D01*
X158090000Y-108711470D01*
X158069231Y-108923288D01*
X158017091Y-109095986D01*
X157932399Y-109255268D01*
X157818378Y-109395071D01*
X157679385Y-109510056D01*
X157520695Y-109595860D01*
X157348365Y-109649205D01*
X157138619Y-109671250D01*
X136242178Y-109671250D01*
X136342426Y-109483696D01*
X136407327Y-109269748D01*
X136423750Y-109103001D01*
X136423750Y-108391498D01*
X136407327Y-108224751D01*
X136342426Y-108010803D01*
X136252199Y-107841999D01*
X140532578Y-107841999D01*
X140570001Y-107845685D01*
X140607424Y-107841999D01*
X140607427Y-107841999D01*
X140719379Y-107830973D01*
X140863016Y-107787401D01*
X140995393Y-107716644D01*
X140997396Y-107715000D01*
X141071939Y-107715000D01*
X141271898Y-107675226D01*
X141460256Y-107597205D01*
X141629774Y-107483937D01*
X141773937Y-107339774D01*
X141887205Y-107170256D01*
X141965226Y-106981898D01*
X142005000Y-106781939D01*
X142005000Y-106578061D01*
X141965226Y-106378102D01*
X141887205Y-106189744D01*
X141868961Y-106162440D01*
X141873139Y-106156187D01*
X141951160Y-105967829D01*
X141990934Y-105767870D01*
X141990934Y-105563992D01*
X141951160Y-105364033D01*
X141873139Y-105175675D01*
X141857884Y-105152844D01*
X141877089Y-105124102D01*
X141955110Y-104935744D01*
X141994884Y-104735785D01*
X141994884Y-104531907D01*
X141955110Y-104331948D01*
X141877089Y-104143590D01*
X141763821Y-103974072D01*
X141619658Y-103829909D01*
X141450140Y-103716641D01*
X141261782Y-103638620D01*
X141061823Y-103598846D01*
X140857945Y-103598846D01*
X140657986Y-103638620D01*
X140469628Y-103716641D01*
X140300110Y-103829909D01*
X140155947Y-103974072D01*
X140042679Y-104143590D01*
X139964658Y-104331948D01*
X139924884Y-104531907D01*
X139924884Y-104591215D01*
X139333840Y-105182260D01*
X136422838Y-105182260D01*
X136423750Y-105173002D01*
X136423750Y-103961498D01*
X136407327Y-103794751D01*
X136342426Y-103580803D01*
X136237034Y-103383627D01*
X136095199Y-103210801D01*
X135922373Y-103068966D01*
X135725196Y-102963574D01*
X135511248Y-102898673D01*
X135288750Y-102876759D01*
X135066251Y-102898673D01*
X134852303Y-102963574D01*
X134655127Y-103068966D01*
X134482301Y-103210801D01*
X134340466Y-103383627D01*
X134235074Y-103580804D01*
X134170173Y-103794752D01*
X134153750Y-103961499D01*
X134153750Y-104180346D01*
X134138772Y-104174142D01*
X133953302Y-104137250D01*
X133764198Y-104137250D01*
X133578728Y-104174142D01*
X133404019Y-104246509D01*
X133246786Y-104351569D01*
X133113069Y-104485286D01*
X133008009Y-104642519D01*
X132935642Y-104817228D01*
X132898750Y-105002698D01*
X132898750Y-105182260D01*
X129038750Y-105182260D01*
X129038750Y-105002698D01*
X129001858Y-104817228D01*
X128929491Y-104642519D01*
X128824431Y-104485286D01*
X128690714Y-104351569D01*
X128533481Y-104246509D01*
X128358772Y-104174142D01*
X128173302Y-104137250D01*
X127984198Y-104137250D01*
X127798728Y-104174142D01*
X127783750Y-104180346D01*
X127783750Y-103961498D01*
X127767327Y-103794751D01*
X127702426Y-103580803D01*
X127597034Y-103383627D01*
X127455199Y-103210801D01*
X127282373Y-103068966D01*
X127085196Y-102963574D01*
X126871248Y-102898673D01*
X126648750Y-102876759D01*
X126426251Y-102898673D01*
X126212303Y-102963574D01*
X126015127Y-103068966D01*
X125842301Y-103210801D01*
X125700466Y-103383627D01*
X125595074Y-103580804D01*
X125530173Y-103794752D01*
X125513750Y-103961499D01*
X125513750Y-105173002D01*
X125514662Y-105182260D01*
X79208891Y-105182260D01*
X77870000Y-103843370D01*
X77870000Y-103784061D01*
X77830226Y-103584102D01*
X77752205Y-103395744D01*
X77638937Y-103226226D01*
X77494774Y-103082063D01*
X77325256Y-102968795D01*
X77136898Y-102890774D01*
X76936939Y-102851000D01*
X76733061Y-102851000D01*
X76533102Y-102890774D01*
X76344744Y-102968795D01*
X76175226Y-103082063D01*
X76031063Y-103226226D01*
X75917795Y-103395744D01*
X75839774Y-103584102D01*
X75800000Y-103784061D01*
X75800000Y-103987939D01*
X75839774Y-104187898D01*
X75917795Y-104376256D01*
X75921973Y-104382509D01*
X75903729Y-104409813D01*
X75825708Y-104598171D01*
X75785934Y-104798130D01*
X75785934Y-105002008D01*
X75825708Y-105201967D01*
X75903729Y-105390325D01*
X75919247Y-105413550D01*
X75903259Y-105437478D01*
X75825238Y-105625836D01*
X75785464Y-105825795D01*
X75785464Y-106029673D01*
X75825238Y-106229632D01*
X75903259Y-106417990D01*
X76016527Y-106587508D01*
X76160690Y-106731671D01*
X76330208Y-106844939D01*
X76518566Y-106922960D01*
X76718525Y-106962734D01*
X76777834Y-106962734D01*
X77407450Y-107592351D01*
X77431307Y-107621421D01*
X77460377Y-107645278D01*
X77547336Y-107716644D01*
X77591766Y-107740392D01*
X77679714Y-107787401D01*
X77823351Y-107830973D01*
X77935303Y-107841999D01*
X77935306Y-107841999D01*
X77972729Y-107845685D01*
X78010152Y-107841999D01*
X125685301Y-107841999D01*
X125595074Y-108010804D01*
X125530173Y-108224752D01*
X125513750Y-108391499D01*
X125513750Y-109103002D01*
X125530173Y-109269749D01*
X125595074Y-109483697D01*
X125695323Y-109671250D01*
X41307280Y-109671250D01*
X41095462Y-109650481D01*
X40922764Y-109598341D01*
X40763482Y-109513649D01*
X40623679Y-109399628D01*
X40508694Y-109260635D01*
X40422890Y-109101945D01*
X40369545Y-108929615D01*
X40347500Y-108719869D01*
X40347500Y-107213061D01*
X52559000Y-107213061D01*
X52559000Y-107416939D01*
X52598774Y-107616898D01*
X52676795Y-107805256D01*
X52790063Y-107974774D01*
X52934226Y-108118937D01*
X53103744Y-108232205D01*
X53292102Y-108310226D01*
X53492061Y-108350000D01*
X53695939Y-108350000D01*
X53895898Y-108310226D01*
X54084256Y-108232205D01*
X54253774Y-108118937D01*
X54397937Y-107974774D01*
X54511205Y-107805256D01*
X54589226Y-107616898D01*
X54629000Y-107416939D01*
X54629000Y-107213061D01*
X54589226Y-107013102D01*
X54511205Y-106824744D01*
X54397937Y-106655226D01*
X54356000Y-106613289D01*
X54356000Y-99441000D01*
X64195289Y-99441000D01*
X64237226Y-99482937D01*
X64406744Y-99596205D01*
X64595102Y-99674226D01*
X64795061Y-99714000D01*
X64998939Y-99714000D01*
X65198898Y-99674226D01*
X65387256Y-99596205D01*
X65556774Y-99482937D01*
X65700937Y-99338774D01*
X65814205Y-99169256D01*
X65892226Y-98980898D01*
X65932000Y-98780939D01*
X65932000Y-98577061D01*
X65892226Y-98377102D01*
X65814205Y-98188744D01*
X65700937Y-98019226D01*
X65556774Y-97875063D01*
X65387256Y-97761795D01*
X65198898Y-97683774D01*
X64998939Y-97644000D01*
X64795061Y-97644000D01*
X64595102Y-97683774D01*
X64406744Y-97761795D01*
X64237226Y-97875063D01*
X64195289Y-97917000D01*
X53631426Y-97917000D01*
X53594000Y-97913314D01*
X53556575Y-97917000D01*
X53556574Y-97917000D01*
X53444622Y-97928026D01*
X53300985Y-97971598D01*
X53168608Y-98042355D01*
X53052578Y-98137578D01*
X52957355Y-98253608D01*
X52886598Y-98385985D01*
X52843026Y-98529622D01*
X52828314Y-98679000D01*
X52832001Y-98716436D01*
X52832000Y-106613289D01*
X52790063Y-106655226D01*
X52676795Y-106824744D01*
X52598774Y-107013102D01*
X52559000Y-107213061D01*
X40347500Y-107213061D01*
X40347500Y-78244630D01*
X42126328Y-78244630D01*
X42126328Y-78727370D01*
X42220506Y-79200835D01*
X42405242Y-79646829D01*
X42673439Y-80048212D01*
X43014788Y-80389561D01*
X43416171Y-80657758D01*
X43862165Y-80842494D01*
X44335630Y-80936672D01*
X44818370Y-80936672D01*
X45291835Y-80842494D01*
X45737829Y-80657758D01*
X46139212Y-80389561D01*
X46480561Y-80048212D01*
X46748758Y-79646829D01*
X46933494Y-79200835D01*
X47027672Y-78727370D01*
X47027672Y-78244630D01*
X46933494Y-77771165D01*
X46748758Y-77325171D01*
X46480561Y-76923788D01*
X46139212Y-76582439D01*
X45737829Y-76314242D01*
X45291835Y-76129506D01*
X44818370Y-76035328D01*
X44335630Y-76035328D01*
X43862165Y-76129506D01*
X43416171Y-76314242D01*
X43014788Y-76582439D01*
X42673439Y-76923788D01*
X42405242Y-77325171D01*
X42220506Y-77771165D01*
X42126328Y-78244630D01*
X40347500Y-78244630D01*
X40347500Y-74644779D01*
X40368269Y-74432962D01*
X40420410Y-74260263D01*
X40505102Y-74100982D01*
X40619119Y-73961181D01*
X40758117Y-73846192D01*
X40916805Y-73760390D01*
X41089135Y-73707045D01*
X41298880Y-73685000D01*
X59098075Y-73685000D01*
X59094531Y-73687908D01*
X59094531Y-73687908D01*
G37*
X59094531Y-73687908D02*
X59014512Y-73753578D01*
X58990650Y-73782654D01*
X53643645Y-79129659D01*
X53614569Y-79153521D01*
X53577964Y-79198125D01*
X53519346Y-79269551D01*
X53481526Y-79340308D01*
X53448589Y-79401929D01*
X53405017Y-79545566D01*
X53395044Y-79646829D01*
X53390305Y-79694943D01*
X53393991Y-79732366D01*
X53393992Y-84150520D01*
X53390305Y-84187953D01*
X53405018Y-84337331D01*
X53448590Y-84480968D01*
X53519346Y-84613345D01*
X53576063Y-84682454D01*
X53614570Y-84729375D01*
X53643640Y-84753232D01*
X57833038Y-88942631D01*
X57833038Y-89001939D01*
X57872812Y-89201898D01*
X57950833Y-89390256D01*
X58064101Y-89559774D01*
X58208264Y-89703937D01*
X58377782Y-89817205D01*
X58492972Y-89864919D01*
X58437744Y-89887795D01*
X58268226Y-90001063D01*
X58124063Y-90145226D01*
X58010795Y-90314744D01*
X57932774Y-90503102D01*
X57893000Y-90703061D01*
X57893000Y-90906939D01*
X57932774Y-91106898D01*
X58010795Y-91295256D01*
X58102500Y-91432503D01*
X58102501Y-94230788D01*
X57997063Y-94336226D01*
X57883795Y-94505744D01*
X57805774Y-94694102D01*
X57766000Y-94894061D01*
X57766000Y-95097939D01*
X57805774Y-95297898D01*
X57883795Y-95486256D01*
X57997063Y-95655774D01*
X58141226Y-95799937D01*
X58310744Y-95913205D01*
X58499102Y-95991226D01*
X58699061Y-96031000D01*
X58902939Y-96031000D01*
X59102898Y-95991226D01*
X59291256Y-95913205D01*
X59460774Y-95799937D01*
X59604937Y-95655774D01*
X59718205Y-95486256D01*
X59796226Y-95297898D01*
X59836000Y-95097939D01*
X59836000Y-94894061D01*
X59796226Y-94694102D01*
X59753500Y-94590953D01*
X59753500Y-91432503D01*
X59845205Y-91295256D01*
X59923226Y-91106898D01*
X59927768Y-91084061D01*
X62592000Y-91084061D01*
X62592000Y-91287939D01*
X62631774Y-91487898D01*
X62709795Y-91676256D01*
X62823063Y-91845774D01*
X62967226Y-91989937D01*
X63136744Y-92103205D01*
X63325102Y-92181226D01*
X63525061Y-92221000D01*
X63728939Y-92221000D01*
X63928898Y-92181226D01*
X64117256Y-92103205D01*
X64286774Y-91989937D01*
X64328711Y-91948000D01*
X68399597Y-91948000D01*
X68302882Y-92092744D01*
X68224861Y-92281102D01*
X68185087Y-92481061D01*
X68185087Y-92684939D01*
X68224861Y-92884898D01*
X68302882Y-93073256D01*
X68416150Y-93242774D01*
X68560313Y-93386937D01*
X68729831Y-93500205D01*
X68918189Y-93578226D01*
X69118148Y-93618000D01*
X69177457Y-93618000D01*
X77642772Y-102083316D01*
X77642772Y-102142624D01*
X77682546Y-102342583D01*
X77760567Y-102530941D01*
X77873835Y-102700459D01*
X78017998Y-102844622D01*
X78187516Y-102957890D01*
X78375874Y-103035911D01*
X78575833Y-103075685D01*
X78779711Y-103075685D01*
X78979670Y-103035911D01*
X79168028Y-102957890D01*
X79337546Y-102844622D01*
X79481709Y-102700459D01*
X79594977Y-102530941D01*
X79672998Y-102342583D01*
X79712772Y-102142624D01*
X79712772Y-101938746D01*
X79695881Y-101853830D01*
X79797937Y-101751774D01*
X79911205Y-101582256D01*
X79989226Y-101393898D01*
X80029000Y-101193939D01*
X80029000Y-100990061D01*
X79989226Y-100790102D01*
X79911205Y-100601744D01*
X79797937Y-100432226D01*
X79653774Y-100288063D01*
X79484256Y-100174795D01*
X79295898Y-100096774D01*
X79095939Y-100057000D01*
X79036630Y-100057000D01*
X69653284Y-90673654D01*
X69629422Y-90644578D01*
X69513392Y-90549355D01*
X69381015Y-90478598D01*
X69237378Y-90435026D01*
X69125426Y-90424000D01*
X69125423Y-90424000D01*
X69088000Y-90420314D01*
X69050577Y-90424000D01*
X64328711Y-90424000D01*
X64286774Y-90382063D01*
X64117256Y-90268795D01*
X63928898Y-90190774D01*
X63728939Y-90151000D01*
X63525061Y-90151000D01*
X63325102Y-90190774D01*
X63136744Y-90268795D01*
X62967226Y-90382063D01*
X62823063Y-90526226D01*
X62709795Y-90695744D01*
X62631774Y-90884102D01*
X62592000Y-91084061D01*
X59927768Y-91084061D01*
X59963000Y-90906939D01*
X59963000Y-90703061D01*
X59923226Y-90503102D01*
X59845205Y-90314744D01*
X59731937Y-90145226D01*
X59587774Y-90001063D01*
X59418256Y-89887795D01*
X59303066Y-89840081D01*
X59358294Y-89817205D01*
X59527812Y-89703937D01*
X59671975Y-89559774D01*
X59785243Y-89390256D01*
X59863264Y-89201898D01*
X59903038Y-89001939D01*
X59903038Y-88798061D01*
X59863264Y-88598102D01*
X59799115Y-88443234D01*
X59845205Y-88374256D01*
X59923226Y-88185898D01*
X59963000Y-87985939D01*
X59963000Y-87782061D01*
X59923226Y-87582102D01*
X59845205Y-87393744D01*
X59731937Y-87224226D01*
X59587774Y-87080063D01*
X59418256Y-86966795D01*
X59229898Y-86888774D01*
X59029939Y-86849000D01*
X58970631Y-86849000D01*
X55372000Y-83250370D01*
X55372000Y-80198630D01*
X60005631Y-75565000D01*
X81381539Y-75565000D01*
X83322639Y-77506101D01*
X83346497Y-77535172D01*
X83462527Y-77630395D01*
X83594904Y-77701152D01*
X83738541Y-77744724D01*
X83811417Y-77751901D01*
X83849294Y-77822764D01*
X84034866Y-78048884D01*
X84260986Y-78234456D01*
X84518966Y-78372349D01*
X84798889Y-78457263D01*
X85017050Y-78478750D01*
X85162950Y-78478750D01*
X85381111Y-78457263D01*
X85661034Y-78372349D01*
X85919014Y-78234456D01*
X86145134Y-78048884D01*
X86330706Y-77822764D01*
X86360000Y-77767959D01*
X86389294Y-77822764D01*
X86574866Y-78048884D01*
X86800986Y-78234456D01*
X87058966Y-78372349D01*
X87338889Y-78457263D01*
X87557050Y-78478750D01*
X87607370Y-78478750D01*
X86330120Y-79756000D01*
X70593953Y-79756000D01*
X70751758Y-79519829D01*
X70936494Y-79073835D01*
X71030672Y-78600370D01*
X71030672Y-78117630D01*
X70936494Y-77644165D01*
X70751758Y-77198171D01*
X70483561Y-76796788D01*
X70142212Y-76455439D01*
X69740829Y-76187242D01*
X69294835Y-76002506D01*
X68821370Y-75908328D01*
X68338630Y-75908328D01*
X67865165Y-76002506D01*
X67419171Y-76187242D01*
X67017788Y-76455439D01*
X66676439Y-76796788D01*
X66408242Y-77198171D01*
X66223506Y-77644165D01*
X66129328Y-78117630D01*
X66129328Y-78600370D01*
X66223506Y-79073835D01*
X66408242Y-79519829D01*
X66676439Y-79921212D01*
X67017788Y-80262561D01*
X67419171Y-80530758D01*
X67648585Y-80625784D01*
X64854370Y-83420000D01*
X64795061Y-83420000D01*
X64595102Y-83459774D01*
X64406744Y-83537795D01*
X64237226Y-83651063D01*
X64093063Y-83795226D01*
X63979795Y-83964744D01*
X63901774Y-84153102D01*
X63862000Y-84353061D01*
X63862000Y-84556939D01*
X63901774Y-84756898D01*
X63979795Y-84945256D01*
X64093063Y-85114774D01*
X64237226Y-85258937D01*
X64406744Y-85372205D01*
X64595102Y-85450226D01*
X64795061Y-85490000D01*
X64998939Y-85490000D01*
X65198898Y-85450226D01*
X65387256Y-85372205D01*
X65393509Y-85368027D01*
X65420813Y-85386271D01*
X65609171Y-85464292D01*
X65809130Y-85504066D01*
X66013008Y-85504066D01*
X66212967Y-85464292D01*
X66401325Y-85386271D01*
X66570843Y-85273003D01*
X66712463Y-85131383D01*
X66805393Y-85149868D01*
X67009271Y-85149868D01*
X67209230Y-85110094D01*
X67397588Y-85032073D01*
X67567106Y-84918805D01*
X67711269Y-84774642D01*
X67732011Y-84743599D01*
X67833534Y-84763793D01*
X68037412Y-84763793D01*
X68237371Y-84724019D01*
X68425729Y-84645998D01*
X68595247Y-84532730D01*
X68739410Y-84388567D01*
X68743483Y-84382471D01*
X68706850Y-84566639D01*
X68706850Y-84770517D01*
X68746624Y-84970476D01*
X68824645Y-85158834D01*
X68937913Y-85328352D01*
X69082076Y-85472515D01*
X69251594Y-85585783D01*
X69439952Y-85663804D01*
X69639911Y-85703578D01*
X69843789Y-85703578D01*
X70043748Y-85663804D01*
X70232106Y-85585783D01*
X70306725Y-85535925D01*
X70320425Y-85545079D01*
X70508783Y-85623100D01*
X70708742Y-85662874D01*
X70912620Y-85662874D01*
X71112579Y-85623100D01*
X71300937Y-85545079D01*
X71470455Y-85431811D01*
X71614618Y-85287648D01*
X71727886Y-85118130D01*
X71775140Y-85004050D01*
X71941665Y-85004050D01*
X71979088Y-85007736D01*
X72016511Y-85004050D01*
X72016514Y-85004050D01*
X72128466Y-84993024D01*
X72272103Y-84949452D01*
X72404480Y-84878695D01*
X72456699Y-84835840D01*
X72488795Y-84913325D01*
X72602063Y-85082843D01*
X72746226Y-85227006D01*
X72915744Y-85340274D01*
X73104102Y-85418295D01*
X73304061Y-85458069D01*
X73472344Y-85458069D01*
X73524986Y-85536853D01*
X73669149Y-85681016D01*
X73838667Y-85794284D01*
X74027025Y-85872305D01*
X74226984Y-85912079D01*
X74430862Y-85912079D01*
X74630821Y-85872305D01*
X74819179Y-85794284D01*
X74988697Y-85681016D01*
X75132860Y-85536853D01*
X75246128Y-85367335D01*
X75246644Y-85366089D01*
X77705000Y-85366089D01*
X77705000Y-85433028D01*
X77744774Y-85632987D01*
X77822795Y-85821345D01*
X77936063Y-85990863D01*
X78080226Y-86135026D01*
X78249744Y-86248294D01*
X78438102Y-86326315D01*
X78638061Y-86366089D01*
X78740310Y-86366089D01*
X78811973Y-86473341D01*
X78956136Y-86617504D01*
X79125654Y-86730772D01*
X79314012Y-86808793D01*
X79477571Y-86841327D01*
X79501762Y-86899728D01*
X79615030Y-87069246D01*
X79751087Y-87205303D01*
X79744098Y-87240437D01*
X79744098Y-87444315D01*
X79783872Y-87644274D01*
X79861893Y-87832632D01*
X79975161Y-88002150D01*
X80119324Y-88146313D01*
X80288842Y-88259581D01*
X80477200Y-88337602D01*
X80677159Y-88377376D01*
X80881037Y-88377376D01*
X81080996Y-88337602D01*
X81269354Y-88259581D01*
X81438872Y-88146313D01*
X81583035Y-88002150D01*
X81696303Y-87832632D01*
X81774324Y-87644274D01*
X81814098Y-87444315D01*
X81814098Y-87385007D01*
X82016976Y-87182129D01*
X86365240Y-87182129D01*
X82507370Y-91040000D01*
X82448061Y-91040000D01*
X82248102Y-91079774D01*
X82059744Y-91157795D01*
X81890226Y-91271063D01*
X81746063Y-91415226D01*
X81632795Y-91584744D01*
X81554774Y-91773102D01*
X81515000Y-91973061D01*
X81515000Y-92176939D01*
X81554774Y-92376898D01*
X81632795Y-92565256D01*
X81639307Y-92575002D01*
X81632795Y-92584747D01*
X81554774Y-92773105D01*
X81515000Y-92973064D01*
X81515000Y-93176942D01*
X81554774Y-93376901D01*
X81632795Y-93565259D01*
X81692425Y-93654502D01*
X81632795Y-93743744D01*
X81554774Y-93932102D01*
X81515000Y-94132061D01*
X81515000Y-94335939D01*
X81554774Y-94535898D01*
X81632795Y-94724256D01*
X81687080Y-94805500D01*
X81632795Y-94886744D01*
X81554774Y-95075102D01*
X81515000Y-95275061D01*
X81515000Y-95478939D01*
X81554774Y-95678898D01*
X81632795Y-95867256D01*
X81687080Y-95948500D01*
X81632795Y-96029744D01*
X81554774Y-96218102D01*
X81515000Y-96418061D01*
X81515000Y-96621939D01*
X81554774Y-96821898D01*
X81632795Y-97010256D01*
X81687080Y-97091500D01*
X81632795Y-97172744D01*
X81554774Y-97361102D01*
X81515000Y-97561061D01*
X81515000Y-97764939D01*
X81554774Y-97964898D01*
X81632795Y-98153256D01*
X81687080Y-98234500D01*
X81632795Y-98315744D01*
X81554774Y-98504102D01*
X81515000Y-98704061D01*
X81515000Y-98907939D01*
X81554774Y-99107898D01*
X81632795Y-99296256D01*
X81687080Y-99377500D01*
X81632795Y-99458744D01*
X81554774Y-99647102D01*
X81515000Y-99847061D01*
X81515000Y-100050939D01*
X81554774Y-100250898D01*
X81632795Y-100439256D01*
X81746063Y-100608774D01*
X81890226Y-100752937D01*
X82059744Y-100866205D01*
X82248102Y-100944226D01*
X82448061Y-100984000D01*
X82651939Y-100984000D01*
X82851898Y-100944226D01*
X83040256Y-100866205D01*
X83209774Y-100752937D01*
X83353937Y-100608774D01*
X83467205Y-100439256D01*
X83545226Y-100250898D01*
X83585000Y-100050939D01*
X83585000Y-99991630D01*
X91095569Y-92481061D01*
X128886000Y-92481061D01*
X128886000Y-92684939D01*
X128925774Y-92884898D01*
X129003795Y-93073256D01*
X129117063Y-93242774D01*
X129169772Y-93295483D01*
X129170026Y-93298063D01*
X129213598Y-93441700D01*
X129244870Y-93500205D01*
X129284355Y-93574077D01*
X129344118Y-93646898D01*
X129379579Y-93690107D01*
X129408649Y-93713964D01*
X129794000Y-94099315D01*
X129794001Y-97850288D01*
X129752063Y-97892226D01*
X129638795Y-98061744D01*
X129560774Y-98250102D01*
X129521000Y-98450061D01*
X129521000Y-98653939D01*
X129560774Y-98853898D01*
X129638795Y-99042256D01*
X129735510Y-99187000D01*
X129638795Y-99331744D01*
X129560774Y-99520102D01*
X129521000Y-99720061D01*
X129521000Y-99923939D01*
X129560774Y-100123898D01*
X129638795Y-100312256D01*
X129752063Y-100481774D01*
X129896226Y-100625937D01*
X130065744Y-100739205D01*
X130254102Y-100817226D01*
X130454061Y-100857000D01*
X130657939Y-100857000D01*
X130857898Y-100817226D01*
X131046256Y-100739205D01*
X131215774Y-100625937D01*
X131359937Y-100481774D01*
X131473205Y-100312256D01*
X131551226Y-100123898D01*
X131591000Y-99923939D01*
X131591000Y-99864630D01*
X132084351Y-99371279D01*
X132113422Y-99347422D01*
X132144421Y-99309649D01*
X132208645Y-99231393D01*
X132279401Y-99099016D01*
X132279402Y-99099015D01*
X132322974Y-98955378D01*
X132334000Y-98843426D01*
X132334000Y-98843423D01*
X132337686Y-98806000D01*
X132334000Y-98768577D01*
X132334000Y-94513061D01*
X139808000Y-94513061D01*
X139808000Y-94716939D01*
X139847774Y-94916898D01*
X139925795Y-95105256D01*
X140039063Y-95274774D01*
X140183226Y-95418937D01*
X140352744Y-95532205D01*
X140541102Y-95610226D01*
X140741061Y-95650000D01*
X140944939Y-95650000D01*
X141144898Y-95610226D01*
X141333256Y-95532205D01*
X141470503Y-95440500D01*
X149184450Y-95440500D01*
X149225000Y-95444494D01*
X149265550Y-95440500D01*
X149265553Y-95440500D01*
X149386826Y-95428556D01*
X149542434Y-95381353D01*
X149685842Y-95304699D01*
X149811541Y-95201541D01*
X149837398Y-95170034D01*
X150762004Y-94245428D01*
X150923898Y-94213226D01*
X151112256Y-94135205D01*
X151281774Y-94021937D01*
X151425937Y-93877774D01*
X151539205Y-93708256D01*
X151617226Y-93519898D01*
X151657000Y-93319939D01*
X151657000Y-93116061D01*
X151617226Y-92916102D01*
X151539205Y-92727744D01*
X151425937Y-92558226D01*
X151281774Y-92414063D01*
X151112256Y-92300795D01*
X150923898Y-92222774D01*
X150723939Y-92183000D01*
X150520061Y-92183000D01*
X150320102Y-92222774D01*
X150131744Y-92300795D01*
X149962226Y-92414063D01*
X149818063Y-92558226D01*
X149704795Y-92727744D01*
X149626774Y-92916102D01*
X149594572Y-93077996D01*
X148883068Y-93789500D01*
X141470503Y-93789500D01*
X141333256Y-93697795D01*
X141144898Y-93619774D01*
X140944939Y-93580000D01*
X140741061Y-93580000D01*
X140541102Y-93619774D01*
X140352744Y-93697795D01*
X140183226Y-93811063D01*
X140039063Y-93955226D01*
X139925795Y-94124744D01*
X139847774Y-94313102D01*
X139808000Y-94513061D01*
X132334000Y-94513061D01*
X132334000Y-93411711D01*
X132375937Y-93369774D01*
X132489205Y-93200256D01*
X132567226Y-93011898D01*
X132607000Y-92811939D01*
X132607000Y-92608061D01*
X132567226Y-92408102D01*
X132489205Y-92219744D01*
X132375937Y-92050226D01*
X132231774Y-91906063D01*
X132062256Y-91792795D01*
X131873898Y-91714774D01*
X131673939Y-91675000D01*
X131470061Y-91675000D01*
X131270102Y-91714774D01*
X131081744Y-91792795D01*
X130912226Y-91906063D01*
X130793080Y-92025209D01*
X130724937Y-91923226D01*
X130580774Y-91779063D01*
X130411256Y-91665795D01*
X130222898Y-91587774D01*
X130022939Y-91548000D01*
X129819061Y-91548000D01*
X129619102Y-91587774D01*
X129430744Y-91665795D01*
X129261226Y-91779063D01*
X129117063Y-91923226D01*
X129003795Y-92092744D01*
X128925774Y-92281102D01*
X128886000Y-92481061D01*
X91095569Y-92481061D01*
X92762424Y-90814207D01*
X135413968Y-90814207D01*
X135413968Y-90838401D01*
X134234653Y-92017717D01*
X134234648Y-92017721D01*
X133942369Y-92310000D01*
X133883061Y-92310000D01*
X133683102Y-92349774D01*
X133494744Y-92427795D01*
X133325226Y-92541063D01*
X133181063Y-92685226D01*
X133067795Y-92854744D01*
X132989774Y-93043102D01*
X132950000Y-93243061D01*
X132950000Y-93446939D01*
X132989774Y-93646898D01*
X133067795Y-93835256D01*
X133181063Y-94004774D01*
X133325226Y-94148937D01*
X133494744Y-94262205D01*
X133683102Y-94340226D01*
X133883061Y-94380000D01*
X134086939Y-94380000D01*
X134286898Y-94340226D01*
X134475256Y-94262205D01*
X134644774Y-94148937D01*
X134788937Y-94004774D01*
X134902205Y-93835256D01*
X134980226Y-93646898D01*
X135020000Y-93446939D01*
X135020000Y-93387631D01*
X135312279Y-93095352D01*
X135312283Y-93095347D01*
X136491599Y-91916032D01*
X136550907Y-91916032D01*
X136750866Y-91876258D01*
X136939224Y-91798237D01*
X137108742Y-91684969D01*
X137252905Y-91540806D01*
X137366173Y-91371288D01*
X137444194Y-91182930D01*
X137483968Y-90982971D01*
X137483968Y-90814207D01*
X142789370Y-90814207D01*
X142826793Y-90817893D01*
X142864216Y-90814207D01*
X142864219Y-90814207D01*
X142976171Y-90803181D01*
X143119808Y-90759609D01*
X143252185Y-90688852D01*
X143368215Y-90593629D01*
X143392077Y-90564553D01*
X146476255Y-87480375D01*
X153272017Y-87480375D01*
X153300689Y-87771486D01*
X153385603Y-88051409D01*
X153523496Y-88309389D01*
X153709068Y-88535509D01*
X153935188Y-88721081D01*
X153989993Y-88750375D01*
X153935188Y-88779669D01*
X153709068Y-88965241D01*
X153523496Y-89191361D01*
X153385603Y-89449341D01*
X153300689Y-89729264D01*
X153272017Y-90020375D01*
X153300689Y-90311486D01*
X153385603Y-90591409D01*
X153523496Y-90849389D01*
X153709068Y-91075509D01*
X153935188Y-91261081D01*
X153989993Y-91290375D01*
X153935188Y-91319669D01*
X153709068Y-91505241D01*
X153523496Y-91731361D01*
X153385603Y-91989341D01*
X153300689Y-92269264D01*
X153272017Y-92560375D01*
X153300689Y-92851486D01*
X153385603Y-93131409D01*
X153523496Y-93389389D01*
X153709068Y-93615509D01*
X153738889Y-93639982D01*
X153670022Y-93660873D01*
X153559708Y-93719838D01*
X153463017Y-93799190D01*
X153383665Y-93895881D01*
X153324700Y-94006195D01*
X153288390Y-94125893D01*
X153276130Y-94250375D01*
X153276130Y-95950375D01*
X153288390Y-96074857D01*
X153324700Y-96194555D01*
X153383665Y-96304869D01*
X153463017Y-96401560D01*
X153559708Y-96480912D01*
X153670022Y-96539877D01*
X153789720Y-96576187D01*
X153914202Y-96588447D01*
X155614202Y-96588447D01*
X155738684Y-96576187D01*
X155858382Y-96539877D01*
X155968696Y-96480912D01*
X156065387Y-96401560D01*
X156144739Y-96304869D01*
X156203704Y-96194555D01*
X156240014Y-96074857D01*
X156252274Y-95950375D01*
X156252274Y-94250375D01*
X156240014Y-94125893D01*
X156203704Y-94006195D01*
X156144739Y-93895881D01*
X156065387Y-93799190D01*
X155968696Y-93719838D01*
X155858382Y-93660873D01*
X155789515Y-93639982D01*
X155819336Y-93615509D01*
X156004908Y-93389389D01*
X156142801Y-93131409D01*
X156227715Y-92851486D01*
X156256387Y-92560375D01*
X156227715Y-92269264D01*
X156142801Y-91989341D01*
X156004908Y-91731361D01*
X155819336Y-91505241D01*
X155593216Y-91319669D01*
X155538411Y-91290375D01*
X155593216Y-91261081D01*
X155819336Y-91075509D01*
X156004908Y-90849389D01*
X156142801Y-90591409D01*
X156227715Y-90311486D01*
X156256387Y-90020375D01*
X156227715Y-89729264D01*
X156142801Y-89449341D01*
X156004908Y-89191361D01*
X155819336Y-88965241D01*
X155593216Y-88779669D01*
X155538411Y-88750375D01*
X155593216Y-88721081D01*
X155819336Y-88535509D01*
X156004908Y-88309389D01*
X156142801Y-88051409D01*
X156227715Y-87771486D01*
X156256387Y-87480375D01*
X156227715Y-87189264D01*
X156142801Y-86909341D01*
X156004908Y-86651361D01*
X155819336Y-86425241D01*
X155593216Y-86239669D01*
X155335236Y-86101776D01*
X155055313Y-86016862D01*
X154837152Y-85995375D01*
X154691252Y-85995375D01*
X154473091Y-86016862D01*
X154193168Y-86101776D01*
X153935188Y-86239669D01*
X153709068Y-86425241D01*
X153523496Y-86651361D01*
X153385603Y-86909341D01*
X153300689Y-87189264D01*
X153272017Y-87480375D01*
X146476255Y-87480375D01*
X155293602Y-78663029D01*
X155322672Y-78639172D01*
X155417895Y-78523142D01*
X155439981Y-78481822D01*
X155631250Y-78481822D01*
X155755732Y-78469562D01*
X155875430Y-78433252D01*
X155985744Y-78374287D01*
X156082435Y-78294935D01*
X156161787Y-78198244D01*
X156220752Y-78087930D01*
X156257062Y-77968232D01*
X156269322Y-77843750D01*
X156269322Y-76143750D01*
X156257062Y-76019268D01*
X156220752Y-75899570D01*
X156161787Y-75789256D01*
X156082435Y-75692565D01*
X155985744Y-75613213D01*
X155875430Y-75554248D01*
X155755732Y-75517938D01*
X155631250Y-75505678D01*
X153931250Y-75505678D01*
X153806768Y-75517938D01*
X153687070Y-75554248D01*
X153576756Y-75613213D01*
X153480065Y-75692565D01*
X153400713Y-75789256D01*
X153341748Y-75899570D01*
X153320857Y-75968437D01*
X153296384Y-75938616D01*
X153070264Y-75753044D01*
X152812284Y-75615151D01*
X152532361Y-75530237D01*
X152314200Y-75508750D01*
X152168300Y-75508750D01*
X151950139Y-75530237D01*
X151670216Y-75615151D01*
X151412236Y-75753044D01*
X151186116Y-75938616D01*
X151000544Y-76164736D01*
X150971250Y-76219541D01*
X150941956Y-76164736D01*
X150756384Y-75938616D01*
X150530264Y-75753044D01*
X150272284Y-75615151D01*
X149992361Y-75530237D01*
X149774200Y-75508750D01*
X149628300Y-75508750D01*
X149410139Y-75530237D01*
X149130216Y-75615151D01*
X148872236Y-75753044D01*
X148646116Y-75938616D01*
X148460544Y-76164736D01*
X148431250Y-76219541D01*
X148401956Y-76164736D01*
X148216384Y-75938616D01*
X147990264Y-75753044D01*
X147732284Y-75615151D01*
X147452361Y-75530237D01*
X147234200Y-75508750D01*
X147088300Y-75508750D01*
X146870139Y-75530237D01*
X146590216Y-75615151D01*
X146332236Y-75753044D01*
X146106116Y-75938616D01*
X145920544Y-76164736D01*
X145891250Y-76219541D01*
X145861956Y-76164736D01*
X145676384Y-75938616D01*
X145450264Y-75753044D01*
X145192284Y-75615151D01*
X144912361Y-75530237D01*
X144694200Y-75508750D01*
X144548300Y-75508750D01*
X144330139Y-75530237D01*
X144050216Y-75615151D01*
X143792236Y-75753044D01*
X143566116Y-75938616D01*
X143380544Y-76164736D01*
X143351250Y-76219541D01*
X143321956Y-76164736D01*
X143136384Y-75938616D01*
X142910264Y-75753044D01*
X142652284Y-75615151D01*
X142372361Y-75530237D01*
X142154200Y-75508750D01*
X142008300Y-75508750D01*
X141790139Y-75530237D01*
X141510216Y-75615151D01*
X141252236Y-75753044D01*
X141026116Y-75938616D01*
X140840544Y-76164736D01*
X140811250Y-76219541D01*
X140781956Y-76164736D01*
X140596384Y-75938616D01*
X140370264Y-75753044D01*
X140112284Y-75615151D01*
X139832361Y-75530237D01*
X139614200Y-75508750D01*
X139468300Y-75508750D01*
X139250139Y-75530237D01*
X138970216Y-75615151D01*
X138712236Y-75753044D01*
X138486116Y-75938616D01*
X138300544Y-76164736D01*
X138271250Y-76219541D01*
X138241956Y-76164736D01*
X138056384Y-75938616D01*
X137830264Y-75753044D01*
X137572284Y-75615151D01*
X137292361Y-75530237D01*
X137074200Y-75508750D01*
X136928300Y-75508750D01*
X136710139Y-75530237D01*
X136430216Y-75615151D01*
X136172236Y-75753044D01*
X135946116Y-75938616D01*
X135760544Y-76164736D01*
X135722667Y-76235599D01*
X135649791Y-76242776D01*
X135506154Y-76286348D01*
X135373777Y-76357105D01*
X135257747Y-76452328D01*
X135233890Y-76481398D01*
X125603150Y-86112139D01*
X116253241Y-86112139D01*
X123702352Y-78663029D01*
X123731422Y-78639172D01*
X123826645Y-78523142D01*
X123848731Y-78481822D01*
X124040000Y-78481822D01*
X124164482Y-78469562D01*
X124284180Y-78433252D01*
X124394494Y-78374287D01*
X124491185Y-78294935D01*
X124570537Y-78198244D01*
X124629502Y-78087930D01*
X124665812Y-77968232D01*
X124678072Y-77843750D01*
X124678072Y-76143750D01*
X124665812Y-76019268D01*
X124629502Y-75899570D01*
X124570537Y-75789256D01*
X124491185Y-75692565D01*
X124394494Y-75613213D01*
X124284180Y-75554248D01*
X124164482Y-75517938D01*
X124040000Y-75505678D01*
X122340000Y-75505678D01*
X122215518Y-75517938D01*
X122095820Y-75554248D01*
X121985506Y-75613213D01*
X121888815Y-75692565D01*
X121809463Y-75789256D01*
X121750498Y-75899570D01*
X121729607Y-75968437D01*
X121705134Y-75938616D01*
X121479014Y-75753044D01*
X121221034Y-75615151D01*
X120941111Y-75530237D01*
X120722950Y-75508750D01*
X120577050Y-75508750D01*
X120358889Y-75530237D01*
X120078966Y-75615151D01*
X119820986Y-75753044D01*
X119594866Y-75938616D01*
X119409294Y-76164736D01*
X119380000Y-76219541D01*
X119350706Y-76164736D01*
X119165134Y-75938616D01*
X118939014Y-75753044D01*
X118681034Y-75615151D01*
X118401111Y-75530237D01*
X118182950Y-75508750D01*
X118037050Y-75508750D01*
X117818889Y-75530237D01*
X117538966Y-75615151D01*
X117280986Y-75753044D01*
X117054866Y-75938616D01*
X116869294Y-76164736D01*
X116840000Y-76219541D01*
X116810706Y-76164736D01*
X116625134Y-75938616D01*
X116399014Y-75753044D01*
X116141034Y-75615151D01*
X115861111Y-75530237D01*
X115642950Y-75508750D01*
X115497050Y-75508750D01*
X115278889Y-75530237D01*
X114998966Y-75615151D01*
X114740986Y-75753044D01*
X114514866Y-75938616D01*
X114329294Y-76164736D01*
X114300000Y-76219541D01*
X114270706Y-76164736D01*
X114085134Y-75938616D01*
X113859014Y-75753044D01*
X113601034Y-75615151D01*
X113321111Y-75530237D01*
X113102950Y-75508750D01*
X112957050Y-75508750D01*
X112738889Y-75530237D01*
X112458966Y-75615151D01*
X112200986Y-75753044D01*
X111974866Y-75938616D01*
X111789294Y-76164736D01*
X111760000Y-76219541D01*
X111730706Y-76164736D01*
X111545134Y-75938616D01*
X111319014Y-75753044D01*
X111061034Y-75615151D01*
X110781111Y-75530237D01*
X110562950Y-75508750D01*
X110417050Y-75508750D01*
X110198889Y-75530237D01*
X109918966Y-75615151D01*
X109660986Y-75753044D01*
X109434866Y-75938616D01*
X109249294Y-76164736D01*
X109220000Y-76219541D01*
X109190706Y-76164736D01*
X109005134Y-75938616D01*
X108779014Y-75753044D01*
X108521034Y-75615151D01*
X108241111Y-75530237D01*
X108022950Y-75508750D01*
X107877050Y-75508750D01*
X107658889Y-75530237D01*
X107378966Y-75615151D01*
X107120986Y-75753044D01*
X106894866Y-75938616D01*
X106709294Y-76164736D01*
X106680000Y-76219541D01*
X106650706Y-76164736D01*
X106465134Y-75938616D01*
X106239014Y-75753044D01*
X105981034Y-75615151D01*
X105701111Y-75530237D01*
X105482950Y-75508750D01*
X105337050Y-75508750D01*
X105118889Y-75530237D01*
X104838966Y-75615151D01*
X104580986Y-75753044D01*
X104354866Y-75938616D01*
X104169294Y-76164736D01*
X104140000Y-76219541D01*
X104110706Y-76164736D01*
X103925134Y-75938616D01*
X103699014Y-75753044D01*
X103441034Y-75615151D01*
X103161111Y-75530237D01*
X102942950Y-75508750D01*
X102797050Y-75508750D01*
X102578889Y-75530237D01*
X102298966Y-75615151D01*
X102040986Y-75753044D01*
X101814866Y-75938616D01*
X101629294Y-76164736D01*
X101600000Y-76219541D01*
X101570706Y-76164736D01*
X101385134Y-75938616D01*
X101159014Y-75753044D01*
X100901034Y-75615151D01*
X100621111Y-75530237D01*
X100402950Y-75508750D01*
X100257050Y-75508750D01*
X100038889Y-75530237D01*
X99758966Y-75615151D01*
X99500986Y-75753044D01*
X99274866Y-75938616D01*
X99089294Y-76164736D01*
X99060000Y-76219541D01*
X99030706Y-76164736D01*
X98845134Y-75938616D01*
X98619014Y-75753044D01*
X98361034Y-75615151D01*
X98081111Y-75530237D01*
X97862950Y-75508750D01*
X97717050Y-75508750D01*
X97498889Y-75530237D01*
X97218966Y-75615151D01*
X96960986Y-75753044D01*
X96734866Y-75938616D01*
X96549294Y-76164736D01*
X96520000Y-76219541D01*
X96490706Y-76164736D01*
X96305134Y-75938616D01*
X96079014Y-75753044D01*
X95821034Y-75615151D01*
X95541111Y-75530237D01*
X95322950Y-75508750D01*
X95177050Y-75508750D01*
X94958889Y-75530237D01*
X94678966Y-75615151D01*
X94420986Y-75753044D01*
X94194866Y-75938616D01*
X94009294Y-76164736D01*
X93980000Y-76219541D01*
X93950706Y-76164736D01*
X93765134Y-75938616D01*
X93539014Y-75753044D01*
X93281034Y-75615151D01*
X93001111Y-75530237D01*
X92782950Y-75508750D01*
X92637050Y-75508750D01*
X92418889Y-75530237D01*
X92138966Y-75615151D01*
X91880986Y-75753044D01*
X91654866Y-75938616D01*
X91469294Y-76164736D01*
X91440000Y-76219541D01*
X91410706Y-76164736D01*
X91225134Y-75938616D01*
X90999014Y-75753044D01*
X90741034Y-75615151D01*
X90461111Y-75530237D01*
X90242950Y-75508750D01*
X90097050Y-75508750D01*
X89878889Y-75530237D01*
X89598966Y-75615151D01*
X89340986Y-75753044D01*
X89114866Y-75938616D01*
X88929294Y-76164736D01*
X88900000Y-76219541D01*
X88870706Y-76164736D01*
X88685134Y-75938616D01*
X88459014Y-75753044D01*
X88201034Y-75615151D01*
X87921111Y-75530237D01*
X87702950Y-75508750D01*
X87557050Y-75508750D01*
X87338889Y-75530237D01*
X87266175Y-75552295D01*
X85496534Y-73782654D01*
X85472672Y-73753578D01*
X85389109Y-73685000D01*
X157130221Y-73685000D01*
X157342038Y-73705769D01*
X157514737Y-73757910D01*
X157674018Y-73842602D01*
X157813819Y-73956619D01*
X157928808Y-74095617D01*
X158014610Y-74254305D01*
X158067955Y-74426635D01*
X158090001Y-74636390D01*
X158090000Y-108711470D01*
X158069231Y-108923288D01*
X158017091Y-109095986D01*
X157932399Y-109255268D01*
X157818378Y-109395071D01*
X157679385Y-109510056D01*
X157520695Y-109595860D01*
X157348365Y-109649205D01*
X157138619Y-109671250D01*
X136242178Y-109671250D01*
X136342426Y-109483696D01*
X136407327Y-109269748D01*
X136423750Y-109103001D01*
X136423750Y-108391498D01*
X136407327Y-108224751D01*
X136342426Y-108010803D01*
X136252199Y-107841999D01*
X140532578Y-107841999D01*
X140570001Y-107845685D01*
X140607424Y-107841999D01*
X140607427Y-107841999D01*
X140719379Y-107830973D01*
X140863016Y-107787401D01*
X140995393Y-107716644D01*
X140997396Y-107715000D01*
X141071939Y-107715000D01*
X141271898Y-107675226D01*
X141460256Y-107597205D01*
X141629774Y-107483937D01*
X141773937Y-107339774D01*
X141887205Y-107170256D01*
X141965226Y-106981898D01*
X142005000Y-106781939D01*
X142005000Y-106578061D01*
X141965226Y-106378102D01*
X141887205Y-106189744D01*
X141868961Y-106162440D01*
X141873139Y-106156187D01*
X141951160Y-105967829D01*
X141990934Y-105767870D01*
X141990934Y-105563992D01*
X141951160Y-105364033D01*
X141873139Y-105175675D01*
X141857884Y-105152844D01*
X141877089Y-105124102D01*
X141955110Y-104935744D01*
X141994884Y-104735785D01*
X141994884Y-104531907D01*
X141955110Y-104331948D01*
X141877089Y-104143590D01*
X141763821Y-103974072D01*
X141619658Y-103829909D01*
X141450140Y-103716641D01*
X141261782Y-103638620D01*
X141061823Y-103598846D01*
X140857945Y-103598846D01*
X140657986Y-103638620D01*
X140469628Y-103716641D01*
X140300110Y-103829909D01*
X140155947Y-103974072D01*
X140042679Y-104143590D01*
X139964658Y-104331948D01*
X139924884Y-104531907D01*
X139924884Y-104591215D01*
X139333840Y-105182260D01*
X136422838Y-105182260D01*
X136423750Y-105173002D01*
X136423750Y-103961498D01*
X136407327Y-103794751D01*
X136342426Y-103580803D01*
X136237034Y-103383627D01*
X136095199Y-103210801D01*
X135922373Y-103068966D01*
X135725196Y-102963574D01*
X135511248Y-102898673D01*
X135288750Y-102876759D01*
X135066251Y-102898673D01*
X134852303Y-102963574D01*
X134655127Y-103068966D01*
X134482301Y-103210801D01*
X134340466Y-103383627D01*
X134235074Y-103580804D01*
X134170173Y-103794752D01*
X134153750Y-103961499D01*
X134153750Y-104180346D01*
X134138772Y-104174142D01*
X133953302Y-104137250D01*
X133764198Y-104137250D01*
X133578728Y-104174142D01*
X133404019Y-104246509D01*
X133246786Y-104351569D01*
X133113069Y-104485286D01*
X133008009Y-104642519D01*
X132935642Y-104817228D01*
X132898750Y-105002698D01*
X132898750Y-105182260D01*
X129038750Y-105182260D01*
X129038750Y-105002698D01*
X129001858Y-104817228D01*
X128929491Y-104642519D01*
X128824431Y-104485286D01*
X128690714Y-104351569D01*
X128533481Y-104246509D01*
X128358772Y-104174142D01*
X128173302Y-104137250D01*
X127984198Y-104137250D01*
X127798728Y-104174142D01*
X127783750Y-104180346D01*
X127783750Y-103961498D01*
X127767327Y-103794751D01*
X127702426Y-103580803D01*
X127597034Y-103383627D01*
X127455199Y-103210801D01*
X127282373Y-103068966D01*
X127085196Y-102963574D01*
X126871248Y-102898673D01*
X126648750Y-102876759D01*
X126426251Y-102898673D01*
X126212303Y-102963574D01*
X126015127Y-103068966D01*
X125842301Y-103210801D01*
X125700466Y-103383627D01*
X125595074Y-103580804D01*
X125530173Y-103794752D01*
X125513750Y-103961499D01*
X125513750Y-105173002D01*
X125514662Y-105182260D01*
X79208891Y-105182260D01*
X77870000Y-103843370D01*
X77870000Y-103784061D01*
X77830226Y-103584102D01*
X77752205Y-103395744D01*
X77638937Y-103226226D01*
X77494774Y-103082063D01*
X77325256Y-102968795D01*
X77136898Y-102890774D01*
X76936939Y-102851000D01*
X76733061Y-102851000D01*
X76533102Y-102890774D01*
X76344744Y-102968795D01*
X76175226Y-103082063D01*
X76031063Y-103226226D01*
X75917795Y-103395744D01*
X75839774Y-103584102D01*
X75800000Y-103784061D01*
X75800000Y-103987939D01*
X75839774Y-104187898D01*
X75917795Y-104376256D01*
X75921973Y-104382509D01*
X75903729Y-104409813D01*
X75825708Y-104598171D01*
X75785934Y-104798130D01*
X75785934Y-105002008D01*
X75825708Y-105201967D01*
X75903729Y-105390325D01*
X75919247Y-105413550D01*
X75903259Y-105437478D01*
X75825238Y-105625836D01*
X75785464Y-105825795D01*
X75785464Y-106029673D01*
X75825238Y-106229632D01*
X75903259Y-106417990D01*
X76016527Y-106587508D01*
X76160690Y-106731671D01*
X76330208Y-106844939D01*
X76518566Y-106922960D01*
X76718525Y-106962734D01*
X76777834Y-106962734D01*
X77407450Y-107592351D01*
X77431307Y-107621421D01*
X77460377Y-107645278D01*
X77547336Y-107716644D01*
X77591766Y-107740392D01*
X77679714Y-107787401D01*
X77823351Y-107830973D01*
X77935303Y-107841999D01*
X77935306Y-107841999D01*
X77972729Y-107845685D01*
X78010152Y-107841999D01*
X125685301Y-107841999D01*
X125595074Y-108010804D01*
X125530173Y-108224752D01*
X125513750Y-108391499D01*
X125513750Y-109103002D01*
X125530173Y-109269749D01*
X125595074Y-109483697D01*
X125695323Y-109671250D01*
X41307280Y-109671250D01*
X41095462Y-109650481D01*
X40922764Y-109598341D01*
X40763482Y-109513649D01*
X40623679Y-109399628D01*
X40508694Y-109260635D01*
X40422890Y-109101945D01*
X40369545Y-108929615D01*
X40347500Y-108719869D01*
X40347500Y-107213061D01*
X52559000Y-107213061D01*
X52559000Y-107416939D01*
X52598774Y-107616898D01*
X52676795Y-107805256D01*
X52790063Y-107974774D01*
X52934226Y-108118937D01*
X53103744Y-108232205D01*
X53292102Y-108310226D01*
X53492061Y-108350000D01*
X53695939Y-108350000D01*
X53895898Y-108310226D01*
X54084256Y-108232205D01*
X54253774Y-108118937D01*
X54397937Y-107974774D01*
X54511205Y-107805256D01*
X54589226Y-107616898D01*
X54629000Y-107416939D01*
X54629000Y-107213061D01*
X54589226Y-107013102D01*
X54511205Y-106824744D01*
X54397937Y-106655226D01*
X54356000Y-106613289D01*
X54356000Y-99441000D01*
X64195289Y-99441000D01*
X64237226Y-99482937D01*
X64406744Y-99596205D01*
X64595102Y-99674226D01*
X64795061Y-99714000D01*
X64998939Y-99714000D01*
X65198898Y-99674226D01*
X65387256Y-99596205D01*
X65556774Y-99482937D01*
X65700937Y-99338774D01*
X65814205Y-99169256D01*
X65892226Y-98980898D01*
X65932000Y-98780939D01*
X65932000Y-98577061D01*
X65892226Y-98377102D01*
X65814205Y-98188744D01*
X65700937Y-98019226D01*
X65556774Y-97875063D01*
X65387256Y-97761795D01*
X65198898Y-97683774D01*
X64998939Y-97644000D01*
X64795061Y-97644000D01*
X64595102Y-97683774D01*
X64406744Y-97761795D01*
X64237226Y-97875063D01*
X64195289Y-97917000D01*
X53631426Y-97917000D01*
X53594000Y-97913314D01*
X53556575Y-97917000D01*
X53556574Y-97917000D01*
X53444622Y-97928026D01*
X53300985Y-97971598D01*
X53168608Y-98042355D01*
X53052578Y-98137578D01*
X52957355Y-98253608D01*
X52886598Y-98385985D01*
X52843026Y-98529622D01*
X52828314Y-98679000D01*
X52832001Y-98716436D01*
X52832000Y-106613289D01*
X52790063Y-106655226D01*
X52676795Y-106824744D01*
X52598774Y-107013102D01*
X52559000Y-107213061D01*
X40347500Y-107213061D01*
X40347500Y-78244630D01*
X42126328Y-78244630D01*
X42126328Y-78727370D01*
X42220506Y-79200835D01*
X42405242Y-79646829D01*
X42673439Y-80048212D01*
X43014788Y-80389561D01*
X43416171Y-80657758D01*
X43862165Y-80842494D01*
X44335630Y-80936672D01*
X44818370Y-80936672D01*
X45291835Y-80842494D01*
X45737829Y-80657758D01*
X46139212Y-80389561D01*
X46480561Y-80048212D01*
X46748758Y-79646829D01*
X46933494Y-79200835D01*
X47027672Y-78727370D01*
X47027672Y-78244630D01*
X46933494Y-77771165D01*
X46748758Y-77325171D01*
X46480561Y-76923788D01*
X46139212Y-76582439D01*
X45737829Y-76314242D01*
X45291835Y-76129506D01*
X44818370Y-76035328D01*
X44335630Y-76035328D01*
X43862165Y-76129506D01*
X43416171Y-76314242D01*
X43014788Y-76582439D01*
X42673439Y-76923788D01*
X42405242Y-77325171D01*
X42220506Y-77771165D01*
X42126328Y-78244630D01*
X40347500Y-78244630D01*
X40347500Y-74644779D01*
X40368269Y-74432962D01*
X40420410Y-74260263D01*
X40505102Y-74100982D01*
X40619119Y-73961181D01*
X40758117Y-73846192D01*
X40916805Y-73760390D01*
X41089135Y-73707045D01*
X41298880Y-73685000D01*
X59098075Y-73685000D01*
X59094531Y-73687908D01*
M02*
