G04 #@! TF.GenerationSoftware,KiCad,Pcbnew,(5.1.4)-1*
G04 #@! TF.CreationDate,2019-11-13T22:44:39-08:00*
G04 #@! TF.ProjectId,controller,636f6e74-726f-46c6-9c65-722e6b696361,rev?*
G04 #@! TF.SameCoordinates,Original*
G04 #@! TF.FileFunction,Legend,Top*
G04 #@! TF.FilePolarity,Positive*
%FSLAX46Y46*%
G04 Gerber Fmt 4.6, Leading zero omitted, Abs format (unit mm)*
G04 Created by KiCad (PCBNEW (5.1.4)-1) date 2019-11-13 22:44:39*
%MOMM*%
%LPD*%
G04 APERTURE LIST*
%ADD10C,0.150000*%
%ADD11C,0.120000*%
G04 APERTURE END LIST*
D10*
X52768904Y-77160380D02*
X52768904Y-76160380D01*
X52768904Y-76541333D02*
X52864142Y-76493714D01*
X53054619Y-76493714D01*
X53149857Y-76541333D01*
X53197476Y-76588952D01*
X53245095Y-76684190D01*
X53245095Y-76969904D01*
X53197476Y-77065142D01*
X53149857Y-77112761D01*
X53054619Y-77160380D01*
X52864142Y-77160380D01*
X52768904Y-77112761D01*
X53578428Y-76493714D02*
X53816523Y-77160380D01*
X54054619Y-76493714D02*
X53816523Y-77160380D01*
X53721285Y-77398476D01*
X53673666Y-77446095D01*
X53578428Y-77493714D01*
X55626047Y-77160380D02*
X55626047Y-76636571D01*
X55578428Y-76541333D01*
X55483190Y-76493714D01*
X55292714Y-76493714D01*
X55197476Y-76541333D01*
X55626047Y-77112761D02*
X55530809Y-77160380D01*
X55292714Y-77160380D01*
X55197476Y-77112761D01*
X55149857Y-77017523D01*
X55149857Y-76922285D01*
X55197476Y-76827047D01*
X55292714Y-76779428D01*
X55530809Y-76779428D01*
X55626047Y-76731809D01*
X56054619Y-77112761D02*
X56149857Y-77160380D01*
X56340333Y-77160380D01*
X56435571Y-77112761D01*
X56483190Y-77017523D01*
X56483190Y-76969904D01*
X56435571Y-76874666D01*
X56340333Y-76827047D01*
X56197476Y-76827047D01*
X56102238Y-76779428D01*
X56054619Y-76684190D01*
X56054619Y-76636571D01*
X56102238Y-76541333D01*
X56197476Y-76493714D01*
X56340333Y-76493714D01*
X56435571Y-76541333D01*
X56911761Y-77160380D02*
X56911761Y-76160380D01*
X57340333Y-77160380D02*
X57340333Y-76636571D01*
X57292714Y-76541333D01*
X57197476Y-76493714D01*
X57054619Y-76493714D01*
X56959380Y-76541333D01*
X56911761Y-76588952D01*
X57816523Y-76493714D02*
X57816523Y-77493714D01*
X57816523Y-76541333D02*
X57911761Y-76493714D01*
X58102238Y-76493714D01*
X58197476Y-76541333D01*
X58245095Y-76588952D01*
X58292714Y-76684190D01*
X58292714Y-76969904D01*
X58245095Y-77065142D01*
X58197476Y-77112761D01*
X58102238Y-77160380D01*
X57911761Y-77160380D01*
X57816523Y-77112761D01*
X58721285Y-77160380D02*
X58721285Y-76493714D01*
X58721285Y-76160380D02*
X58673666Y-76208000D01*
X58721285Y-76255619D01*
X58768904Y-76208000D01*
X58721285Y-76160380D01*
X58721285Y-76255619D01*
X59340333Y-77160380D02*
X59245095Y-77112761D01*
X59197476Y-77017523D01*
X59197476Y-76160380D01*
X50491142Y-74255380D02*
X50491142Y-75064904D01*
X50538761Y-75160142D01*
X50586380Y-75207761D01*
X50681619Y-75255380D01*
X50872095Y-75255380D01*
X50967333Y-75207761D01*
X51014952Y-75160142D01*
X51062571Y-75064904D01*
X51062571Y-74255380D01*
X51491142Y-75207761D02*
X51634000Y-75255380D01*
X51872095Y-75255380D01*
X51967333Y-75207761D01*
X52014952Y-75160142D01*
X52062571Y-75064904D01*
X52062571Y-74969666D01*
X52014952Y-74874428D01*
X51967333Y-74826809D01*
X51872095Y-74779190D01*
X51681619Y-74731571D01*
X51586380Y-74683952D01*
X51538761Y-74636333D01*
X51491142Y-74541095D01*
X51491142Y-74445857D01*
X51538761Y-74350619D01*
X51586380Y-74303000D01*
X51681619Y-74255380D01*
X51919714Y-74255380D01*
X52062571Y-74303000D01*
X52824476Y-74731571D02*
X52967333Y-74779190D01*
X53014952Y-74826809D01*
X53062571Y-74922047D01*
X53062571Y-75064904D01*
X53014952Y-75160142D01*
X52967333Y-75207761D01*
X52872095Y-75255380D01*
X52491142Y-75255380D01*
X52491142Y-74255380D01*
X52824476Y-74255380D01*
X52919714Y-74303000D01*
X52967333Y-74350619D01*
X53014952Y-74445857D01*
X53014952Y-74541095D01*
X52967333Y-74636333D01*
X52919714Y-74683952D01*
X52824476Y-74731571D01*
X52491142Y-74731571D01*
X54824476Y-75160142D02*
X54776857Y-75207761D01*
X54634000Y-75255380D01*
X54538761Y-75255380D01*
X54395904Y-75207761D01*
X54300666Y-75112523D01*
X54253047Y-75017285D01*
X54205428Y-74826809D01*
X54205428Y-74683952D01*
X54253047Y-74493476D01*
X54300666Y-74398238D01*
X54395904Y-74303000D01*
X54538761Y-74255380D01*
X54634000Y-74255380D01*
X54776857Y-74303000D01*
X54824476Y-74350619D01*
X56014952Y-75255380D02*
X56014952Y-74255380D01*
X56348285Y-74969666D01*
X56681619Y-74255380D01*
X56681619Y-75255380D01*
X57300666Y-75255380D02*
X57205428Y-75207761D01*
X57157809Y-75160142D01*
X57110190Y-75064904D01*
X57110190Y-74779190D01*
X57157809Y-74683952D01*
X57205428Y-74636333D01*
X57300666Y-74588714D01*
X57443523Y-74588714D01*
X57538761Y-74636333D01*
X57586380Y-74683952D01*
X57634000Y-74779190D01*
X57634000Y-75064904D01*
X57586380Y-75160142D01*
X57538761Y-75207761D01*
X57443523Y-75255380D01*
X57300666Y-75255380D01*
X58491142Y-75255380D02*
X58491142Y-74255380D01*
X58491142Y-75207761D02*
X58395904Y-75255380D01*
X58205428Y-75255380D01*
X58110190Y-75207761D01*
X58062571Y-75160142D01*
X58014952Y-75064904D01*
X58014952Y-74779190D01*
X58062571Y-74683952D01*
X58110190Y-74636333D01*
X58205428Y-74588714D01*
X58395904Y-74588714D01*
X58491142Y-74636333D01*
X59348285Y-75207761D02*
X59253047Y-75255380D01*
X59062571Y-75255380D01*
X58967333Y-75207761D01*
X58919714Y-75112523D01*
X58919714Y-74731571D01*
X58967333Y-74636333D01*
X59062571Y-74588714D01*
X59253047Y-74588714D01*
X59348285Y-74636333D01*
X59395904Y-74731571D01*
X59395904Y-74826809D01*
X58919714Y-74922047D01*
X59967333Y-75255380D02*
X59872095Y-75207761D01*
X59824476Y-75112523D01*
X59824476Y-74255380D01*
X61110190Y-75255380D02*
X61110190Y-74255380D01*
X61443523Y-74969666D01*
X61776857Y-74255380D01*
X61776857Y-75255380D01*
X61403474Y-87374481D02*
X60128474Y-87374481D01*
X75753474Y-86799481D02*
X75078474Y-86799481D01*
X75753474Y-101149481D02*
X75078474Y-101149481D01*
X61403474Y-101149481D02*
X62078474Y-101149481D01*
X61403474Y-86799481D02*
X62078474Y-86799481D01*
X61403474Y-101149481D02*
X61403474Y-100474481D01*
X75753474Y-101149481D02*
X75753474Y-100474481D01*
X75753474Y-86799481D02*
X75753474Y-87474481D01*
X61403474Y-86799481D02*
X61403474Y-87374481D01*
D11*
X70593470Y-104748201D02*
X66593470Y-104748201D01*
X70593470Y-108048201D02*
X70593470Y-104748201D01*
D10*
X116521750Y-88659000D02*
X116521750Y-91559000D01*
X116521750Y-88659000D02*
X115221750Y-88659000D01*
X115221750Y-88659000D02*
X115221750Y-91559000D01*
X115221750Y-91559000D02*
X116521750Y-91559000D01*
X47037500Y-92868750D02*
G75*
G03X47037500Y-92868750I-1000000J0D01*
G01*
X48637500Y-95468750D02*
X43437500Y-95468750D01*
X48637500Y-90268750D02*
X48637500Y-95468750D01*
X43437500Y-90268750D02*
X48637500Y-90268750D01*
X43437500Y-95468750D02*
X43437500Y-90268750D01*
D11*
X147357628Y-88023893D02*
X147874784Y-88023893D01*
X147357628Y-86603893D02*
X147874784Y-86603893D01*
X147874784Y-90572643D02*
X147357628Y-90572643D01*
X147874784Y-91992643D02*
X147357628Y-91992643D01*
X147826284Y-94541393D02*
X147309128Y-94541393D01*
X147826284Y-95961393D02*
X147309128Y-95961393D01*
X54304000Y-104086922D02*
X54304000Y-104604078D01*
X52884000Y-104086922D02*
X52884000Y-104604078D01*
X81736000Y-90126078D02*
X81736000Y-89608922D01*
X80316000Y-90126078D02*
X80316000Y-89608922D01*
X109254845Y-93746250D02*
X108737689Y-93746250D01*
X109254845Y-95166250D02*
X108737689Y-95166250D01*
X108722689Y-91769000D02*
X109239845Y-91769000D01*
X108722689Y-90349000D02*
X109239845Y-90349000D01*
X118572858Y-96225152D02*
X118572858Y-95707996D01*
X117152858Y-96225152D02*
X117152858Y-95707996D01*
X114604108Y-96225152D02*
X114604108Y-95707996D01*
X113184108Y-96225152D02*
X113184108Y-95707996D01*
X124520000Y-75663750D02*
X124520000Y-76993750D01*
X123190000Y-75663750D02*
X124520000Y-75663750D01*
X121920000Y-75663750D02*
X121920000Y-78323750D01*
X121920000Y-78323750D02*
X83760000Y-78323750D01*
X121920000Y-75663750D02*
X83760000Y-75663750D01*
X83760000Y-75663750D02*
X83760000Y-78323750D01*
X156111250Y-75663750D02*
X156111250Y-76993750D01*
X154781250Y-75663750D02*
X156111250Y-75663750D01*
X153511250Y-75663750D02*
X153511250Y-78323750D01*
X153511250Y-78323750D02*
X135671250Y-78323750D01*
X153511250Y-75663750D02*
X135671250Y-75663750D01*
X135671250Y-75663750D02*
X135671250Y-78323750D01*
X156094202Y-96430375D02*
X154764202Y-96430375D01*
X156094202Y-95100375D02*
X156094202Y-96430375D01*
X156094202Y-93830375D02*
X153434202Y-93830375D01*
X153434202Y-93830375D02*
X153434202Y-86150375D01*
X156094202Y-93830375D02*
X156094202Y-86150375D01*
X156094202Y-86150375D02*
X153434202Y-86150375D01*
X121351552Y-95440715D02*
X121351552Y-96644843D01*
X123171552Y-95440715D02*
X123171552Y-96644843D01*
X58114000Y-90419422D02*
X58114000Y-90936578D01*
X56694000Y-90419422D02*
X56694000Y-90936578D01*
X63286646Y-83413231D02*
X63803802Y-83413231D01*
X63286646Y-81993231D02*
X63803802Y-81993231D01*
X58114000Y-94746578D02*
X58114000Y-94229422D01*
X56694000Y-94746578D02*
X56694000Y-94229422D01*
X63019113Y-106157070D02*
X63019113Y-106674226D01*
X64439113Y-106157070D02*
X64439113Y-106674226D01*
X72727321Y-106149262D02*
X72727321Y-106666418D01*
X74147321Y-106149262D02*
X74147321Y-106666418D01*
X72521578Y-82094000D02*
X72004422Y-82094000D01*
X72521578Y-83514000D02*
X72004422Y-83514000D01*
X57581474Y-104056922D02*
X57581474Y-104574078D01*
X59001474Y-104056922D02*
X59001474Y-104574078D01*
D10*
X67816569Y-83976861D02*
X67816569Y-84786385D01*
X67864188Y-84881623D01*
X67911807Y-84929242D01*
X68007045Y-84976861D01*
X68197521Y-84976861D01*
X68292759Y-84929242D01*
X68340378Y-84881623D01*
X68387997Y-84786385D01*
X68387997Y-83976861D01*
X68816569Y-84072100D02*
X68864188Y-84024481D01*
X68959426Y-83976861D01*
X69197521Y-83976861D01*
X69292759Y-84024481D01*
X69340378Y-84072100D01*
X69387997Y-84167338D01*
X69387997Y-84262576D01*
X69340378Y-84405433D01*
X68768950Y-84976861D01*
X69387997Y-84976861D01*
X68117279Y-108824391D02*
X68117279Y-109300581D01*
X67783946Y-108300581D02*
X68117279Y-108824391D01*
X68450612Y-108300581D01*
X69307755Y-109300581D02*
X68736327Y-109300581D01*
X69022041Y-109300581D02*
X69022041Y-108300581D01*
X68926803Y-108443439D01*
X68831565Y-108538677D01*
X68736327Y-108586296D01*
X114149404Y-100599630D02*
X114149404Y-101409154D01*
X114197023Y-101504392D01*
X114244642Y-101552011D01*
X114339880Y-101599630D01*
X114530357Y-101599630D01*
X114625595Y-101552011D01*
X114673214Y-101504392D01*
X114720833Y-101409154D01*
X114720833Y-100599630D01*
X115149404Y-101552011D02*
X115292261Y-101599630D01*
X115530357Y-101599630D01*
X115625595Y-101552011D01*
X115673214Y-101504392D01*
X115720833Y-101409154D01*
X115720833Y-101313916D01*
X115673214Y-101218678D01*
X115625595Y-101171059D01*
X115530357Y-101123440D01*
X115339880Y-101075821D01*
X115244642Y-101028202D01*
X115197023Y-100980583D01*
X115149404Y-100885345D01*
X115149404Y-100790107D01*
X115197023Y-100694869D01*
X115244642Y-100647250D01*
X115339880Y-100599630D01*
X115577976Y-100599630D01*
X115720833Y-100647250D01*
X116482738Y-101075821D02*
X116625595Y-101123440D01*
X116673214Y-101171059D01*
X116720833Y-101266297D01*
X116720833Y-101409154D01*
X116673214Y-101504392D01*
X116625595Y-101552011D01*
X116530357Y-101599630D01*
X116149404Y-101599630D01*
X116149404Y-100599630D01*
X116482738Y-100599630D01*
X116577976Y-100647250D01*
X116625595Y-100694869D01*
X116673214Y-100790107D01*
X116673214Y-100885345D01*
X116625595Y-100980583D01*
X116577976Y-101028202D01*
X116482738Y-101075821D01*
X116149404Y-101075821D01*
X117673214Y-101599630D02*
X117101785Y-101599630D01*
X117387500Y-101599630D02*
X117387500Y-100599630D01*
X117292261Y-100742488D01*
X117197023Y-100837726D01*
X117101785Y-100885345D01*
X112874130Y-90870904D02*
X113683654Y-90870904D01*
X113778892Y-90823285D01*
X113826511Y-90775666D01*
X113874130Y-90680428D01*
X113874130Y-90489952D01*
X113826511Y-90394714D01*
X113778892Y-90347095D01*
X113683654Y-90299476D01*
X112874130Y-90299476D01*
X113874130Y-89299476D02*
X113874130Y-89870904D01*
X113874130Y-89585190D02*
X112874130Y-89585190D01*
X113016988Y-89680428D01*
X113112226Y-89775666D01*
X113159845Y-89870904D01*
X50506261Y-94202083D02*
X50553880Y-94059226D01*
X50553880Y-93821130D01*
X50506261Y-93725892D01*
X50458642Y-93678273D01*
X50363404Y-93630654D01*
X50268166Y-93630654D01*
X50172928Y-93678273D01*
X50125309Y-93725892D01*
X50077690Y-93821130D01*
X50030071Y-94011607D01*
X49982452Y-94106845D01*
X49934833Y-94154464D01*
X49839595Y-94202083D01*
X49744357Y-94202083D01*
X49649119Y-94154464D01*
X49601500Y-94106845D01*
X49553880Y-94011607D01*
X49553880Y-93773511D01*
X49601500Y-93630654D01*
X49553880Y-93297321D02*
X50553880Y-93059226D01*
X49839595Y-92868750D01*
X50553880Y-92678273D01*
X49553880Y-92440178D01*
X50553880Y-91535416D02*
X50553880Y-92106845D01*
X50553880Y-91821130D02*
X49553880Y-91821130D01*
X49696738Y-91916369D01*
X49791976Y-92011607D01*
X49839595Y-92106845D01*
X147449539Y-89353773D02*
X147116206Y-88877583D01*
X146878110Y-89353773D02*
X146878110Y-88353773D01*
X147259063Y-88353773D01*
X147354301Y-88401393D01*
X147401920Y-88449012D01*
X147449539Y-88544250D01*
X147449539Y-88687107D01*
X147401920Y-88782345D01*
X147354301Y-88829964D01*
X147259063Y-88877583D01*
X146878110Y-88877583D01*
X147925729Y-89353773D02*
X148116206Y-89353773D01*
X148211444Y-89306154D01*
X148259063Y-89258535D01*
X148354301Y-89115678D01*
X148401920Y-88925202D01*
X148401920Y-88544250D01*
X148354301Y-88449012D01*
X148306682Y-88401393D01*
X148211444Y-88353773D01*
X148020967Y-88353773D01*
X147925729Y-88401393D01*
X147878110Y-88449012D01*
X147830491Y-88544250D01*
X147830491Y-88782345D01*
X147878110Y-88877583D01*
X147925729Y-88925202D01*
X148020967Y-88972821D01*
X148211444Y-88972821D01*
X148306682Y-88925202D01*
X148354301Y-88877583D01*
X148401920Y-88782345D01*
X147449539Y-93385023D02*
X147116206Y-92908833D01*
X146878110Y-93385023D02*
X146878110Y-92385023D01*
X147259063Y-92385023D01*
X147354301Y-92432643D01*
X147401920Y-92480262D01*
X147449539Y-92575500D01*
X147449539Y-92718357D01*
X147401920Y-92813595D01*
X147354301Y-92861214D01*
X147259063Y-92908833D01*
X146878110Y-92908833D01*
X148020967Y-92813595D02*
X147925729Y-92765976D01*
X147878110Y-92718357D01*
X147830491Y-92623119D01*
X147830491Y-92575500D01*
X147878110Y-92480262D01*
X147925729Y-92432643D01*
X148020967Y-92385023D01*
X148211444Y-92385023D01*
X148306682Y-92432643D01*
X148354301Y-92480262D01*
X148401920Y-92575500D01*
X148401920Y-92623119D01*
X148354301Y-92718357D01*
X148306682Y-92765976D01*
X148211444Y-92813595D01*
X148020967Y-92813595D01*
X147925729Y-92861214D01*
X147878110Y-92908833D01*
X147830491Y-93004071D01*
X147830491Y-93194547D01*
X147878110Y-93289785D01*
X147925729Y-93337404D01*
X148020967Y-93385023D01*
X148211444Y-93385023D01*
X148306682Y-93337404D01*
X148354301Y-93289785D01*
X148401920Y-93194547D01*
X148401920Y-93004071D01*
X148354301Y-92908833D01*
X148306682Y-92861214D01*
X148211444Y-92813595D01*
X147401039Y-97353773D02*
X147067706Y-96877583D01*
X146829610Y-97353773D02*
X146829610Y-96353773D01*
X147210563Y-96353773D01*
X147305801Y-96401393D01*
X147353420Y-96449012D01*
X147401039Y-96544250D01*
X147401039Y-96687107D01*
X147353420Y-96782345D01*
X147305801Y-96829964D01*
X147210563Y-96877583D01*
X146829610Y-96877583D01*
X147734372Y-96353773D02*
X148401039Y-96353773D01*
X147972467Y-97353773D01*
X55824380Y-104560666D02*
X55348190Y-104894000D01*
X55824380Y-105132095D02*
X54824380Y-105132095D01*
X54824380Y-104751142D01*
X54872000Y-104655904D01*
X54919619Y-104608285D01*
X55014857Y-104560666D01*
X55157714Y-104560666D01*
X55252952Y-104608285D01*
X55300571Y-104655904D01*
X55348190Y-104751142D01*
X55348190Y-105132095D01*
X54824380Y-103703523D02*
X54824380Y-103894000D01*
X54872000Y-103989238D01*
X54919619Y-104036857D01*
X55062476Y-104132095D01*
X55252952Y-104179714D01*
X55633904Y-104179714D01*
X55729142Y-104132095D01*
X55776761Y-104084476D01*
X55824380Y-103989238D01*
X55824380Y-103798761D01*
X55776761Y-103703523D01*
X55729142Y-103655904D01*
X55633904Y-103608285D01*
X55395809Y-103608285D01*
X55300571Y-103655904D01*
X55252952Y-103703523D01*
X55205333Y-103798761D01*
X55205333Y-103989238D01*
X55252952Y-104084476D01*
X55300571Y-104132095D01*
X55395809Y-104179714D01*
X79828380Y-90034166D02*
X79352190Y-90367500D01*
X79828380Y-90605595D02*
X78828380Y-90605595D01*
X78828380Y-90224642D01*
X78876000Y-90129404D01*
X78923619Y-90081785D01*
X79018857Y-90034166D01*
X79161714Y-90034166D01*
X79256952Y-90081785D01*
X79304571Y-90129404D01*
X79352190Y-90224642D01*
X79352190Y-90605595D01*
X78828380Y-89129404D02*
X78828380Y-89605595D01*
X79304571Y-89653214D01*
X79256952Y-89605595D01*
X79209333Y-89510357D01*
X79209333Y-89272261D01*
X79256952Y-89177023D01*
X79304571Y-89129404D01*
X79399809Y-89081785D01*
X79637904Y-89081785D01*
X79733142Y-89129404D01*
X79780761Y-89177023D01*
X79828380Y-89272261D01*
X79828380Y-89510357D01*
X79780761Y-89605595D01*
X79733142Y-89653214D01*
X108829600Y-96558630D02*
X108496267Y-96082440D01*
X108258171Y-96558630D02*
X108258171Y-95558630D01*
X108639124Y-95558630D01*
X108734362Y-95606250D01*
X108781981Y-95653869D01*
X108829600Y-95749107D01*
X108829600Y-95891964D01*
X108781981Y-95987202D01*
X108734362Y-96034821D01*
X108639124Y-96082440D01*
X108258171Y-96082440D01*
X109686743Y-95891964D02*
X109686743Y-96558630D01*
X109448647Y-95511011D02*
X109210552Y-96225297D01*
X109829600Y-96225297D01*
X108814600Y-93225880D02*
X108481267Y-92749690D01*
X108243171Y-93225880D02*
X108243171Y-92225880D01*
X108624124Y-92225880D01*
X108719362Y-92273500D01*
X108766981Y-92321119D01*
X108814600Y-92416357D01*
X108814600Y-92559214D01*
X108766981Y-92654452D01*
X108719362Y-92702071D01*
X108624124Y-92749690D01*
X108243171Y-92749690D01*
X109147933Y-92225880D02*
X109766981Y-92225880D01*
X109433647Y-92606833D01*
X109576505Y-92606833D01*
X109671743Y-92654452D01*
X109719362Y-92702071D01*
X109766981Y-92797309D01*
X109766981Y-93035404D01*
X109719362Y-93130642D01*
X109671743Y-93178261D01*
X109576505Y-93225880D01*
X109290790Y-93225880D01*
X109195552Y-93178261D01*
X109147933Y-93130642D01*
X120245130Y-96133240D02*
X119768940Y-96466574D01*
X120245130Y-96704669D02*
X119245130Y-96704669D01*
X119245130Y-96323716D01*
X119292750Y-96228478D01*
X119340369Y-96180859D01*
X119435607Y-96133240D01*
X119578464Y-96133240D01*
X119673702Y-96180859D01*
X119721321Y-96228478D01*
X119768940Y-96323716D01*
X119768940Y-96704669D01*
X119340369Y-95752288D02*
X119292750Y-95704669D01*
X119245130Y-95609431D01*
X119245130Y-95371335D01*
X119292750Y-95276097D01*
X119340369Y-95228478D01*
X119435607Y-95180859D01*
X119530845Y-95180859D01*
X119673702Y-95228478D01*
X120245130Y-95799907D01*
X120245130Y-95180859D01*
X116308130Y-96178666D02*
X115831940Y-96512000D01*
X116308130Y-96750095D02*
X115308130Y-96750095D01*
X115308130Y-96369142D01*
X115355750Y-96273904D01*
X115403369Y-96226285D01*
X115498607Y-96178666D01*
X115641464Y-96178666D01*
X115736702Y-96226285D01*
X115784321Y-96273904D01*
X115831940Y-96369142D01*
X115831940Y-96750095D01*
X116308130Y-95226285D02*
X116308130Y-95797714D01*
X116308130Y-95512000D02*
X115308130Y-95512000D01*
X115450988Y-95607238D01*
X115546226Y-95702476D01*
X115593845Y-95797714D01*
X124972380Y-77327083D02*
X125686666Y-77327083D01*
X125829523Y-77374702D01*
X125924761Y-77469940D01*
X125972380Y-77612797D01*
X125972380Y-77708035D01*
X124972380Y-76946130D02*
X124972380Y-76327083D01*
X125353333Y-76660416D01*
X125353333Y-76517559D01*
X125400952Y-76422321D01*
X125448571Y-76374702D01*
X125543809Y-76327083D01*
X125781904Y-76327083D01*
X125877142Y-76374702D01*
X125924761Y-76422321D01*
X125972380Y-76517559D01*
X125972380Y-76803273D01*
X125924761Y-76898511D01*
X125877142Y-76946130D01*
X156563630Y-77327083D02*
X157277916Y-77327083D01*
X157420773Y-77374702D01*
X157516011Y-77469940D01*
X157563630Y-77612797D01*
X157563630Y-77708035D01*
X156658869Y-76898511D02*
X156611250Y-76850892D01*
X156563630Y-76755654D01*
X156563630Y-76517559D01*
X156611250Y-76422321D01*
X156658869Y-76374702D01*
X156754107Y-76327083D01*
X156849345Y-76327083D01*
X156992202Y-76374702D01*
X157563630Y-76946130D01*
X157563630Y-76327083D01*
X154430868Y-96882755D02*
X154430868Y-97597041D01*
X154383249Y-97739898D01*
X154288011Y-97835136D01*
X154145154Y-97882755D01*
X154049916Y-97882755D01*
X155430868Y-97882755D02*
X154859440Y-97882755D01*
X155145154Y-97882755D02*
X155145154Y-96882755D01*
X155049916Y-97025613D01*
X154954678Y-97120851D01*
X154859440Y-97168470D01*
X124010123Y-96376112D02*
X124010123Y-96709445D01*
X124533932Y-96709445D02*
X123533932Y-96709445D01*
X123533932Y-96233255D01*
X124533932Y-95328493D02*
X124533932Y-95899921D01*
X124533932Y-95614207D02*
X123533932Y-95614207D01*
X123676790Y-95709445D01*
X123772028Y-95804683D01*
X123819647Y-95899921D01*
X59411142Y-90844666D02*
X59458761Y-90892285D01*
X59506380Y-91035142D01*
X59506380Y-91130380D01*
X59458761Y-91273238D01*
X59363523Y-91368476D01*
X59268285Y-91416095D01*
X59077809Y-91463714D01*
X58934952Y-91463714D01*
X58744476Y-91416095D01*
X58649238Y-91368476D01*
X58554000Y-91273238D01*
X58506380Y-91130380D01*
X58506380Y-91035142D01*
X58554000Y-90892285D01*
X58601619Y-90844666D01*
X58506380Y-90511333D02*
X58506380Y-89844666D01*
X59506380Y-90273238D01*
X63395307Y-84743123D02*
X63347688Y-84790742D01*
X63204831Y-84838361D01*
X63109593Y-84838361D01*
X62966735Y-84790742D01*
X62871497Y-84695504D01*
X62823878Y-84600266D01*
X62776259Y-84409790D01*
X62776259Y-84266933D01*
X62823878Y-84076457D01*
X62871497Y-83981219D01*
X62966735Y-83885981D01*
X63109593Y-83838361D01*
X63204831Y-83838361D01*
X63347688Y-83885981D01*
X63395307Y-83933600D01*
X64252450Y-83838361D02*
X64061974Y-83838361D01*
X63966735Y-83885981D01*
X63919116Y-83933600D01*
X63823878Y-84076457D01*
X63776259Y-84266933D01*
X63776259Y-84647885D01*
X63823878Y-84743123D01*
X63871497Y-84790742D01*
X63966735Y-84838361D01*
X64157212Y-84838361D01*
X64252450Y-84790742D01*
X64300069Y-84743123D01*
X64347688Y-84647885D01*
X64347688Y-84409790D01*
X64300069Y-84314552D01*
X64252450Y-84266933D01*
X64157212Y-84219314D01*
X63966735Y-84219314D01*
X63871497Y-84266933D01*
X63823878Y-84314552D01*
X63776259Y-84409790D01*
X59412142Y-94668140D02*
X59459761Y-94715759D01*
X59507380Y-94858616D01*
X59507380Y-94953854D01*
X59459761Y-95096712D01*
X59364523Y-95191950D01*
X59269285Y-95239569D01*
X59078809Y-95287188D01*
X58935952Y-95287188D01*
X58745476Y-95239569D01*
X58650238Y-95191950D01*
X58555000Y-95096712D01*
X58507380Y-94953854D01*
X58507380Y-94858616D01*
X58555000Y-94715759D01*
X58602619Y-94668140D01*
X58507380Y-93763378D02*
X58507380Y-94239569D01*
X58983571Y-94287188D01*
X58935952Y-94239569D01*
X58888333Y-94144331D01*
X58888333Y-93906235D01*
X58935952Y-93810997D01*
X58983571Y-93763378D01*
X59078809Y-93715759D01*
X59316904Y-93715759D01*
X59412142Y-93763378D01*
X59459761Y-93810997D01*
X59507380Y-93906235D01*
X59507380Y-94144331D01*
X59459761Y-94239569D01*
X59412142Y-94287188D01*
X65762142Y-106592666D02*
X65809761Y-106640285D01*
X65857380Y-106783142D01*
X65857380Y-106878380D01*
X65809761Y-107021238D01*
X65714523Y-107116476D01*
X65619285Y-107164095D01*
X65428809Y-107211714D01*
X65285952Y-107211714D01*
X65095476Y-107164095D01*
X65000238Y-107116476D01*
X64905000Y-107021238D01*
X64857380Y-106878380D01*
X64857380Y-106783142D01*
X64905000Y-106640285D01*
X64952619Y-106592666D01*
X65190714Y-105735523D02*
X65857380Y-105735523D01*
X64809761Y-105973619D02*
X65524047Y-106211714D01*
X65524047Y-105592666D01*
X75444463Y-106574506D02*
X75492082Y-106622125D01*
X75539701Y-106764982D01*
X75539701Y-106860220D01*
X75492082Y-107003078D01*
X75396844Y-107098316D01*
X75301606Y-107145935D01*
X75111130Y-107193554D01*
X74968273Y-107193554D01*
X74777797Y-107145935D01*
X74682559Y-107098316D01*
X74587321Y-107003078D01*
X74539701Y-106860220D01*
X74539701Y-106764982D01*
X74587321Y-106622125D01*
X74634940Y-106574506D01*
X74539701Y-106241173D02*
X74539701Y-105622125D01*
X74920654Y-105955459D01*
X74920654Y-105812601D01*
X74968273Y-105717363D01*
X75015892Y-105669744D01*
X75111130Y-105622125D01*
X75349225Y-105622125D01*
X75444463Y-105669744D01*
X75492082Y-105717363D01*
X75539701Y-105812601D01*
X75539701Y-106098316D01*
X75492082Y-106193554D01*
X75444463Y-106241173D01*
X72096333Y-84811142D02*
X72048714Y-84858761D01*
X71905857Y-84906380D01*
X71810619Y-84906380D01*
X71667761Y-84858761D01*
X71572523Y-84763523D01*
X71524904Y-84668285D01*
X71477285Y-84477809D01*
X71477285Y-84334952D01*
X71524904Y-84144476D01*
X71572523Y-84049238D01*
X71667761Y-83954000D01*
X71810619Y-83906380D01*
X71905857Y-83906380D01*
X72048714Y-83954000D01*
X72096333Y-84001619D01*
X72477285Y-84001619D02*
X72524904Y-83954000D01*
X72620142Y-83906380D01*
X72858238Y-83906380D01*
X72953476Y-83954000D01*
X73001095Y-84001619D01*
X73048714Y-84096857D01*
X73048714Y-84192095D01*
X73001095Y-84334952D01*
X72429666Y-84906380D01*
X73048714Y-84906380D01*
X60298616Y-104482166D02*
X60346235Y-104529785D01*
X60393854Y-104672642D01*
X60393854Y-104767880D01*
X60346235Y-104910738D01*
X60250997Y-105005976D01*
X60155759Y-105053595D01*
X59965283Y-105101214D01*
X59822426Y-105101214D01*
X59631950Y-105053595D01*
X59536712Y-105005976D01*
X59441474Y-104910738D01*
X59393854Y-104767880D01*
X59393854Y-104672642D01*
X59441474Y-104529785D01*
X59489093Y-104482166D01*
X60393854Y-103529785D02*
X60393854Y-104101214D01*
X60393854Y-103815500D02*
X59393854Y-103815500D01*
X59536712Y-103910738D01*
X59631950Y-104005976D01*
X59679569Y-104101214D01*
M02*
