M48
; DRILL file {KiCad (5.1.4)-1} date 11/16/2019 2:40:28 PM
; FORMAT={-:-/ absolute / inch / decimal}
; #@! TF.CreationDate,2019-11-16T14:40:28-08:00
; #@! TF.GenerationSoftware,Kicad,Pcbnew,(5.1.4)-1
; #@! TF.FileFunction,Plated,1,2,PTH
FMAT,2
INCH
T1C0.0157
T2C0.0236
T3C0.0394
%
G90
G05
T1
X2.11Y-4.225
X2.315Y-3.74
X2.3176Y-3.5
X2.32Y-3.46
X2.32Y-3.575
X2.505Y-3.59
X2.555Y-3.325
X2.555Y-3.885
X2.5949Y-3.3256
X2.5959Y-3.2341
X2.6341Y-3.3116
X2.6746Y-3.2964
X2.7151Y-3.2812
X2.7252Y-3.645
X2.7457Y-3.3334
X2.7538Y-3.2701
X2.7878Y-3.3318
X2.89Y-3.3237
X2.9263Y-3.3416
X3.0942Y-4.1369
X3.0944Y-4.0966
X3.0949Y-4.0566
X3.0976Y-4.0173
X3.1Y-3.3595
X3.1005Y-3.9781
X3.1345Y-3.3785
X3.1661Y-3.4019
X3.1803Y-3.4387
X3.25Y-3.625
X3.25Y-3.6644
X3.25Y-3.71
X3.25Y-3.755
X3.25Y-3.8
X3.25Y-3.845
X3.25Y-3.89
X3.25Y-3.935
X4.5213Y-3.645
X4.5462Y-3.88
X4.5462Y-3.93
X4.5862Y-3.65
T3
X5.3937Y-3.0312
X5.4937Y-3.0312
X5.5938Y-3.0312
X5.6937Y-3.0312
X5.7938Y-3.0312
X5.8937Y-3.0312
X5.9937Y-3.0312
X6.0938Y-3.0312
X6.0973Y-3.6261
X6.0973Y-3.7261
X6.0973Y-3.8261
X6.0973Y-3.9261
X3.35Y-3.0312
X3.45Y-3.0312
X3.55Y-3.0312
X3.65Y-3.0312
X3.75Y-3.0312
X3.85Y-3.0312
X3.95Y-3.0312
X4.05Y-3.0312
X4.15Y-3.0312
X4.25Y-3.0312
X4.35Y-3.0312
X4.45Y-3.0312
X4.55Y-3.0312
X4.65Y-3.0312
X4.75Y-3.0312
X4.85Y-3.0312
T2
G00X4.3924Y-4.0952
M15
G01X4.3924Y-4.1385
M16
G05
G00X4.3924Y-4.2696
M15
G01X4.3924Y-4.2932
M16
G05
G00X4.7326Y-4.0952
M15
G01X4.7326Y-4.1385
M16
G05
G00X4.7326Y-4.2696
M15
G01X4.7326Y-4.2932
M16
G05
T0
M30
