G04 #@! TF.GenerationSoftware,KiCad,Pcbnew,(5.1.4)-1*
G04 #@! TF.CreationDate,2019-11-13T22:44:39-08:00*
G04 #@! TF.ProjectId,controller,636f6e74-726f-46c6-9c65-722e6b696361,rev?*
G04 #@! TF.SameCoordinates,Original*
G04 #@! TF.FileFunction,Soldermask,Top*
G04 #@! TF.FilePolarity,Negative*
%FSLAX46Y46*%
G04 Gerber Fmt 4.6, Leading zero omitted, Abs format (unit mm)*
G04 Created by KiCad (PCBNEW (5.1.4)-1) date 2019-11-13 22:44:39*
%MOMM*%
%LPD*%
G04 APERTURE LIST*
%ADD10C,0.100000*%
G04 APERTURE END LIST*
D10*
G36*
X70444470Y-107899201D02*
G01*
X68942470Y-107899201D01*
X68942470Y-106597201D01*
X70444470Y-106597201D01*
X70444470Y-107899201D01*
X70444470Y-107899201D01*
G37*
G36*
X68244470Y-107899201D02*
G01*
X66742470Y-107899201D01*
X66742470Y-106597201D01*
X68244470Y-106597201D01*
X68244470Y-107899201D01*
X68244470Y-107899201D01*
G37*
G36*
X64313581Y-106819213D02*
G01*
X64352251Y-106830944D01*
X64387890Y-106849994D01*
X64419130Y-106875631D01*
X64444767Y-106906871D01*
X64463817Y-106942510D01*
X64475548Y-106981180D01*
X64480113Y-107027536D01*
X64480113Y-107678760D01*
X64475548Y-107725116D01*
X64463817Y-107763786D01*
X64444767Y-107799425D01*
X64419130Y-107830665D01*
X64387890Y-107856302D01*
X64352251Y-107875352D01*
X64313581Y-107887083D01*
X64267225Y-107891648D01*
X63191001Y-107891648D01*
X63144645Y-107887083D01*
X63105975Y-107875352D01*
X63070336Y-107856302D01*
X63039096Y-107830665D01*
X63013459Y-107799425D01*
X62994409Y-107763786D01*
X62982678Y-107725116D01*
X62978113Y-107678760D01*
X62978113Y-107027536D01*
X62982678Y-106981180D01*
X62994409Y-106942510D01*
X63013459Y-106906871D01*
X63039096Y-106875631D01*
X63070336Y-106849994D01*
X63105975Y-106830944D01*
X63144645Y-106819213D01*
X63191001Y-106814648D01*
X64267225Y-106814648D01*
X64313581Y-106819213D01*
X64313581Y-106819213D01*
G37*
G36*
X74021789Y-106811405D02*
G01*
X74060459Y-106823136D01*
X74096097Y-106842185D01*
X74127338Y-106867823D01*
X74152975Y-106899063D01*
X74172025Y-106934702D01*
X74183756Y-106973372D01*
X74188321Y-107019728D01*
X74188321Y-107670952D01*
X74183756Y-107717308D01*
X74172025Y-107755978D01*
X74152975Y-107791617D01*
X74127338Y-107822857D01*
X74096098Y-107848494D01*
X74060459Y-107867544D01*
X74021789Y-107879275D01*
X73975433Y-107883840D01*
X72899209Y-107883840D01*
X72852853Y-107879275D01*
X72814183Y-107867544D01*
X72778544Y-107848494D01*
X72747304Y-107822857D01*
X72721667Y-107791617D01*
X72702617Y-107755978D01*
X72690886Y-107717308D01*
X72686321Y-107670952D01*
X72686321Y-107019728D01*
X72690886Y-106973372D01*
X72702617Y-106934702D01*
X72721667Y-106899063D01*
X72747304Y-106867823D01*
X72778545Y-106842185D01*
X72814183Y-106823136D01*
X72852853Y-106811405D01*
X72899209Y-106806840D01*
X73975433Y-106806840D01*
X74021789Y-106811405D01*
X74021789Y-106811405D01*
G37*
G36*
X70444470Y-106199201D02*
G01*
X68942470Y-106199201D01*
X68942470Y-104897201D01*
X70444470Y-104897201D01*
X70444470Y-106199201D01*
X70444470Y-106199201D01*
G37*
G36*
X68244470Y-106199201D02*
G01*
X66742470Y-106199201D01*
X66742470Y-104897201D01*
X68244470Y-104897201D01*
X68244470Y-106199201D01*
X68244470Y-106199201D01*
G37*
G36*
X64313581Y-104944213D02*
G01*
X64352251Y-104955944D01*
X64387890Y-104974994D01*
X64419130Y-105000631D01*
X64444767Y-105031871D01*
X64463817Y-105067510D01*
X64475548Y-105106180D01*
X64480113Y-105152536D01*
X64480113Y-105803760D01*
X64475548Y-105850116D01*
X64463817Y-105888786D01*
X64444767Y-105924425D01*
X64419130Y-105955665D01*
X64387890Y-105981302D01*
X64352251Y-106000352D01*
X64313581Y-106012083D01*
X64267225Y-106016648D01*
X63191001Y-106016648D01*
X63144645Y-106012083D01*
X63105975Y-106000352D01*
X63070336Y-105981302D01*
X63039096Y-105955665D01*
X63013459Y-105924425D01*
X62994409Y-105888786D01*
X62982678Y-105850116D01*
X62978113Y-105803760D01*
X62978113Y-105152536D01*
X62982678Y-105106180D01*
X62994409Y-105067510D01*
X63013459Y-105031871D01*
X63039096Y-105000631D01*
X63070336Y-104974994D01*
X63105975Y-104955944D01*
X63144645Y-104944213D01*
X63191001Y-104939648D01*
X64267225Y-104939648D01*
X64313581Y-104944213D01*
X64313581Y-104944213D01*
G37*
G36*
X74021789Y-104936405D02*
G01*
X74060459Y-104948136D01*
X74096097Y-104967185D01*
X74127338Y-104992823D01*
X74152975Y-105024063D01*
X74172025Y-105059702D01*
X74183756Y-105098372D01*
X74188321Y-105144728D01*
X74188321Y-105795952D01*
X74183756Y-105842308D01*
X74172025Y-105880978D01*
X74152975Y-105916617D01*
X74127338Y-105947857D01*
X74096098Y-105973494D01*
X74060459Y-105992544D01*
X74021789Y-106004275D01*
X73975433Y-106008840D01*
X72899209Y-106008840D01*
X72852853Y-106004275D01*
X72814183Y-105992544D01*
X72778544Y-105973494D01*
X72747304Y-105947857D01*
X72721667Y-105916617D01*
X72702617Y-105880978D01*
X72690886Y-105842308D01*
X72686321Y-105795952D01*
X72686321Y-105144728D01*
X72690886Y-105098372D01*
X72702617Y-105059702D01*
X72721667Y-105024063D01*
X72747304Y-104992823D01*
X72778545Y-104967185D01*
X72814183Y-104948136D01*
X72852853Y-104936405D01*
X72899209Y-104931840D01*
X73975433Y-104931840D01*
X74021789Y-104936405D01*
X74021789Y-104936405D01*
G37*
G36*
X54178468Y-104749065D02*
G01*
X54217138Y-104760796D01*
X54252777Y-104779846D01*
X54284017Y-104805483D01*
X54309654Y-104836723D01*
X54328704Y-104872362D01*
X54340435Y-104911032D01*
X54345000Y-104957388D01*
X54345000Y-105608612D01*
X54340435Y-105654968D01*
X54328704Y-105693638D01*
X54309654Y-105729277D01*
X54284017Y-105760517D01*
X54252777Y-105786154D01*
X54217138Y-105805204D01*
X54178468Y-105816935D01*
X54132112Y-105821500D01*
X53055888Y-105821500D01*
X53009532Y-105816935D01*
X52970862Y-105805204D01*
X52935223Y-105786154D01*
X52903983Y-105760517D01*
X52878346Y-105729277D01*
X52859296Y-105693638D01*
X52847565Y-105654968D01*
X52843000Y-105608612D01*
X52843000Y-104957388D01*
X52847565Y-104911032D01*
X52859296Y-104872362D01*
X52878346Y-104836723D01*
X52903983Y-104805483D01*
X52935223Y-104779846D01*
X52970862Y-104760796D01*
X53009532Y-104749065D01*
X53055888Y-104744500D01*
X54132112Y-104744500D01*
X54178468Y-104749065D01*
X54178468Y-104749065D01*
G37*
G36*
X58875942Y-104719065D02*
G01*
X58914612Y-104730796D01*
X58950251Y-104749846D01*
X58981491Y-104775483D01*
X59007128Y-104806723D01*
X59026178Y-104842362D01*
X59037909Y-104881032D01*
X59042474Y-104927388D01*
X59042474Y-105578612D01*
X59037909Y-105624968D01*
X59026178Y-105663638D01*
X59007128Y-105699277D01*
X58981491Y-105730517D01*
X58950251Y-105756154D01*
X58914612Y-105775204D01*
X58875942Y-105786935D01*
X58829586Y-105791500D01*
X57753362Y-105791500D01*
X57707006Y-105786935D01*
X57668336Y-105775204D01*
X57632697Y-105756154D01*
X57601457Y-105730517D01*
X57575820Y-105699277D01*
X57556770Y-105663638D01*
X57545039Y-105624968D01*
X57540474Y-105578612D01*
X57540474Y-104927388D01*
X57545039Y-104881032D01*
X57556770Y-104842362D01*
X57575820Y-104806723D01*
X57601457Y-104775483D01*
X57632697Y-104749846D01*
X57668336Y-104730796D01*
X57707006Y-104719065D01*
X57753362Y-104714500D01*
X58829586Y-104714500D01*
X58875942Y-104719065D01*
X58875942Y-104719065D01*
G37*
G36*
X113107172Y-104735699D02*
G01*
X113107174Y-104735700D01*
X113107175Y-104735700D01*
X113175603Y-104764043D01*
X113237186Y-104805192D01*
X113289558Y-104857564D01*
X113330707Y-104919147D01*
X113357994Y-104985025D01*
X113359051Y-104987578D01*
X113373500Y-105060216D01*
X113373500Y-105134284D01*
X113369107Y-105156370D01*
X113359050Y-105206925D01*
X113330707Y-105275353D01*
X113289558Y-105336936D01*
X113237186Y-105389308D01*
X113175603Y-105430457D01*
X113107175Y-105458800D01*
X113107174Y-105458800D01*
X113107172Y-105458801D01*
X113034534Y-105473250D01*
X112960466Y-105473250D01*
X112887828Y-105458801D01*
X112887826Y-105458800D01*
X112887825Y-105458800D01*
X112819397Y-105430457D01*
X112757814Y-105389308D01*
X112705442Y-105336936D01*
X112664293Y-105275353D01*
X112635950Y-105206925D01*
X112625894Y-105156370D01*
X112621500Y-105134284D01*
X112621500Y-105060216D01*
X112635949Y-104987578D01*
X112637006Y-104985025D01*
X112664293Y-104919147D01*
X112705442Y-104857564D01*
X112757814Y-104805192D01*
X112819397Y-104764043D01*
X112887825Y-104735700D01*
X112887826Y-104735700D01*
X112887828Y-104735699D01*
X112960466Y-104721250D01*
X113034534Y-104721250D01*
X113107172Y-104735699D01*
X113107172Y-104735699D01*
G37*
G36*
X118887172Y-104735699D02*
G01*
X118887174Y-104735700D01*
X118887175Y-104735700D01*
X118955603Y-104764043D01*
X119017186Y-104805192D01*
X119069558Y-104857564D01*
X119110707Y-104919147D01*
X119137994Y-104985025D01*
X119139051Y-104987578D01*
X119153500Y-105060216D01*
X119153500Y-105134284D01*
X119149107Y-105156370D01*
X119139050Y-105206925D01*
X119110707Y-105275353D01*
X119069558Y-105336936D01*
X119017186Y-105389308D01*
X118955603Y-105430457D01*
X118887175Y-105458800D01*
X118887174Y-105458800D01*
X118887172Y-105458801D01*
X118814534Y-105473250D01*
X118740466Y-105473250D01*
X118667828Y-105458801D01*
X118667826Y-105458800D01*
X118667825Y-105458800D01*
X118599397Y-105430457D01*
X118537814Y-105389308D01*
X118485442Y-105336936D01*
X118444293Y-105275353D01*
X118415950Y-105206925D01*
X118405894Y-105156370D01*
X118401500Y-105134284D01*
X118401500Y-105060216D01*
X118415949Y-104987578D01*
X118417006Y-104985025D01*
X118444293Y-104919147D01*
X118485442Y-104857564D01*
X118537814Y-104805192D01*
X118599397Y-104764043D01*
X118667825Y-104735700D01*
X118667826Y-104735700D01*
X118667828Y-104735699D01*
X118740466Y-104721250D01*
X118814534Y-104721250D01*
X118887172Y-104735699D01*
X118887172Y-104735699D01*
G37*
G36*
X119463500Y-104428250D02*
G01*
X112311500Y-104428250D01*
X112311500Y-101876250D01*
X119463500Y-101876250D01*
X119463500Y-104428250D01*
X119463500Y-104428250D01*
G37*
G36*
X54178468Y-102874065D02*
G01*
X54217138Y-102885796D01*
X54252777Y-102904846D01*
X54284017Y-102930483D01*
X54309654Y-102961723D01*
X54328704Y-102997362D01*
X54340435Y-103036032D01*
X54345000Y-103082388D01*
X54345000Y-103733612D01*
X54340435Y-103779968D01*
X54328704Y-103818638D01*
X54309654Y-103854277D01*
X54284017Y-103885517D01*
X54252777Y-103911154D01*
X54217138Y-103930204D01*
X54178468Y-103941935D01*
X54132112Y-103946500D01*
X53055888Y-103946500D01*
X53009532Y-103941935D01*
X52970862Y-103930204D01*
X52935223Y-103911154D01*
X52903983Y-103885517D01*
X52878346Y-103854277D01*
X52859296Y-103818638D01*
X52847565Y-103779968D01*
X52843000Y-103733612D01*
X52843000Y-103082388D01*
X52847565Y-103036032D01*
X52859296Y-102997362D01*
X52878346Y-102961723D01*
X52903983Y-102930483D01*
X52935223Y-102904846D01*
X52970862Y-102885796D01*
X53009532Y-102874065D01*
X53055888Y-102869500D01*
X54132112Y-102869500D01*
X54178468Y-102874065D01*
X54178468Y-102874065D01*
G37*
G36*
X58875942Y-102844065D02*
G01*
X58914612Y-102855796D01*
X58950251Y-102874846D01*
X58981491Y-102900483D01*
X59007128Y-102931723D01*
X59026178Y-102967362D01*
X59037909Y-103006032D01*
X59042474Y-103052388D01*
X59042474Y-103703612D01*
X59037909Y-103749968D01*
X59026178Y-103788638D01*
X59007128Y-103824277D01*
X58981491Y-103855517D01*
X58950251Y-103881154D01*
X58914612Y-103900204D01*
X58875942Y-103911935D01*
X58829586Y-103916500D01*
X57753362Y-103916500D01*
X57707006Y-103911935D01*
X57668336Y-103900204D01*
X57632697Y-103881154D01*
X57601457Y-103855517D01*
X57575820Y-103824277D01*
X57556770Y-103788638D01*
X57545039Y-103749968D01*
X57540474Y-103703612D01*
X57540474Y-103052388D01*
X57545039Y-103006032D01*
X57556770Y-102967362D01*
X57575820Y-102931723D01*
X57601457Y-102900483D01*
X57632697Y-102874846D01*
X57668336Y-102855796D01*
X57707006Y-102844065D01*
X57753362Y-102839500D01*
X58829586Y-102839500D01*
X58875942Y-102844065D01*
X58875942Y-102844065D01*
G37*
G36*
X74904474Y-102475481D02*
G01*
X62252474Y-102475481D01*
X62252474Y-100873481D01*
X74904474Y-100873481D01*
X74904474Y-102475481D01*
X74904474Y-102475481D01*
G37*
G36*
X77079474Y-100300481D02*
G01*
X75477474Y-100300481D01*
X75477474Y-87648481D01*
X77079474Y-87648481D01*
X77079474Y-100300481D01*
X77079474Y-100300481D01*
G37*
G36*
X61679474Y-100300481D02*
G01*
X60077474Y-100300481D01*
X60077474Y-87648481D01*
X61679474Y-87648481D01*
X61679474Y-100300481D01*
X61679474Y-100300481D01*
G37*
G36*
X123030156Y-96771126D02*
G01*
X123066696Y-96782211D01*
X123100373Y-96800212D01*
X123129893Y-96824438D01*
X123154119Y-96853958D01*
X123172120Y-96887635D01*
X123183205Y-96924175D01*
X123187552Y-96968317D01*
X123187552Y-97917241D01*
X123183205Y-97961383D01*
X123172120Y-97997923D01*
X123154119Y-98031600D01*
X123129893Y-98061120D01*
X123100373Y-98085346D01*
X123066696Y-98103347D01*
X123030156Y-98114432D01*
X122986014Y-98118779D01*
X121537090Y-98118779D01*
X121492948Y-98114432D01*
X121456408Y-98103347D01*
X121422731Y-98085346D01*
X121393211Y-98061120D01*
X121368985Y-98031600D01*
X121350984Y-97997923D01*
X121339899Y-97961383D01*
X121335552Y-97917241D01*
X121335552Y-96968317D01*
X121339899Y-96924175D01*
X121350984Y-96887635D01*
X121368985Y-96853958D01*
X121393211Y-96824438D01*
X121422731Y-96800212D01*
X121456408Y-96782211D01*
X121492948Y-96771126D01*
X121537090Y-96766779D01*
X122986014Y-96766779D01*
X123030156Y-96771126D01*
X123030156Y-96771126D01*
G37*
G36*
X118447326Y-96370139D02*
G01*
X118485996Y-96381870D01*
X118521635Y-96400920D01*
X118552875Y-96426557D01*
X118578512Y-96457797D01*
X118597562Y-96493436D01*
X118609293Y-96532106D01*
X118613858Y-96578462D01*
X118613858Y-97229686D01*
X118609293Y-97276042D01*
X118597562Y-97314712D01*
X118578512Y-97350351D01*
X118552875Y-97381591D01*
X118521635Y-97407228D01*
X118485996Y-97426278D01*
X118447326Y-97438009D01*
X118400970Y-97442574D01*
X117324746Y-97442574D01*
X117278390Y-97438009D01*
X117239720Y-97426278D01*
X117204081Y-97407228D01*
X117172841Y-97381591D01*
X117147204Y-97350351D01*
X117128154Y-97314712D01*
X117116423Y-97276042D01*
X117111858Y-97229686D01*
X117111858Y-96578462D01*
X117116423Y-96532106D01*
X117128154Y-96493436D01*
X117147204Y-96457797D01*
X117172841Y-96426557D01*
X117204081Y-96400920D01*
X117239720Y-96381870D01*
X117278390Y-96370139D01*
X117324746Y-96365574D01*
X118400970Y-96365574D01*
X118447326Y-96370139D01*
X118447326Y-96370139D01*
G37*
G36*
X114478576Y-96370139D02*
G01*
X114517246Y-96381870D01*
X114552885Y-96400920D01*
X114584125Y-96426557D01*
X114609762Y-96457797D01*
X114628812Y-96493436D01*
X114640543Y-96532106D01*
X114645108Y-96578462D01*
X114645108Y-97229686D01*
X114640543Y-97276042D01*
X114628812Y-97314712D01*
X114609762Y-97350351D01*
X114584125Y-97381591D01*
X114552885Y-97407228D01*
X114517246Y-97426278D01*
X114478576Y-97438009D01*
X114432220Y-97442574D01*
X113355996Y-97442574D01*
X113309640Y-97438009D01*
X113270970Y-97426278D01*
X113235331Y-97407228D01*
X113204091Y-97381591D01*
X113178454Y-97350351D01*
X113159404Y-97314712D01*
X113147673Y-97276042D01*
X113143108Y-97229686D01*
X113143108Y-96578462D01*
X113147673Y-96532106D01*
X113159404Y-96493436D01*
X113178454Y-96457797D01*
X113204091Y-96426557D01*
X113235331Y-96400920D01*
X113270970Y-96381870D01*
X113309640Y-96370139D01*
X113355996Y-96365574D01*
X114432220Y-96365574D01*
X114478576Y-96370139D01*
X114478576Y-96370139D01*
G37*
G36*
X48488500Y-96919750D02*
G01*
X47286500Y-96919750D01*
X47286500Y-95017750D01*
X48488500Y-95017750D01*
X48488500Y-96919750D01*
X48488500Y-96919750D01*
G37*
G36*
X44788500Y-96919750D02*
G01*
X43586500Y-96919750D01*
X43586500Y-95017750D01*
X44788500Y-95017750D01*
X44788500Y-96919750D01*
X44788500Y-96919750D01*
G37*
G36*
X148877174Y-94504958D02*
G01*
X148915844Y-94516689D01*
X148951483Y-94535739D01*
X148982723Y-94561376D01*
X149008360Y-94592616D01*
X149027410Y-94628255D01*
X149039141Y-94666925D01*
X149043706Y-94713281D01*
X149043706Y-95789505D01*
X149039141Y-95835861D01*
X149027410Y-95874531D01*
X149008360Y-95910170D01*
X148982723Y-95941410D01*
X148951483Y-95967047D01*
X148915844Y-95986097D01*
X148877174Y-95997828D01*
X148830818Y-96002393D01*
X148179594Y-96002393D01*
X148133238Y-95997828D01*
X148094568Y-95986097D01*
X148058929Y-95967047D01*
X148027689Y-95941410D01*
X148002052Y-95910170D01*
X147983002Y-95874531D01*
X147971271Y-95835861D01*
X147966706Y-95789505D01*
X147966706Y-94713281D01*
X147971271Y-94666925D01*
X147983002Y-94628255D01*
X148002052Y-94592616D01*
X148027689Y-94561376D01*
X148058929Y-94535739D01*
X148094568Y-94516689D01*
X148133238Y-94504958D01*
X148179594Y-94500393D01*
X148830818Y-94500393D01*
X148877174Y-94504958D01*
X148877174Y-94504958D01*
G37*
G36*
X147002174Y-94504958D02*
G01*
X147040844Y-94516689D01*
X147076483Y-94535739D01*
X147107723Y-94561376D01*
X147133360Y-94592616D01*
X147152410Y-94628255D01*
X147164141Y-94666925D01*
X147168706Y-94713281D01*
X147168706Y-95789505D01*
X147164141Y-95835861D01*
X147152410Y-95874531D01*
X147133360Y-95910170D01*
X147107723Y-95941410D01*
X147076483Y-95967047D01*
X147040844Y-95986097D01*
X147002174Y-95997828D01*
X146955818Y-96002393D01*
X146304594Y-96002393D01*
X146258238Y-95997828D01*
X146219568Y-95986097D01*
X146183929Y-95967047D01*
X146152689Y-95941410D01*
X146127052Y-95910170D01*
X146108002Y-95874531D01*
X146096271Y-95835861D01*
X146091706Y-95789505D01*
X146091706Y-94713281D01*
X146096271Y-94666925D01*
X146108002Y-94628255D01*
X146127052Y-94592616D01*
X146152689Y-94561376D01*
X146183929Y-94535739D01*
X146219568Y-94516689D01*
X146258238Y-94504958D01*
X146304594Y-94500393D01*
X146955818Y-94500393D01*
X147002174Y-94504958D01*
X147002174Y-94504958D01*
G37*
G36*
X155665202Y-96001375D02*
G01*
X153863202Y-96001375D01*
X153863202Y-94199375D01*
X155665202Y-94199375D01*
X155665202Y-96001375D01*
X155665202Y-96001375D01*
G37*
G36*
X57988468Y-94891565D02*
G01*
X58027138Y-94903296D01*
X58062777Y-94922346D01*
X58094017Y-94947983D01*
X58119654Y-94979223D01*
X58138704Y-95014862D01*
X58150435Y-95053532D01*
X58155000Y-95099888D01*
X58155000Y-95751112D01*
X58150435Y-95797468D01*
X58138704Y-95836138D01*
X58119654Y-95871777D01*
X58094017Y-95903017D01*
X58062777Y-95928654D01*
X58027138Y-95947704D01*
X57988468Y-95959435D01*
X57942112Y-95964000D01*
X56865888Y-95964000D01*
X56819532Y-95959435D01*
X56780862Y-95947704D01*
X56745223Y-95928654D01*
X56713983Y-95903017D01*
X56688346Y-95871777D01*
X56669296Y-95836138D01*
X56657565Y-95797468D01*
X56653000Y-95751112D01*
X56653000Y-95099888D01*
X56657565Y-95053532D01*
X56669296Y-95014862D01*
X56688346Y-94979223D01*
X56713983Y-94947983D01*
X56745223Y-94922346D01*
X56780862Y-94903296D01*
X56819532Y-94891565D01*
X56865888Y-94887000D01*
X57942112Y-94887000D01*
X57988468Y-94891565D01*
X57988468Y-94891565D01*
G37*
G36*
X114478576Y-94495139D02*
G01*
X114517246Y-94506870D01*
X114552885Y-94525920D01*
X114584125Y-94551557D01*
X114609762Y-94582797D01*
X114628812Y-94618436D01*
X114640543Y-94657106D01*
X114645108Y-94703462D01*
X114645108Y-95354686D01*
X114640543Y-95401042D01*
X114628812Y-95439712D01*
X114609762Y-95475351D01*
X114584125Y-95506591D01*
X114552885Y-95532228D01*
X114517246Y-95551278D01*
X114478576Y-95563009D01*
X114432220Y-95567574D01*
X113355996Y-95567574D01*
X113309640Y-95563009D01*
X113270970Y-95551278D01*
X113235331Y-95532228D01*
X113204091Y-95506591D01*
X113178454Y-95475351D01*
X113159404Y-95439712D01*
X113147673Y-95401042D01*
X113143108Y-95354686D01*
X113143108Y-94703462D01*
X113147673Y-94657106D01*
X113159404Y-94618436D01*
X113178454Y-94582797D01*
X113204091Y-94551557D01*
X113235331Y-94525920D01*
X113270970Y-94506870D01*
X113309640Y-94495139D01*
X113355996Y-94490574D01*
X114432220Y-94490574D01*
X114478576Y-94495139D01*
X114478576Y-94495139D01*
G37*
G36*
X118447326Y-94495139D02*
G01*
X118485996Y-94506870D01*
X118521635Y-94525920D01*
X118552875Y-94551557D01*
X118578512Y-94582797D01*
X118597562Y-94618436D01*
X118609293Y-94657106D01*
X118613858Y-94703462D01*
X118613858Y-95354686D01*
X118609293Y-95401042D01*
X118597562Y-95439712D01*
X118578512Y-95475351D01*
X118552875Y-95506591D01*
X118521635Y-95532228D01*
X118485996Y-95551278D01*
X118447326Y-95563009D01*
X118400970Y-95567574D01*
X117324746Y-95567574D01*
X117278390Y-95563009D01*
X117239720Y-95551278D01*
X117204081Y-95532228D01*
X117172841Y-95506591D01*
X117147204Y-95475351D01*
X117128154Y-95439712D01*
X117116423Y-95401042D01*
X117111858Y-95354686D01*
X117111858Y-94703462D01*
X117116423Y-94657106D01*
X117128154Y-94618436D01*
X117147204Y-94582797D01*
X117172841Y-94551557D01*
X117204081Y-94525920D01*
X117239720Y-94506870D01*
X117278390Y-94495139D01*
X117324746Y-94490574D01*
X118400970Y-94490574D01*
X118447326Y-94495139D01*
X118447326Y-94495139D01*
G37*
G36*
X123030156Y-93971126D02*
G01*
X123066696Y-93982211D01*
X123100373Y-94000212D01*
X123129893Y-94024438D01*
X123154119Y-94053958D01*
X123172120Y-94087635D01*
X123183205Y-94124175D01*
X123187552Y-94168317D01*
X123187552Y-95117241D01*
X123183205Y-95161383D01*
X123172120Y-95197923D01*
X123154119Y-95231600D01*
X123129893Y-95261120D01*
X123100373Y-95285346D01*
X123066696Y-95303347D01*
X123030156Y-95314432D01*
X122986014Y-95318779D01*
X121537090Y-95318779D01*
X121492948Y-95314432D01*
X121456408Y-95303347D01*
X121422731Y-95285346D01*
X121393211Y-95261120D01*
X121368985Y-95231600D01*
X121350984Y-95197923D01*
X121339899Y-95161383D01*
X121335552Y-95117241D01*
X121335552Y-94168317D01*
X121339899Y-94124175D01*
X121350984Y-94087635D01*
X121368985Y-94053958D01*
X121393211Y-94024438D01*
X121422731Y-94000212D01*
X121456408Y-93982211D01*
X121492948Y-93971126D01*
X121537090Y-93966779D01*
X122986014Y-93966779D01*
X123030156Y-93971126D01*
X123030156Y-93971126D01*
G37*
G36*
X110305735Y-93709815D02*
G01*
X110344405Y-93721546D01*
X110380044Y-93740596D01*
X110411284Y-93766233D01*
X110436921Y-93797473D01*
X110455971Y-93833112D01*
X110467702Y-93871782D01*
X110472267Y-93918138D01*
X110472267Y-94994362D01*
X110467702Y-95040718D01*
X110455971Y-95079388D01*
X110436921Y-95115027D01*
X110411284Y-95146267D01*
X110380044Y-95171904D01*
X110344405Y-95190954D01*
X110305735Y-95202685D01*
X110259379Y-95207250D01*
X109608155Y-95207250D01*
X109561799Y-95202685D01*
X109523129Y-95190954D01*
X109487490Y-95171904D01*
X109456250Y-95146267D01*
X109430613Y-95115027D01*
X109411563Y-95079388D01*
X109399832Y-95040718D01*
X109395267Y-94994362D01*
X109395267Y-93918138D01*
X109399832Y-93871782D01*
X109411563Y-93833112D01*
X109430613Y-93797473D01*
X109456250Y-93766233D01*
X109487490Y-93740596D01*
X109523129Y-93721546D01*
X109561799Y-93709815D01*
X109608155Y-93705250D01*
X110259379Y-93705250D01*
X110305735Y-93709815D01*
X110305735Y-93709815D01*
G37*
G36*
X108430735Y-93709815D02*
G01*
X108469405Y-93721546D01*
X108505044Y-93740596D01*
X108536284Y-93766233D01*
X108561921Y-93797473D01*
X108580971Y-93833112D01*
X108592702Y-93871782D01*
X108597267Y-93918138D01*
X108597267Y-94994362D01*
X108592702Y-95040718D01*
X108580971Y-95079388D01*
X108561921Y-95115027D01*
X108536284Y-95146267D01*
X108505044Y-95171904D01*
X108469405Y-95190954D01*
X108430735Y-95202685D01*
X108384379Y-95207250D01*
X107733155Y-95207250D01*
X107686799Y-95202685D01*
X107648129Y-95190954D01*
X107612490Y-95171904D01*
X107581250Y-95146267D01*
X107555613Y-95115027D01*
X107536563Y-95079388D01*
X107524832Y-95040718D01*
X107520267Y-94994362D01*
X107520267Y-93918138D01*
X107524832Y-93871782D01*
X107536563Y-93833112D01*
X107555613Y-93797473D01*
X107581250Y-93766233D01*
X107612490Y-93740596D01*
X107648129Y-93721546D01*
X107686799Y-93709815D01*
X107733155Y-93705250D01*
X108384379Y-93705250D01*
X108430735Y-93709815D01*
X108430735Y-93709815D01*
G37*
G36*
X57988468Y-93016565D02*
G01*
X58027138Y-93028296D01*
X58062777Y-93047346D01*
X58094017Y-93072983D01*
X58119654Y-93104223D01*
X58138704Y-93139862D01*
X58150435Y-93178532D01*
X58155000Y-93224888D01*
X58155000Y-93876112D01*
X58150435Y-93922468D01*
X58138704Y-93961138D01*
X58119654Y-93996777D01*
X58094017Y-94028017D01*
X58062777Y-94053654D01*
X58027138Y-94072704D01*
X57988468Y-94084435D01*
X57942112Y-94089000D01*
X56865888Y-94089000D01*
X56819532Y-94084435D01*
X56780862Y-94072704D01*
X56745223Y-94053654D01*
X56713983Y-94028017D01*
X56688346Y-93996777D01*
X56669296Y-93961138D01*
X56657565Y-93922468D01*
X56653000Y-93876112D01*
X56653000Y-93224888D01*
X56657565Y-93178532D01*
X56669296Y-93139862D01*
X56688346Y-93104223D01*
X56713983Y-93072983D01*
X56745223Y-93047346D01*
X56780862Y-93028296D01*
X56819532Y-93016565D01*
X56865888Y-93012000D01*
X57942112Y-93012000D01*
X57988468Y-93016565D01*
X57988468Y-93016565D01*
G37*
G36*
X154874645Y-91665894D02*
G01*
X154940829Y-91672412D01*
X155110668Y-91723932D01*
X155267193Y-91807597D01*
X155278554Y-91816921D01*
X155404388Y-91920189D01*
X155480676Y-92013148D01*
X155516980Y-92057384D01*
X155600645Y-92213909D01*
X155652165Y-92383748D01*
X155669561Y-92560375D01*
X155652165Y-92737002D01*
X155600645Y-92906841D01*
X155516980Y-93063366D01*
X155509087Y-93072983D01*
X155404388Y-93200561D01*
X155345996Y-93248481D01*
X155267193Y-93313153D01*
X155110668Y-93396818D01*
X154940829Y-93448338D01*
X154874644Y-93454857D01*
X154808462Y-93461375D01*
X154719942Y-93461375D01*
X154653760Y-93454857D01*
X154587575Y-93448338D01*
X154417736Y-93396818D01*
X154261211Y-93313153D01*
X154182408Y-93248481D01*
X154124016Y-93200561D01*
X154019317Y-93072983D01*
X154011424Y-93063366D01*
X153927759Y-92906841D01*
X153876239Y-92737002D01*
X153858843Y-92560375D01*
X153876239Y-92383748D01*
X153927759Y-92213909D01*
X154011424Y-92057384D01*
X154047728Y-92013148D01*
X154124016Y-91920189D01*
X154249850Y-91816921D01*
X154261211Y-91807597D01*
X154417736Y-91723932D01*
X154587575Y-91672412D01*
X154653760Y-91665893D01*
X154719942Y-91659375D01*
X154808462Y-91659375D01*
X154874645Y-91665894D01*
X154874645Y-91665894D01*
G37*
G36*
X57988468Y-91081565D02*
G01*
X58027138Y-91093296D01*
X58062777Y-91112346D01*
X58094017Y-91137983D01*
X58119654Y-91169223D01*
X58138704Y-91204862D01*
X58150435Y-91243532D01*
X58155000Y-91289888D01*
X58155000Y-91941112D01*
X58150435Y-91987468D01*
X58138704Y-92026138D01*
X58119654Y-92061777D01*
X58094017Y-92093017D01*
X58062777Y-92118654D01*
X58027138Y-92137704D01*
X57988468Y-92149435D01*
X57942112Y-92154000D01*
X56865888Y-92154000D01*
X56819532Y-92149435D01*
X56780862Y-92137704D01*
X56745223Y-92118654D01*
X56713983Y-92093017D01*
X56688346Y-92061777D01*
X56669296Y-92026138D01*
X56657565Y-91987468D01*
X56653000Y-91941112D01*
X56653000Y-91289888D01*
X56657565Y-91243532D01*
X56669296Y-91204862D01*
X56688346Y-91169223D01*
X56713983Y-91137983D01*
X56745223Y-91112346D01*
X56780862Y-91093296D01*
X56819532Y-91081565D01*
X56865888Y-91077000D01*
X57942112Y-91077000D01*
X57988468Y-91081565D01*
X57988468Y-91081565D01*
G37*
G36*
X148925674Y-90536208D02*
G01*
X148964344Y-90547939D01*
X148999983Y-90566989D01*
X149031223Y-90592626D01*
X149056860Y-90623866D01*
X149075910Y-90659505D01*
X149087641Y-90698175D01*
X149092206Y-90744531D01*
X149092206Y-91820755D01*
X149087641Y-91867111D01*
X149075910Y-91905781D01*
X149056860Y-91941420D01*
X149031223Y-91972660D01*
X148999983Y-91998297D01*
X148964344Y-92017347D01*
X148925674Y-92029078D01*
X148879318Y-92033643D01*
X148228094Y-92033643D01*
X148181738Y-92029078D01*
X148143068Y-92017347D01*
X148107429Y-91998297D01*
X148076189Y-91972660D01*
X148050552Y-91941420D01*
X148031502Y-91905781D01*
X148019771Y-91867111D01*
X148015206Y-91820755D01*
X148015206Y-90744531D01*
X148019771Y-90698175D01*
X148031502Y-90659505D01*
X148050552Y-90623866D01*
X148076189Y-90592626D01*
X148107429Y-90566989D01*
X148143068Y-90547939D01*
X148181738Y-90536208D01*
X148228094Y-90531643D01*
X148879318Y-90531643D01*
X148925674Y-90536208D01*
X148925674Y-90536208D01*
G37*
G36*
X147050674Y-90536208D02*
G01*
X147089344Y-90547939D01*
X147124983Y-90566989D01*
X147156223Y-90592626D01*
X147181860Y-90623866D01*
X147200910Y-90659505D01*
X147212641Y-90698175D01*
X147217206Y-90744531D01*
X147217206Y-91820755D01*
X147212641Y-91867111D01*
X147200910Y-91905781D01*
X147181860Y-91941420D01*
X147156223Y-91972660D01*
X147124983Y-91998297D01*
X147089344Y-92017347D01*
X147050674Y-92029078D01*
X147004318Y-92033643D01*
X146353094Y-92033643D01*
X146306738Y-92029078D01*
X146268068Y-92017347D01*
X146232429Y-91998297D01*
X146201189Y-91972660D01*
X146175552Y-91941420D01*
X146156502Y-91905781D01*
X146144771Y-91867111D01*
X146140206Y-91820755D01*
X146140206Y-90744531D01*
X146144771Y-90698175D01*
X146156502Y-90659505D01*
X146175552Y-90623866D01*
X146201189Y-90592626D01*
X146232429Y-90566989D01*
X146268068Y-90547939D01*
X146306738Y-90536208D01*
X146353094Y-90531643D01*
X147004318Y-90531643D01*
X147050674Y-90536208D01*
X147050674Y-90536208D01*
G37*
G36*
X110290735Y-90312565D02*
G01*
X110329405Y-90324296D01*
X110365044Y-90343346D01*
X110396284Y-90368983D01*
X110421921Y-90400223D01*
X110440971Y-90435862D01*
X110452702Y-90474532D01*
X110457267Y-90520888D01*
X110457267Y-91597112D01*
X110452702Y-91643468D01*
X110440971Y-91682138D01*
X110421921Y-91717777D01*
X110396284Y-91749017D01*
X110365044Y-91774654D01*
X110329405Y-91793704D01*
X110290735Y-91805435D01*
X110244379Y-91810000D01*
X109593155Y-91810000D01*
X109546799Y-91805435D01*
X109508129Y-91793704D01*
X109472490Y-91774654D01*
X109441250Y-91749017D01*
X109415613Y-91717777D01*
X109396563Y-91682138D01*
X109384832Y-91643468D01*
X109380267Y-91597112D01*
X109380267Y-90520888D01*
X109384832Y-90474532D01*
X109396563Y-90435862D01*
X109415613Y-90400223D01*
X109441250Y-90368983D01*
X109472490Y-90343346D01*
X109508129Y-90324296D01*
X109546799Y-90312565D01*
X109593155Y-90308000D01*
X110244379Y-90308000D01*
X110290735Y-90312565D01*
X110290735Y-90312565D01*
G37*
G36*
X108415735Y-90312565D02*
G01*
X108454405Y-90324296D01*
X108490044Y-90343346D01*
X108521284Y-90368983D01*
X108546921Y-90400223D01*
X108565971Y-90435862D01*
X108577702Y-90474532D01*
X108582267Y-90520888D01*
X108582267Y-91597112D01*
X108577702Y-91643468D01*
X108565971Y-91682138D01*
X108546921Y-91717777D01*
X108521284Y-91749017D01*
X108490044Y-91774654D01*
X108454405Y-91793704D01*
X108415735Y-91805435D01*
X108369379Y-91810000D01*
X107718155Y-91810000D01*
X107671799Y-91805435D01*
X107633129Y-91793704D01*
X107597490Y-91774654D01*
X107566250Y-91749017D01*
X107540613Y-91717777D01*
X107521563Y-91682138D01*
X107509832Y-91643468D01*
X107505267Y-91597112D01*
X107505267Y-90520888D01*
X107509832Y-90474532D01*
X107521563Y-90435862D01*
X107540613Y-90400223D01*
X107566250Y-90368983D01*
X107597490Y-90343346D01*
X107633129Y-90324296D01*
X107671799Y-90312565D01*
X107718155Y-90308000D01*
X108369379Y-90308000D01*
X108415735Y-90312565D01*
X108415735Y-90312565D01*
G37*
G36*
X117272750Y-91410000D02*
G01*
X116470750Y-91410000D01*
X116470750Y-90708000D01*
X117272750Y-90708000D01*
X117272750Y-91410000D01*
X117272750Y-91410000D01*
G37*
G36*
X115272750Y-91410000D02*
G01*
X114470750Y-91410000D01*
X114470750Y-90708000D01*
X115272750Y-90708000D01*
X115272750Y-91410000D01*
X115272750Y-91410000D01*
G37*
G36*
X81610468Y-90271065D02*
G01*
X81649138Y-90282796D01*
X81684777Y-90301846D01*
X81716017Y-90327483D01*
X81741654Y-90358723D01*
X81760704Y-90394362D01*
X81772435Y-90433032D01*
X81777000Y-90479388D01*
X81777000Y-91130612D01*
X81772435Y-91176968D01*
X81760704Y-91215638D01*
X81741654Y-91251277D01*
X81716017Y-91282517D01*
X81684777Y-91308154D01*
X81649138Y-91327204D01*
X81610468Y-91338935D01*
X81564112Y-91343500D01*
X80487888Y-91343500D01*
X80441532Y-91338935D01*
X80402862Y-91327204D01*
X80367223Y-91308154D01*
X80335983Y-91282517D01*
X80310346Y-91251277D01*
X80291296Y-91215638D01*
X80279565Y-91176968D01*
X80275000Y-91130612D01*
X80275000Y-90479388D01*
X80279565Y-90433032D01*
X80291296Y-90394362D01*
X80310346Y-90358723D01*
X80335983Y-90327483D01*
X80367223Y-90301846D01*
X80402862Y-90282796D01*
X80441532Y-90271065D01*
X80487888Y-90266500D01*
X81564112Y-90266500D01*
X81610468Y-90271065D01*
X81610468Y-90271065D01*
G37*
G36*
X154874645Y-89125894D02*
G01*
X154940829Y-89132412D01*
X155110668Y-89183932D01*
X155267193Y-89267597D01*
X155283355Y-89280861D01*
X155404388Y-89380189D01*
X155476862Y-89468500D01*
X155516980Y-89517384D01*
X155600645Y-89673909D01*
X155652165Y-89843748D01*
X155669561Y-90020375D01*
X155652165Y-90197002D01*
X155600645Y-90366841D01*
X155516980Y-90523366D01*
X155505941Y-90536817D01*
X155404388Y-90660561D01*
X155302931Y-90743823D01*
X155267193Y-90773153D01*
X155110668Y-90856818D01*
X154940829Y-90908338D01*
X154874645Y-90914856D01*
X154808462Y-90921375D01*
X154719942Y-90921375D01*
X154653759Y-90914856D01*
X154587575Y-90908338D01*
X154417736Y-90856818D01*
X154261211Y-90773153D01*
X154225473Y-90743823D01*
X154124016Y-90660561D01*
X154022463Y-90536817D01*
X154011424Y-90523366D01*
X153927759Y-90366841D01*
X153876239Y-90197002D01*
X153858843Y-90020375D01*
X153876239Y-89843748D01*
X153927759Y-89673909D01*
X154011424Y-89517384D01*
X154051542Y-89468500D01*
X154124016Y-89380189D01*
X154245049Y-89280861D01*
X154261211Y-89267597D01*
X154417736Y-89183932D01*
X154587575Y-89132412D01*
X154653759Y-89125894D01*
X154719942Y-89119375D01*
X154808462Y-89119375D01*
X154874645Y-89125894D01*
X154874645Y-89125894D01*
G37*
G36*
X48488500Y-90719750D02*
G01*
X47286500Y-90719750D01*
X47286500Y-88817750D01*
X48488500Y-88817750D01*
X48488500Y-90719750D01*
X48488500Y-90719750D01*
G37*
G36*
X44788500Y-90719750D02*
G01*
X43586500Y-90719750D01*
X43586500Y-88817750D01*
X44788500Y-88817750D01*
X44788500Y-90719750D01*
X44788500Y-90719750D01*
G37*
G36*
X57988468Y-89206565D02*
G01*
X58027138Y-89218296D01*
X58062777Y-89237346D01*
X58094017Y-89262983D01*
X58119654Y-89294223D01*
X58138704Y-89329862D01*
X58150435Y-89368532D01*
X58155000Y-89414888D01*
X58155000Y-90066112D01*
X58150435Y-90112468D01*
X58138704Y-90151138D01*
X58119654Y-90186777D01*
X58094017Y-90218017D01*
X58062777Y-90243654D01*
X58027138Y-90262704D01*
X57988468Y-90274435D01*
X57942112Y-90279000D01*
X56865888Y-90279000D01*
X56819532Y-90274435D01*
X56780862Y-90262704D01*
X56745223Y-90243654D01*
X56713983Y-90218017D01*
X56688346Y-90186777D01*
X56669296Y-90151138D01*
X56657565Y-90112468D01*
X56653000Y-90066112D01*
X56653000Y-89414888D01*
X56657565Y-89368532D01*
X56669296Y-89329862D01*
X56688346Y-89294223D01*
X56713983Y-89262983D01*
X56745223Y-89237346D01*
X56780862Y-89218296D01*
X56819532Y-89206565D01*
X56865888Y-89202000D01*
X57942112Y-89202000D01*
X57988468Y-89206565D01*
X57988468Y-89206565D01*
G37*
G36*
X115272750Y-89910000D02*
G01*
X114470750Y-89910000D01*
X114470750Y-88808000D01*
X115272750Y-88808000D01*
X115272750Y-89910000D01*
X115272750Y-89910000D01*
G37*
G36*
X117272750Y-89510000D02*
G01*
X116470750Y-89510000D01*
X116470750Y-88808000D01*
X117272750Y-88808000D01*
X117272750Y-89510000D01*
X117272750Y-89510000D01*
G37*
G36*
X81610468Y-88396065D02*
G01*
X81649138Y-88407796D01*
X81684777Y-88426846D01*
X81716017Y-88452483D01*
X81741654Y-88483723D01*
X81760704Y-88519362D01*
X81772435Y-88558032D01*
X81777000Y-88604388D01*
X81777000Y-89255612D01*
X81772435Y-89301968D01*
X81760704Y-89340638D01*
X81741654Y-89376277D01*
X81716017Y-89407517D01*
X81684777Y-89433154D01*
X81649138Y-89452204D01*
X81610468Y-89463935D01*
X81564112Y-89468500D01*
X80487888Y-89468500D01*
X80441532Y-89463935D01*
X80402862Y-89452204D01*
X80367223Y-89433154D01*
X80335983Y-89407517D01*
X80310346Y-89376277D01*
X80291296Y-89340638D01*
X80279565Y-89301968D01*
X80275000Y-89255612D01*
X80275000Y-88604388D01*
X80279565Y-88558032D01*
X80291296Y-88519362D01*
X80310346Y-88483723D01*
X80335983Y-88452483D01*
X80367223Y-88426846D01*
X80402862Y-88407796D01*
X80441532Y-88396065D01*
X80487888Y-88391500D01*
X81564112Y-88391500D01*
X81610468Y-88396065D01*
X81610468Y-88396065D01*
G37*
G36*
X154874644Y-86585893D02*
G01*
X154940829Y-86592412D01*
X155110668Y-86643932D01*
X155267193Y-86727597D01*
X155269030Y-86729105D01*
X155404388Y-86840189D01*
X155487650Y-86941646D01*
X155516980Y-86977384D01*
X155600645Y-87133909D01*
X155652165Y-87303748D01*
X155669561Y-87480375D01*
X155652165Y-87657002D01*
X155600645Y-87826841D01*
X155600644Y-87826843D01*
X155562416Y-87898361D01*
X155516980Y-87983366D01*
X155500120Y-88003910D01*
X155404388Y-88120561D01*
X155302931Y-88203823D01*
X155267193Y-88233153D01*
X155110668Y-88316818D01*
X154940829Y-88368338D01*
X154874644Y-88374857D01*
X154808462Y-88381375D01*
X154719942Y-88381375D01*
X154653760Y-88374857D01*
X154587575Y-88368338D01*
X154417736Y-88316818D01*
X154261211Y-88233153D01*
X154225473Y-88203823D01*
X154124016Y-88120561D01*
X154028284Y-88003910D01*
X154011424Y-87983366D01*
X153965988Y-87898361D01*
X153927760Y-87826843D01*
X153927759Y-87826841D01*
X153876239Y-87657002D01*
X153858843Y-87480375D01*
X153876239Y-87303748D01*
X153927759Y-87133909D01*
X154011424Y-86977384D01*
X154040754Y-86941646D01*
X154124016Y-86840189D01*
X154259374Y-86729105D01*
X154261211Y-86727597D01*
X154417736Y-86643932D01*
X154587575Y-86592412D01*
X154653760Y-86585893D01*
X154719942Y-86579375D01*
X154808462Y-86579375D01*
X154874644Y-86585893D01*
X154874644Y-86585893D01*
G37*
G36*
X147050674Y-86567458D02*
G01*
X147089344Y-86579189D01*
X147124983Y-86598239D01*
X147156223Y-86623876D01*
X147181860Y-86655116D01*
X147200910Y-86690755D01*
X147212641Y-86729425D01*
X147217206Y-86775781D01*
X147217206Y-87852005D01*
X147212641Y-87898361D01*
X147200910Y-87937031D01*
X147181860Y-87972670D01*
X147156223Y-88003910D01*
X147124983Y-88029547D01*
X147089344Y-88048597D01*
X147050674Y-88060328D01*
X147004318Y-88064893D01*
X146353094Y-88064893D01*
X146306738Y-88060328D01*
X146268068Y-88048597D01*
X146232429Y-88029547D01*
X146201189Y-88003910D01*
X146175552Y-87972670D01*
X146156502Y-87937031D01*
X146144771Y-87898361D01*
X146140206Y-87852005D01*
X146140206Y-86775781D01*
X146144771Y-86729425D01*
X146156502Y-86690755D01*
X146175552Y-86655116D01*
X146201189Y-86623876D01*
X146232429Y-86598239D01*
X146268068Y-86579189D01*
X146306738Y-86567458D01*
X146353094Y-86562893D01*
X147004318Y-86562893D01*
X147050674Y-86567458D01*
X147050674Y-86567458D01*
G37*
G36*
X148925674Y-86567458D02*
G01*
X148964344Y-86579189D01*
X148999983Y-86598239D01*
X149031223Y-86623876D01*
X149056860Y-86655116D01*
X149075910Y-86690755D01*
X149087641Y-86729425D01*
X149092206Y-86775781D01*
X149092206Y-87852005D01*
X149087641Y-87898361D01*
X149075910Y-87937031D01*
X149056860Y-87972670D01*
X149031223Y-88003910D01*
X148999983Y-88029547D01*
X148964344Y-88048597D01*
X148925674Y-88060328D01*
X148879318Y-88064893D01*
X148228094Y-88064893D01*
X148181738Y-88060328D01*
X148143068Y-88048597D01*
X148107429Y-88029547D01*
X148076189Y-88003910D01*
X148050552Y-87972670D01*
X148031502Y-87937031D01*
X148019771Y-87898361D01*
X148015206Y-87852005D01*
X148015206Y-86775781D01*
X148019771Y-86729425D01*
X148031502Y-86690755D01*
X148050552Y-86655116D01*
X148076189Y-86623876D01*
X148107429Y-86598239D01*
X148143068Y-86579189D01*
X148181738Y-86567458D01*
X148228094Y-86562893D01*
X148879318Y-86562893D01*
X148925674Y-86567458D01*
X148925674Y-86567458D01*
G37*
G36*
X74904474Y-87075481D02*
G01*
X62252474Y-87075481D01*
X62252474Y-85473481D01*
X74904474Y-85473481D01*
X74904474Y-87075481D01*
X74904474Y-87075481D01*
G37*
G36*
X73572468Y-82057565D02*
G01*
X73611138Y-82069296D01*
X73646777Y-82088346D01*
X73678017Y-82113983D01*
X73703654Y-82145223D01*
X73722704Y-82180862D01*
X73734435Y-82219532D01*
X73739000Y-82265888D01*
X73739000Y-83342112D01*
X73734435Y-83388468D01*
X73722704Y-83427138D01*
X73703654Y-83462777D01*
X73678017Y-83494017D01*
X73646777Y-83519654D01*
X73611138Y-83538704D01*
X73572468Y-83550435D01*
X73526112Y-83555000D01*
X72874888Y-83555000D01*
X72828532Y-83550435D01*
X72789862Y-83538704D01*
X72754223Y-83519654D01*
X72722983Y-83494017D01*
X72697346Y-83462777D01*
X72678296Y-83427138D01*
X72666565Y-83388468D01*
X72662000Y-83342112D01*
X72662000Y-82265888D01*
X72666565Y-82219532D01*
X72678296Y-82180862D01*
X72697346Y-82145223D01*
X72722983Y-82113983D01*
X72754223Y-82088346D01*
X72789862Y-82069296D01*
X72828532Y-82057565D01*
X72874888Y-82053000D01*
X73526112Y-82053000D01*
X73572468Y-82057565D01*
X73572468Y-82057565D01*
G37*
G36*
X71697468Y-82057565D02*
G01*
X71736138Y-82069296D01*
X71771777Y-82088346D01*
X71803017Y-82113983D01*
X71828654Y-82145223D01*
X71847704Y-82180862D01*
X71859435Y-82219532D01*
X71864000Y-82265888D01*
X71864000Y-83342112D01*
X71859435Y-83388468D01*
X71847704Y-83427138D01*
X71828654Y-83462777D01*
X71803017Y-83494017D01*
X71771777Y-83519654D01*
X71736138Y-83538704D01*
X71697468Y-83550435D01*
X71651112Y-83555000D01*
X70999888Y-83555000D01*
X70953532Y-83550435D01*
X70914862Y-83538704D01*
X70879223Y-83519654D01*
X70847983Y-83494017D01*
X70822346Y-83462777D01*
X70803296Y-83427138D01*
X70791565Y-83388468D01*
X70787000Y-83342112D01*
X70787000Y-82265888D01*
X70791565Y-82219532D01*
X70803296Y-82180862D01*
X70822346Y-82145223D01*
X70847983Y-82113983D01*
X70879223Y-82088346D01*
X70914862Y-82069296D01*
X70953532Y-82057565D01*
X70999888Y-82053000D01*
X71651112Y-82053000D01*
X71697468Y-82057565D01*
X71697468Y-82057565D01*
G37*
G36*
X64854692Y-81956796D02*
G01*
X64893362Y-81968527D01*
X64929001Y-81987577D01*
X64960241Y-82013214D01*
X64985878Y-82044454D01*
X65004928Y-82080093D01*
X65016659Y-82118763D01*
X65021224Y-82165119D01*
X65021224Y-83241343D01*
X65016659Y-83287699D01*
X65004928Y-83326369D01*
X64985878Y-83362008D01*
X64960241Y-83393248D01*
X64929001Y-83418885D01*
X64893362Y-83437935D01*
X64854692Y-83449666D01*
X64808336Y-83454231D01*
X64157112Y-83454231D01*
X64110756Y-83449666D01*
X64072086Y-83437935D01*
X64036447Y-83418885D01*
X64005207Y-83393248D01*
X63979570Y-83362008D01*
X63960520Y-83326369D01*
X63948789Y-83287699D01*
X63944224Y-83241343D01*
X63944224Y-82165119D01*
X63948789Y-82118763D01*
X63960520Y-82080093D01*
X63979570Y-82044454D01*
X64005207Y-82013214D01*
X64036447Y-81987577D01*
X64072086Y-81968527D01*
X64110756Y-81956796D01*
X64157112Y-81952231D01*
X64808336Y-81952231D01*
X64854692Y-81956796D01*
X64854692Y-81956796D01*
G37*
G36*
X62979692Y-81956796D02*
G01*
X63018362Y-81968527D01*
X63054001Y-81987577D01*
X63085241Y-82013214D01*
X63110878Y-82044454D01*
X63129928Y-82080093D01*
X63141659Y-82118763D01*
X63146224Y-82165119D01*
X63146224Y-83241343D01*
X63141659Y-83287699D01*
X63129928Y-83326369D01*
X63110878Y-83362008D01*
X63085241Y-83393248D01*
X63054001Y-83418885D01*
X63018362Y-83437935D01*
X62979692Y-83449666D01*
X62933336Y-83454231D01*
X62282112Y-83454231D01*
X62235756Y-83449666D01*
X62197086Y-83437935D01*
X62161447Y-83418885D01*
X62130207Y-83393248D01*
X62104570Y-83362008D01*
X62085520Y-83326369D01*
X62073789Y-83287699D01*
X62069224Y-83241343D01*
X62069224Y-82165119D01*
X62073789Y-82118763D01*
X62085520Y-82080093D01*
X62104570Y-82044454D01*
X62130207Y-82013214D01*
X62161447Y-81987577D01*
X62197086Y-81968527D01*
X62235756Y-81956796D01*
X62282112Y-81952231D01*
X62933336Y-81952231D01*
X62979692Y-81956796D01*
X62979692Y-81956796D01*
G37*
G36*
X95360442Y-76099268D02*
G01*
X95426627Y-76105787D01*
X95596466Y-76157307D01*
X95752991Y-76240972D01*
X95788729Y-76270302D01*
X95890186Y-76353564D01*
X95973448Y-76455021D01*
X96002778Y-76490759D01*
X96086443Y-76647284D01*
X96137963Y-76817123D01*
X96155359Y-76993750D01*
X96137963Y-77170377D01*
X96086443Y-77340216D01*
X96002778Y-77496741D01*
X95973448Y-77532479D01*
X95890186Y-77633936D01*
X95788729Y-77717198D01*
X95752991Y-77746528D01*
X95596466Y-77830193D01*
X95426627Y-77881713D01*
X95360443Y-77888231D01*
X95294260Y-77894750D01*
X95205740Y-77894750D01*
X95139557Y-77888231D01*
X95073373Y-77881713D01*
X94903534Y-77830193D01*
X94747009Y-77746528D01*
X94711271Y-77717198D01*
X94609814Y-77633936D01*
X94526552Y-77532479D01*
X94497222Y-77496741D01*
X94413557Y-77340216D01*
X94362037Y-77170377D01*
X94344641Y-76993750D01*
X94362037Y-76817123D01*
X94413557Y-76647284D01*
X94497222Y-76490759D01*
X94526552Y-76455021D01*
X94609814Y-76353564D01*
X94711271Y-76270302D01*
X94747009Y-76240972D01*
X94903534Y-76157307D01*
X95073373Y-76105787D01*
X95139558Y-76099268D01*
X95205740Y-76092750D01*
X95294260Y-76092750D01*
X95360442Y-76099268D01*
X95360442Y-76099268D01*
G37*
G36*
X100440442Y-76099268D02*
G01*
X100506627Y-76105787D01*
X100676466Y-76157307D01*
X100832991Y-76240972D01*
X100868729Y-76270302D01*
X100970186Y-76353564D01*
X101053448Y-76455021D01*
X101082778Y-76490759D01*
X101166443Y-76647284D01*
X101217963Y-76817123D01*
X101235359Y-76993750D01*
X101217963Y-77170377D01*
X101166443Y-77340216D01*
X101082778Y-77496741D01*
X101053448Y-77532479D01*
X100970186Y-77633936D01*
X100868729Y-77717198D01*
X100832991Y-77746528D01*
X100676466Y-77830193D01*
X100506627Y-77881713D01*
X100440443Y-77888231D01*
X100374260Y-77894750D01*
X100285740Y-77894750D01*
X100219557Y-77888231D01*
X100153373Y-77881713D01*
X99983534Y-77830193D01*
X99827009Y-77746528D01*
X99791271Y-77717198D01*
X99689814Y-77633936D01*
X99606552Y-77532479D01*
X99577222Y-77496741D01*
X99493557Y-77340216D01*
X99442037Y-77170377D01*
X99424641Y-76993750D01*
X99442037Y-76817123D01*
X99493557Y-76647284D01*
X99577222Y-76490759D01*
X99606552Y-76455021D01*
X99689814Y-76353564D01*
X99791271Y-76270302D01*
X99827009Y-76240972D01*
X99983534Y-76157307D01*
X100153373Y-76105787D01*
X100219558Y-76099268D01*
X100285740Y-76092750D01*
X100374260Y-76092750D01*
X100440442Y-76099268D01*
X100440442Y-76099268D01*
G37*
G36*
X102980442Y-76099268D02*
G01*
X103046627Y-76105787D01*
X103216466Y-76157307D01*
X103372991Y-76240972D01*
X103408729Y-76270302D01*
X103510186Y-76353564D01*
X103593448Y-76455021D01*
X103622778Y-76490759D01*
X103706443Y-76647284D01*
X103757963Y-76817123D01*
X103775359Y-76993750D01*
X103757963Y-77170377D01*
X103706443Y-77340216D01*
X103622778Y-77496741D01*
X103593448Y-77532479D01*
X103510186Y-77633936D01*
X103408729Y-77717198D01*
X103372991Y-77746528D01*
X103216466Y-77830193D01*
X103046627Y-77881713D01*
X102980443Y-77888231D01*
X102914260Y-77894750D01*
X102825740Y-77894750D01*
X102759557Y-77888231D01*
X102693373Y-77881713D01*
X102523534Y-77830193D01*
X102367009Y-77746528D01*
X102331271Y-77717198D01*
X102229814Y-77633936D01*
X102146552Y-77532479D01*
X102117222Y-77496741D01*
X102033557Y-77340216D01*
X101982037Y-77170377D01*
X101964641Y-76993750D01*
X101982037Y-76817123D01*
X102033557Y-76647284D01*
X102117222Y-76490759D01*
X102146552Y-76455021D01*
X102229814Y-76353564D01*
X102331271Y-76270302D01*
X102367009Y-76240972D01*
X102523534Y-76157307D01*
X102693373Y-76105787D01*
X102759558Y-76099268D01*
X102825740Y-76092750D01*
X102914260Y-76092750D01*
X102980442Y-76099268D01*
X102980442Y-76099268D01*
G37*
G36*
X92820442Y-76099268D02*
G01*
X92886627Y-76105787D01*
X93056466Y-76157307D01*
X93212991Y-76240972D01*
X93248729Y-76270302D01*
X93350186Y-76353564D01*
X93433448Y-76455021D01*
X93462778Y-76490759D01*
X93546443Y-76647284D01*
X93597963Y-76817123D01*
X93615359Y-76993750D01*
X93597963Y-77170377D01*
X93546443Y-77340216D01*
X93462778Y-77496741D01*
X93433448Y-77532479D01*
X93350186Y-77633936D01*
X93248729Y-77717198D01*
X93212991Y-77746528D01*
X93056466Y-77830193D01*
X92886627Y-77881713D01*
X92820443Y-77888231D01*
X92754260Y-77894750D01*
X92665740Y-77894750D01*
X92599557Y-77888231D01*
X92533373Y-77881713D01*
X92363534Y-77830193D01*
X92207009Y-77746528D01*
X92171271Y-77717198D01*
X92069814Y-77633936D01*
X91986552Y-77532479D01*
X91957222Y-77496741D01*
X91873557Y-77340216D01*
X91822037Y-77170377D01*
X91804641Y-76993750D01*
X91822037Y-76817123D01*
X91873557Y-76647284D01*
X91957222Y-76490759D01*
X91986552Y-76455021D01*
X92069814Y-76353564D01*
X92171271Y-76270302D01*
X92207009Y-76240972D01*
X92363534Y-76157307D01*
X92533373Y-76105787D01*
X92599558Y-76099268D01*
X92665740Y-76092750D01*
X92754260Y-76092750D01*
X92820442Y-76099268D01*
X92820442Y-76099268D01*
G37*
G36*
X90280442Y-76099268D02*
G01*
X90346627Y-76105787D01*
X90516466Y-76157307D01*
X90672991Y-76240972D01*
X90708729Y-76270302D01*
X90810186Y-76353564D01*
X90893448Y-76455021D01*
X90922778Y-76490759D01*
X91006443Y-76647284D01*
X91057963Y-76817123D01*
X91075359Y-76993750D01*
X91057963Y-77170377D01*
X91006443Y-77340216D01*
X90922778Y-77496741D01*
X90893448Y-77532479D01*
X90810186Y-77633936D01*
X90708729Y-77717198D01*
X90672991Y-77746528D01*
X90516466Y-77830193D01*
X90346627Y-77881713D01*
X90280443Y-77888231D01*
X90214260Y-77894750D01*
X90125740Y-77894750D01*
X90059557Y-77888231D01*
X89993373Y-77881713D01*
X89823534Y-77830193D01*
X89667009Y-77746528D01*
X89631271Y-77717198D01*
X89529814Y-77633936D01*
X89446552Y-77532479D01*
X89417222Y-77496741D01*
X89333557Y-77340216D01*
X89282037Y-77170377D01*
X89264641Y-76993750D01*
X89282037Y-76817123D01*
X89333557Y-76647284D01*
X89417222Y-76490759D01*
X89446552Y-76455021D01*
X89529814Y-76353564D01*
X89631271Y-76270302D01*
X89667009Y-76240972D01*
X89823534Y-76157307D01*
X89993373Y-76105787D01*
X90059558Y-76099268D01*
X90125740Y-76092750D01*
X90214260Y-76092750D01*
X90280442Y-76099268D01*
X90280442Y-76099268D01*
G37*
G36*
X87740442Y-76099268D02*
G01*
X87806627Y-76105787D01*
X87976466Y-76157307D01*
X88132991Y-76240972D01*
X88168729Y-76270302D01*
X88270186Y-76353564D01*
X88353448Y-76455021D01*
X88382778Y-76490759D01*
X88466443Y-76647284D01*
X88517963Y-76817123D01*
X88535359Y-76993750D01*
X88517963Y-77170377D01*
X88466443Y-77340216D01*
X88382778Y-77496741D01*
X88353448Y-77532479D01*
X88270186Y-77633936D01*
X88168729Y-77717198D01*
X88132991Y-77746528D01*
X87976466Y-77830193D01*
X87806627Y-77881713D01*
X87740443Y-77888231D01*
X87674260Y-77894750D01*
X87585740Y-77894750D01*
X87519557Y-77888231D01*
X87453373Y-77881713D01*
X87283534Y-77830193D01*
X87127009Y-77746528D01*
X87091271Y-77717198D01*
X86989814Y-77633936D01*
X86906552Y-77532479D01*
X86877222Y-77496741D01*
X86793557Y-77340216D01*
X86742037Y-77170377D01*
X86724641Y-76993750D01*
X86742037Y-76817123D01*
X86793557Y-76647284D01*
X86877222Y-76490759D01*
X86906552Y-76455021D01*
X86989814Y-76353564D01*
X87091271Y-76270302D01*
X87127009Y-76240972D01*
X87283534Y-76157307D01*
X87453373Y-76105787D01*
X87519558Y-76099268D01*
X87585740Y-76092750D01*
X87674260Y-76092750D01*
X87740442Y-76099268D01*
X87740442Y-76099268D01*
G37*
G36*
X85200442Y-76099268D02*
G01*
X85266627Y-76105787D01*
X85436466Y-76157307D01*
X85592991Y-76240972D01*
X85628729Y-76270302D01*
X85730186Y-76353564D01*
X85813448Y-76455021D01*
X85842778Y-76490759D01*
X85926443Y-76647284D01*
X85977963Y-76817123D01*
X85995359Y-76993750D01*
X85977963Y-77170377D01*
X85926443Y-77340216D01*
X85842778Y-77496741D01*
X85813448Y-77532479D01*
X85730186Y-77633936D01*
X85628729Y-77717198D01*
X85592991Y-77746528D01*
X85436466Y-77830193D01*
X85266627Y-77881713D01*
X85200443Y-77888231D01*
X85134260Y-77894750D01*
X85045740Y-77894750D01*
X84979557Y-77888231D01*
X84913373Y-77881713D01*
X84743534Y-77830193D01*
X84587009Y-77746528D01*
X84551271Y-77717198D01*
X84449814Y-77633936D01*
X84366552Y-77532479D01*
X84337222Y-77496741D01*
X84253557Y-77340216D01*
X84202037Y-77170377D01*
X84184641Y-76993750D01*
X84202037Y-76817123D01*
X84253557Y-76647284D01*
X84337222Y-76490759D01*
X84366552Y-76455021D01*
X84449814Y-76353564D01*
X84551271Y-76270302D01*
X84587009Y-76240972D01*
X84743534Y-76157307D01*
X84913373Y-76105787D01*
X84979558Y-76099268D01*
X85045740Y-76092750D01*
X85134260Y-76092750D01*
X85200442Y-76099268D01*
X85200442Y-76099268D01*
G37*
G36*
X105520442Y-76099268D02*
G01*
X105586627Y-76105787D01*
X105756466Y-76157307D01*
X105912991Y-76240972D01*
X105948729Y-76270302D01*
X106050186Y-76353564D01*
X106133448Y-76455021D01*
X106162778Y-76490759D01*
X106246443Y-76647284D01*
X106297963Y-76817123D01*
X106315359Y-76993750D01*
X106297963Y-77170377D01*
X106246443Y-77340216D01*
X106162778Y-77496741D01*
X106133448Y-77532479D01*
X106050186Y-77633936D01*
X105948729Y-77717198D01*
X105912991Y-77746528D01*
X105756466Y-77830193D01*
X105586627Y-77881713D01*
X105520443Y-77888231D01*
X105454260Y-77894750D01*
X105365740Y-77894750D01*
X105299557Y-77888231D01*
X105233373Y-77881713D01*
X105063534Y-77830193D01*
X104907009Y-77746528D01*
X104871271Y-77717198D01*
X104769814Y-77633936D01*
X104686552Y-77532479D01*
X104657222Y-77496741D01*
X104573557Y-77340216D01*
X104522037Y-77170377D01*
X104504641Y-76993750D01*
X104522037Y-76817123D01*
X104573557Y-76647284D01*
X104657222Y-76490759D01*
X104686552Y-76455021D01*
X104769814Y-76353564D01*
X104871271Y-76270302D01*
X104907009Y-76240972D01*
X105063534Y-76157307D01*
X105233373Y-76105787D01*
X105299558Y-76099268D01*
X105365740Y-76092750D01*
X105454260Y-76092750D01*
X105520442Y-76099268D01*
X105520442Y-76099268D01*
G37*
G36*
X108060442Y-76099268D02*
G01*
X108126627Y-76105787D01*
X108296466Y-76157307D01*
X108452991Y-76240972D01*
X108488729Y-76270302D01*
X108590186Y-76353564D01*
X108673448Y-76455021D01*
X108702778Y-76490759D01*
X108786443Y-76647284D01*
X108837963Y-76817123D01*
X108855359Y-76993750D01*
X108837963Y-77170377D01*
X108786443Y-77340216D01*
X108702778Y-77496741D01*
X108673448Y-77532479D01*
X108590186Y-77633936D01*
X108488729Y-77717198D01*
X108452991Y-77746528D01*
X108296466Y-77830193D01*
X108126627Y-77881713D01*
X108060443Y-77888231D01*
X107994260Y-77894750D01*
X107905740Y-77894750D01*
X107839557Y-77888231D01*
X107773373Y-77881713D01*
X107603534Y-77830193D01*
X107447009Y-77746528D01*
X107411271Y-77717198D01*
X107309814Y-77633936D01*
X107226552Y-77532479D01*
X107197222Y-77496741D01*
X107113557Y-77340216D01*
X107062037Y-77170377D01*
X107044641Y-76993750D01*
X107062037Y-76817123D01*
X107113557Y-76647284D01*
X107197222Y-76490759D01*
X107226552Y-76455021D01*
X107309814Y-76353564D01*
X107411271Y-76270302D01*
X107447009Y-76240972D01*
X107603534Y-76157307D01*
X107773373Y-76105787D01*
X107839558Y-76099268D01*
X107905740Y-76092750D01*
X107994260Y-76092750D01*
X108060442Y-76099268D01*
X108060442Y-76099268D01*
G37*
G36*
X110600442Y-76099268D02*
G01*
X110666627Y-76105787D01*
X110836466Y-76157307D01*
X110992991Y-76240972D01*
X111028729Y-76270302D01*
X111130186Y-76353564D01*
X111213448Y-76455021D01*
X111242778Y-76490759D01*
X111326443Y-76647284D01*
X111377963Y-76817123D01*
X111395359Y-76993750D01*
X111377963Y-77170377D01*
X111326443Y-77340216D01*
X111242778Y-77496741D01*
X111213448Y-77532479D01*
X111130186Y-77633936D01*
X111028729Y-77717198D01*
X110992991Y-77746528D01*
X110836466Y-77830193D01*
X110666627Y-77881713D01*
X110600443Y-77888231D01*
X110534260Y-77894750D01*
X110445740Y-77894750D01*
X110379557Y-77888231D01*
X110313373Y-77881713D01*
X110143534Y-77830193D01*
X109987009Y-77746528D01*
X109951271Y-77717198D01*
X109849814Y-77633936D01*
X109766552Y-77532479D01*
X109737222Y-77496741D01*
X109653557Y-77340216D01*
X109602037Y-77170377D01*
X109584641Y-76993750D01*
X109602037Y-76817123D01*
X109653557Y-76647284D01*
X109737222Y-76490759D01*
X109766552Y-76455021D01*
X109849814Y-76353564D01*
X109951271Y-76270302D01*
X109987009Y-76240972D01*
X110143534Y-76157307D01*
X110313373Y-76105787D01*
X110379558Y-76099268D01*
X110445740Y-76092750D01*
X110534260Y-76092750D01*
X110600442Y-76099268D01*
X110600442Y-76099268D01*
G37*
G36*
X113140442Y-76099268D02*
G01*
X113206627Y-76105787D01*
X113376466Y-76157307D01*
X113532991Y-76240972D01*
X113568729Y-76270302D01*
X113670186Y-76353564D01*
X113753448Y-76455021D01*
X113782778Y-76490759D01*
X113866443Y-76647284D01*
X113917963Y-76817123D01*
X113935359Y-76993750D01*
X113917963Y-77170377D01*
X113866443Y-77340216D01*
X113782778Y-77496741D01*
X113753448Y-77532479D01*
X113670186Y-77633936D01*
X113568729Y-77717198D01*
X113532991Y-77746528D01*
X113376466Y-77830193D01*
X113206627Y-77881713D01*
X113140443Y-77888231D01*
X113074260Y-77894750D01*
X112985740Y-77894750D01*
X112919557Y-77888231D01*
X112853373Y-77881713D01*
X112683534Y-77830193D01*
X112527009Y-77746528D01*
X112491271Y-77717198D01*
X112389814Y-77633936D01*
X112306552Y-77532479D01*
X112277222Y-77496741D01*
X112193557Y-77340216D01*
X112142037Y-77170377D01*
X112124641Y-76993750D01*
X112142037Y-76817123D01*
X112193557Y-76647284D01*
X112277222Y-76490759D01*
X112306552Y-76455021D01*
X112389814Y-76353564D01*
X112491271Y-76270302D01*
X112527009Y-76240972D01*
X112683534Y-76157307D01*
X112853373Y-76105787D01*
X112919558Y-76099268D01*
X112985740Y-76092750D01*
X113074260Y-76092750D01*
X113140442Y-76099268D01*
X113140442Y-76099268D01*
G37*
G36*
X115680442Y-76099268D02*
G01*
X115746627Y-76105787D01*
X115916466Y-76157307D01*
X116072991Y-76240972D01*
X116108729Y-76270302D01*
X116210186Y-76353564D01*
X116293448Y-76455021D01*
X116322778Y-76490759D01*
X116406443Y-76647284D01*
X116457963Y-76817123D01*
X116475359Y-76993750D01*
X116457963Y-77170377D01*
X116406443Y-77340216D01*
X116322778Y-77496741D01*
X116293448Y-77532479D01*
X116210186Y-77633936D01*
X116108729Y-77717198D01*
X116072991Y-77746528D01*
X115916466Y-77830193D01*
X115746627Y-77881713D01*
X115680443Y-77888231D01*
X115614260Y-77894750D01*
X115525740Y-77894750D01*
X115459557Y-77888231D01*
X115393373Y-77881713D01*
X115223534Y-77830193D01*
X115067009Y-77746528D01*
X115031271Y-77717198D01*
X114929814Y-77633936D01*
X114846552Y-77532479D01*
X114817222Y-77496741D01*
X114733557Y-77340216D01*
X114682037Y-77170377D01*
X114664641Y-76993750D01*
X114682037Y-76817123D01*
X114733557Y-76647284D01*
X114817222Y-76490759D01*
X114846552Y-76455021D01*
X114929814Y-76353564D01*
X115031271Y-76270302D01*
X115067009Y-76240972D01*
X115223534Y-76157307D01*
X115393373Y-76105787D01*
X115459558Y-76099268D01*
X115525740Y-76092750D01*
X115614260Y-76092750D01*
X115680442Y-76099268D01*
X115680442Y-76099268D01*
G37*
G36*
X118220442Y-76099268D02*
G01*
X118286627Y-76105787D01*
X118456466Y-76157307D01*
X118612991Y-76240972D01*
X118648729Y-76270302D01*
X118750186Y-76353564D01*
X118833448Y-76455021D01*
X118862778Y-76490759D01*
X118946443Y-76647284D01*
X118997963Y-76817123D01*
X119015359Y-76993750D01*
X118997963Y-77170377D01*
X118946443Y-77340216D01*
X118862778Y-77496741D01*
X118833448Y-77532479D01*
X118750186Y-77633936D01*
X118648729Y-77717198D01*
X118612991Y-77746528D01*
X118456466Y-77830193D01*
X118286627Y-77881713D01*
X118220443Y-77888231D01*
X118154260Y-77894750D01*
X118065740Y-77894750D01*
X117999557Y-77888231D01*
X117933373Y-77881713D01*
X117763534Y-77830193D01*
X117607009Y-77746528D01*
X117571271Y-77717198D01*
X117469814Y-77633936D01*
X117386552Y-77532479D01*
X117357222Y-77496741D01*
X117273557Y-77340216D01*
X117222037Y-77170377D01*
X117204641Y-76993750D01*
X117222037Y-76817123D01*
X117273557Y-76647284D01*
X117357222Y-76490759D01*
X117386552Y-76455021D01*
X117469814Y-76353564D01*
X117571271Y-76270302D01*
X117607009Y-76240972D01*
X117763534Y-76157307D01*
X117933373Y-76105787D01*
X117999558Y-76099268D01*
X118065740Y-76092750D01*
X118154260Y-76092750D01*
X118220442Y-76099268D01*
X118220442Y-76099268D01*
G37*
G36*
X120760442Y-76099268D02*
G01*
X120826627Y-76105787D01*
X120996466Y-76157307D01*
X121152991Y-76240972D01*
X121188729Y-76270302D01*
X121290186Y-76353564D01*
X121373448Y-76455021D01*
X121402778Y-76490759D01*
X121486443Y-76647284D01*
X121537963Y-76817123D01*
X121555359Y-76993750D01*
X121537963Y-77170377D01*
X121486443Y-77340216D01*
X121402778Y-77496741D01*
X121373448Y-77532479D01*
X121290186Y-77633936D01*
X121188729Y-77717198D01*
X121152991Y-77746528D01*
X120996466Y-77830193D01*
X120826627Y-77881713D01*
X120760443Y-77888231D01*
X120694260Y-77894750D01*
X120605740Y-77894750D01*
X120539557Y-77888231D01*
X120473373Y-77881713D01*
X120303534Y-77830193D01*
X120147009Y-77746528D01*
X120111271Y-77717198D01*
X120009814Y-77633936D01*
X119926552Y-77532479D01*
X119897222Y-77496741D01*
X119813557Y-77340216D01*
X119762037Y-77170377D01*
X119744641Y-76993750D01*
X119762037Y-76817123D01*
X119813557Y-76647284D01*
X119897222Y-76490759D01*
X119926552Y-76455021D01*
X120009814Y-76353564D01*
X120111271Y-76270302D01*
X120147009Y-76240972D01*
X120303534Y-76157307D01*
X120473373Y-76105787D01*
X120539558Y-76099268D01*
X120605740Y-76092750D01*
X120694260Y-76092750D01*
X120760442Y-76099268D01*
X120760442Y-76099268D01*
G37*
G36*
X124091000Y-77894750D02*
G01*
X122289000Y-77894750D01*
X122289000Y-76092750D01*
X124091000Y-76092750D01*
X124091000Y-77894750D01*
X124091000Y-77894750D01*
G37*
G36*
X137111692Y-76099268D02*
G01*
X137177877Y-76105787D01*
X137347716Y-76157307D01*
X137504241Y-76240972D01*
X137539979Y-76270302D01*
X137641436Y-76353564D01*
X137724698Y-76455021D01*
X137754028Y-76490759D01*
X137837693Y-76647284D01*
X137889213Y-76817123D01*
X137906609Y-76993750D01*
X137889213Y-77170377D01*
X137837693Y-77340216D01*
X137754028Y-77496741D01*
X137724698Y-77532479D01*
X137641436Y-77633936D01*
X137539979Y-77717198D01*
X137504241Y-77746528D01*
X137347716Y-77830193D01*
X137177877Y-77881713D01*
X137111693Y-77888231D01*
X137045510Y-77894750D01*
X136956990Y-77894750D01*
X136890807Y-77888231D01*
X136824623Y-77881713D01*
X136654784Y-77830193D01*
X136498259Y-77746528D01*
X136462521Y-77717198D01*
X136361064Y-77633936D01*
X136277802Y-77532479D01*
X136248472Y-77496741D01*
X136164807Y-77340216D01*
X136113287Y-77170377D01*
X136095891Y-76993750D01*
X136113287Y-76817123D01*
X136164807Y-76647284D01*
X136248472Y-76490759D01*
X136277802Y-76455021D01*
X136361064Y-76353564D01*
X136462521Y-76270302D01*
X136498259Y-76240972D01*
X136654784Y-76157307D01*
X136824623Y-76105787D01*
X136890808Y-76099268D01*
X136956990Y-76092750D01*
X137045510Y-76092750D01*
X137111692Y-76099268D01*
X137111692Y-76099268D01*
G37*
G36*
X139651692Y-76099268D02*
G01*
X139717877Y-76105787D01*
X139887716Y-76157307D01*
X140044241Y-76240972D01*
X140079979Y-76270302D01*
X140181436Y-76353564D01*
X140264698Y-76455021D01*
X140294028Y-76490759D01*
X140377693Y-76647284D01*
X140429213Y-76817123D01*
X140446609Y-76993750D01*
X140429213Y-77170377D01*
X140377693Y-77340216D01*
X140294028Y-77496741D01*
X140264698Y-77532479D01*
X140181436Y-77633936D01*
X140079979Y-77717198D01*
X140044241Y-77746528D01*
X139887716Y-77830193D01*
X139717877Y-77881713D01*
X139651693Y-77888231D01*
X139585510Y-77894750D01*
X139496990Y-77894750D01*
X139430807Y-77888231D01*
X139364623Y-77881713D01*
X139194784Y-77830193D01*
X139038259Y-77746528D01*
X139002521Y-77717198D01*
X138901064Y-77633936D01*
X138817802Y-77532479D01*
X138788472Y-77496741D01*
X138704807Y-77340216D01*
X138653287Y-77170377D01*
X138635891Y-76993750D01*
X138653287Y-76817123D01*
X138704807Y-76647284D01*
X138788472Y-76490759D01*
X138817802Y-76455021D01*
X138901064Y-76353564D01*
X139002521Y-76270302D01*
X139038259Y-76240972D01*
X139194784Y-76157307D01*
X139364623Y-76105787D01*
X139430808Y-76099268D01*
X139496990Y-76092750D01*
X139585510Y-76092750D01*
X139651692Y-76099268D01*
X139651692Y-76099268D01*
G37*
G36*
X142191692Y-76099268D02*
G01*
X142257877Y-76105787D01*
X142427716Y-76157307D01*
X142584241Y-76240972D01*
X142619979Y-76270302D01*
X142721436Y-76353564D01*
X142804698Y-76455021D01*
X142834028Y-76490759D01*
X142917693Y-76647284D01*
X142969213Y-76817123D01*
X142986609Y-76993750D01*
X142969213Y-77170377D01*
X142917693Y-77340216D01*
X142834028Y-77496741D01*
X142804698Y-77532479D01*
X142721436Y-77633936D01*
X142619979Y-77717198D01*
X142584241Y-77746528D01*
X142427716Y-77830193D01*
X142257877Y-77881713D01*
X142191693Y-77888231D01*
X142125510Y-77894750D01*
X142036990Y-77894750D01*
X141970807Y-77888231D01*
X141904623Y-77881713D01*
X141734784Y-77830193D01*
X141578259Y-77746528D01*
X141542521Y-77717198D01*
X141441064Y-77633936D01*
X141357802Y-77532479D01*
X141328472Y-77496741D01*
X141244807Y-77340216D01*
X141193287Y-77170377D01*
X141175891Y-76993750D01*
X141193287Y-76817123D01*
X141244807Y-76647284D01*
X141328472Y-76490759D01*
X141357802Y-76455021D01*
X141441064Y-76353564D01*
X141542521Y-76270302D01*
X141578259Y-76240972D01*
X141734784Y-76157307D01*
X141904623Y-76105787D01*
X141970808Y-76099268D01*
X142036990Y-76092750D01*
X142125510Y-76092750D01*
X142191692Y-76099268D01*
X142191692Y-76099268D01*
G37*
G36*
X144731692Y-76099268D02*
G01*
X144797877Y-76105787D01*
X144967716Y-76157307D01*
X145124241Y-76240972D01*
X145159979Y-76270302D01*
X145261436Y-76353564D01*
X145344698Y-76455021D01*
X145374028Y-76490759D01*
X145457693Y-76647284D01*
X145509213Y-76817123D01*
X145526609Y-76993750D01*
X145509213Y-77170377D01*
X145457693Y-77340216D01*
X145374028Y-77496741D01*
X145344698Y-77532479D01*
X145261436Y-77633936D01*
X145159979Y-77717198D01*
X145124241Y-77746528D01*
X144967716Y-77830193D01*
X144797877Y-77881713D01*
X144731693Y-77888231D01*
X144665510Y-77894750D01*
X144576990Y-77894750D01*
X144510807Y-77888231D01*
X144444623Y-77881713D01*
X144274784Y-77830193D01*
X144118259Y-77746528D01*
X144082521Y-77717198D01*
X143981064Y-77633936D01*
X143897802Y-77532479D01*
X143868472Y-77496741D01*
X143784807Y-77340216D01*
X143733287Y-77170377D01*
X143715891Y-76993750D01*
X143733287Y-76817123D01*
X143784807Y-76647284D01*
X143868472Y-76490759D01*
X143897802Y-76455021D01*
X143981064Y-76353564D01*
X144082521Y-76270302D01*
X144118259Y-76240972D01*
X144274784Y-76157307D01*
X144444623Y-76105787D01*
X144510808Y-76099268D01*
X144576990Y-76092750D01*
X144665510Y-76092750D01*
X144731692Y-76099268D01*
X144731692Y-76099268D01*
G37*
G36*
X147271692Y-76099268D02*
G01*
X147337877Y-76105787D01*
X147507716Y-76157307D01*
X147664241Y-76240972D01*
X147699979Y-76270302D01*
X147801436Y-76353564D01*
X147884698Y-76455021D01*
X147914028Y-76490759D01*
X147997693Y-76647284D01*
X148049213Y-76817123D01*
X148066609Y-76993750D01*
X148049213Y-77170377D01*
X147997693Y-77340216D01*
X147914028Y-77496741D01*
X147884698Y-77532479D01*
X147801436Y-77633936D01*
X147699979Y-77717198D01*
X147664241Y-77746528D01*
X147507716Y-77830193D01*
X147337877Y-77881713D01*
X147271693Y-77888231D01*
X147205510Y-77894750D01*
X147116990Y-77894750D01*
X147050807Y-77888231D01*
X146984623Y-77881713D01*
X146814784Y-77830193D01*
X146658259Y-77746528D01*
X146622521Y-77717198D01*
X146521064Y-77633936D01*
X146437802Y-77532479D01*
X146408472Y-77496741D01*
X146324807Y-77340216D01*
X146273287Y-77170377D01*
X146255891Y-76993750D01*
X146273287Y-76817123D01*
X146324807Y-76647284D01*
X146408472Y-76490759D01*
X146437802Y-76455021D01*
X146521064Y-76353564D01*
X146622521Y-76270302D01*
X146658259Y-76240972D01*
X146814784Y-76157307D01*
X146984623Y-76105787D01*
X147050808Y-76099268D01*
X147116990Y-76092750D01*
X147205510Y-76092750D01*
X147271692Y-76099268D01*
X147271692Y-76099268D01*
G37*
G36*
X155682250Y-77894750D02*
G01*
X153880250Y-77894750D01*
X153880250Y-76092750D01*
X155682250Y-76092750D01*
X155682250Y-77894750D01*
X155682250Y-77894750D01*
G37*
G36*
X152351692Y-76099268D02*
G01*
X152417877Y-76105787D01*
X152587716Y-76157307D01*
X152744241Y-76240972D01*
X152779979Y-76270302D01*
X152881436Y-76353564D01*
X152964698Y-76455021D01*
X152994028Y-76490759D01*
X153077693Y-76647284D01*
X153129213Y-76817123D01*
X153146609Y-76993750D01*
X153129213Y-77170377D01*
X153077693Y-77340216D01*
X152994028Y-77496741D01*
X152964698Y-77532479D01*
X152881436Y-77633936D01*
X152779979Y-77717198D01*
X152744241Y-77746528D01*
X152587716Y-77830193D01*
X152417877Y-77881713D01*
X152351693Y-77888231D01*
X152285510Y-77894750D01*
X152196990Y-77894750D01*
X152130807Y-77888231D01*
X152064623Y-77881713D01*
X151894784Y-77830193D01*
X151738259Y-77746528D01*
X151702521Y-77717198D01*
X151601064Y-77633936D01*
X151517802Y-77532479D01*
X151488472Y-77496741D01*
X151404807Y-77340216D01*
X151353287Y-77170377D01*
X151335891Y-76993750D01*
X151353287Y-76817123D01*
X151404807Y-76647284D01*
X151488472Y-76490759D01*
X151517802Y-76455021D01*
X151601064Y-76353564D01*
X151702521Y-76270302D01*
X151738259Y-76240972D01*
X151894784Y-76157307D01*
X152064623Y-76105787D01*
X152130808Y-76099268D01*
X152196990Y-76092750D01*
X152285510Y-76092750D01*
X152351692Y-76099268D01*
X152351692Y-76099268D01*
G37*
G36*
X97900442Y-76099268D02*
G01*
X97966627Y-76105787D01*
X98136466Y-76157307D01*
X98292991Y-76240972D01*
X98328729Y-76270302D01*
X98430186Y-76353564D01*
X98513448Y-76455021D01*
X98542778Y-76490759D01*
X98626443Y-76647284D01*
X98677963Y-76817123D01*
X98695359Y-76993750D01*
X98677963Y-77170377D01*
X98626443Y-77340216D01*
X98542778Y-77496741D01*
X98513448Y-77532479D01*
X98430186Y-77633936D01*
X98328729Y-77717198D01*
X98292991Y-77746528D01*
X98136466Y-77830193D01*
X97966627Y-77881713D01*
X97900443Y-77888231D01*
X97834260Y-77894750D01*
X97745740Y-77894750D01*
X97679557Y-77888231D01*
X97613373Y-77881713D01*
X97443534Y-77830193D01*
X97287009Y-77746528D01*
X97251271Y-77717198D01*
X97149814Y-77633936D01*
X97066552Y-77532479D01*
X97037222Y-77496741D01*
X96953557Y-77340216D01*
X96902037Y-77170377D01*
X96884641Y-76993750D01*
X96902037Y-76817123D01*
X96953557Y-76647284D01*
X97037222Y-76490759D01*
X97066552Y-76455021D01*
X97149814Y-76353564D01*
X97251271Y-76270302D01*
X97287009Y-76240972D01*
X97443534Y-76157307D01*
X97613373Y-76105787D01*
X97679558Y-76099268D01*
X97745740Y-76092750D01*
X97834260Y-76092750D01*
X97900442Y-76099268D01*
X97900442Y-76099268D01*
G37*
G36*
X149811692Y-76099268D02*
G01*
X149877877Y-76105787D01*
X150047716Y-76157307D01*
X150204241Y-76240972D01*
X150239979Y-76270302D01*
X150341436Y-76353564D01*
X150424698Y-76455021D01*
X150454028Y-76490759D01*
X150537693Y-76647284D01*
X150589213Y-76817123D01*
X150606609Y-76993750D01*
X150589213Y-77170377D01*
X150537693Y-77340216D01*
X150454028Y-77496741D01*
X150424698Y-77532479D01*
X150341436Y-77633936D01*
X150239979Y-77717198D01*
X150204241Y-77746528D01*
X150047716Y-77830193D01*
X149877877Y-77881713D01*
X149811693Y-77888231D01*
X149745510Y-77894750D01*
X149656990Y-77894750D01*
X149590807Y-77888231D01*
X149524623Y-77881713D01*
X149354784Y-77830193D01*
X149198259Y-77746528D01*
X149162521Y-77717198D01*
X149061064Y-77633936D01*
X148977802Y-77532479D01*
X148948472Y-77496741D01*
X148864807Y-77340216D01*
X148813287Y-77170377D01*
X148795891Y-76993750D01*
X148813287Y-76817123D01*
X148864807Y-76647284D01*
X148948472Y-76490759D01*
X148977802Y-76455021D01*
X149061064Y-76353564D01*
X149162521Y-76270302D01*
X149198259Y-76240972D01*
X149354784Y-76157307D01*
X149524623Y-76105787D01*
X149590808Y-76099268D01*
X149656990Y-76092750D01*
X149745510Y-76092750D01*
X149811692Y-76099268D01*
X149811692Y-76099268D01*
G37*
M02*
