G04 #@! TF.GenerationSoftware,KiCad,Pcbnew,(5.1.4)-1*
G04 #@! TF.CreationDate,2019-11-16T14:40:23-08:00*
G04 #@! TF.ProjectId,controller,636f6e74-726f-46c6-9c65-722e6b696361,rev?*
G04 #@! TF.SameCoordinates,Original*
G04 #@! TF.FileFunction,Soldermask,Bot*
G04 #@! TF.FilePolarity,Negative*
%FSLAX46Y46*%
G04 Gerber Fmt 4.6, Leading zero omitted, Abs format (unit mm)*
G04 Created by KiCad (PCBNEW (5.1.4)-1) date 2019-11-16 14:40:23*
%MOMM*%
%LPD*%
G04 APERTURE LIST*
%ADD10C,0.100000*%
G04 APERTURE END LIST*
D10*
G36*
X120315514Y-107904223D02*
G01*
X120419378Y-107935729D01*
X120463407Y-107959263D01*
X120515099Y-107986893D01*
X120515101Y-107986894D01*
X120515100Y-107986894D01*
X120599001Y-108055749D01*
X120667856Y-108139650D01*
X120719021Y-108235371D01*
X120750527Y-108339235D01*
X120758500Y-108420183D01*
X120758500Y-109074317D01*
X120750527Y-109155265D01*
X120719021Y-109259129D01*
X120719019Y-109259132D01*
X120667857Y-109354850D01*
X120599001Y-109438751D01*
X120515100Y-109507607D01*
X120446555Y-109544245D01*
X120419379Y-109558771D01*
X120315515Y-109590277D01*
X120207500Y-109600916D01*
X120099486Y-109590277D01*
X119995622Y-109558771D01*
X119968446Y-109544245D01*
X119899901Y-109507607D01*
X119816000Y-109438751D01*
X119747145Y-109354851D01*
X119695980Y-109259129D01*
X119664473Y-109155265D01*
X119656500Y-109074317D01*
X119656500Y-108420184D01*
X119664473Y-108339236D01*
X119695979Y-108235372D01*
X119747144Y-108139650D01*
X119815999Y-108055749D01*
X119899900Y-107986894D01*
X119899899Y-107986894D01*
X119899901Y-107986893D01*
X119951593Y-107959263D01*
X119995621Y-107935729D01*
X120099485Y-107904223D01*
X120207500Y-107893584D01*
X120315514Y-107904223D01*
X120315514Y-107904223D01*
G37*
G36*
X111675514Y-107904223D02*
G01*
X111779378Y-107935729D01*
X111823407Y-107959263D01*
X111875099Y-107986893D01*
X111875101Y-107986894D01*
X111875100Y-107986894D01*
X111959001Y-108055749D01*
X112027856Y-108139650D01*
X112079021Y-108235371D01*
X112110527Y-108339235D01*
X112118500Y-108420183D01*
X112118500Y-109074317D01*
X112110527Y-109155265D01*
X112079021Y-109259129D01*
X112079019Y-109259132D01*
X112027857Y-109354850D01*
X111959001Y-109438751D01*
X111875100Y-109507607D01*
X111806555Y-109544245D01*
X111779379Y-109558771D01*
X111675515Y-109590277D01*
X111567500Y-109600916D01*
X111459486Y-109590277D01*
X111355622Y-109558771D01*
X111328446Y-109544245D01*
X111259901Y-109507607D01*
X111176000Y-109438751D01*
X111107145Y-109354851D01*
X111055980Y-109259129D01*
X111024473Y-109155265D01*
X111016500Y-109074317D01*
X111016500Y-108420184D01*
X111024473Y-108339236D01*
X111055979Y-108235372D01*
X111107144Y-108139650D01*
X111175999Y-108055749D01*
X111259900Y-107986894D01*
X111259899Y-107986894D01*
X111259901Y-107986893D01*
X111311593Y-107959263D01*
X111355621Y-107935729D01*
X111459485Y-107904223D01*
X111567500Y-107893584D01*
X111675514Y-107904223D01*
X111675514Y-107904223D01*
G37*
G36*
X111675514Y-103474223D02*
G01*
X111779378Y-103505729D01*
X111823407Y-103529263D01*
X111875099Y-103556893D01*
X111875101Y-103556894D01*
X111875100Y-103556894D01*
X111959001Y-103625749D01*
X112027856Y-103709650D01*
X112079021Y-103805371D01*
X112110527Y-103909235D01*
X112118500Y-103990183D01*
X112118500Y-105144317D01*
X112110527Y-105225265D01*
X112079021Y-105329129D01*
X112074848Y-105336936D01*
X112027857Y-105424850D01*
X111959001Y-105508751D01*
X111875100Y-105577607D01*
X111806555Y-105614245D01*
X111779379Y-105628771D01*
X111675515Y-105660277D01*
X111567500Y-105670916D01*
X111459486Y-105660277D01*
X111355622Y-105628771D01*
X111328446Y-105614245D01*
X111259901Y-105577607D01*
X111176000Y-105508751D01*
X111107144Y-105424850D01*
X111060153Y-105336936D01*
X111055980Y-105329129D01*
X111024474Y-105225265D01*
X111016501Y-105144317D01*
X111016500Y-103990184D01*
X111024473Y-103909236D01*
X111055979Y-103805372D01*
X111107144Y-103709650D01*
X111175999Y-103625749D01*
X111259900Y-103556894D01*
X111259899Y-103556894D01*
X111259901Y-103556893D01*
X111311593Y-103529263D01*
X111355621Y-103505729D01*
X111459485Y-103474223D01*
X111567500Y-103463584D01*
X111675514Y-103474223D01*
X111675514Y-103474223D01*
G37*
G36*
X120315514Y-103474223D02*
G01*
X120419378Y-103505729D01*
X120463407Y-103529263D01*
X120515099Y-103556893D01*
X120515101Y-103556894D01*
X120515100Y-103556894D01*
X120599001Y-103625749D01*
X120667856Y-103709650D01*
X120719021Y-103805371D01*
X120750527Y-103909235D01*
X120758500Y-103990183D01*
X120758500Y-105144317D01*
X120750527Y-105225265D01*
X120719021Y-105329129D01*
X120714848Y-105336936D01*
X120667857Y-105424850D01*
X120599001Y-105508751D01*
X120515100Y-105577607D01*
X120446555Y-105614245D01*
X120419379Y-105628771D01*
X120315515Y-105660277D01*
X120207500Y-105670916D01*
X120099486Y-105660277D01*
X119995622Y-105628771D01*
X119968446Y-105614245D01*
X119899901Y-105577607D01*
X119816000Y-105508751D01*
X119747144Y-105424850D01*
X119700153Y-105336936D01*
X119695980Y-105329129D01*
X119664474Y-105225265D01*
X119656501Y-105144317D01*
X119656500Y-103990184D01*
X119664473Y-103909236D01*
X119695979Y-103805372D01*
X119747144Y-103709650D01*
X119815999Y-103625749D01*
X119899900Y-103556894D01*
X119899899Y-103556894D01*
X119899901Y-103556893D01*
X119951593Y-103529263D01*
X119995621Y-103505729D01*
X120099485Y-103474223D01*
X120207500Y-103463584D01*
X120315514Y-103474223D01*
X120315514Y-103474223D01*
G37*
G36*
X118887172Y-104735699D02*
G01*
X118887174Y-104735700D01*
X118887175Y-104735700D01*
X118955603Y-104764043D01*
X119017186Y-104805192D01*
X119069558Y-104857564D01*
X119110707Y-104919147D01*
X119139050Y-104987575D01*
X119153500Y-105060217D01*
X119153500Y-105134283D01*
X119139050Y-105206925D01*
X119110707Y-105275353D01*
X119069558Y-105336936D01*
X119017186Y-105389308D01*
X118955603Y-105430457D01*
X118887175Y-105458800D01*
X118887174Y-105458800D01*
X118887172Y-105458801D01*
X118814534Y-105473250D01*
X118740466Y-105473250D01*
X118667828Y-105458801D01*
X118667826Y-105458800D01*
X118667825Y-105458800D01*
X118599397Y-105430457D01*
X118537814Y-105389308D01*
X118485442Y-105336936D01*
X118444293Y-105275353D01*
X118415950Y-105206925D01*
X118401500Y-105134283D01*
X118401500Y-105060217D01*
X118415950Y-104987575D01*
X118444293Y-104919147D01*
X118485442Y-104857564D01*
X118537814Y-104805192D01*
X118599397Y-104764043D01*
X118667825Y-104735700D01*
X118667826Y-104735700D01*
X118667828Y-104735699D01*
X118740466Y-104721250D01*
X118814534Y-104721250D01*
X118887172Y-104735699D01*
X118887172Y-104735699D01*
G37*
G36*
X113107172Y-104735699D02*
G01*
X113107174Y-104735700D01*
X113107175Y-104735700D01*
X113175603Y-104764043D01*
X113237186Y-104805192D01*
X113289558Y-104857564D01*
X113330707Y-104919147D01*
X113359050Y-104987575D01*
X113373500Y-105060217D01*
X113373500Y-105134283D01*
X113359050Y-105206925D01*
X113330707Y-105275353D01*
X113289558Y-105336936D01*
X113237186Y-105389308D01*
X113175603Y-105430457D01*
X113107175Y-105458800D01*
X113107174Y-105458800D01*
X113107172Y-105458801D01*
X113034534Y-105473250D01*
X112960466Y-105473250D01*
X112887828Y-105458801D01*
X112887826Y-105458800D01*
X112887825Y-105458800D01*
X112819397Y-105430457D01*
X112757814Y-105389308D01*
X112705442Y-105336936D01*
X112664293Y-105275353D01*
X112635950Y-105206925D01*
X112621500Y-105134283D01*
X112621500Y-105060217D01*
X112635950Y-104987575D01*
X112664293Y-104919147D01*
X112705442Y-104857564D01*
X112757814Y-104805192D01*
X112819397Y-104764043D01*
X112887825Y-104735700D01*
X112887826Y-104735700D01*
X112887828Y-104735699D01*
X112960466Y-104721250D01*
X113034534Y-104721250D01*
X113107172Y-104735699D01*
X113107172Y-104735699D01*
G37*
G36*
X154980853Y-98829489D02*
G01*
X155047038Y-98836008D01*
X155216877Y-98887528D01*
X155373402Y-98971193D01*
X155409140Y-99000523D01*
X155510597Y-99083785D01*
X155593859Y-99185242D01*
X155623189Y-99220980D01*
X155706854Y-99377505D01*
X155758374Y-99547344D01*
X155775770Y-99723971D01*
X155758374Y-99900598D01*
X155706854Y-100070437D01*
X155623189Y-100226962D01*
X155593859Y-100262700D01*
X155510597Y-100364157D01*
X155409140Y-100447419D01*
X155373402Y-100476749D01*
X155216877Y-100560414D01*
X155047038Y-100611934D01*
X154980854Y-100618452D01*
X154914671Y-100624971D01*
X154826151Y-100624971D01*
X154759968Y-100618452D01*
X154693784Y-100611934D01*
X154523945Y-100560414D01*
X154367420Y-100476749D01*
X154331682Y-100447419D01*
X154230225Y-100364157D01*
X154146963Y-100262700D01*
X154117633Y-100226962D01*
X154033968Y-100070437D01*
X153982448Y-99900598D01*
X153965052Y-99723971D01*
X153982448Y-99547344D01*
X154033968Y-99377505D01*
X154117633Y-99220980D01*
X154146963Y-99185242D01*
X154230225Y-99083785D01*
X154331682Y-99000523D01*
X154367420Y-98971193D01*
X154523945Y-98887528D01*
X154693784Y-98836008D01*
X154759969Y-98829489D01*
X154826151Y-98822971D01*
X154914671Y-98822971D01*
X154980853Y-98829489D01*
X154980853Y-98829489D01*
G37*
G36*
X154980854Y-96289490D02*
G01*
X155047038Y-96296008D01*
X155216877Y-96347528D01*
X155373402Y-96431193D01*
X155409140Y-96460523D01*
X155510597Y-96543785D01*
X155593859Y-96645242D01*
X155623189Y-96680980D01*
X155706854Y-96837505D01*
X155758374Y-97007344D01*
X155775770Y-97183971D01*
X155758374Y-97360598D01*
X155706854Y-97530437D01*
X155623189Y-97686962D01*
X155593859Y-97722700D01*
X155510597Y-97824157D01*
X155409140Y-97907419D01*
X155373402Y-97936749D01*
X155216877Y-98020414D01*
X155047038Y-98071934D01*
X154980853Y-98078453D01*
X154914671Y-98084971D01*
X154826151Y-98084971D01*
X154759969Y-98078453D01*
X154693784Y-98071934D01*
X154523945Y-98020414D01*
X154367420Y-97936749D01*
X154331682Y-97907419D01*
X154230225Y-97824157D01*
X154146963Y-97722700D01*
X154117633Y-97686962D01*
X154033968Y-97530437D01*
X153982448Y-97360598D01*
X153965052Y-97183971D01*
X153982448Y-97007344D01*
X154033968Y-96837505D01*
X154117633Y-96680980D01*
X154146963Y-96645242D01*
X154230225Y-96543785D01*
X154331682Y-96460523D01*
X154367420Y-96431193D01*
X154523945Y-96347528D01*
X154693784Y-96296008D01*
X154759968Y-96289490D01*
X154826151Y-96282971D01*
X154914671Y-96282971D01*
X154980854Y-96289490D01*
X154980854Y-96289490D01*
G37*
G36*
X154980854Y-93749490D02*
G01*
X155047038Y-93756008D01*
X155216877Y-93807528D01*
X155373402Y-93891193D01*
X155409140Y-93920523D01*
X155510597Y-94003785D01*
X155593859Y-94105242D01*
X155623189Y-94140980D01*
X155706854Y-94297505D01*
X155758374Y-94467344D01*
X155775770Y-94643971D01*
X155758374Y-94820598D01*
X155706854Y-94990437D01*
X155623189Y-95146962D01*
X155593859Y-95182700D01*
X155510597Y-95284157D01*
X155409140Y-95367419D01*
X155373402Y-95396749D01*
X155216877Y-95480414D01*
X155047038Y-95531934D01*
X154980853Y-95538453D01*
X154914671Y-95544971D01*
X154826151Y-95544971D01*
X154759969Y-95538453D01*
X154693784Y-95531934D01*
X154523945Y-95480414D01*
X154367420Y-95396749D01*
X154331682Y-95367419D01*
X154230225Y-95284157D01*
X154146963Y-95182700D01*
X154117633Y-95146962D01*
X154033968Y-94990437D01*
X153982448Y-94820598D01*
X153965052Y-94643971D01*
X153982448Y-94467344D01*
X154033968Y-94297505D01*
X154117633Y-94140980D01*
X154146963Y-94105242D01*
X154230225Y-94003785D01*
X154331682Y-93920523D01*
X154367420Y-93891193D01*
X154523945Y-93807528D01*
X154693784Y-93756008D01*
X154759968Y-93749490D01*
X154826151Y-93742971D01*
X154914671Y-93742971D01*
X154980854Y-93749490D01*
X154980854Y-93749490D01*
G37*
G36*
X155771411Y-93004971D02*
G01*
X153969411Y-93004971D01*
X153969411Y-91202971D01*
X155771411Y-91202971D01*
X155771411Y-93004971D01*
X155771411Y-93004971D01*
G37*
G36*
X95360442Y-76099268D02*
G01*
X95426627Y-76105787D01*
X95596466Y-76157307D01*
X95752991Y-76240972D01*
X95788729Y-76270302D01*
X95890186Y-76353564D01*
X95973448Y-76455021D01*
X96002778Y-76490759D01*
X96086443Y-76647284D01*
X96137963Y-76817123D01*
X96155359Y-76993750D01*
X96137963Y-77170377D01*
X96086443Y-77340216D01*
X96002778Y-77496741D01*
X95973448Y-77532479D01*
X95890186Y-77633936D01*
X95788729Y-77717198D01*
X95752991Y-77746528D01*
X95596466Y-77830193D01*
X95426627Y-77881713D01*
X95360443Y-77888231D01*
X95294260Y-77894750D01*
X95205740Y-77894750D01*
X95139557Y-77888231D01*
X95073373Y-77881713D01*
X94903534Y-77830193D01*
X94747009Y-77746528D01*
X94711271Y-77717198D01*
X94609814Y-77633936D01*
X94526552Y-77532479D01*
X94497222Y-77496741D01*
X94413557Y-77340216D01*
X94362037Y-77170377D01*
X94344641Y-76993750D01*
X94362037Y-76817123D01*
X94413557Y-76647284D01*
X94497222Y-76490759D01*
X94526552Y-76455021D01*
X94609814Y-76353564D01*
X94711271Y-76270302D01*
X94747009Y-76240972D01*
X94903534Y-76157307D01*
X95073373Y-76105787D01*
X95139558Y-76099268D01*
X95205740Y-76092750D01*
X95294260Y-76092750D01*
X95360442Y-76099268D01*
X95360442Y-76099268D01*
G37*
G36*
X85200442Y-76099268D02*
G01*
X85266627Y-76105787D01*
X85436466Y-76157307D01*
X85592991Y-76240972D01*
X85628729Y-76270302D01*
X85730186Y-76353564D01*
X85813448Y-76455021D01*
X85842778Y-76490759D01*
X85926443Y-76647284D01*
X85977963Y-76817123D01*
X85995359Y-76993750D01*
X85977963Y-77170377D01*
X85926443Y-77340216D01*
X85842778Y-77496741D01*
X85813448Y-77532479D01*
X85730186Y-77633936D01*
X85628729Y-77717198D01*
X85592991Y-77746528D01*
X85436466Y-77830193D01*
X85266627Y-77881713D01*
X85200443Y-77888231D01*
X85134260Y-77894750D01*
X85045740Y-77894750D01*
X84979557Y-77888231D01*
X84913373Y-77881713D01*
X84743534Y-77830193D01*
X84587009Y-77746528D01*
X84551271Y-77717198D01*
X84449814Y-77633936D01*
X84366552Y-77532479D01*
X84337222Y-77496741D01*
X84253557Y-77340216D01*
X84202037Y-77170377D01*
X84184641Y-76993750D01*
X84202037Y-76817123D01*
X84253557Y-76647284D01*
X84337222Y-76490759D01*
X84366552Y-76455021D01*
X84449814Y-76353564D01*
X84551271Y-76270302D01*
X84587009Y-76240972D01*
X84743534Y-76157307D01*
X84913373Y-76105787D01*
X84979558Y-76099268D01*
X85045740Y-76092750D01*
X85134260Y-76092750D01*
X85200442Y-76099268D01*
X85200442Y-76099268D01*
G37*
G36*
X139651692Y-76099268D02*
G01*
X139717877Y-76105787D01*
X139887716Y-76157307D01*
X140044241Y-76240972D01*
X140079979Y-76270302D01*
X140181436Y-76353564D01*
X140264698Y-76455021D01*
X140294028Y-76490759D01*
X140377693Y-76647284D01*
X140429213Y-76817123D01*
X140446609Y-76993750D01*
X140429213Y-77170377D01*
X140377693Y-77340216D01*
X140294028Y-77496741D01*
X140264698Y-77532479D01*
X140181436Y-77633936D01*
X140079979Y-77717198D01*
X140044241Y-77746528D01*
X139887716Y-77830193D01*
X139717877Y-77881713D01*
X139651693Y-77888231D01*
X139585510Y-77894750D01*
X139496990Y-77894750D01*
X139430807Y-77888231D01*
X139364623Y-77881713D01*
X139194784Y-77830193D01*
X139038259Y-77746528D01*
X139002521Y-77717198D01*
X138901064Y-77633936D01*
X138817802Y-77532479D01*
X138788472Y-77496741D01*
X138704807Y-77340216D01*
X138653287Y-77170377D01*
X138635891Y-76993750D01*
X138653287Y-76817123D01*
X138704807Y-76647284D01*
X138788472Y-76490759D01*
X138817802Y-76455021D01*
X138901064Y-76353564D01*
X139002521Y-76270302D01*
X139038259Y-76240972D01*
X139194784Y-76157307D01*
X139364623Y-76105787D01*
X139430808Y-76099268D01*
X139496990Y-76092750D01*
X139585510Y-76092750D01*
X139651692Y-76099268D01*
X139651692Y-76099268D01*
G37*
G36*
X142191692Y-76099268D02*
G01*
X142257877Y-76105787D01*
X142427716Y-76157307D01*
X142584241Y-76240972D01*
X142619979Y-76270302D01*
X142721436Y-76353564D01*
X142804698Y-76455021D01*
X142834028Y-76490759D01*
X142917693Y-76647284D01*
X142969213Y-76817123D01*
X142986609Y-76993750D01*
X142969213Y-77170377D01*
X142917693Y-77340216D01*
X142834028Y-77496741D01*
X142804698Y-77532479D01*
X142721436Y-77633936D01*
X142619979Y-77717198D01*
X142584241Y-77746528D01*
X142427716Y-77830193D01*
X142257877Y-77881713D01*
X142191693Y-77888231D01*
X142125510Y-77894750D01*
X142036990Y-77894750D01*
X141970807Y-77888231D01*
X141904623Y-77881713D01*
X141734784Y-77830193D01*
X141578259Y-77746528D01*
X141542521Y-77717198D01*
X141441064Y-77633936D01*
X141357802Y-77532479D01*
X141328472Y-77496741D01*
X141244807Y-77340216D01*
X141193287Y-77170377D01*
X141175891Y-76993750D01*
X141193287Y-76817123D01*
X141244807Y-76647284D01*
X141328472Y-76490759D01*
X141357802Y-76455021D01*
X141441064Y-76353564D01*
X141542521Y-76270302D01*
X141578259Y-76240972D01*
X141734784Y-76157307D01*
X141904623Y-76105787D01*
X141970808Y-76099268D01*
X142036990Y-76092750D01*
X142125510Y-76092750D01*
X142191692Y-76099268D01*
X142191692Y-76099268D01*
G37*
G36*
X144731692Y-76099268D02*
G01*
X144797877Y-76105787D01*
X144967716Y-76157307D01*
X145124241Y-76240972D01*
X145159979Y-76270302D01*
X145261436Y-76353564D01*
X145344698Y-76455021D01*
X145374028Y-76490759D01*
X145457693Y-76647284D01*
X145509213Y-76817123D01*
X145526609Y-76993750D01*
X145509213Y-77170377D01*
X145457693Y-77340216D01*
X145374028Y-77496741D01*
X145344698Y-77532479D01*
X145261436Y-77633936D01*
X145159979Y-77717198D01*
X145124241Y-77746528D01*
X144967716Y-77830193D01*
X144797877Y-77881713D01*
X144731693Y-77888231D01*
X144665510Y-77894750D01*
X144576990Y-77894750D01*
X144510807Y-77888231D01*
X144444623Y-77881713D01*
X144274784Y-77830193D01*
X144118259Y-77746528D01*
X144082521Y-77717198D01*
X143981064Y-77633936D01*
X143897802Y-77532479D01*
X143868472Y-77496741D01*
X143784807Y-77340216D01*
X143733287Y-77170377D01*
X143715891Y-76993750D01*
X143733287Y-76817123D01*
X143784807Y-76647284D01*
X143868472Y-76490759D01*
X143897802Y-76455021D01*
X143981064Y-76353564D01*
X144082521Y-76270302D01*
X144118259Y-76240972D01*
X144274784Y-76157307D01*
X144444623Y-76105787D01*
X144510808Y-76099268D01*
X144576990Y-76092750D01*
X144665510Y-76092750D01*
X144731692Y-76099268D01*
X144731692Y-76099268D01*
G37*
G36*
X147271692Y-76099268D02*
G01*
X147337877Y-76105787D01*
X147507716Y-76157307D01*
X147664241Y-76240972D01*
X147699979Y-76270302D01*
X147801436Y-76353564D01*
X147884698Y-76455021D01*
X147914028Y-76490759D01*
X147997693Y-76647284D01*
X148049213Y-76817123D01*
X148066609Y-76993750D01*
X148049213Y-77170377D01*
X147997693Y-77340216D01*
X147914028Y-77496741D01*
X147884698Y-77532479D01*
X147801436Y-77633936D01*
X147699979Y-77717198D01*
X147664241Y-77746528D01*
X147507716Y-77830193D01*
X147337877Y-77881713D01*
X147271693Y-77888231D01*
X147205510Y-77894750D01*
X147116990Y-77894750D01*
X147050807Y-77888231D01*
X146984623Y-77881713D01*
X146814784Y-77830193D01*
X146658259Y-77746528D01*
X146622521Y-77717198D01*
X146521064Y-77633936D01*
X146437802Y-77532479D01*
X146408472Y-77496741D01*
X146324807Y-77340216D01*
X146273287Y-77170377D01*
X146255891Y-76993750D01*
X146273287Y-76817123D01*
X146324807Y-76647284D01*
X146408472Y-76490759D01*
X146437802Y-76455021D01*
X146521064Y-76353564D01*
X146622521Y-76270302D01*
X146658259Y-76240972D01*
X146814784Y-76157307D01*
X146984623Y-76105787D01*
X147050808Y-76099268D01*
X147116990Y-76092750D01*
X147205510Y-76092750D01*
X147271692Y-76099268D01*
X147271692Y-76099268D01*
G37*
G36*
X149811692Y-76099268D02*
G01*
X149877877Y-76105787D01*
X150047716Y-76157307D01*
X150204241Y-76240972D01*
X150239979Y-76270302D01*
X150341436Y-76353564D01*
X150424698Y-76455021D01*
X150454028Y-76490759D01*
X150537693Y-76647284D01*
X150589213Y-76817123D01*
X150606609Y-76993750D01*
X150589213Y-77170377D01*
X150537693Y-77340216D01*
X150454028Y-77496741D01*
X150424698Y-77532479D01*
X150341436Y-77633936D01*
X150239979Y-77717198D01*
X150204241Y-77746528D01*
X150047716Y-77830193D01*
X149877877Y-77881713D01*
X149811693Y-77888231D01*
X149745510Y-77894750D01*
X149656990Y-77894750D01*
X149590807Y-77888231D01*
X149524623Y-77881713D01*
X149354784Y-77830193D01*
X149198259Y-77746528D01*
X149162521Y-77717198D01*
X149061064Y-77633936D01*
X148977802Y-77532479D01*
X148948472Y-77496741D01*
X148864807Y-77340216D01*
X148813287Y-77170377D01*
X148795891Y-76993750D01*
X148813287Y-76817123D01*
X148864807Y-76647284D01*
X148948472Y-76490759D01*
X148977802Y-76455021D01*
X149061064Y-76353564D01*
X149162521Y-76270302D01*
X149198259Y-76240972D01*
X149354784Y-76157307D01*
X149524623Y-76105787D01*
X149590808Y-76099268D01*
X149656990Y-76092750D01*
X149745510Y-76092750D01*
X149811692Y-76099268D01*
X149811692Y-76099268D01*
G37*
G36*
X152351692Y-76099268D02*
G01*
X152417877Y-76105787D01*
X152587716Y-76157307D01*
X152744241Y-76240972D01*
X152779979Y-76270302D01*
X152881436Y-76353564D01*
X152964698Y-76455021D01*
X152994028Y-76490759D01*
X153077693Y-76647284D01*
X153129213Y-76817123D01*
X153146609Y-76993750D01*
X153129213Y-77170377D01*
X153077693Y-77340216D01*
X152994028Y-77496741D01*
X152964698Y-77532479D01*
X152881436Y-77633936D01*
X152779979Y-77717198D01*
X152744241Y-77746528D01*
X152587716Y-77830193D01*
X152417877Y-77881713D01*
X152351693Y-77888231D01*
X152285510Y-77894750D01*
X152196990Y-77894750D01*
X152130807Y-77888231D01*
X152064623Y-77881713D01*
X151894784Y-77830193D01*
X151738259Y-77746528D01*
X151702521Y-77717198D01*
X151601064Y-77633936D01*
X151517802Y-77532479D01*
X151488472Y-77496741D01*
X151404807Y-77340216D01*
X151353287Y-77170377D01*
X151335891Y-76993750D01*
X151353287Y-76817123D01*
X151404807Y-76647284D01*
X151488472Y-76490759D01*
X151517802Y-76455021D01*
X151601064Y-76353564D01*
X151702521Y-76270302D01*
X151738259Y-76240972D01*
X151894784Y-76157307D01*
X152064623Y-76105787D01*
X152130808Y-76099268D01*
X152196990Y-76092750D01*
X152285510Y-76092750D01*
X152351692Y-76099268D01*
X152351692Y-76099268D01*
G37*
G36*
X155682250Y-77894750D02*
G01*
X153880250Y-77894750D01*
X153880250Y-76092750D01*
X155682250Y-76092750D01*
X155682250Y-77894750D01*
X155682250Y-77894750D01*
G37*
G36*
X87740442Y-76099268D02*
G01*
X87806627Y-76105787D01*
X87976466Y-76157307D01*
X88132991Y-76240972D01*
X88168729Y-76270302D01*
X88270186Y-76353564D01*
X88353448Y-76455021D01*
X88382778Y-76490759D01*
X88466443Y-76647284D01*
X88517963Y-76817123D01*
X88535359Y-76993750D01*
X88517963Y-77170377D01*
X88466443Y-77340216D01*
X88382778Y-77496741D01*
X88353448Y-77532479D01*
X88270186Y-77633936D01*
X88168729Y-77717198D01*
X88132991Y-77746528D01*
X87976466Y-77830193D01*
X87806627Y-77881713D01*
X87740443Y-77888231D01*
X87674260Y-77894750D01*
X87585740Y-77894750D01*
X87519557Y-77888231D01*
X87453373Y-77881713D01*
X87283534Y-77830193D01*
X87127009Y-77746528D01*
X87091271Y-77717198D01*
X86989814Y-77633936D01*
X86906552Y-77532479D01*
X86877222Y-77496741D01*
X86793557Y-77340216D01*
X86742037Y-77170377D01*
X86724641Y-76993750D01*
X86742037Y-76817123D01*
X86793557Y-76647284D01*
X86877222Y-76490759D01*
X86906552Y-76455021D01*
X86989814Y-76353564D01*
X87091271Y-76270302D01*
X87127009Y-76240972D01*
X87283534Y-76157307D01*
X87453373Y-76105787D01*
X87519558Y-76099268D01*
X87585740Y-76092750D01*
X87674260Y-76092750D01*
X87740442Y-76099268D01*
X87740442Y-76099268D01*
G37*
G36*
X92820442Y-76099268D02*
G01*
X92886627Y-76105787D01*
X93056466Y-76157307D01*
X93212991Y-76240972D01*
X93248729Y-76270302D01*
X93350186Y-76353564D01*
X93433448Y-76455021D01*
X93462778Y-76490759D01*
X93546443Y-76647284D01*
X93597963Y-76817123D01*
X93615359Y-76993750D01*
X93597963Y-77170377D01*
X93546443Y-77340216D01*
X93462778Y-77496741D01*
X93433448Y-77532479D01*
X93350186Y-77633936D01*
X93248729Y-77717198D01*
X93212991Y-77746528D01*
X93056466Y-77830193D01*
X92886627Y-77881713D01*
X92820443Y-77888231D01*
X92754260Y-77894750D01*
X92665740Y-77894750D01*
X92599557Y-77888231D01*
X92533373Y-77881713D01*
X92363534Y-77830193D01*
X92207009Y-77746528D01*
X92171271Y-77717198D01*
X92069814Y-77633936D01*
X91986552Y-77532479D01*
X91957222Y-77496741D01*
X91873557Y-77340216D01*
X91822037Y-77170377D01*
X91804641Y-76993750D01*
X91822037Y-76817123D01*
X91873557Y-76647284D01*
X91957222Y-76490759D01*
X91986552Y-76455021D01*
X92069814Y-76353564D01*
X92171271Y-76270302D01*
X92207009Y-76240972D01*
X92363534Y-76157307D01*
X92533373Y-76105787D01*
X92599558Y-76099268D01*
X92665740Y-76092750D01*
X92754260Y-76092750D01*
X92820442Y-76099268D01*
X92820442Y-76099268D01*
G37*
G36*
X90280442Y-76099268D02*
G01*
X90346627Y-76105787D01*
X90516466Y-76157307D01*
X90672991Y-76240972D01*
X90708729Y-76270302D01*
X90810186Y-76353564D01*
X90893448Y-76455021D01*
X90922778Y-76490759D01*
X91006443Y-76647284D01*
X91057963Y-76817123D01*
X91075359Y-76993750D01*
X91057963Y-77170377D01*
X91006443Y-77340216D01*
X90922778Y-77496741D01*
X90893448Y-77532479D01*
X90810186Y-77633936D01*
X90708729Y-77717198D01*
X90672991Y-77746528D01*
X90516466Y-77830193D01*
X90346627Y-77881713D01*
X90280443Y-77888231D01*
X90214260Y-77894750D01*
X90125740Y-77894750D01*
X90059557Y-77888231D01*
X89993373Y-77881713D01*
X89823534Y-77830193D01*
X89667009Y-77746528D01*
X89631271Y-77717198D01*
X89529814Y-77633936D01*
X89446552Y-77532479D01*
X89417222Y-77496741D01*
X89333557Y-77340216D01*
X89282037Y-77170377D01*
X89264641Y-76993750D01*
X89282037Y-76817123D01*
X89333557Y-76647284D01*
X89417222Y-76490759D01*
X89446552Y-76455021D01*
X89529814Y-76353564D01*
X89631271Y-76270302D01*
X89667009Y-76240972D01*
X89823534Y-76157307D01*
X89993373Y-76105787D01*
X90059558Y-76099268D01*
X90125740Y-76092750D01*
X90214260Y-76092750D01*
X90280442Y-76099268D01*
X90280442Y-76099268D01*
G37*
G36*
X124091000Y-77894750D02*
G01*
X122289000Y-77894750D01*
X122289000Y-76092750D01*
X124091000Y-76092750D01*
X124091000Y-77894750D01*
X124091000Y-77894750D01*
G37*
G36*
X120760442Y-76099268D02*
G01*
X120826627Y-76105787D01*
X120996466Y-76157307D01*
X121152991Y-76240972D01*
X121188729Y-76270302D01*
X121290186Y-76353564D01*
X121373448Y-76455021D01*
X121402778Y-76490759D01*
X121486443Y-76647284D01*
X121537963Y-76817123D01*
X121555359Y-76993750D01*
X121537963Y-77170377D01*
X121486443Y-77340216D01*
X121402778Y-77496741D01*
X121373448Y-77532479D01*
X121290186Y-77633936D01*
X121188729Y-77717198D01*
X121152991Y-77746528D01*
X120996466Y-77830193D01*
X120826627Y-77881713D01*
X120760443Y-77888231D01*
X120694260Y-77894750D01*
X120605740Y-77894750D01*
X120539557Y-77888231D01*
X120473373Y-77881713D01*
X120303534Y-77830193D01*
X120147009Y-77746528D01*
X120111271Y-77717198D01*
X120009814Y-77633936D01*
X119926552Y-77532479D01*
X119897222Y-77496741D01*
X119813557Y-77340216D01*
X119762037Y-77170377D01*
X119744641Y-76993750D01*
X119762037Y-76817123D01*
X119813557Y-76647284D01*
X119897222Y-76490759D01*
X119926552Y-76455021D01*
X120009814Y-76353564D01*
X120111271Y-76270302D01*
X120147009Y-76240972D01*
X120303534Y-76157307D01*
X120473373Y-76105787D01*
X120539558Y-76099268D01*
X120605740Y-76092750D01*
X120694260Y-76092750D01*
X120760442Y-76099268D01*
X120760442Y-76099268D01*
G37*
G36*
X118220442Y-76099268D02*
G01*
X118286627Y-76105787D01*
X118456466Y-76157307D01*
X118612991Y-76240972D01*
X118648729Y-76270302D01*
X118750186Y-76353564D01*
X118833448Y-76455021D01*
X118862778Y-76490759D01*
X118946443Y-76647284D01*
X118997963Y-76817123D01*
X119015359Y-76993750D01*
X118997963Y-77170377D01*
X118946443Y-77340216D01*
X118862778Y-77496741D01*
X118833448Y-77532479D01*
X118750186Y-77633936D01*
X118648729Y-77717198D01*
X118612991Y-77746528D01*
X118456466Y-77830193D01*
X118286627Y-77881713D01*
X118220443Y-77888231D01*
X118154260Y-77894750D01*
X118065740Y-77894750D01*
X117999557Y-77888231D01*
X117933373Y-77881713D01*
X117763534Y-77830193D01*
X117607009Y-77746528D01*
X117571271Y-77717198D01*
X117469814Y-77633936D01*
X117386552Y-77532479D01*
X117357222Y-77496741D01*
X117273557Y-77340216D01*
X117222037Y-77170377D01*
X117204641Y-76993750D01*
X117222037Y-76817123D01*
X117273557Y-76647284D01*
X117357222Y-76490759D01*
X117386552Y-76455021D01*
X117469814Y-76353564D01*
X117571271Y-76270302D01*
X117607009Y-76240972D01*
X117763534Y-76157307D01*
X117933373Y-76105787D01*
X117999558Y-76099268D01*
X118065740Y-76092750D01*
X118154260Y-76092750D01*
X118220442Y-76099268D01*
X118220442Y-76099268D01*
G37*
G36*
X115680442Y-76099268D02*
G01*
X115746627Y-76105787D01*
X115916466Y-76157307D01*
X116072991Y-76240972D01*
X116108729Y-76270302D01*
X116210186Y-76353564D01*
X116293448Y-76455021D01*
X116322778Y-76490759D01*
X116406443Y-76647284D01*
X116457963Y-76817123D01*
X116475359Y-76993750D01*
X116457963Y-77170377D01*
X116406443Y-77340216D01*
X116322778Y-77496741D01*
X116293448Y-77532479D01*
X116210186Y-77633936D01*
X116108729Y-77717198D01*
X116072991Y-77746528D01*
X115916466Y-77830193D01*
X115746627Y-77881713D01*
X115680443Y-77888231D01*
X115614260Y-77894750D01*
X115525740Y-77894750D01*
X115459557Y-77888231D01*
X115393373Y-77881713D01*
X115223534Y-77830193D01*
X115067009Y-77746528D01*
X115031271Y-77717198D01*
X114929814Y-77633936D01*
X114846552Y-77532479D01*
X114817222Y-77496741D01*
X114733557Y-77340216D01*
X114682037Y-77170377D01*
X114664641Y-76993750D01*
X114682037Y-76817123D01*
X114733557Y-76647284D01*
X114817222Y-76490759D01*
X114846552Y-76455021D01*
X114929814Y-76353564D01*
X115031271Y-76270302D01*
X115067009Y-76240972D01*
X115223534Y-76157307D01*
X115393373Y-76105787D01*
X115459558Y-76099268D01*
X115525740Y-76092750D01*
X115614260Y-76092750D01*
X115680442Y-76099268D01*
X115680442Y-76099268D01*
G37*
G36*
X113140442Y-76099268D02*
G01*
X113206627Y-76105787D01*
X113376466Y-76157307D01*
X113532991Y-76240972D01*
X113568729Y-76270302D01*
X113670186Y-76353564D01*
X113753448Y-76455021D01*
X113782778Y-76490759D01*
X113866443Y-76647284D01*
X113917963Y-76817123D01*
X113935359Y-76993750D01*
X113917963Y-77170377D01*
X113866443Y-77340216D01*
X113782778Y-77496741D01*
X113753448Y-77532479D01*
X113670186Y-77633936D01*
X113568729Y-77717198D01*
X113532991Y-77746528D01*
X113376466Y-77830193D01*
X113206627Y-77881713D01*
X113140443Y-77888231D01*
X113074260Y-77894750D01*
X112985740Y-77894750D01*
X112919557Y-77888231D01*
X112853373Y-77881713D01*
X112683534Y-77830193D01*
X112527009Y-77746528D01*
X112491271Y-77717198D01*
X112389814Y-77633936D01*
X112306552Y-77532479D01*
X112277222Y-77496741D01*
X112193557Y-77340216D01*
X112142037Y-77170377D01*
X112124641Y-76993750D01*
X112142037Y-76817123D01*
X112193557Y-76647284D01*
X112277222Y-76490759D01*
X112306552Y-76455021D01*
X112389814Y-76353564D01*
X112491271Y-76270302D01*
X112527009Y-76240972D01*
X112683534Y-76157307D01*
X112853373Y-76105787D01*
X112919558Y-76099268D01*
X112985740Y-76092750D01*
X113074260Y-76092750D01*
X113140442Y-76099268D01*
X113140442Y-76099268D01*
G37*
G36*
X110600442Y-76099268D02*
G01*
X110666627Y-76105787D01*
X110836466Y-76157307D01*
X110992991Y-76240972D01*
X111028729Y-76270302D01*
X111130186Y-76353564D01*
X111213448Y-76455021D01*
X111242778Y-76490759D01*
X111326443Y-76647284D01*
X111377963Y-76817123D01*
X111395359Y-76993750D01*
X111377963Y-77170377D01*
X111326443Y-77340216D01*
X111242778Y-77496741D01*
X111213448Y-77532479D01*
X111130186Y-77633936D01*
X111028729Y-77717198D01*
X110992991Y-77746528D01*
X110836466Y-77830193D01*
X110666627Y-77881713D01*
X110600443Y-77888231D01*
X110534260Y-77894750D01*
X110445740Y-77894750D01*
X110379557Y-77888231D01*
X110313373Y-77881713D01*
X110143534Y-77830193D01*
X109987009Y-77746528D01*
X109951271Y-77717198D01*
X109849814Y-77633936D01*
X109766552Y-77532479D01*
X109737222Y-77496741D01*
X109653557Y-77340216D01*
X109602037Y-77170377D01*
X109584641Y-76993750D01*
X109602037Y-76817123D01*
X109653557Y-76647284D01*
X109737222Y-76490759D01*
X109766552Y-76455021D01*
X109849814Y-76353564D01*
X109951271Y-76270302D01*
X109987009Y-76240972D01*
X110143534Y-76157307D01*
X110313373Y-76105787D01*
X110379558Y-76099268D01*
X110445740Y-76092750D01*
X110534260Y-76092750D01*
X110600442Y-76099268D01*
X110600442Y-76099268D01*
G37*
G36*
X108060442Y-76099268D02*
G01*
X108126627Y-76105787D01*
X108296466Y-76157307D01*
X108452991Y-76240972D01*
X108488729Y-76270302D01*
X108590186Y-76353564D01*
X108673448Y-76455021D01*
X108702778Y-76490759D01*
X108786443Y-76647284D01*
X108837963Y-76817123D01*
X108855359Y-76993750D01*
X108837963Y-77170377D01*
X108786443Y-77340216D01*
X108702778Y-77496741D01*
X108673448Y-77532479D01*
X108590186Y-77633936D01*
X108488729Y-77717198D01*
X108452991Y-77746528D01*
X108296466Y-77830193D01*
X108126627Y-77881713D01*
X108060443Y-77888231D01*
X107994260Y-77894750D01*
X107905740Y-77894750D01*
X107839557Y-77888231D01*
X107773373Y-77881713D01*
X107603534Y-77830193D01*
X107447009Y-77746528D01*
X107411271Y-77717198D01*
X107309814Y-77633936D01*
X107226552Y-77532479D01*
X107197222Y-77496741D01*
X107113557Y-77340216D01*
X107062037Y-77170377D01*
X107044641Y-76993750D01*
X107062037Y-76817123D01*
X107113557Y-76647284D01*
X107197222Y-76490759D01*
X107226552Y-76455021D01*
X107309814Y-76353564D01*
X107411271Y-76270302D01*
X107447009Y-76240972D01*
X107603534Y-76157307D01*
X107773373Y-76105787D01*
X107839558Y-76099268D01*
X107905740Y-76092750D01*
X107994260Y-76092750D01*
X108060442Y-76099268D01*
X108060442Y-76099268D01*
G37*
G36*
X105520442Y-76099268D02*
G01*
X105586627Y-76105787D01*
X105756466Y-76157307D01*
X105912991Y-76240972D01*
X105948729Y-76270302D01*
X106050186Y-76353564D01*
X106133448Y-76455021D01*
X106162778Y-76490759D01*
X106246443Y-76647284D01*
X106297963Y-76817123D01*
X106315359Y-76993750D01*
X106297963Y-77170377D01*
X106246443Y-77340216D01*
X106162778Y-77496741D01*
X106133448Y-77532479D01*
X106050186Y-77633936D01*
X105948729Y-77717198D01*
X105912991Y-77746528D01*
X105756466Y-77830193D01*
X105586627Y-77881713D01*
X105520443Y-77888231D01*
X105454260Y-77894750D01*
X105365740Y-77894750D01*
X105299557Y-77888231D01*
X105233373Y-77881713D01*
X105063534Y-77830193D01*
X104907009Y-77746528D01*
X104871271Y-77717198D01*
X104769814Y-77633936D01*
X104686552Y-77532479D01*
X104657222Y-77496741D01*
X104573557Y-77340216D01*
X104522037Y-77170377D01*
X104504641Y-76993750D01*
X104522037Y-76817123D01*
X104573557Y-76647284D01*
X104657222Y-76490759D01*
X104686552Y-76455021D01*
X104769814Y-76353564D01*
X104871271Y-76270302D01*
X104907009Y-76240972D01*
X105063534Y-76157307D01*
X105233373Y-76105787D01*
X105299558Y-76099268D01*
X105365740Y-76092750D01*
X105454260Y-76092750D01*
X105520442Y-76099268D01*
X105520442Y-76099268D01*
G37*
G36*
X102980442Y-76099268D02*
G01*
X103046627Y-76105787D01*
X103216466Y-76157307D01*
X103372991Y-76240972D01*
X103408729Y-76270302D01*
X103510186Y-76353564D01*
X103593448Y-76455021D01*
X103622778Y-76490759D01*
X103706443Y-76647284D01*
X103757963Y-76817123D01*
X103775359Y-76993750D01*
X103757963Y-77170377D01*
X103706443Y-77340216D01*
X103622778Y-77496741D01*
X103593448Y-77532479D01*
X103510186Y-77633936D01*
X103408729Y-77717198D01*
X103372991Y-77746528D01*
X103216466Y-77830193D01*
X103046627Y-77881713D01*
X102980443Y-77888231D01*
X102914260Y-77894750D01*
X102825740Y-77894750D01*
X102759557Y-77888231D01*
X102693373Y-77881713D01*
X102523534Y-77830193D01*
X102367009Y-77746528D01*
X102331271Y-77717198D01*
X102229814Y-77633936D01*
X102146552Y-77532479D01*
X102117222Y-77496741D01*
X102033557Y-77340216D01*
X101982037Y-77170377D01*
X101964641Y-76993750D01*
X101982037Y-76817123D01*
X102033557Y-76647284D01*
X102117222Y-76490759D01*
X102146552Y-76455021D01*
X102229814Y-76353564D01*
X102331271Y-76270302D01*
X102367009Y-76240972D01*
X102523534Y-76157307D01*
X102693373Y-76105787D01*
X102759558Y-76099268D01*
X102825740Y-76092750D01*
X102914260Y-76092750D01*
X102980442Y-76099268D01*
X102980442Y-76099268D01*
G37*
G36*
X100440442Y-76099268D02*
G01*
X100506627Y-76105787D01*
X100676466Y-76157307D01*
X100832991Y-76240972D01*
X100868729Y-76270302D01*
X100970186Y-76353564D01*
X101053448Y-76455021D01*
X101082778Y-76490759D01*
X101166443Y-76647284D01*
X101217963Y-76817123D01*
X101235359Y-76993750D01*
X101217963Y-77170377D01*
X101166443Y-77340216D01*
X101082778Y-77496741D01*
X101053448Y-77532479D01*
X100970186Y-77633936D01*
X100868729Y-77717198D01*
X100832991Y-77746528D01*
X100676466Y-77830193D01*
X100506627Y-77881713D01*
X100440443Y-77888231D01*
X100374260Y-77894750D01*
X100285740Y-77894750D01*
X100219557Y-77888231D01*
X100153373Y-77881713D01*
X99983534Y-77830193D01*
X99827009Y-77746528D01*
X99791271Y-77717198D01*
X99689814Y-77633936D01*
X99606552Y-77532479D01*
X99577222Y-77496741D01*
X99493557Y-77340216D01*
X99442037Y-77170377D01*
X99424641Y-76993750D01*
X99442037Y-76817123D01*
X99493557Y-76647284D01*
X99577222Y-76490759D01*
X99606552Y-76455021D01*
X99689814Y-76353564D01*
X99791271Y-76270302D01*
X99827009Y-76240972D01*
X99983534Y-76157307D01*
X100153373Y-76105787D01*
X100219558Y-76099268D01*
X100285740Y-76092750D01*
X100374260Y-76092750D01*
X100440442Y-76099268D01*
X100440442Y-76099268D01*
G37*
G36*
X97900442Y-76099268D02*
G01*
X97966627Y-76105787D01*
X98136466Y-76157307D01*
X98292991Y-76240972D01*
X98328729Y-76270302D01*
X98430186Y-76353564D01*
X98513448Y-76455021D01*
X98542778Y-76490759D01*
X98626443Y-76647284D01*
X98677963Y-76817123D01*
X98695359Y-76993750D01*
X98677963Y-77170377D01*
X98626443Y-77340216D01*
X98542778Y-77496741D01*
X98513448Y-77532479D01*
X98430186Y-77633936D01*
X98328729Y-77717198D01*
X98292991Y-77746528D01*
X98136466Y-77830193D01*
X97966627Y-77881713D01*
X97900443Y-77888231D01*
X97834260Y-77894750D01*
X97745740Y-77894750D01*
X97679557Y-77888231D01*
X97613373Y-77881713D01*
X97443534Y-77830193D01*
X97287009Y-77746528D01*
X97251271Y-77717198D01*
X97149814Y-77633936D01*
X97066552Y-77532479D01*
X97037222Y-77496741D01*
X96953557Y-77340216D01*
X96902037Y-77170377D01*
X96884641Y-76993750D01*
X96902037Y-76817123D01*
X96953557Y-76647284D01*
X97037222Y-76490759D01*
X97066552Y-76455021D01*
X97149814Y-76353564D01*
X97251271Y-76270302D01*
X97287009Y-76240972D01*
X97443534Y-76157307D01*
X97613373Y-76105787D01*
X97679558Y-76099268D01*
X97745740Y-76092750D01*
X97834260Y-76092750D01*
X97900442Y-76099268D01*
X97900442Y-76099268D01*
G37*
G36*
X137111692Y-76099268D02*
G01*
X137177877Y-76105787D01*
X137347716Y-76157307D01*
X137504241Y-76240972D01*
X137539979Y-76270302D01*
X137641436Y-76353564D01*
X137724698Y-76455021D01*
X137754028Y-76490759D01*
X137837693Y-76647284D01*
X137889213Y-76817123D01*
X137906609Y-76993750D01*
X137889213Y-77170377D01*
X137837693Y-77340216D01*
X137754028Y-77496741D01*
X137724698Y-77532479D01*
X137641436Y-77633936D01*
X137539979Y-77717198D01*
X137504241Y-77746528D01*
X137347716Y-77830193D01*
X137177877Y-77881713D01*
X137111693Y-77888231D01*
X137045510Y-77894750D01*
X136956990Y-77894750D01*
X136890807Y-77888231D01*
X136824623Y-77881713D01*
X136654784Y-77830193D01*
X136498259Y-77746528D01*
X136462521Y-77717198D01*
X136361064Y-77633936D01*
X136277802Y-77532479D01*
X136248472Y-77496741D01*
X136164807Y-77340216D01*
X136113287Y-77170377D01*
X136095891Y-76993750D01*
X136113287Y-76817123D01*
X136164807Y-76647284D01*
X136248472Y-76490759D01*
X136277802Y-76455021D01*
X136361064Y-76353564D01*
X136462521Y-76270302D01*
X136498259Y-76240972D01*
X136654784Y-76157307D01*
X136824623Y-76105787D01*
X136890808Y-76099268D01*
X136956990Y-76092750D01*
X137045510Y-76092750D01*
X137111692Y-76099268D01*
X137111692Y-76099268D01*
G37*
M02*
